%TF.GenerationSoftware,KiCad,Pcbnew,(5.1.6-0-10_14)*%
%TF.CreationDate,2021-03-20T13:28:09-06:00*%
%TF.ProjectId,rf_dummy_50ohm_20W,72665f64-756d-46d7-995f-35306f686d5f,rev?*%
%TF.SameCoordinates,Original*%
%TF.FileFunction,Legend,Top*%
%TF.FilePolarity,Positive*%
%FSLAX46Y46*%
G04 Gerber Fmt 4.6, Leading zero omitted, Abs format (unit mm)*
G04 Created by KiCad (PCBNEW (5.1.6-0-10_14)) date 2021-03-20 13:28:09*
%MOMM*%
%LPD*%
G01*
G04 APERTURE LIST*
%ADD10C,0.127000*%
%ADD11C,0.190500*%
%ADD12C,0.120000*%
%ADD13C,0.150000*%
%ADD14O,1.700000X1.700000*%
%ADD15C,1.700000*%
%ADD16O,1.600000X1.600000*%
%ADD17R,1.600000X1.600000*%
%ADD18R,7.100000X7.100000*%
%ADD19R,3.600000X2.100000*%
%ADD20C,2.100000*%
%ADD21C,3.100000*%
%ADD22R,1.850000X0.550000*%
%ADD23R,1.000000X0.900000*%
%ADD24C,0.100000*%
%ADD25R,1.000000X1.400000*%
%ADD26O,1.800000X1.800000*%
%ADD27R,1.800000X1.800000*%
G04 APERTURE END LIST*
D10*
X187349190Y-107221261D02*
X187179857Y-106918880D01*
X187058904Y-107221261D02*
X187058904Y-106586261D01*
X187252428Y-106586261D01*
X187300809Y-106616500D01*
X187325000Y-106646738D01*
X187349190Y-106707214D01*
X187349190Y-106797928D01*
X187325000Y-106858404D01*
X187300809Y-106888642D01*
X187252428Y-106918880D01*
X187058904Y-106918880D01*
X187736238Y-106888642D02*
X187566904Y-106888642D01*
X187566904Y-107221261D02*
X187566904Y-106586261D01*
X187808809Y-106586261D01*
X188002333Y-106979357D02*
X188389380Y-106979357D01*
X188582904Y-106586261D02*
X188897380Y-106586261D01*
X188728047Y-106828166D01*
X188800619Y-106828166D01*
X188849000Y-106858404D01*
X188873190Y-106888642D01*
X188897380Y-106949119D01*
X188897380Y-107100309D01*
X188873190Y-107160785D01*
X188849000Y-107191023D01*
X188800619Y-107221261D01*
X188655476Y-107221261D01*
X188607095Y-107191023D01*
X188582904Y-107160785D01*
X189066714Y-106586261D02*
X189381190Y-106586261D01*
X189211857Y-106828166D01*
X189284428Y-106828166D01*
X189332809Y-106858404D01*
X189357000Y-106888642D01*
X189381190Y-106949119D01*
X189381190Y-107100309D01*
X189357000Y-107160785D01*
X189332809Y-107191023D01*
X189284428Y-107221261D01*
X189139285Y-107221261D01*
X189090904Y-107191023D01*
X189066714Y-107160785D01*
X189865000Y-107221261D02*
X189574714Y-107221261D01*
X189719857Y-107221261D02*
X189719857Y-106586261D01*
X189671476Y-106676976D01*
X189623095Y-106737452D01*
X189574714Y-106767690D01*
X190760047Y-107221261D02*
X190590714Y-106918880D01*
X190469761Y-107221261D02*
X190469761Y-106586261D01*
X190663285Y-106586261D01*
X190711666Y-106616500D01*
X190735857Y-106646738D01*
X190760047Y-106707214D01*
X190760047Y-106797928D01*
X190735857Y-106858404D01*
X190711666Y-106888642D01*
X190663285Y-106918880D01*
X190469761Y-106918880D01*
X191171285Y-107191023D02*
X191122904Y-107221261D01*
X191026142Y-107221261D01*
X190977761Y-107191023D01*
X190953571Y-107130547D01*
X190953571Y-106888642D01*
X190977761Y-106828166D01*
X191026142Y-106797928D01*
X191122904Y-106797928D01*
X191171285Y-106828166D01*
X191195476Y-106888642D01*
X191195476Y-106949119D01*
X190953571Y-107009595D01*
X191364809Y-106797928D02*
X191485761Y-107221261D01*
X191606714Y-106797928D01*
X191800238Y-107160785D02*
X191824428Y-107191023D01*
X191800238Y-107221261D01*
X191776047Y-107191023D01*
X191800238Y-107160785D01*
X191800238Y-107221261D01*
X192380809Y-106586261D02*
X192695285Y-106586261D01*
X192525952Y-106828166D01*
X192598523Y-106828166D01*
X192646904Y-106858404D01*
X192671095Y-106888642D01*
X192695285Y-106949119D01*
X192695285Y-107100309D01*
X192671095Y-107160785D01*
X192646904Y-107191023D01*
X192598523Y-107221261D01*
X192453380Y-107221261D01*
X192405000Y-107191023D01*
X192380809Y-107160785D01*
D11*
X188207952Y-87069083D02*
X188873190Y-87069083D01*
X188074904Y-87359369D02*
X188540571Y-86343369D01*
X189006238Y-87359369D01*
X189405380Y-87310988D02*
X189604952Y-87359369D01*
X189937571Y-87359369D01*
X190070619Y-87310988D01*
X190137142Y-87262607D01*
X190203666Y-87165845D01*
X190203666Y-87069083D01*
X190137142Y-86972321D01*
X190070619Y-86923940D01*
X189937571Y-86875559D01*
X189671476Y-86827178D01*
X189538428Y-86778797D01*
X189471904Y-86730416D01*
X189405380Y-86633654D01*
X189405380Y-86536892D01*
X189471904Y-86440130D01*
X189538428Y-86391750D01*
X189671476Y-86343369D01*
X190004095Y-86343369D01*
X190203666Y-86391750D01*
X190802380Y-87359369D02*
X190802380Y-86343369D01*
X191268047Y-87069083D01*
X191733714Y-86343369D01*
X191733714Y-87359369D01*
X192199380Y-86343369D02*
X192665047Y-87359369D01*
X193130714Y-86343369D01*
X186511595Y-88541678D02*
X186977261Y-88541678D01*
X187176833Y-89073869D02*
X186511595Y-89073869D01*
X186511595Y-88057869D01*
X187176833Y-88057869D01*
X187975119Y-89073869D02*
X187842071Y-89025488D01*
X187775547Y-88928726D01*
X187775547Y-88057869D01*
X189039500Y-89025488D02*
X188906452Y-89073869D01*
X188640357Y-89073869D01*
X188507309Y-89025488D01*
X188440785Y-88928726D01*
X188440785Y-88541678D01*
X188507309Y-88444916D01*
X188640357Y-88396535D01*
X188906452Y-88396535D01*
X189039500Y-88444916D01*
X189106023Y-88541678D01*
X189106023Y-88638440D01*
X188440785Y-88735202D01*
X190303452Y-89025488D02*
X190170404Y-89073869D01*
X189904309Y-89073869D01*
X189771261Y-89025488D01*
X189704738Y-88977107D01*
X189638214Y-88880345D01*
X189638214Y-88590059D01*
X189704738Y-88493297D01*
X189771261Y-88444916D01*
X189904309Y-88396535D01*
X190170404Y-88396535D01*
X190303452Y-88444916D01*
X190702595Y-88396535D02*
X191234785Y-88396535D01*
X190902166Y-88057869D02*
X190902166Y-88928726D01*
X190968690Y-89025488D01*
X191101738Y-89073869D01*
X191234785Y-89073869D01*
X191700452Y-89073869D02*
X191700452Y-88396535D01*
X191700452Y-88590059D02*
X191766976Y-88493297D01*
X191833500Y-88444916D01*
X191966547Y-88396535D01*
X192099595Y-88396535D01*
X192565261Y-89073869D02*
X192565261Y-88396535D01*
X192565261Y-88057869D02*
X192498738Y-88106250D01*
X192565261Y-88154630D01*
X192631785Y-88106250D01*
X192565261Y-88057869D01*
X192565261Y-88154630D01*
X193829214Y-89025488D02*
X193696166Y-89073869D01*
X193430071Y-89073869D01*
X193297023Y-89025488D01*
X193230500Y-88977107D01*
X193163976Y-88880345D01*
X193163976Y-88590059D01*
X193230500Y-88493297D01*
X193297023Y-88444916D01*
X193430071Y-88396535D01*
X193696166Y-88396535D01*
X193829214Y-88444916D01*
X195026642Y-89073869D02*
X195026642Y-88541678D01*
X194960119Y-88444916D01*
X194827071Y-88396535D01*
X194560976Y-88396535D01*
X194427928Y-88444916D01*
X195026642Y-89025488D02*
X194893595Y-89073869D01*
X194560976Y-89073869D01*
X194427928Y-89025488D01*
X194361404Y-88928726D01*
X194361404Y-88831964D01*
X194427928Y-88735202D01*
X194560976Y-88686821D01*
X194893595Y-88686821D01*
X195026642Y-88638440D01*
X195891452Y-89073869D02*
X195758404Y-89025488D01*
X195691880Y-88928726D01*
X195691880Y-88057869D01*
D10*
X185417580Y-89926583D02*
X185444190Y-89884250D01*
X185497409Y-89841916D01*
X185630457Y-89841916D01*
X185683676Y-89884250D01*
X185710285Y-89926583D01*
X185736895Y-90011250D01*
X185736895Y-90095916D01*
X185710285Y-90222916D01*
X185390971Y-90730916D01*
X185736895Y-90730916D01*
X186082819Y-89841916D02*
X186136038Y-89841916D01*
X186189257Y-89884250D01*
X186215866Y-89926583D01*
X186242476Y-90011250D01*
X186269085Y-90180583D01*
X186269085Y-90392250D01*
X186242476Y-90561583D01*
X186215866Y-90646250D01*
X186189257Y-90688583D01*
X186136038Y-90730916D01*
X186082819Y-90730916D01*
X186029600Y-90688583D01*
X186002990Y-90646250D01*
X185976380Y-90561583D01*
X185949771Y-90392250D01*
X185949771Y-90180583D01*
X185976380Y-90011250D01*
X186002990Y-89926583D01*
X186029600Y-89884250D01*
X186082819Y-89841916D01*
X186455352Y-89841916D02*
X186588400Y-90730916D01*
X186694838Y-90095916D01*
X186801276Y-90730916D01*
X186934323Y-89841916D01*
X187546342Y-89799583D02*
X187067371Y-90942583D01*
X187998704Y-89841916D02*
X187732609Y-89841916D01*
X187706000Y-90265250D01*
X187732609Y-90222916D01*
X187785828Y-90180583D01*
X187918876Y-90180583D01*
X187972095Y-90222916D01*
X187998704Y-90265250D01*
X188025314Y-90349916D01*
X188025314Y-90561583D01*
X187998704Y-90646250D01*
X187972095Y-90688583D01*
X187918876Y-90730916D01*
X187785828Y-90730916D01*
X187732609Y-90688583D01*
X187706000Y-90646250D01*
X188371238Y-89841916D02*
X188424457Y-89841916D01*
X188477676Y-89884250D01*
X188504285Y-89926583D01*
X188530895Y-90011250D01*
X188557504Y-90180583D01*
X188557504Y-90392250D01*
X188530895Y-90561583D01*
X188504285Y-90646250D01*
X188477676Y-90688583D01*
X188424457Y-90730916D01*
X188371238Y-90730916D01*
X188318019Y-90688583D01*
X188291409Y-90646250D01*
X188264800Y-90561583D01*
X188238190Y-90392250D01*
X188238190Y-90180583D01*
X188264800Y-90011250D01*
X188291409Y-89926583D01*
X188318019Y-89884250D01*
X188371238Y-89841916D01*
X188770380Y-90730916D02*
X188903428Y-90730916D01*
X188903428Y-90561583D01*
X188850209Y-90519250D01*
X188796990Y-90434583D01*
X188770380Y-90307583D01*
X188770380Y-90095916D01*
X188796990Y-89968916D01*
X188850209Y-89884250D01*
X188930038Y-89841916D01*
X189036476Y-89841916D01*
X189116304Y-89884250D01*
X189169523Y-89968916D01*
X189196133Y-90095916D01*
X189196133Y-90307583D01*
X189169523Y-90434583D01*
X189116304Y-90519250D01*
X189063085Y-90561583D01*
X189063085Y-90730916D01*
X189196133Y-90730916D01*
X189861371Y-90138250D02*
X189861371Y-91027250D01*
X190127466Y-90603916D02*
X190154076Y-90688583D01*
X190207295Y-90730916D01*
X189861371Y-90603916D02*
X189887980Y-90688583D01*
X189941200Y-90730916D01*
X190047638Y-90730916D01*
X190100857Y-90688583D01*
X190127466Y-90603916D01*
X190127466Y-90138250D01*
X190446780Y-90730916D02*
X190446780Y-89841916D01*
X190579828Y-89841916D01*
X190659657Y-89884250D01*
X190712876Y-89968916D01*
X190739485Y-90053583D01*
X190766095Y-90222916D01*
X190766095Y-90349916D01*
X190739485Y-90519250D01*
X190712876Y-90603916D01*
X190659657Y-90688583D01*
X190579828Y-90730916D01*
X190446780Y-90730916D01*
X191245066Y-90138250D02*
X191245066Y-90730916D01*
X191005580Y-90138250D02*
X191005580Y-90603916D01*
X191032190Y-90688583D01*
X191085409Y-90730916D01*
X191165238Y-90730916D01*
X191218457Y-90688583D01*
X191245066Y-90646250D01*
X191511161Y-90730916D02*
X191511161Y-90138250D01*
X191511161Y-90222916D02*
X191537771Y-90180583D01*
X191590990Y-90138250D01*
X191670819Y-90138250D01*
X191724038Y-90180583D01*
X191750647Y-90265250D01*
X191750647Y-90730916D01*
X191750647Y-90265250D02*
X191777257Y-90180583D01*
X191830476Y-90138250D01*
X191910304Y-90138250D01*
X191963523Y-90180583D01*
X191990133Y-90265250D01*
X191990133Y-90730916D01*
X192256228Y-90730916D02*
X192256228Y-90138250D01*
X192256228Y-90222916D02*
X192282838Y-90180583D01*
X192336057Y-90138250D01*
X192415885Y-90138250D01*
X192469104Y-90180583D01*
X192495714Y-90265250D01*
X192495714Y-90730916D01*
X192495714Y-90265250D02*
X192522323Y-90180583D01*
X192575542Y-90138250D01*
X192655371Y-90138250D01*
X192708590Y-90180583D01*
X192735200Y-90265250D01*
X192735200Y-90730916D01*
X192948076Y-90138250D02*
X193081123Y-90730916D01*
X193214171Y-90138250D02*
X193081123Y-90730916D01*
X193027904Y-90942583D01*
X193001295Y-90984916D01*
X192948076Y-91027250D01*
X194118895Y-90730916D02*
X193852800Y-90730916D01*
X193852800Y-89841916D01*
X194384990Y-90730916D02*
X194331771Y-90688583D01*
X194305161Y-90646250D01*
X194278552Y-90561583D01*
X194278552Y-90307583D01*
X194305161Y-90222916D01*
X194331771Y-90180583D01*
X194384990Y-90138250D01*
X194464819Y-90138250D01*
X194518038Y-90180583D01*
X194544647Y-90222916D01*
X194571257Y-90307583D01*
X194571257Y-90561583D01*
X194544647Y-90646250D01*
X194518038Y-90688583D01*
X194464819Y-90730916D01*
X194384990Y-90730916D01*
X195050228Y-90730916D02*
X195050228Y-90265250D01*
X195023619Y-90180583D01*
X194970400Y-90138250D01*
X194863961Y-90138250D01*
X194810742Y-90180583D01*
X195050228Y-90688583D02*
X194997009Y-90730916D01*
X194863961Y-90730916D01*
X194810742Y-90688583D01*
X194784133Y-90603916D01*
X194784133Y-90519250D01*
X194810742Y-90434583D01*
X194863961Y-90392250D01*
X194997009Y-90392250D01*
X195050228Y-90349916D01*
X195555809Y-90730916D02*
X195555809Y-89841916D01*
X195555809Y-90688583D02*
X195502590Y-90730916D01*
X195396152Y-90730916D01*
X195342933Y-90688583D01*
X195316323Y-90646250D01*
X195289714Y-90561583D01*
X195289714Y-90307583D01*
X195316323Y-90222916D01*
X195342933Y-90180583D01*
X195396152Y-90138250D01*
X195502590Y-90138250D01*
X195555809Y-90180583D01*
X187453209Y-91598750D02*
X187559647Y-92191416D01*
X187666085Y-91768083D01*
X187772523Y-92191416D01*
X187878961Y-91598750D01*
X188091838Y-92191416D02*
X188091838Y-91598750D01*
X188091838Y-91302416D02*
X188065228Y-91344750D01*
X188091838Y-91387083D01*
X188118447Y-91344750D01*
X188091838Y-91302416D01*
X188091838Y-91387083D01*
X188278104Y-91598750D02*
X188490980Y-91598750D01*
X188357933Y-91302416D02*
X188357933Y-92064416D01*
X188384542Y-92149083D01*
X188437761Y-92191416D01*
X188490980Y-92191416D01*
X188677247Y-92191416D02*
X188677247Y-91302416D01*
X188916733Y-92191416D02*
X188916733Y-91725750D01*
X188890123Y-91641083D01*
X188836904Y-91598750D01*
X188757076Y-91598750D01*
X188703857Y-91641083D01*
X188677247Y-91683416D01*
X189555361Y-91302416D02*
X189688409Y-92191416D01*
X189794847Y-91556416D01*
X189901285Y-92191416D01*
X190034333Y-91302416D01*
X190486695Y-92191416D02*
X190486695Y-91725750D01*
X190460085Y-91641083D01*
X190406866Y-91598750D01*
X190300428Y-91598750D01*
X190247209Y-91641083D01*
X190486695Y-92149083D02*
X190433476Y-92191416D01*
X190300428Y-92191416D01*
X190247209Y-92149083D01*
X190220600Y-92064416D01*
X190220600Y-91979750D01*
X190247209Y-91895083D01*
X190300428Y-91852750D01*
X190433476Y-91852750D01*
X190486695Y-91810416D01*
X190672961Y-91598750D02*
X190885838Y-91598750D01*
X190752790Y-91302416D02*
X190752790Y-92064416D01*
X190779400Y-92149083D01*
X190832619Y-92191416D01*
X190885838Y-92191416D01*
X190992276Y-91598750D02*
X191205152Y-91598750D01*
X191072104Y-91302416D02*
X191072104Y-92064416D01*
X191098714Y-92149083D01*
X191151933Y-92191416D01*
X191205152Y-92191416D01*
X191391419Y-92191416D02*
X191391419Y-91598750D01*
X191391419Y-91683416D02*
X191418028Y-91641083D01*
X191471247Y-91598750D01*
X191551076Y-91598750D01*
X191604295Y-91641083D01*
X191630904Y-91725750D01*
X191630904Y-92191416D01*
X191630904Y-91725750D02*
X191657514Y-91641083D01*
X191710733Y-91598750D01*
X191790561Y-91598750D01*
X191843780Y-91641083D01*
X191870390Y-91725750D01*
X191870390Y-92191416D01*
X192349361Y-92149083D02*
X192296142Y-92191416D01*
X192189704Y-92191416D01*
X192136485Y-92149083D01*
X192109876Y-92064416D01*
X192109876Y-91725750D01*
X192136485Y-91641083D01*
X192189704Y-91598750D01*
X192296142Y-91598750D01*
X192349361Y-91641083D01*
X192375971Y-91725750D01*
X192375971Y-91810416D01*
X192109876Y-91895083D01*
X192535628Y-91598750D02*
X192748504Y-91598750D01*
X192615457Y-91302416D02*
X192615457Y-92064416D01*
X192642066Y-92149083D01*
X192695285Y-92191416D01*
X192748504Y-92191416D01*
X193147647Y-92149083D02*
X193094428Y-92191416D01*
X192987990Y-92191416D01*
X192934771Y-92149083D01*
X192908161Y-92064416D01*
X192908161Y-91725750D01*
X192934771Y-91641083D01*
X192987990Y-91598750D01*
X193094428Y-91598750D01*
X193147647Y-91641083D01*
X193174257Y-91725750D01*
X193174257Y-91810416D01*
X192908161Y-91895083D01*
X193413742Y-92191416D02*
X193413742Y-91598750D01*
X193413742Y-91768083D02*
X193440352Y-91683416D01*
X193466961Y-91641083D01*
X193520180Y-91598750D01*
X193573400Y-91598750D01*
D12*
%TO.C,R10*%
X120936000Y-94083000D02*
X120936000Y-93753000D01*
X120936000Y-93753000D02*
X127476000Y-93753000D01*
X127476000Y-93753000D02*
X127476000Y-94083000D01*
X120936000Y-96163000D02*
X120936000Y-96493000D01*
X120936000Y-96493000D02*
X127476000Y-96493000D01*
X127476000Y-96493000D02*
X127476000Y-96163000D01*
%TO.C,R9*%
X120936000Y-90908000D02*
X120936000Y-90578000D01*
X120936000Y-90578000D02*
X127476000Y-90578000D01*
X127476000Y-90578000D02*
X127476000Y-90908000D01*
X120936000Y-92988000D02*
X120936000Y-93318000D01*
X120936000Y-93318000D02*
X127476000Y-93318000D01*
X127476000Y-93318000D02*
X127476000Y-92988000D01*
%TO.C,R8*%
X127476000Y-99338000D02*
X127476000Y-99668000D01*
X127476000Y-99668000D02*
X120936000Y-99668000D01*
X120936000Y-99668000D02*
X120936000Y-99338000D01*
X127476000Y-97258000D02*
X127476000Y-96928000D01*
X127476000Y-96928000D02*
X120936000Y-96928000D01*
X120936000Y-96928000D02*
X120936000Y-97258000D01*
%TO.C,R7*%
X116435000Y-107791000D02*
X116105000Y-107791000D01*
X116105000Y-107791000D02*
X116105000Y-101251000D01*
X116105000Y-101251000D02*
X116435000Y-101251000D01*
X118515000Y-107791000D02*
X118845000Y-107791000D01*
X118845000Y-107791000D02*
X118845000Y-101251000D01*
X118845000Y-101251000D02*
X118515000Y-101251000D01*
%TO.C,R6*%
X127476000Y-102513000D02*
X127476000Y-102843000D01*
X127476000Y-102843000D02*
X120936000Y-102843000D01*
X120936000Y-102843000D02*
X120936000Y-102513000D01*
X127476000Y-100433000D02*
X127476000Y-100103000D01*
X127476000Y-100103000D02*
X120936000Y-100103000D01*
X120936000Y-100103000D02*
X120936000Y-100433000D01*
%TO.C,C4*%
X150846000Y-101922000D02*
X150141000Y-101922000D01*
X152881000Y-101922000D02*
X152176000Y-101922000D01*
X150846000Y-97682000D02*
X150141000Y-97682000D01*
X152881000Y-97682000D02*
X152176000Y-97682000D01*
X150141000Y-97682000D02*
X150141000Y-101922000D01*
X152881000Y-97682000D02*
X152881000Y-101922000D01*
%TO.C,C5*%
X147671000Y-101922000D02*
X146966000Y-101922000D01*
X149706000Y-101922000D02*
X149001000Y-101922000D01*
X147671000Y-97682000D02*
X146966000Y-97682000D01*
X149706000Y-97682000D02*
X149001000Y-97682000D01*
X146966000Y-97682000D02*
X146966000Y-101922000D01*
X149706000Y-97682000D02*
X149706000Y-101922000D01*
%TO.C,R5*%
X162584000Y-96806000D02*
X162914000Y-96806000D01*
X162914000Y-96806000D02*
X162914000Y-103346000D01*
X162914000Y-103346000D02*
X162584000Y-103346000D01*
X160504000Y-96806000D02*
X160174000Y-96806000D01*
X160174000Y-96806000D02*
X160174000Y-103346000D01*
X160174000Y-103346000D02*
X160504000Y-103346000D01*
%TO.C,R4*%
X149511000Y-93321000D02*
X149511000Y-92991000D01*
X149511000Y-92991000D02*
X156051000Y-92991000D01*
X156051000Y-92991000D02*
X156051000Y-93321000D01*
X149511000Y-95401000D02*
X149511000Y-95731000D01*
X149511000Y-95731000D02*
X156051000Y-95731000D01*
X156051000Y-95731000D02*
X156051000Y-95401000D01*
%TO.C,R3*%
X149511000Y-90273000D02*
X149511000Y-89943000D01*
X149511000Y-89943000D02*
X156051000Y-89943000D01*
X156051000Y-89943000D02*
X156051000Y-90273000D01*
X149511000Y-92353000D02*
X149511000Y-92683000D01*
X149511000Y-92683000D02*
X156051000Y-92683000D01*
X156051000Y-92683000D02*
X156051000Y-92353000D01*
%TO.C,D1*%
X161809000Y-106776000D02*
X161809000Y-108616000D01*
X161809000Y-108616000D02*
X165089000Y-108616000D01*
X165089000Y-108616000D02*
X165089000Y-106776000D01*
X165089000Y-106776000D02*
X161809000Y-106776000D01*
X160629000Y-107696000D02*
X161809000Y-107696000D01*
X166269000Y-107696000D02*
X165089000Y-107696000D01*
X162385000Y-106776000D02*
X162385000Y-108616000D01*
X162505000Y-106776000D02*
X162505000Y-108616000D01*
X162265000Y-106776000D02*
X162265000Y-108616000D01*
%TO.C,R1*%
X187148500Y-101140500D02*
X187148500Y-100740500D01*
X188648500Y-101140500D02*
X187148500Y-101140500D01*
X187148500Y-99340500D02*
X187148500Y-96140500D01*
X187148500Y-94340500D02*
X188648500Y-94340500D01*
X187148500Y-94690500D02*
X187148500Y-94340500D01*
%TO.C,C2*%
X159239000Y-105059000D02*
X159239000Y-105764000D01*
X159239000Y-103024000D02*
X159239000Y-103729000D01*
X154999000Y-105059000D02*
X154999000Y-105764000D01*
X154999000Y-103024000D02*
X154999000Y-103729000D01*
X154999000Y-105764000D02*
X159239000Y-105764000D01*
X154999000Y-103024000D02*
X159239000Y-103024000D01*
%TO.C,D3*%
X165131000Y-98563000D02*
X163291000Y-98563000D01*
X163291000Y-98563000D02*
X163291000Y-101843000D01*
X163291000Y-101843000D02*
X165131000Y-101843000D01*
X165131000Y-101843000D02*
X165131000Y-98563000D01*
X164211000Y-97383000D02*
X164211000Y-98563000D01*
X164211000Y-103023000D02*
X164211000Y-101843000D01*
X165131000Y-99139000D02*
X163291000Y-99139000D01*
X165131000Y-99259000D02*
X163291000Y-99259000D01*
X165131000Y-99019000D02*
X163291000Y-99019000D01*
%TO.C,J1*%
X181039589Y-99457663D02*
G75*
G03*
X181026000Y-95995000I-4763589J1712663D01*
G01*
X177988663Y-92981411D02*
G75*
G03*
X174526000Y-92995000I-1712663J-4763589D01*
G01*
X171512411Y-96032337D02*
G75*
G03*
X171526000Y-99495000I4763589J-1712663D01*
G01*
X174563337Y-102508589D02*
G75*
G03*
X178026000Y-102495000I1712663J4763589D01*
G01*
D13*
%TO.C,U3*%
X136254762Y-92761500D02*
X134654762Y-92761500D01*
X136254762Y-102836500D02*
X142004762Y-102836500D01*
X136254762Y-92186500D02*
X142004762Y-92186500D01*
X136254762Y-102836500D02*
X136254762Y-102186500D01*
X142004762Y-102836500D02*
X142004762Y-102186500D01*
X142004762Y-92186500D02*
X142004762Y-92836500D01*
X136254762Y-92186500D02*
X136254762Y-92761500D01*
D12*
%TO.C,U2*%
X130066000Y-95448000D02*
X131526000Y-95448000D01*
X130066000Y-98608000D02*
X132226000Y-98608000D01*
X130066000Y-98608000D02*
X130066000Y-97678000D01*
X130066000Y-95448000D02*
X130066000Y-96378000D01*
%TO.C,U1*%
X153318000Y-99142000D02*
X153548000Y-99142000D01*
X158038000Y-99142000D02*
X157808000Y-99142000D01*
X158038000Y-99142000D02*
X158038000Y-101862000D01*
X158038000Y-101862000D02*
X156728000Y-101862000D01*
X157808000Y-98002000D02*
X157808000Y-99142000D01*
X153318000Y-101862000D02*
X153318000Y-99142000D01*
X154628000Y-101862000D02*
X153318000Y-101862000D01*
%TO.C,J2*%
X118805000Y-98993000D02*
X117475000Y-98993000D01*
X118805000Y-97663000D02*
X118805000Y-98993000D01*
X118805000Y-96393000D02*
X116145000Y-96393000D01*
X116145000Y-96393000D02*
X116145000Y-86173000D01*
X118805000Y-96393000D02*
X118805000Y-86173000D01*
X118805000Y-86173000D02*
X116145000Y-86173000D01*
%TO.C,D2*%
X168306000Y-99019000D02*
X166466000Y-99019000D01*
X168306000Y-99259000D02*
X166466000Y-99259000D01*
X168306000Y-99139000D02*
X166466000Y-99139000D01*
X167386000Y-103023000D02*
X167386000Y-101843000D01*
X167386000Y-97383000D02*
X167386000Y-98563000D01*
X168306000Y-101843000D02*
X168306000Y-98563000D01*
X166466000Y-101843000D02*
X168306000Y-101843000D01*
X166466000Y-98563000D02*
X166466000Y-101843000D01*
X168306000Y-98563000D02*
X166466000Y-98563000D01*
%TO.C,C3*%
X167425000Y-87714000D02*
X168091000Y-87714000D01*
X164649000Y-87714000D02*
X165315000Y-87714000D01*
X167425000Y-93054000D02*
X168091000Y-93054000D01*
X164649000Y-93054000D02*
X165315000Y-93054000D01*
X168091000Y-93054000D02*
X168091000Y-87714000D01*
X164649000Y-93054000D02*
X164649000Y-87714000D01*
%TO.C,C1*%
X162980000Y-87667000D02*
X163646000Y-87667000D01*
X160204000Y-87667000D02*
X160870000Y-87667000D01*
X162980000Y-93007000D02*
X163646000Y-93007000D01*
X160204000Y-93007000D02*
X160870000Y-93007000D01*
X163646000Y-93007000D02*
X163646000Y-87667000D01*
X160204000Y-93007000D02*
X160204000Y-87667000D01*
%TO.C,R10*%
D13*
X129405142Y-94178380D02*
X129071809Y-93702190D01*
X128833714Y-94178380D02*
X128833714Y-93178380D01*
X129214666Y-93178380D01*
X129309904Y-93226000D01*
X129357523Y-93273619D01*
X129405142Y-93368857D01*
X129405142Y-93511714D01*
X129357523Y-93606952D01*
X129309904Y-93654571D01*
X129214666Y-93702190D01*
X128833714Y-93702190D01*
X130357523Y-94178380D02*
X129786095Y-94178380D01*
X130071809Y-94178380D02*
X130071809Y-93178380D01*
X129976571Y-93321238D01*
X129881333Y-93416476D01*
X129786095Y-93464095D01*
X130976571Y-93178380D02*
X131071809Y-93178380D01*
X131167047Y-93226000D01*
X131214666Y-93273619D01*
X131262285Y-93368857D01*
X131309904Y-93559333D01*
X131309904Y-93797428D01*
X131262285Y-93987904D01*
X131214666Y-94083142D01*
X131167047Y-94130761D01*
X131071809Y-94178380D01*
X130976571Y-94178380D01*
X130881333Y-94130761D01*
X130833714Y-94083142D01*
X130786095Y-93987904D01*
X130738476Y-93797428D01*
X130738476Y-93559333D01*
X130786095Y-93368857D01*
X130833714Y-93273619D01*
X130881333Y-93226000D01*
X130976571Y-93178380D01*
%TO.C,R9*%
X123531333Y-90241380D02*
X123198000Y-89765190D01*
X122959904Y-90241380D02*
X122959904Y-89241380D01*
X123340857Y-89241380D01*
X123436095Y-89289000D01*
X123483714Y-89336619D01*
X123531333Y-89431857D01*
X123531333Y-89574714D01*
X123483714Y-89669952D01*
X123436095Y-89717571D01*
X123340857Y-89765190D01*
X122959904Y-89765190D01*
X124007523Y-90241380D02*
X124198000Y-90241380D01*
X124293238Y-90193761D01*
X124340857Y-90146142D01*
X124436095Y-90003285D01*
X124483714Y-89812809D01*
X124483714Y-89431857D01*
X124436095Y-89336619D01*
X124388476Y-89289000D01*
X124293238Y-89241380D01*
X124102761Y-89241380D01*
X124007523Y-89289000D01*
X123959904Y-89336619D01*
X123912285Y-89431857D01*
X123912285Y-89669952D01*
X123959904Y-89765190D01*
X124007523Y-89812809D01*
X124102761Y-89860428D01*
X124293238Y-89860428D01*
X124388476Y-89812809D01*
X124436095Y-89765190D01*
X124483714Y-89669952D01*
%TO.C,R8*%
X129500333Y-100147380D02*
X129167000Y-99671190D01*
X128928904Y-100147380D02*
X128928904Y-99147380D01*
X129309857Y-99147380D01*
X129405095Y-99195000D01*
X129452714Y-99242619D01*
X129500333Y-99337857D01*
X129500333Y-99480714D01*
X129452714Y-99575952D01*
X129405095Y-99623571D01*
X129309857Y-99671190D01*
X128928904Y-99671190D01*
X130071761Y-99575952D02*
X129976523Y-99528333D01*
X129928904Y-99480714D01*
X129881285Y-99385476D01*
X129881285Y-99337857D01*
X129928904Y-99242619D01*
X129976523Y-99195000D01*
X130071761Y-99147380D01*
X130262238Y-99147380D01*
X130357476Y-99195000D01*
X130405095Y-99242619D01*
X130452714Y-99337857D01*
X130452714Y-99385476D01*
X130405095Y-99480714D01*
X130357476Y-99528333D01*
X130262238Y-99575952D01*
X130071761Y-99575952D01*
X129976523Y-99623571D01*
X129928904Y-99671190D01*
X129881285Y-99766428D01*
X129881285Y-99956904D01*
X129928904Y-100052142D01*
X129976523Y-100099761D01*
X130071761Y-100147380D01*
X130262238Y-100147380D01*
X130357476Y-100099761D01*
X130405095Y-100052142D01*
X130452714Y-99956904D01*
X130452714Y-99766428D01*
X130405095Y-99671190D01*
X130357476Y-99623571D01*
X130262238Y-99575952D01*
%TO.C,R7*%
X119975333Y-107132380D02*
X119642000Y-106656190D01*
X119403904Y-107132380D02*
X119403904Y-106132380D01*
X119784857Y-106132380D01*
X119880095Y-106180000D01*
X119927714Y-106227619D01*
X119975333Y-106322857D01*
X119975333Y-106465714D01*
X119927714Y-106560952D01*
X119880095Y-106608571D01*
X119784857Y-106656190D01*
X119403904Y-106656190D01*
X120308666Y-106132380D02*
X120975333Y-106132380D01*
X120546761Y-107132380D01*
%TO.C,R6*%
X123785333Y-104211380D02*
X123452000Y-103735190D01*
X123213904Y-104211380D02*
X123213904Y-103211380D01*
X123594857Y-103211380D01*
X123690095Y-103259000D01*
X123737714Y-103306619D01*
X123785333Y-103401857D01*
X123785333Y-103544714D01*
X123737714Y-103639952D01*
X123690095Y-103687571D01*
X123594857Y-103735190D01*
X123213904Y-103735190D01*
X124642476Y-103211380D02*
X124452000Y-103211380D01*
X124356761Y-103259000D01*
X124309142Y-103306619D01*
X124213904Y-103449476D01*
X124166285Y-103639952D01*
X124166285Y-104020904D01*
X124213904Y-104116142D01*
X124261523Y-104163761D01*
X124356761Y-104211380D01*
X124547238Y-104211380D01*
X124642476Y-104163761D01*
X124690095Y-104116142D01*
X124737714Y-104020904D01*
X124737714Y-103782809D01*
X124690095Y-103687571D01*
X124642476Y-103639952D01*
X124547238Y-103592333D01*
X124356761Y-103592333D01*
X124261523Y-103639952D01*
X124213904Y-103687571D01*
X124166285Y-103782809D01*
%TO.C,C4*%
X151344333Y-103354142D02*
X151296714Y-103401761D01*
X151153857Y-103449380D01*
X151058619Y-103449380D01*
X150915761Y-103401761D01*
X150820523Y-103306523D01*
X150772904Y-103211285D01*
X150725285Y-103020809D01*
X150725285Y-102877952D01*
X150772904Y-102687476D01*
X150820523Y-102592238D01*
X150915761Y-102497000D01*
X151058619Y-102449380D01*
X151153857Y-102449380D01*
X151296714Y-102497000D01*
X151344333Y-102544619D01*
X152201476Y-102782714D02*
X152201476Y-103449380D01*
X151963380Y-102401761D02*
X151725285Y-103116047D01*
X152344333Y-103116047D01*
%TO.C,C5*%
X148169333Y-103354142D02*
X148121714Y-103401761D01*
X147978857Y-103449380D01*
X147883619Y-103449380D01*
X147740761Y-103401761D01*
X147645523Y-103306523D01*
X147597904Y-103211285D01*
X147550285Y-103020809D01*
X147550285Y-102877952D01*
X147597904Y-102687476D01*
X147645523Y-102592238D01*
X147740761Y-102497000D01*
X147883619Y-102449380D01*
X147978857Y-102449380D01*
X148121714Y-102497000D01*
X148169333Y-102544619D01*
X149074095Y-102449380D02*
X148597904Y-102449380D01*
X148550285Y-102925571D01*
X148597904Y-102877952D01*
X148693142Y-102830333D01*
X148931238Y-102830333D01*
X149026476Y-102877952D01*
X149074095Y-102925571D01*
X149121714Y-103020809D01*
X149121714Y-103258904D01*
X149074095Y-103354142D01*
X149026476Y-103401761D01*
X148931238Y-103449380D01*
X148693142Y-103449380D01*
X148597904Y-103401761D01*
X148550285Y-103354142D01*
%TO.C,R5*%
X159027833Y-101099880D02*
X158694500Y-100623690D01*
X158456404Y-101099880D02*
X158456404Y-100099880D01*
X158837357Y-100099880D01*
X158932595Y-100147500D01*
X158980214Y-100195119D01*
X159027833Y-100290357D01*
X159027833Y-100433214D01*
X158980214Y-100528452D01*
X158932595Y-100576071D01*
X158837357Y-100623690D01*
X158456404Y-100623690D01*
X159932595Y-100099880D02*
X159456404Y-100099880D01*
X159408785Y-100576071D01*
X159456404Y-100528452D01*
X159551642Y-100480833D01*
X159789738Y-100480833D01*
X159884976Y-100528452D01*
X159932595Y-100576071D01*
X159980214Y-100671309D01*
X159980214Y-100909404D01*
X159932595Y-101004642D01*
X159884976Y-101052261D01*
X159789738Y-101099880D01*
X159551642Y-101099880D01*
X159456404Y-101052261D01*
X159408785Y-101004642D01*
%TO.C,R4*%
X158710333Y-94940380D02*
X158377000Y-94464190D01*
X158138904Y-94940380D02*
X158138904Y-93940380D01*
X158519857Y-93940380D01*
X158615095Y-93988000D01*
X158662714Y-94035619D01*
X158710333Y-94130857D01*
X158710333Y-94273714D01*
X158662714Y-94368952D01*
X158615095Y-94416571D01*
X158519857Y-94464190D01*
X158138904Y-94464190D01*
X159567476Y-94273714D02*
X159567476Y-94940380D01*
X159329380Y-93892761D02*
X159091285Y-94607047D01*
X159710333Y-94607047D01*
%TO.C,R3*%
X158710333Y-91765380D02*
X158377000Y-91289190D01*
X158138904Y-91765380D02*
X158138904Y-90765380D01*
X158519857Y-90765380D01*
X158615095Y-90813000D01*
X158662714Y-90860619D01*
X158710333Y-90955857D01*
X158710333Y-91098714D01*
X158662714Y-91193952D01*
X158615095Y-91241571D01*
X158519857Y-91289190D01*
X158138904Y-91289190D01*
X159043666Y-90765380D02*
X159662714Y-90765380D01*
X159329380Y-91146333D01*
X159472238Y-91146333D01*
X159567476Y-91193952D01*
X159615095Y-91241571D01*
X159662714Y-91336809D01*
X159662714Y-91574904D01*
X159615095Y-91670142D01*
X159567476Y-91717761D01*
X159472238Y-91765380D01*
X159186523Y-91765380D01*
X159091285Y-91717761D01*
X159043666Y-91670142D01*
%TO.C,D1*%
X168679904Y-108021380D02*
X168679904Y-107021380D01*
X168918000Y-107021380D01*
X169060857Y-107069000D01*
X169156095Y-107164238D01*
X169203714Y-107259476D01*
X169251333Y-107449952D01*
X169251333Y-107592809D01*
X169203714Y-107783285D01*
X169156095Y-107878523D01*
X169060857Y-107973761D01*
X168918000Y-108021380D01*
X168679904Y-108021380D01*
X170203714Y-108021380D02*
X169632285Y-108021380D01*
X169918000Y-108021380D02*
X169918000Y-107021380D01*
X169822761Y-107164238D01*
X169727523Y-107259476D01*
X169632285Y-107307095D01*
X157726095Y-108783380D02*
X157726095Y-107783380D01*
X158297523Y-108783380D02*
X157868952Y-108211952D01*
X158297523Y-107783380D02*
X157726095Y-108354809D01*
%TO.C,R1*%
X195002833Y-102891880D02*
X194669500Y-102415690D01*
X194431404Y-102891880D02*
X194431404Y-101891880D01*
X194812357Y-101891880D01*
X194907595Y-101939500D01*
X194955214Y-101987119D01*
X195002833Y-102082357D01*
X195002833Y-102225214D01*
X194955214Y-102320452D01*
X194907595Y-102368071D01*
X194812357Y-102415690D01*
X194431404Y-102415690D01*
X195955214Y-102891880D02*
X195383785Y-102891880D01*
X195669500Y-102891880D02*
X195669500Y-101891880D01*
X195574261Y-102034738D01*
X195479023Y-102129976D01*
X195383785Y-102177595D01*
%TO.C,C2*%
X153543333Y-104775642D02*
X153495714Y-104823261D01*
X153352857Y-104870880D01*
X153257619Y-104870880D01*
X153114761Y-104823261D01*
X153019523Y-104728023D01*
X152971904Y-104632785D01*
X152924285Y-104442309D01*
X152924285Y-104299452D01*
X152971904Y-104108976D01*
X153019523Y-104013738D01*
X153114761Y-103918500D01*
X153257619Y-103870880D01*
X153352857Y-103870880D01*
X153495714Y-103918500D01*
X153543333Y-103966119D01*
X153924285Y-103966119D02*
X153971904Y-103918500D01*
X154067142Y-103870880D01*
X154305238Y-103870880D01*
X154400476Y-103918500D01*
X154448095Y-103966119D01*
X154495714Y-104061357D01*
X154495714Y-104156595D01*
X154448095Y-104299452D01*
X153876666Y-104870880D01*
X154495714Y-104870880D01*
%TO.C,D3*%
X163599904Y-94813380D02*
X163599904Y-93813380D01*
X163838000Y-93813380D01*
X163980857Y-93861000D01*
X164076095Y-93956238D01*
X164123714Y-94051476D01*
X164171333Y-94241952D01*
X164171333Y-94384809D01*
X164123714Y-94575285D01*
X164076095Y-94670523D01*
X163980857Y-94765761D01*
X163838000Y-94813380D01*
X163599904Y-94813380D01*
X164504666Y-93813380D02*
X165123714Y-93813380D01*
X164790380Y-94194333D01*
X164933238Y-94194333D01*
X165028476Y-94241952D01*
X165076095Y-94289571D01*
X165123714Y-94384809D01*
X165123714Y-94622904D01*
X165076095Y-94718142D01*
X165028476Y-94765761D01*
X164933238Y-94813380D01*
X164647523Y-94813380D01*
X164552285Y-94765761D01*
X164504666Y-94718142D01*
X165473095Y-95956380D02*
X165473095Y-94956380D01*
X166044523Y-95956380D02*
X165615952Y-95384952D01*
X166044523Y-94956380D02*
X165473095Y-95527809D01*
%TO.C,J1*%
X175942666Y-103719380D02*
X175942666Y-104433666D01*
X175895047Y-104576523D01*
X175799809Y-104671761D01*
X175656952Y-104719380D01*
X175561714Y-104719380D01*
X176942666Y-104719380D02*
X176371238Y-104719380D01*
X176656952Y-104719380D02*
X176656952Y-103719380D01*
X176561714Y-103862238D01*
X176466476Y-103957476D01*
X176371238Y-104005095D01*
%TO.C,U3*%
X138367857Y-90713880D02*
X138367857Y-91523404D01*
X138415476Y-91618642D01*
X138463095Y-91666261D01*
X138558333Y-91713880D01*
X138748809Y-91713880D01*
X138844047Y-91666261D01*
X138891666Y-91618642D01*
X138939285Y-91523404D01*
X138939285Y-90713880D01*
X139320238Y-90713880D02*
X139939285Y-90713880D01*
X139605952Y-91094833D01*
X139748809Y-91094833D01*
X139844047Y-91142452D01*
X139891666Y-91190071D01*
X139939285Y-91285309D01*
X139939285Y-91523404D01*
X139891666Y-91618642D01*
X139844047Y-91666261D01*
X139748809Y-91713880D01*
X139463095Y-91713880D01*
X139367857Y-91666261D01*
X139320238Y-91618642D01*
%TO.C,U2*%
X131572095Y-98893380D02*
X131572095Y-99702904D01*
X131619714Y-99798142D01*
X131667333Y-99845761D01*
X131762571Y-99893380D01*
X131953047Y-99893380D01*
X132048285Y-99845761D01*
X132095904Y-99798142D01*
X132143523Y-99702904D01*
X132143523Y-98893380D01*
X132572095Y-98988619D02*
X132619714Y-98941000D01*
X132714952Y-98893380D01*
X132953047Y-98893380D01*
X133048285Y-98941000D01*
X133095904Y-98988619D01*
X133143523Y-99083857D01*
X133143523Y-99179095D01*
X133095904Y-99321952D01*
X132524476Y-99893380D01*
X133143523Y-99893380D01*
%TO.C,U1*%
X156591095Y-96480380D02*
X156591095Y-97289904D01*
X156638714Y-97385142D01*
X156686333Y-97432761D01*
X156781571Y-97480380D01*
X156972047Y-97480380D01*
X157067285Y-97432761D01*
X157114904Y-97385142D01*
X157162523Y-97289904D01*
X157162523Y-96480380D01*
X158162523Y-97480380D02*
X157591095Y-97480380D01*
X157876809Y-97480380D02*
X157876809Y-96480380D01*
X157781571Y-96623238D01*
X157686333Y-96718476D01*
X157591095Y-96766095D01*
%TO.C,J2*%
X119554666Y-87590380D02*
X119554666Y-88304666D01*
X119507047Y-88447523D01*
X119411809Y-88542761D01*
X119268952Y-88590380D01*
X119173714Y-88590380D01*
X119983238Y-87685619D02*
X120030857Y-87638000D01*
X120126095Y-87590380D01*
X120364190Y-87590380D01*
X120459428Y-87638000D01*
X120507047Y-87685619D01*
X120554666Y-87780857D01*
X120554666Y-87876095D01*
X120507047Y-88018952D01*
X119935619Y-88590380D01*
X120554666Y-88590380D01*
%TO.C,D2*%
X166711404Y-95067380D02*
X166711404Y-94067380D01*
X166949500Y-94067380D01*
X167092357Y-94115000D01*
X167187595Y-94210238D01*
X167235214Y-94305476D01*
X167282833Y-94495952D01*
X167282833Y-94638809D01*
X167235214Y-94829285D01*
X167187595Y-94924523D01*
X167092357Y-95019761D01*
X166949500Y-95067380D01*
X166711404Y-95067380D01*
X167663785Y-94162619D02*
X167711404Y-94115000D01*
X167806642Y-94067380D01*
X168044738Y-94067380D01*
X168139976Y-94115000D01*
X168187595Y-94162619D01*
X168235214Y-94257857D01*
X168235214Y-94353095D01*
X168187595Y-94495952D01*
X167616166Y-95067380D01*
X168235214Y-95067380D01*
X168648095Y-95892880D02*
X168648095Y-94892880D01*
X169219523Y-95892880D02*
X168790952Y-95321452D01*
X169219523Y-94892880D02*
X168648095Y-95464309D01*
%TO.C,C3*%
X166203333Y-86336142D02*
X166155714Y-86383761D01*
X166012857Y-86431380D01*
X165917619Y-86431380D01*
X165774761Y-86383761D01*
X165679523Y-86288523D01*
X165631904Y-86193285D01*
X165584285Y-86002809D01*
X165584285Y-85859952D01*
X165631904Y-85669476D01*
X165679523Y-85574238D01*
X165774761Y-85479000D01*
X165917619Y-85431380D01*
X166012857Y-85431380D01*
X166155714Y-85479000D01*
X166203333Y-85526619D01*
X166536666Y-85431380D02*
X167155714Y-85431380D01*
X166822380Y-85812333D01*
X166965238Y-85812333D01*
X167060476Y-85859952D01*
X167108095Y-85907571D01*
X167155714Y-86002809D01*
X167155714Y-86240904D01*
X167108095Y-86336142D01*
X167060476Y-86383761D01*
X166965238Y-86431380D01*
X166679523Y-86431380D01*
X166584285Y-86383761D01*
X166536666Y-86336142D01*
%TO.C,C1*%
X161947571Y-86289142D02*
X161899952Y-86336761D01*
X161757095Y-86384380D01*
X161661857Y-86384380D01*
X161518999Y-86336761D01*
X161423761Y-86241523D01*
X161376142Y-86146285D01*
X161328523Y-85955809D01*
X161328523Y-85812952D01*
X161376142Y-85622476D01*
X161423761Y-85527238D01*
X161518999Y-85432000D01*
X161661857Y-85384380D01*
X161757095Y-85384380D01*
X161899952Y-85432000D01*
X161947571Y-85479619D01*
X162899952Y-86384380D02*
X162328523Y-86384380D01*
X162614238Y-86384380D02*
X162614238Y-85384380D01*
X162518999Y-85527238D01*
X162423761Y-85622476D01*
X162328523Y-85670095D01*
%TD*%
%LPC*%
D14*
%TO.C,R10*%
X128016000Y-95123000D03*
D15*
X120396000Y-95123000D03*
%TD*%
D14*
%TO.C,R9*%
X128016000Y-91948000D03*
D15*
X120396000Y-91948000D03*
%TD*%
D14*
%TO.C,R8*%
X120396000Y-98298000D03*
D15*
X128016000Y-98298000D03*
%TD*%
D14*
%TO.C,R7*%
X117475000Y-100711000D03*
D15*
X117475000Y-108331000D03*
%TD*%
D14*
%TO.C,R6*%
X120396000Y-101473000D03*
D15*
X128016000Y-101473000D03*
%TD*%
%TO.C,C4*%
X151511000Y-101052000D03*
X151511000Y-98552000D03*
%TD*%
%TO.C,C5*%
X148336000Y-101052000D03*
X148336000Y-98552000D03*
%TD*%
D14*
%TO.C,R5*%
X161544000Y-103886000D03*
D15*
X161544000Y-96266000D03*
%TD*%
D14*
%TO.C,R4*%
X156591000Y-94361000D03*
D15*
X148971000Y-94361000D03*
%TD*%
D14*
%TO.C,R3*%
X156591000Y-91313000D03*
D15*
X148971000Y-91313000D03*
%TD*%
D16*
%TO.C,D1*%
X167259000Y-107696000D03*
D17*
X159639000Y-107696000D03*
%TD*%
D18*
%TO.C,R1*%
X192248500Y-97740500D03*
D19*
X184848500Y-100020500D03*
X184848500Y-95440500D03*
%TD*%
D15*
%TO.C,C2*%
X158369000Y-104394000D03*
X155869000Y-104394000D03*
%TD*%
D16*
%TO.C,D3*%
X164211000Y-104013000D03*
D17*
X164211000Y-96393000D03*
%TD*%
D20*
%TO.C,U4*%
X125667762Y-88461500D03*
X128207762Y-88461500D03*
X130747762Y-88461500D03*
X133287762Y-88461500D03*
X135827762Y-88461500D03*
X138367762Y-88461500D03*
X140907762Y-88461500D03*
X143447762Y-88461500D03*
X145987762Y-88461500D03*
X148527762Y-88461500D03*
X151067762Y-88461500D03*
X153607762Y-88461500D03*
X153607762Y-106561500D03*
X151067762Y-106561500D03*
X148527762Y-106561500D03*
X145987762Y-106561500D03*
X143447762Y-106561500D03*
X140907762Y-106561500D03*
X138367762Y-106561500D03*
X135827762Y-106561500D03*
X133287762Y-106561500D03*
X130747762Y-106561500D03*
X128207762Y-106561500D03*
X125667762Y-106561500D03*
%TD*%
D21*
%TO.C,J1*%
X179406000Y-100875000D03*
X176276000Y-97745000D03*
X173146000Y-100875000D03*
X179406000Y-94615000D03*
X173146000Y-94615000D03*
%TD*%
D22*
%TO.C,U3*%
X142729762Y-93286500D03*
X142729762Y-93936500D03*
X142729762Y-94586500D03*
X142729762Y-95236500D03*
X142729762Y-95886500D03*
X142729762Y-96536500D03*
X142729762Y-97186500D03*
X142729762Y-97836500D03*
X142729762Y-98486500D03*
X142729762Y-99136500D03*
X142729762Y-99786500D03*
X142729762Y-100436500D03*
X142729762Y-101086500D03*
X142729762Y-101736500D03*
X135529762Y-101736500D03*
X135529762Y-101086500D03*
X135529762Y-100436500D03*
X135529762Y-99786500D03*
X135529762Y-99136500D03*
X135529762Y-98486500D03*
X135529762Y-97836500D03*
X135529762Y-97186500D03*
X135529762Y-96536500D03*
X135529762Y-95886500D03*
X135529762Y-95236500D03*
X135529762Y-94586500D03*
X135529762Y-93936500D03*
X135529762Y-93286500D03*
%TD*%
D23*
%TO.C,U2*%
X129826000Y-97028000D03*
X131826000Y-96078000D03*
X131826000Y-97978000D03*
%TD*%
D24*
%TO.C,U1*%
G36*
X156593539Y-102511755D02*
G01*
X156590694Y-102521134D01*
X156586073Y-102529779D01*
X156579855Y-102537355D01*
X156572279Y-102543573D01*
X156563634Y-102548194D01*
X156554255Y-102551039D01*
X156544500Y-102552000D01*
X154811500Y-102552000D01*
X154801745Y-102551039D01*
X154792366Y-102548194D01*
X154783721Y-102543573D01*
X154776145Y-102537355D01*
X154769927Y-102529779D01*
X154765306Y-102521134D01*
X154762461Y-102511755D01*
X154761500Y-102502000D01*
X154761500Y-99377000D01*
X154762461Y-99367245D01*
X154765306Y-99357866D01*
X154769927Y-99349221D01*
X154776145Y-99341645D01*
X154783721Y-99335427D01*
X154792366Y-99330806D01*
X154801745Y-99327961D01*
X154811500Y-99327000D01*
X155178000Y-99327000D01*
X155178000Y-97902000D01*
X155178961Y-97892245D01*
X155181806Y-97882866D01*
X155186427Y-97874221D01*
X155192645Y-97866645D01*
X155200221Y-97860427D01*
X155208866Y-97855806D01*
X155218245Y-97852961D01*
X155228000Y-97852000D01*
X156128000Y-97852000D01*
X156137755Y-97852961D01*
X156147134Y-97855806D01*
X156155779Y-97860427D01*
X156163355Y-97866645D01*
X156169573Y-97874221D01*
X156174194Y-97882866D01*
X156177039Y-97892245D01*
X156178000Y-97902000D01*
X156178000Y-99327000D01*
X156544500Y-99327000D01*
X156554255Y-99327961D01*
X156563634Y-99330806D01*
X156572279Y-99335427D01*
X156579855Y-99341645D01*
X156586073Y-99349221D01*
X156590694Y-99357866D01*
X156593539Y-99367245D01*
X156594500Y-99377000D01*
X156594500Y-102502000D01*
X156593539Y-102511755D01*
G37*
D25*
X154178000Y-98552000D03*
X157178000Y-98552000D03*
%TD*%
D26*
%TO.C,J2*%
X117475000Y-87503000D03*
X117475000Y-90043000D03*
X117475000Y-92583000D03*
X117475000Y-95123000D03*
D27*
X117475000Y-97663000D03*
%TD*%
D16*
%TO.C,D2*%
X167386000Y-104013000D03*
D17*
X167386000Y-96393000D03*
%TD*%
D15*
%TO.C,C3*%
X166370000Y-87884000D03*
X166370000Y-92884000D03*
%TD*%
%TO.C,C1*%
X161925000Y-87837000D03*
X161925000Y-92837000D03*
%TD*%
M02*
