%TF.GenerationSoftware,KiCad,Pcbnew,(5.1.6-0-10_14)*%
%TF.CreationDate,2021-03-20T13:28:09-06:00*%
%TF.ProjectId,rf_dummy_50ohm_20W,72665f64-756d-46d7-995f-35306f686d5f,rev?*%
%TF.SameCoordinates,Original*%
%TF.FileFunction,Copper,L2,Bot*%
%TF.FilePolarity,Positive*%
%FSLAX46Y46*%
G04 Gerber Fmt 4.6, Leading zero omitted, Abs format (unit mm)*
G04 Created by KiCad (PCBNEW (5.1.6-0-10_14)) date 2021-03-20 13:28:09*
%MOMM*%
%LPD*%
G01*
G04 APERTURE LIST*
%TA.AperFunction,ComponentPad*%
%ADD10O,1.600000X1.600000*%
%TD*%
%TA.AperFunction,ComponentPad*%
%ADD11C,1.600000*%
%TD*%
%TA.AperFunction,ComponentPad*%
%ADD12O,1.500000X1.500000*%
%TD*%
%TA.AperFunction,ComponentPad*%
%ADD13R,1.500000X1.500000*%
%TD*%
%TA.AperFunction,ComponentPad*%
%ADD14C,2.000000*%
%TD*%
%TA.AperFunction,ComponentPad*%
%ADD15C,3.000000*%
%TD*%
%TA.AperFunction,ComponentPad*%
%ADD16O,1.700000X1.700000*%
%TD*%
%TA.AperFunction,ComponentPad*%
%ADD17R,1.700000X1.700000*%
%TD*%
%TA.AperFunction,ViaPad*%
%ADD18C,0.800000*%
%TD*%
%TA.AperFunction,Conductor*%
%ADD19C,1.016000*%
%TD*%
%TA.AperFunction,Conductor*%
%ADD20C,0.381000*%
%TD*%
%TA.AperFunction,Conductor*%
%ADD21C,0.254000*%
%TD*%
G04 APERTURE END LIST*
D10*
%TO.P,R10,2*%
%TO.N,Net-(R10-Pad2)*%
X128016000Y-95123000D03*
D11*
%TO.P,R10,1*%
%TO.N,/ICSPDAT*%
X120396000Y-95123000D03*
%TD*%
D10*
%TO.P,R9,2*%
%TO.N,Net-(R9-Pad2)*%
X128016000Y-91948000D03*
D11*
%TO.P,R9,1*%
%TO.N,/ICSPCLK*%
X120396000Y-91948000D03*
%TD*%
D10*
%TO.P,R8,2*%
%TO.N,/~MCLR*%
X120396000Y-98298000D03*
D11*
%TO.P,R8,1*%
%TO.N,Net-(R8-Pad1)*%
X128016000Y-98298000D03*
%TD*%
D10*
%TO.P,R7,2*%
%TO.N,/~MCLR*%
X117475000Y-100711000D03*
D11*
%TO.P,R7,1*%
%TO.N,VDD*%
X117475000Y-108331000D03*
%TD*%
D10*
%TO.P,R6,2*%
%TO.N,VDD*%
X120396000Y-101473000D03*
D11*
%TO.P,R6,1*%
%TO.N,/Vref+*%
X128016000Y-101473000D03*
%TD*%
%TO.P,C4,2*%
%TO.N,GND*%
X151511000Y-101052000D03*
%TO.P,C4,1*%
%TO.N,VDD*%
X151511000Y-98552000D03*
%TD*%
%TO.P,C5,2*%
%TO.N,GND*%
X148336000Y-101052000D03*
%TO.P,C5,1*%
%TO.N,VDD*%
X148336000Y-98552000D03*
%TD*%
D10*
%TO.P,R5,2*%
%TO.N,/Vdiode*%
X161544000Y-103886000D03*
D11*
%TO.P,R5,1*%
%TO.N,Net-(C1-Pad1)*%
X161544000Y-96266000D03*
%TD*%
D10*
%TO.P,R4,2*%
%TO.N,GND*%
X156591000Y-94361000D03*
D11*
%TO.P,R4,1*%
%TO.N,/Vdivider*%
X148971000Y-94361000D03*
%TD*%
D10*
%TO.P,R3,2*%
%TO.N,Net-(C1-Pad1)*%
X156591000Y-91313000D03*
D11*
%TO.P,R3,1*%
%TO.N,/Vdivider*%
X148971000Y-91313000D03*
%TD*%
D12*
%TO.P,D1,2*%
%TO.N,Net-(D1-Pad2)*%
X167259000Y-107696000D03*
D13*
%TO.P,D1,1*%
%TO.N,Net-(C2-Pad1)*%
X159639000Y-107696000D03*
%TD*%
D11*
%TO.P,C2,2*%
%TO.N,GND*%
X158369000Y-104394000D03*
%TO.P,C2,1*%
%TO.N,Net-(C2-Pad1)*%
X155869000Y-104394000D03*
%TD*%
D12*
%TO.P,D3,2*%
%TO.N,/Vdiode*%
X164211000Y-104013000D03*
D13*
%TO.P,D3,1*%
%TO.N,GND*%
X164211000Y-96393000D03*
%TD*%
D14*
%TO.P,U4,13*%
%TO.N,/LCD3_B*%
X125667762Y-88461500D03*
%TO.P,U4,14*%
%TO.N,/LCD3_A*%
X128207762Y-88461500D03*
%TO.P,U4,15*%
%TO.N,/LCD3_F*%
X130747762Y-88461500D03*
%TO.P,U4,16*%
%TO.N,/LCD3_G*%
X133287762Y-88461500D03*
%TO.P,U4,17*%
%TO.N,/LCD2_B*%
X135827762Y-88461500D03*
%TO.P,U4,18*%
%TO.N,/LCD2_A*%
X138367762Y-88461500D03*
%TO.P,U4,19*%
%TO.N,/LCD2_F*%
X140907762Y-88461500D03*
%TO.P,U4,20*%
%TO.N,/LCD2_G*%
X143447762Y-88461500D03*
%TO.P,U4,21*%
%TO.N,/LCD1_B*%
X145987762Y-88461500D03*
%TO.P,U4,22*%
%TO.N,/LCD1_ADEG*%
X148527762Y-88461500D03*
%TO.P,U4,23*%
%TO.N,/LCD_COM*%
X151067762Y-88461500D03*
%TO.P,U4,24*%
%TO.N,/LCD1_ADEG*%
X153607762Y-88461500D03*
%TO.P,U4,1*%
%TO.N,/LCD_COM*%
X153607762Y-106561500D03*
%TO.P,U4,2*%
%TO.N,/LCD1_ADEG*%
X151067762Y-106561500D03*
%TO.P,U4,3*%
X148527762Y-106561500D03*
%TO.P,U4,4*%
%TO.N,/LCD1_C*%
X145987762Y-106561500D03*
%TO.P,U4,5*%
%TO.N,/LCD_COM*%
X143447762Y-106561500D03*
%TO.P,U4,6*%
%TO.N,/LCD2_E*%
X140907762Y-106561500D03*
%TO.P,U4,7*%
%TO.N,/LCD2_D*%
X138367762Y-106561500D03*
%TO.P,U4,8*%
%TO.N,/LCD2_C*%
X135827762Y-106561500D03*
%TO.P,U4,9*%
%TO.N,/LCD_DP2*%
X133287762Y-106561500D03*
%TO.P,U4,10*%
%TO.N,/LCD3_E*%
X130747762Y-106561500D03*
%TO.P,U4,11*%
%TO.N,/LCD3_D*%
X128207762Y-106561500D03*
%TO.P,U4,12*%
%TO.N,/LCD3_C*%
X125667762Y-106561500D03*
%TD*%
D15*
%TO.P,J1,2*%
%TO.N,GND*%
X179406000Y-100875000D03*
%TO.P,J1,1*%
%TO.N,Net-(D1-Pad2)*%
X176276000Y-97745000D03*
%TO.P,J1,2*%
%TO.N,GND*%
X173146000Y-100875000D03*
X179406000Y-94615000D03*
X173146000Y-94615000D03*
%TD*%
D16*
%TO.P,J2,5*%
%TO.N,/ICSPCLK*%
X117475000Y-87503000D03*
%TO.P,J2,4*%
%TO.N,/ICSPDAT*%
X117475000Y-90043000D03*
%TO.P,J2,3*%
%TO.N,GND*%
X117475000Y-92583000D03*
%TO.P,J2,2*%
%TO.N,VDD*%
X117475000Y-95123000D03*
D17*
%TO.P,J2,1*%
%TO.N,/~MCLR*%
X117475000Y-97663000D03*
%TD*%
D12*
%TO.P,D2,2*%
%TO.N,Net-(D1-Pad2)*%
X167386000Y-104013000D03*
D13*
%TO.P,D2,1*%
%TO.N,Net-(C1-Pad1)*%
X167386000Y-96393000D03*
%TD*%
D11*
%TO.P,C3,2*%
%TO.N,GND*%
X166370000Y-87884000D03*
%TO.P,C3,1*%
%TO.N,Net-(C1-Pad1)*%
X166370000Y-92884000D03*
%TD*%
%TO.P,C1,2*%
%TO.N,GND*%
X161925000Y-87837000D03*
%TO.P,C1,1*%
%TO.N,Net-(C1-Pad1)*%
X161925000Y-92837000D03*
%TD*%
D18*
%TO.N,GND*%
X144866111Y-99777409D03*
X137351762Y-97765500D03*
X158433762Y-87859500D03*
X122238762Y-107544500D03*
X122238762Y-87224500D03*
X122238762Y-89129500D03*
X126873000Y-86614000D03*
X131953000Y-86614000D03*
X137033000Y-86614000D03*
X141923762Y-86589500D03*
X147003762Y-86589500D03*
X155258762Y-86589500D03*
X141923762Y-108179500D03*
X137478762Y-108179500D03*
X132398762Y-108179500D03*
X126683762Y-108179500D03*
X138748762Y-101829500D03*
X143193762Y-103099500D03*
X134874000Y-102870000D03*
X123952000Y-108204000D03*
X152273000Y-108966000D03*
X138176000Y-96520000D03*
X144907000Y-102997000D03*
X134493000Y-105283000D03*
X142176500Y-105156000D03*
X156210000Y-89027000D03*
X148082000Y-108966000D03*
X151257000Y-94361000D03*
X153543000Y-94361000D03*
X151003000Y-91440000D03*
X153797000Y-91440000D03*
X147574000Y-92964000D03*
X148463000Y-103759000D03*
X150114000Y-103759000D03*
X152019000Y-103759000D03*
X149987000Y-99822000D03*
X147574000Y-96901000D03*
X149987000Y-97282000D03*
X153035000Y-97282000D03*
X157861000Y-100838000D03*
X154051000Y-103759000D03*
X165671500Y-104838500D03*
X164211000Y-98234500D03*
X163195000Y-90805000D03*
X166370000Y-90805000D03*
X185420000Y-105664000D03*
X190119000Y-108839000D03*
X171450000Y-87630000D03*
X175260000Y-87630000D03*
X177927000Y-87630000D03*
X182372000Y-92837000D03*
X190690500Y-102362000D03*
X180340000Y-90805000D03*
X195199000Y-85979000D03*
X194564000Y-108839000D03*
X194818000Y-102425500D03*
X153670000Y-100965000D03*
X180721000Y-87693500D03*
X163131500Y-94805500D03*
X133223000Y-92456000D03*
X131064000Y-92583000D03*
X133223000Y-94488000D03*
X117348000Y-102870000D03*
X123317000Y-101473000D03*
X125603000Y-100203000D03*
X123698000Y-98044000D03*
X125476000Y-95758000D03*
X122936000Y-94234000D03*
X125095000Y-91948000D03*
X122809000Y-91059000D03*
X130937000Y-101219000D03*
X119253000Y-99949000D03*
X119761000Y-108204000D03*
X119761000Y-86868000D03*
X194310000Y-92900500D03*
X193929000Y-98806000D03*
X192913000Y-97790000D03*
X193929000Y-96774000D03*
X193929000Y-94742000D03*
X192913000Y-95758000D03*
X191897000Y-96774000D03*
X190881000Y-97790000D03*
X191897000Y-98806000D03*
X192913000Y-99822000D03*
X193929000Y-100838000D03*
X191897000Y-100838000D03*
X190881000Y-99822000D03*
X189865000Y-100838000D03*
X189865000Y-98806000D03*
X188849000Y-99822000D03*
X188849000Y-97790000D03*
X188849000Y-95758000D03*
X189865000Y-96774000D03*
X190881000Y-95758000D03*
X191897000Y-94742000D03*
X189865000Y-94742000D03*
X183959500Y-90614500D03*
X185547000Y-88646000D03*
X186436000Y-92964000D03*
X191008000Y-92964000D03*
X189103000Y-102362000D03*
X194818000Y-95250000D03*
X194818000Y-97536000D03*
X194818000Y-99822000D03*
X193103500Y-102425500D03*
X159512000Y-94742000D03*
X165671500Y-103187500D03*
X165671500Y-105664000D03*
X165671500Y-102362000D03*
X165671500Y-104013000D03*
X173355000Y-90805000D03*
X177165000Y-90805000D03*
X169545000Y-90805000D03*
X164846000Y-105664000D03*
X165735000Y-94488000D03*
X163957000Y-105664000D03*
X163068000Y-105664000D03*
X162179000Y-105664000D03*
X161290000Y-105664000D03*
X160147000Y-104394000D03*
X160528000Y-105156000D03*
X159829500Y-98933000D03*
X159448500Y-101600000D03*
X163576000Y-100457000D03*
X179832000Y-108839000D03*
X179832000Y-106299000D03*
X181991000Y-108839000D03*
X185547000Y-108839000D03*
X183769000Y-103822500D03*
X160147000Y-103505000D03*
X160147000Y-102616000D03*
X164465000Y-107696000D03*
X161925000Y-107696000D03*
%TO.N,VDD*%
X141034762Y-98527500D03*
X129032000Y-103505000D03*
%TO.N,Net-(R9-Pad2)*%
X144590762Y-91190000D03*
%TO.N,/LCD_COM*%
X146387981Y-95860500D03*
%TO.N,/LCD_DP2*%
X144082762Y-104623500D03*
%TO.N,/LCD1_ADEG*%
X145479762Y-96495500D03*
%TO.N,/LCD1_C*%
X144336762Y-97327000D03*
%TO.N,Net-(R10-Pad2)*%
X143320762Y-91190000D03*
X129921000Y-91821000D03*
%TD*%
D19*
%TO.N,GND*%
X179070000Y-100875000D02*
X179070000Y-94615000D01*
X172085000Y-100875000D02*
X172085000Y-94615000D01*
D20*
%TO.N,VDD*%
X141034762Y-98527500D02*
X141034762Y-101471738D01*
X141034762Y-101471738D02*
X138845999Y-103660501D01*
X131712794Y-103645794D02*
X131727501Y-103660501D01*
X138845999Y-103660501D02*
X131727501Y-103660501D01*
X131727501Y-103660501D02*
X130522263Y-103660501D01*
X129187501Y-103660501D02*
X129032000Y-103505000D01*
X130522263Y-103660501D02*
X129187501Y-103660501D01*
%TO.N,Net-(R9-Pad2)*%
X128016000Y-91567000D02*
X128016000Y-91948000D01*
X129310500Y-90272500D02*
X128016000Y-91567000D01*
X143673262Y-90272500D02*
X129310500Y-90272500D01*
X144590762Y-91190000D02*
X143673262Y-90272500D01*
%TO.N,/LCD_COM*%
X144838263Y-107952001D02*
X143447762Y-106561500D01*
X152217261Y-107952001D02*
X144838263Y-107952001D01*
X153607762Y-106561500D02*
X152217261Y-107952001D01*
X147076772Y-98032838D02*
X147076772Y-104288838D01*
X147538434Y-104750500D02*
X151796762Y-104750500D01*
X151796762Y-104750500D02*
X153607762Y-106561500D01*
X147076772Y-104288838D02*
X147538434Y-104750500D01*
X146387981Y-95860500D02*
X146387981Y-97344047D01*
X146387981Y-97344047D02*
X147076772Y-98032838D01*
X149677261Y-89852001D02*
X148186261Y-89852001D01*
X146387981Y-91650281D02*
X146387981Y-95860500D01*
X148186261Y-89852001D02*
X146387981Y-91650281D01*
X151067762Y-88461500D02*
X149677261Y-89852001D01*
%TO.N,/LCD_DP2*%
X133381762Y-106561500D02*
X133287762Y-106561500D01*
X133287762Y-104773738D02*
X133819989Y-104241511D01*
X133819989Y-104241511D02*
X139153989Y-104241511D01*
X133287762Y-106561500D02*
X133287762Y-104773738D01*
X139153989Y-104241511D02*
X139179478Y-104267000D01*
X143726262Y-104267000D02*
X144082762Y-104623500D01*
X139179478Y-104267000D02*
X143726262Y-104267000D01*
%TO.N,/LCD1_ADEG*%
X148527762Y-88461500D02*
X148527762Y-87351500D01*
X148808263Y-87070999D02*
X153327261Y-87070999D01*
X148527762Y-87351500D02*
X148808263Y-87070999D01*
X153607762Y-87351500D02*
X153607762Y-88461500D01*
X153327261Y-87070999D02*
X153607762Y-87351500D01*
X148527762Y-106561500D02*
X151067762Y-106561500D01*
X146495762Y-104529500D02*
X148527762Y-106561500D01*
X146495762Y-98273500D02*
X146495762Y-104529500D01*
X145508263Y-91480999D02*
X148527762Y-88461500D01*
X145508263Y-95450999D02*
X145508263Y-91480999D01*
X145479762Y-95479500D02*
X145508263Y-95450999D01*
X145479762Y-96495500D02*
X145479762Y-95479500D01*
X145479762Y-97257500D02*
X146495762Y-98273500D01*
X145479762Y-96495500D02*
X145479762Y-97257500D01*
%TO.N,/LCD1_C*%
X145733762Y-106307500D02*
X145987762Y-106561500D01*
X145733762Y-98724000D02*
X145733762Y-106307500D01*
X144336762Y-97327000D02*
X145733762Y-98724000D01*
%TO.N,Net-(R10-Pad2)*%
X143320762Y-91190000D02*
X142984272Y-90853510D01*
X132666490Y-90853510D02*
X130888490Y-90853510D01*
X142984272Y-90853510D02*
X132666490Y-90853510D01*
X132666490Y-90853510D02*
X132225694Y-90853510D01*
X130888490Y-90853510D02*
X129921000Y-91821000D01*
%TD*%
D21*
%TO.N,GND*%
G36*
X196723000Y-109220199D02*
G01*
X178435000Y-109248909D01*
X178435000Y-106226828D01*
X181660409Y-103187500D01*
X188214000Y-103187500D01*
X188238562Y-103185102D01*
X188262398Y-103177916D01*
X188284375Y-103166218D01*
X188303648Y-103150457D01*
X188319475Y-103131239D01*
X188331249Y-103109303D01*
X188338517Y-103085491D01*
X188341000Y-103060719D01*
X188354891Y-95002172D01*
X188352353Y-94976688D01*
X188345032Y-94952892D01*
X188333210Y-94930982D01*
X188317340Y-94911799D01*
X188298033Y-94896080D01*
X188276031Y-94884430D01*
X188252178Y-94877297D01*
X188227393Y-94874954D01*
X181525112Y-94901257D01*
X181550902Y-94572176D01*
X181501334Y-94154549D01*
X181371243Y-93754617D01*
X181213214Y-93458962D01*
X180897653Y-93302952D01*
X179585605Y-94615000D01*
X179599748Y-94629143D01*
X179420143Y-94808748D01*
X179406000Y-94794605D01*
X179391858Y-94808748D01*
X179212253Y-94629143D01*
X179226395Y-94615000D01*
X177914347Y-93302952D01*
X177598786Y-93458962D01*
X177407980Y-93833745D01*
X177373419Y-93956443D01*
X175183143Y-93975656D01*
X175111243Y-93754617D01*
X174953214Y-93458962D01*
X174637653Y-93302952D01*
X173954168Y-93986437D01*
X173591779Y-93989616D01*
X174458048Y-93123347D01*
X178093952Y-93123347D01*
X179406000Y-94435395D01*
X180718048Y-93123347D01*
X180562038Y-92807786D01*
X180187255Y-92616980D01*
X179782449Y-92502956D01*
X179363176Y-92470098D01*
X178945549Y-92519666D01*
X178545617Y-92649757D01*
X178249962Y-92807786D01*
X178093952Y-93123347D01*
X174458048Y-93123347D01*
X174302038Y-92807786D01*
X173927255Y-92616980D01*
X173522449Y-92502956D01*
X173103176Y-92470098D01*
X172685549Y-92519666D01*
X172285617Y-92649757D01*
X171989962Y-92807786D01*
X171833952Y-93123347D01*
X172707973Y-93997368D01*
X172351887Y-94000492D01*
X171654347Y-93302952D01*
X171338786Y-93458962D01*
X171147980Y-93833745D01*
X171097913Y-94011492D01*
X171067886Y-94011755D01*
X171044224Y-94014190D01*
X171020399Y-94021417D01*
X170998443Y-94033153D01*
X170979197Y-94048947D01*
X170963403Y-94068193D01*
X170951667Y-94090149D01*
X170944440Y-94113974D01*
X170942000Y-94138750D01*
X170942000Y-96702692D01*
X168400976Y-98252097D01*
X165948580Y-98266252D01*
X165925653Y-98268473D01*
X165901765Y-98275487D01*
X165879704Y-98287026D01*
X165860318Y-98302647D01*
X165844352Y-98321750D01*
X165832420Y-98343601D01*
X165824980Y-98367359D01*
X165822318Y-98392113D01*
X165724936Y-109268861D01*
X118085206Y-109343649D01*
X118227843Y-109248342D01*
X118392342Y-109083843D01*
X118521588Y-108890413D01*
X118610614Y-108675485D01*
X118656000Y-108447318D01*
X118656000Y-108214682D01*
X118610614Y-107986515D01*
X118521588Y-107771587D01*
X118392342Y-107578157D01*
X118227843Y-107413658D01*
X118034413Y-107284412D01*
X117819485Y-107195386D01*
X117591318Y-107150000D01*
X117358682Y-107150000D01*
X117130515Y-107195386D01*
X116915587Y-107284412D01*
X116722157Y-107413658D01*
X116557658Y-107578157D01*
X116428412Y-107771587D01*
X116339386Y-107986515D01*
X116294000Y-108214682D01*
X116294000Y-108447318D01*
X116339386Y-108675485D01*
X116428412Y-108890413D01*
X116557658Y-109083843D01*
X116722157Y-109248342D01*
X116867654Y-109345560D01*
X116078000Y-109346800D01*
X116078000Y-100594682D01*
X116294000Y-100594682D01*
X116294000Y-100827318D01*
X116339386Y-101055485D01*
X116428412Y-101270413D01*
X116557658Y-101463843D01*
X116722157Y-101628342D01*
X116915587Y-101757588D01*
X117130515Y-101846614D01*
X117358682Y-101892000D01*
X117591318Y-101892000D01*
X117819485Y-101846614D01*
X118034413Y-101757588D01*
X118227843Y-101628342D01*
X118392342Y-101463843D01*
X118463944Y-101356682D01*
X119215000Y-101356682D01*
X119215000Y-101589318D01*
X119260386Y-101817485D01*
X119349412Y-102032413D01*
X119478658Y-102225843D01*
X119643157Y-102390342D01*
X119836587Y-102519588D01*
X120051515Y-102608614D01*
X120279682Y-102654000D01*
X120512318Y-102654000D01*
X120740485Y-102608614D01*
X120955413Y-102519588D01*
X121148843Y-102390342D01*
X121313342Y-102225843D01*
X121442588Y-102032413D01*
X121531614Y-101817485D01*
X121577000Y-101589318D01*
X121577000Y-101356682D01*
X126835000Y-101356682D01*
X126835000Y-101589318D01*
X126880386Y-101817485D01*
X126969412Y-102032413D01*
X127098658Y-102225843D01*
X127263157Y-102390342D01*
X127456587Y-102519588D01*
X127671515Y-102608614D01*
X127899682Y-102654000D01*
X128132318Y-102654000D01*
X128360485Y-102608614D01*
X128575413Y-102519588D01*
X128768843Y-102390342D01*
X128933342Y-102225843D01*
X129062588Y-102032413D01*
X129151614Y-101817485D01*
X129197000Y-101589318D01*
X129197000Y-101356682D01*
X129151614Y-101128515D01*
X129062588Y-100913587D01*
X128933342Y-100720157D01*
X128768843Y-100555658D01*
X128575413Y-100426412D01*
X128360485Y-100337386D01*
X128132318Y-100292000D01*
X127899682Y-100292000D01*
X127671515Y-100337386D01*
X127456587Y-100426412D01*
X127263157Y-100555658D01*
X127098658Y-100720157D01*
X126969412Y-100913587D01*
X126880386Y-101128515D01*
X126835000Y-101356682D01*
X121577000Y-101356682D01*
X121531614Y-101128515D01*
X121442588Y-100913587D01*
X121313342Y-100720157D01*
X121148843Y-100555658D01*
X120955413Y-100426412D01*
X120740485Y-100337386D01*
X120512318Y-100292000D01*
X120279682Y-100292000D01*
X120051515Y-100337386D01*
X119836587Y-100426412D01*
X119643157Y-100555658D01*
X119478658Y-100720157D01*
X119349412Y-100913587D01*
X119260386Y-101128515D01*
X119215000Y-101356682D01*
X118463944Y-101356682D01*
X118521588Y-101270413D01*
X118610614Y-101055485D01*
X118656000Y-100827318D01*
X118656000Y-100594682D01*
X118610614Y-100366515D01*
X118521588Y-100151587D01*
X118392342Y-99958157D01*
X118227843Y-99793658D01*
X118034413Y-99664412D01*
X117819485Y-99575386D01*
X117591318Y-99530000D01*
X117358682Y-99530000D01*
X117130515Y-99575386D01*
X116915587Y-99664412D01*
X116722157Y-99793658D01*
X116557658Y-99958157D01*
X116428412Y-100151587D01*
X116339386Y-100366515D01*
X116294000Y-100594682D01*
X116078000Y-100594682D01*
X116078000Y-96813000D01*
X116242157Y-96813000D01*
X116242157Y-98513000D01*
X116249513Y-98587689D01*
X116271299Y-98659508D01*
X116306678Y-98725696D01*
X116354289Y-98783711D01*
X116412304Y-98831322D01*
X116478492Y-98866701D01*
X116550311Y-98888487D01*
X116625000Y-98895843D01*
X118325000Y-98895843D01*
X118399689Y-98888487D01*
X118471508Y-98866701D01*
X118537696Y-98831322D01*
X118595711Y-98783711D01*
X118643322Y-98725696D01*
X118678701Y-98659508D01*
X118700487Y-98587689D01*
X118707843Y-98513000D01*
X118707843Y-98181682D01*
X119215000Y-98181682D01*
X119215000Y-98414318D01*
X119260386Y-98642485D01*
X119349412Y-98857413D01*
X119478658Y-99050843D01*
X119643157Y-99215342D01*
X119836587Y-99344588D01*
X120051515Y-99433614D01*
X120279682Y-99479000D01*
X120512318Y-99479000D01*
X120740485Y-99433614D01*
X120955413Y-99344588D01*
X121148843Y-99215342D01*
X121313342Y-99050843D01*
X121442588Y-98857413D01*
X121531614Y-98642485D01*
X121577000Y-98414318D01*
X121577000Y-98181682D01*
X126835000Y-98181682D01*
X126835000Y-98414318D01*
X126880386Y-98642485D01*
X126969412Y-98857413D01*
X127098658Y-99050843D01*
X127263157Y-99215342D01*
X127456587Y-99344588D01*
X127671515Y-99433614D01*
X127899682Y-99479000D01*
X128132318Y-99479000D01*
X128360485Y-99433614D01*
X128575413Y-99344588D01*
X128768843Y-99215342D01*
X128933342Y-99050843D01*
X129062588Y-98857413D01*
X129151614Y-98642485D01*
X129197000Y-98414318D01*
X129197000Y-98181682D01*
X129151614Y-97953515D01*
X129062588Y-97738587D01*
X128933342Y-97545157D01*
X128768843Y-97380658D01*
X128575413Y-97251412D01*
X128360485Y-97162386D01*
X128132318Y-97117000D01*
X127899682Y-97117000D01*
X127671515Y-97162386D01*
X127456587Y-97251412D01*
X127263157Y-97380658D01*
X127098658Y-97545157D01*
X126969412Y-97738587D01*
X126880386Y-97953515D01*
X126835000Y-98181682D01*
X121577000Y-98181682D01*
X121531614Y-97953515D01*
X121442588Y-97738587D01*
X121313342Y-97545157D01*
X121148843Y-97380658D01*
X120955413Y-97251412D01*
X120740485Y-97162386D01*
X120512318Y-97117000D01*
X120279682Y-97117000D01*
X120051515Y-97162386D01*
X119836587Y-97251412D01*
X119643157Y-97380658D01*
X119478658Y-97545157D01*
X119349412Y-97738587D01*
X119260386Y-97953515D01*
X119215000Y-98181682D01*
X118707843Y-98181682D01*
X118707843Y-96813000D01*
X118700487Y-96738311D01*
X118678701Y-96666492D01*
X118643322Y-96600304D01*
X118595711Y-96542289D01*
X118537696Y-96494678D01*
X118471508Y-96459299D01*
X118399689Y-96437513D01*
X118325000Y-96430157D01*
X116625000Y-96430157D01*
X116550311Y-96437513D01*
X116478492Y-96459299D01*
X116412304Y-96494678D01*
X116354289Y-96542289D01*
X116306678Y-96600304D01*
X116271299Y-96666492D01*
X116249513Y-96738311D01*
X116242157Y-96813000D01*
X116078000Y-96813000D01*
X116078000Y-93086522D01*
X116078175Y-93087099D01*
X116203359Y-93349920D01*
X116377412Y-93583269D01*
X116593645Y-93778178D01*
X116843748Y-93927157D01*
X117006168Y-93984772D01*
X116891903Y-94032102D01*
X116690283Y-94166820D01*
X116518820Y-94338283D01*
X116384102Y-94539903D01*
X116291307Y-94763931D01*
X116244000Y-95001757D01*
X116244000Y-95244243D01*
X116291307Y-95482069D01*
X116384102Y-95706097D01*
X116518820Y-95907717D01*
X116690283Y-96079180D01*
X116891903Y-96213898D01*
X117115931Y-96306693D01*
X117353757Y-96354000D01*
X117596243Y-96354000D01*
X117834069Y-96306693D01*
X118058097Y-96213898D01*
X118259717Y-96079180D01*
X118431180Y-95907717D01*
X118565898Y-95706097D01*
X118658693Y-95482069D01*
X118706000Y-95244243D01*
X118706000Y-95006682D01*
X119215000Y-95006682D01*
X119215000Y-95239318D01*
X119260386Y-95467485D01*
X119349412Y-95682413D01*
X119478658Y-95875843D01*
X119643157Y-96040342D01*
X119836587Y-96169588D01*
X120051515Y-96258614D01*
X120279682Y-96304000D01*
X120512318Y-96304000D01*
X120740485Y-96258614D01*
X120955413Y-96169588D01*
X121148843Y-96040342D01*
X121313342Y-95875843D01*
X121442588Y-95682413D01*
X121531614Y-95467485D01*
X121577000Y-95239318D01*
X121577000Y-95006682D01*
X126835000Y-95006682D01*
X126835000Y-95239318D01*
X126880386Y-95467485D01*
X126969412Y-95682413D01*
X127098658Y-95875843D01*
X127263157Y-96040342D01*
X127456587Y-96169588D01*
X127671515Y-96258614D01*
X127899682Y-96304000D01*
X128132318Y-96304000D01*
X128360485Y-96258614D01*
X128575413Y-96169588D01*
X128768843Y-96040342D01*
X128933342Y-95875843D01*
X129062588Y-95682413D01*
X129151614Y-95467485D01*
X129197000Y-95239318D01*
X129197000Y-95006682D01*
X129151614Y-94778515D01*
X129062588Y-94563587D01*
X128933342Y-94370157D01*
X128768843Y-94205658D01*
X128575413Y-94076412D01*
X128360485Y-93987386D01*
X128132318Y-93942000D01*
X127899682Y-93942000D01*
X127671515Y-93987386D01*
X127456587Y-94076412D01*
X127263157Y-94205658D01*
X127098658Y-94370157D01*
X126969412Y-94563587D01*
X126880386Y-94778515D01*
X126835000Y-95006682D01*
X121577000Y-95006682D01*
X121531614Y-94778515D01*
X121442588Y-94563587D01*
X121313342Y-94370157D01*
X121148843Y-94205658D01*
X120955413Y-94076412D01*
X120740485Y-93987386D01*
X120512318Y-93942000D01*
X120279682Y-93942000D01*
X120051515Y-93987386D01*
X119836587Y-94076412D01*
X119643157Y-94205658D01*
X119478658Y-94370157D01*
X119349412Y-94563587D01*
X119260386Y-94778515D01*
X119215000Y-95006682D01*
X118706000Y-95006682D01*
X118706000Y-95001757D01*
X118658693Y-94763931D01*
X118565898Y-94539903D01*
X118431180Y-94338283D01*
X118259717Y-94166820D01*
X118058097Y-94032102D01*
X117943832Y-93984772D01*
X118106252Y-93927157D01*
X118356355Y-93778178D01*
X118572588Y-93583269D01*
X118746641Y-93349920D01*
X118871825Y-93087099D01*
X118916476Y-92939890D01*
X118795155Y-92710000D01*
X117602000Y-92710000D01*
X117602000Y-92730000D01*
X117348000Y-92730000D01*
X117348000Y-92710000D01*
X117328000Y-92710000D01*
X117328000Y-92456000D01*
X117348000Y-92456000D01*
X117348000Y-92436000D01*
X117602000Y-92436000D01*
X117602000Y-92456000D01*
X118795155Y-92456000D01*
X118916476Y-92226110D01*
X118871825Y-92078901D01*
X118754073Y-91831682D01*
X119215000Y-91831682D01*
X119215000Y-92064318D01*
X119260386Y-92292485D01*
X119349412Y-92507413D01*
X119478658Y-92700843D01*
X119643157Y-92865342D01*
X119836587Y-92994588D01*
X120051515Y-93083614D01*
X120279682Y-93129000D01*
X120512318Y-93129000D01*
X120740485Y-93083614D01*
X120955413Y-92994588D01*
X121148843Y-92865342D01*
X121313342Y-92700843D01*
X121442588Y-92507413D01*
X121531614Y-92292485D01*
X121577000Y-92064318D01*
X121577000Y-91831682D01*
X121531614Y-91603515D01*
X121442588Y-91388587D01*
X121313342Y-91195157D01*
X121148843Y-91030658D01*
X120955413Y-90901412D01*
X120740485Y-90812386D01*
X120512318Y-90767000D01*
X120279682Y-90767000D01*
X120051515Y-90812386D01*
X119836587Y-90901412D01*
X119643157Y-91030658D01*
X119478658Y-91195157D01*
X119349412Y-91388587D01*
X119260386Y-91603515D01*
X119215000Y-91831682D01*
X118754073Y-91831682D01*
X118746641Y-91816080D01*
X118572588Y-91582731D01*
X118356355Y-91387822D01*
X118106252Y-91238843D01*
X117943832Y-91181228D01*
X118058097Y-91133898D01*
X118259717Y-90999180D01*
X118431180Y-90827717D01*
X118565898Y-90626097D01*
X118658693Y-90402069D01*
X118706000Y-90164243D01*
X118706000Y-89921757D01*
X118658693Y-89683931D01*
X118565898Y-89459903D01*
X118431180Y-89258283D01*
X118259717Y-89086820D01*
X118058097Y-88952102D01*
X117834069Y-88859307D01*
X117596243Y-88812000D01*
X117353757Y-88812000D01*
X117115931Y-88859307D01*
X116891903Y-88952102D01*
X116690283Y-89086820D01*
X116518820Y-89258283D01*
X116384102Y-89459903D01*
X116291307Y-89683931D01*
X116244000Y-89921757D01*
X116244000Y-90164243D01*
X116291307Y-90402069D01*
X116384102Y-90626097D01*
X116518820Y-90827717D01*
X116690283Y-90999180D01*
X116891903Y-91133898D01*
X117006168Y-91181228D01*
X116843748Y-91238843D01*
X116593645Y-91387822D01*
X116377412Y-91582731D01*
X116203359Y-91816080D01*
X116078175Y-92078901D01*
X116078000Y-92079478D01*
X116078000Y-87381757D01*
X116244000Y-87381757D01*
X116244000Y-87624243D01*
X116291307Y-87862069D01*
X116384102Y-88086097D01*
X116518820Y-88287717D01*
X116690283Y-88459180D01*
X116891903Y-88593898D01*
X117115931Y-88686693D01*
X117353757Y-88734000D01*
X117596243Y-88734000D01*
X117834069Y-88686693D01*
X118058097Y-88593898D01*
X118259717Y-88459180D01*
X118393414Y-88325483D01*
X124286762Y-88325483D01*
X124286762Y-88597517D01*
X124339833Y-88864323D01*
X124443936Y-89115649D01*
X124595069Y-89341836D01*
X124787426Y-89534193D01*
X125013613Y-89685326D01*
X125264939Y-89789429D01*
X125531745Y-89842500D01*
X125803779Y-89842500D01*
X126070585Y-89789429D01*
X126321911Y-89685326D01*
X126548098Y-89534193D01*
X126740455Y-89341836D01*
X126891588Y-89115649D01*
X126937762Y-89004175D01*
X126983936Y-89115649D01*
X127135069Y-89341836D01*
X127327426Y-89534193D01*
X127553613Y-89685326D01*
X127804939Y-89789429D01*
X128071745Y-89842500D01*
X128343779Y-89842500D01*
X128610585Y-89789429D01*
X128861911Y-89685326D01*
X129088098Y-89534193D01*
X129280455Y-89341836D01*
X129431588Y-89115649D01*
X129477762Y-89004175D01*
X129523936Y-89115649D01*
X129675069Y-89341836D01*
X129867426Y-89534193D01*
X130093613Y-89685326D01*
X130131453Y-89701000D01*
X129338571Y-89701000D01*
X129310499Y-89698235D01*
X129282427Y-89701000D01*
X129282426Y-89701000D01*
X129198466Y-89709269D01*
X129090738Y-89741948D01*
X128991455Y-89795016D01*
X128904433Y-89866433D01*
X128886534Y-89888243D01*
X128007778Y-90767000D01*
X127899682Y-90767000D01*
X127671515Y-90812386D01*
X127456587Y-90901412D01*
X127263157Y-91030658D01*
X127098658Y-91195157D01*
X126969412Y-91388587D01*
X126880386Y-91603515D01*
X126835000Y-91831682D01*
X126835000Y-92064318D01*
X126880386Y-92292485D01*
X126969412Y-92507413D01*
X127098658Y-92700843D01*
X127263157Y-92865342D01*
X127456587Y-92994588D01*
X127671515Y-93083614D01*
X127899682Y-93129000D01*
X128132318Y-93129000D01*
X128360485Y-93083614D01*
X128575413Y-92994588D01*
X128768843Y-92865342D01*
X128933342Y-92700843D01*
X129062588Y-92507413D01*
X129151614Y-92292485D01*
X129190329Y-92097855D01*
X129228887Y-92190942D01*
X129314358Y-92318859D01*
X129423141Y-92427642D01*
X129551058Y-92513113D01*
X129693191Y-92571987D01*
X129844078Y-92602000D01*
X129997922Y-92602000D01*
X130148809Y-92571987D01*
X130290942Y-92513113D01*
X130418859Y-92427642D01*
X130527642Y-92318859D01*
X130613113Y-92190942D01*
X130671987Y-92048809D01*
X130702000Y-91897922D01*
X130702000Y-91848222D01*
X131125213Y-91425010D01*
X142572758Y-91425010D01*
X142628649Y-91559942D01*
X142714120Y-91687859D01*
X142822903Y-91796642D01*
X142950820Y-91882113D01*
X143092953Y-91940987D01*
X143243840Y-91971000D01*
X143397684Y-91971000D01*
X143548571Y-91940987D01*
X143690704Y-91882113D01*
X143818621Y-91796642D01*
X143927404Y-91687859D01*
X143955762Y-91645418D01*
X143984120Y-91687859D01*
X144092903Y-91796642D01*
X144220820Y-91882113D01*
X144362953Y-91940987D01*
X144513840Y-91971000D01*
X144667684Y-91971000D01*
X144818571Y-91940987D01*
X144936764Y-91892029D01*
X144936763Y-95300771D01*
X144916531Y-95367467D01*
X144905497Y-95479500D01*
X144908263Y-95507584D01*
X144908263Y-95962498D01*
X144873120Y-95997641D01*
X144787649Y-96125558D01*
X144728775Y-96267691D01*
X144698762Y-96418578D01*
X144698762Y-96572422D01*
X144711874Y-96638342D01*
X144706704Y-96634887D01*
X144564571Y-96576013D01*
X144413684Y-96546000D01*
X144259840Y-96546000D01*
X144108953Y-96576013D01*
X143966820Y-96634887D01*
X143838903Y-96720358D01*
X143730120Y-96829141D01*
X143644649Y-96957058D01*
X143585775Y-97099191D01*
X143555762Y-97250078D01*
X143555762Y-97403922D01*
X143585775Y-97554809D01*
X143644649Y-97696942D01*
X143730120Y-97824859D01*
X143838903Y-97933642D01*
X143966820Y-98019113D01*
X144108953Y-98077987D01*
X144259840Y-98108000D01*
X144309540Y-98108000D01*
X145162262Y-98960723D01*
X145162263Y-105452166D01*
X145107426Y-105488807D01*
X144915069Y-105681164D01*
X144763936Y-105907351D01*
X144717762Y-106018825D01*
X144671588Y-105907351D01*
X144520455Y-105681164D01*
X144328098Y-105488807D01*
X144192234Y-105398026D01*
X144310571Y-105374487D01*
X144452704Y-105315613D01*
X144580621Y-105230142D01*
X144689404Y-105121359D01*
X144774875Y-104993442D01*
X144833749Y-104851309D01*
X144863762Y-104700422D01*
X144863762Y-104546578D01*
X144833749Y-104395691D01*
X144774875Y-104253558D01*
X144689404Y-104125641D01*
X144580621Y-104016858D01*
X144452704Y-103931387D01*
X144310571Y-103872513D01*
X144159684Y-103842500D01*
X144109868Y-103842500D01*
X144045307Y-103789516D01*
X143946024Y-103736448D01*
X143838296Y-103703769D01*
X143754336Y-103695500D01*
X143726262Y-103692735D01*
X143698188Y-103695500D01*
X139619222Y-103695500D01*
X141419019Y-101895704D01*
X141440829Y-101877805D01*
X141512246Y-101790783D01*
X141565314Y-101691500D01*
X141597993Y-101583772D01*
X141606262Y-101499812D01*
X141606262Y-101499811D01*
X141609027Y-101471739D01*
X141606262Y-101443667D01*
X141606262Y-99060501D01*
X141641404Y-99025359D01*
X141726875Y-98897442D01*
X141785749Y-98755309D01*
X141815762Y-98604422D01*
X141815762Y-98450578D01*
X141785749Y-98299691D01*
X141726875Y-98157558D01*
X141641404Y-98029641D01*
X141532621Y-97920858D01*
X141404704Y-97835387D01*
X141262571Y-97776513D01*
X141111684Y-97746500D01*
X140957840Y-97746500D01*
X140806953Y-97776513D01*
X140664820Y-97835387D01*
X140536903Y-97920858D01*
X140428120Y-98029641D01*
X140342649Y-98157558D01*
X140283775Y-98299691D01*
X140253762Y-98450578D01*
X140253762Y-98604422D01*
X140283775Y-98755309D01*
X140342649Y-98897442D01*
X140428120Y-99025359D01*
X140463262Y-99060501D01*
X140463263Y-101235014D01*
X138609277Y-103089001D01*
X131846050Y-103089001D01*
X131824827Y-103082563D01*
X131712794Y-103071529D01*
X131600761Y-103082563D01*
X131579538Y-103089001D01*
X129693339Y-103089001D01*
X129638642Y-103007141D01*
X129529859Y-102898358D01*
X129401942Y-102812887D01*
X129259809Y-102754013D01*
X129108922Y-102724000D01*
X128955078Y-102724000D01*
X128804191Y-102754013D01*
X128662058Y-102812887D01*
X128534141Y-102898358D01*
X128425358Y-103007141D01*
X128339887Y-103135058D01*
X128281013Y-103277191D01*
X128251000Y-103428078D01*
X128251000Y-103581922D01*
X128281013Y-103732809D01*
X128339887Y-103874942D01*
X128425358Y-104002859D01*
X128534141Y-104111642D01*
X128662058Y-104197113D01*
X128804191Y-104255987D01*
X128955078Y-104286000D01*
X129108922Y-104286000D01*
X129259809Y-104255987D01*
X129317716Y-104232001D01*
X131699427Y-104232001D01*
X131727501Y-104234766D01*
X131755575Y-104232001D01*
X133021277Y-104232001D01*
X132903505Y-104349772D01*
X132881696Y-104367671D01*
X132858701Y-104395691D01*
X132810278Y-104454694D01*
X132757210Y-104553977D01*
X132724531Y-104661705D01*
X132713497Y-104773738D01*
X132716263Y-104801822D01*
X132716263Y-105303439D01*
X132633613Y-105337674D01*
X132407426Y-105488807D01*
X132215069Y-105681164D01*
X132063936Y-105907351D01*
X132017762Y-106018825D01*
X131971588Y-105907351D01*
X131820455Y-105681164D01*
X131628098Y-105488807D01*
X131401911Y-105337674D01*
X131150585Y-105233571D01*
X130883779Y-105180500D01*
X130611745Y-105180500D01*
X130344939Y-105233571D01*
X130093613Y-105337674D01*
X129867426Y-105488807D01*
X129675069Y-105681164D01*
X129523936Y-105907351D01*
X129477762Y-106018825D01*
X129431588Y-105907351D01*
X129280455Y-105681164D01*
X129088098Y-105488807D01*
X128861911Y-105337674D01*
X128610585Y-105233571D01*
X128343779Y-105180500D01*
X128071745Y-105180500D01*
X127804939Y-105233571D01*
X127553613Y-105337674D01*
X127327426Y-105488807D01*
X127135069Y-105681164D01*
X126983936Y-105907351D01*
X126937762Y-106018825D01*
X126891588Y-105907351D01*
X126740455Y-105681164D01*
X126548098Y-105488807D01*
X126321911Y-105337674D01*
X126070585Y-105233571D01*
X125803779Y-105180500D01*
X125531745Y-105180500D01*
X125264939Y-105233571D01*
X125013613Y-105337674D01*
X124787426Y-105488807D01*
X124595069Y-105681164D01*
X124443936Y-105907351D01*
X124339833Y-106158677D01*
X124286762Y-106425483D01*
X124286762Y-106697517D01*
X124339833Y-106964323D01*
X124443936Y-107215649D01*
X124595069Y-107441836D01*
X124787426Y-107634193D01*
X125013613Y-107785326D01*
X125264939Y-107889429D01*
X125531745Y-107942500D01*
X125803779Y-107942500D01*
X126070585Y-107889429D01*
X126321911Y-107785326D01*
X126548098Y-107634193D01*
X126740455Y-107441836D01*
X126891588Y-107215649D01*
X126937762Y-107104175D01*
X126983936Y-107215649D01*
X127135069Y-107441836D01*
X127327426Y-107634193D01*
X127553613Y-107785326D01*
X127804939Y-107889429D01*
X128071745Y-107942500D01*
X128343779Y-107942500D01*
X128610585Y-107889429D01*
X128861911Y-107785326D01*
X129088098Y-107634193D01*
X129280455Y-107441836D01*
X129431588Y-107215649D01*
X129477762Y-107104175D01*
X129523936Y-107215649D01*
X129675069Y-107441836D01*
X129867426Y-107634193D01*
X130093613Y-107785326D01*
X130344939Y-107889429D01*
X130611745Y-107942500D01*
X130883779Y-107942500D01*
X131150585Y-107889429D01*
X131401911Y-107785326D01*
X131628098Y-107634193D01*
X131820455Y-107441836D01*
X131971588Y-107215649D01*
X132017762Y-107104175D01*
X132063936Y-107215649D01*
X132215069Y-107441836D01*
X132407426Y-107634193D01*
X132633613Y-107785326D01*
X132884939Y-107889429D01*
X133151745Y-107942500D01*
X133423779Y-107942500D01*
X133690585Y-107889429D01*
X133941911Y-107785326D01*
X134168098Y-107634193D01*
X134360455Y-107441836D01*
X134511588Y-107215649D01*
X134557762Y-107104175D01*
X134603936Y-107215649D01*
X134755069Y-107441836D01*
X134947426Y-107634193D01*
X135173613Y-107785326D01*
X135424939Y-107889429D01*
X135691745Y-107942500D01*
X135963779Y-107942500D01*
X136230585Y-107889429D01*
X136481911Y-107785326D01*
X136708098Y-107634193D01*
X136900455Y-107441836D01*
X137051588Y-107215649D01*
X137097762Y-107104175D01*
X137143936Y-107215649D01*
X137295069Y-107441836D01*
X137487426Y-107634193D01*
X137713613Y-107785326D01*
X137964939Y-107889429D01*
X138231745Y-107942500D01*
X138503779Y-107942500D01*
X138770585Y-107889429D01*
X139021911Y-107785326D01*
X139248098Y-107634193D01*
X139440455Y-107441836D01*
X139591588Y-107215649D01*
X139637762Y-107104175D01*
X139683936Y-107215649D01*
X139835069Y-107441836D01*
X140027426Y-107634193D01*
X140253613Y-107785326D01*
X140504939Y-107889429D01*
X140771745Y-107942500D01*
X141043779Y-107942500D01*
X141310585Y-107889429D01*
X141561911Y-107785326D01*
X141788098Y-107634193D01*
X141980455Y-107441836D01*
X142131588Y-107215649D01*
X142177762Y-107104175D01*
X142223936Y-107215649D01*
X142375069Y-107441836D01*
X142567426Y-107634193D01*
X142793613Y-107785326D01*
X143044939Y-107889429D01*
X143311745Y-107942500D01*
X143583779Y-107942500D01*
X143850585Y-107889429D01*
X143933234Y-107855195D01*
X144414297Y-108336258D01*
X144432196Y-108358068D01*
X144519218Y-108429485D01*
X144618501Y-108482553D01*
X144726229Y-108515232D01*
X144810189Y-108523501D01*
X144810190Y-108523501D01*
X144838262Y-108526266D01*
X144866334Y-108523501D01*
X152189187Y-108523501D01*
X152217261Y-108526266D01*
X152245335Y-108523501D01*
X152329295Y-108515232D01*
X152437023Y-108482553D01*
X152536306Y-108429485D01*
X152623328Y-108358068D01*
X152641231Y-108336253D01*
X153122290Y-107855194D01*
X153204939Y-107889429D01*
X153471745Y-107942500D01*
X153743779Y-107942500D01*
X154010585Y-107889429D01*
X154261911Y-107785326D01*
X154488098Y-107634193D01*
X154680455Y-107441836D01*
X154831588Y-107215649D01*
X154935691Y-106964323D01*
X154939335Y-106946000D01*
X158506157Y-106946000D01*
X158506157Y-108446000D01*
X158513513Y-108520689D01*
X158535299Y-108592508D01*
X158570678Y-108658696D01*
X158618289Y-108716711D01*
X158676304Y-108764322D01*
X158742492Y-108799701D01*
X158814311Y-108821487D01*
X158889000Y-108828843D01*
X160389000Y-108828843D01*
X160463689Y-108821487D01*
X160535508Y-108799701D01*
X160601696Y-108764322D01*
X160659711Y-108716711D01*
X160707322Y-108658696D01*
X160742701Y-108592508D01*
X160764487Y-108520689D01*
X160771843Y-108446000D01*
X160771843Y-106946000D01*
X160764487Y-106871311D01*
X160742701Y-106799492D01*
X160707322Y-106733304D01*
X160659711Y-106675289D01*
X160601696Y-106627678D01*
X160535508Y-106592299D01*
X160463689Y-106570513D01*
X160389000Y-106563157D01*
X158889000Y-106563157D01*
X158814311Y-106570513D01*
X158742492Y-106592299D01*
X158676304Y-106627678D01*
X158618289Y-106675289D01*
X158570678Y-106733304D01*
X158535299Y-106799492D01*
X158513513Y-106871311D01*
X158506157Y-106946000D01*
X154939335Y-106946000D01*
X154988762Y-106697517D01*
X154988762Y-106425483D01*
X154935691Y-106158677D01*
X154831588Y-105907351D01*
X154680455Y-105681164D01*
X154488098Y-105488807D01*
X154261911Y-105337674D01*
X154010585Y-105233571D01*
X153743779Y-105180500D01*
X153471745Y-105180500D01*
X153204939Y-105233571D01*
X153122290Y-105267805D01*
X152220732Y-104366248D01*
X152202829Y-104344433D01*
X152121493Y-104277682D01*
X154688000Y-104277682D01*
X154688000Y-104510318D01*
X154733386Y-104738485D01*
X154822412Y-104953413D01*
X154951658Y-105146843D01*
X155116157Y-105311342D01*
X155309587Y-105440588D01*
X155524515Y-105529614D01*
X155752682Y-105575000D01*
X155985318Y-105575000D01*
X156213485Y-105529614D01*
X156428413Y-105440588D01*
X156509058Y-105386702D01*
X157555903Y-105386702D01*
X157627486Y-105630671D01*
X157882996Y-105751571D01*
X158157184Y-105820300D01*
X158439512Y-105834217D01*
X158719130Y-105792787D01*
X158985292Y-105697603D01*
X159110514Y-105630671D01*
X159182097Y-105386702D01*
X158369000Y-104573605D01*
X157555903Y-105386702D01*
X156509058Y-105386702D01*
X156621843Y-105311342D01*
X156786342Y-105146843D01*
X156915588Y-104953413D01*
X156985069Y-104785671D01*
X157065397Y-105010292D01*
X157132329Y-105135514D01*
X157376298Y-105207097D01*
X158189395Y-104394000D01*
X158548605Y-104394000D01*
X159361702Y-105207097D01*
X159605671Y-105135514D01*
X159726571Y-104880004D01*
X159795300Y-104605816D01*
X159809217Y-104323488D01*
X159767787Y-104043870D01*
X159672603Y-103777708D01*
X159668314Y-103769682D01*
X160363000Y-103769682D01*
X160363000Y-104002318D01*
X160408386Y-104230485D01*
X160497412Y-104445413D01*
X160626658Y-104638843D01*
X160791157Y-104803342D01*
X160984587Y-104932588D01*
X161199515Y-105021614D01*
X161427682Y-105067000D01*
X161660318Y-105067000D01*
X161888485Y-105021614D01*
X162103413Y-104932588D01*
X162296843Y-104803342D01*
X162461342Y-104638843D01*
X162590588Y-104445413D01*
X162679614Y-104230485D01*
X162725000Y-104002318D01*
X162725000Y-103901606D01*
X163080000Y-103901606D01*
X163080000Y-104124394D01*
X163123464Y-104342900D01*
X163208721Y-104548729D01*
X163332495Y-104733970D01*
X163490030Y-104891505D01*
X163675271Y-105015279D01*
X163881100Y-105100536D01*
X164099606Y-105144000D01*
X164322394Y-105144000D01*
X164540900Y-105100536D01*
X164746729Y-105015279D01*
X164931970Y-104891505D01*
X165089505Y-104733970D01*
X165213279Y-104548729D01*
X165298536Y-104342900D01*
X165342000Y-104124394D01*
X165342000Y-103901606D01*
X165298536Y-103683100D01*
X165213279Y-103477271D01*
X165089505Y-103292030D01*
X164931970Y-103134495D01*
X164746729Y-103010721D01*
X164540900Y-102925464D01*
X164322394Y-102882000D01*
X164099606Y-102882000D01*
X163881100Y-102925464D01*
X163675271Y-103010721D01*
X163490030Y-103134495D01*
X163332495Y-103292030D01*
X163208721Y-103477271D01*
X163123464Y-103683100D01*
X163080000Y-103901606D01*
X162725000Y-103901606D01*
X162725000Y-103769682D01*
X162679614Y-103541515D01*
X162590588Y-103326587D01*
X162461342Y-103133157D01*
X162296843Y-102968658D01*
X162103413Y-102839412D01*
X161888485Y-102750386D01*
X161660318Y-102705000D01*
X161427682Y-102705000D01*
X161199515Y-102750386D01*
X160984587Y-102839412D01*
X160791157Y-102968658D01*
X160626658Y-103133157D01*
X160497412Y-103326587D01*
X160408386Y-103541515D01*
X160363000Y-103769682D01*
X159668314Y-103769682D01*
X159605671Y-103652486D01*
X159361702Y-103580903D01*
X158548605Y-104394000D01*
X158189395Y-104394000D01*
X157376298Y-103580903D01*
X157132329Y-103652486D01*
X157011429Y-103907996D01*
X156986760Y-104006411D01*
X156915588Y-103834587D01*
X156786342Y-103641157D01*
X156621843Y-103476658D01*
X156509059Y-103401298D01*
X157555903Y-103401298D01*
X158369000Y-104214395D01*
X159182097Y-103401298D01*
X159110514Y-103157329D01*
X158855004Y-103036429D01*
X158580816Y-102967700D01*
X158298488Y-102953783D01*
X158018870Y-102995213D01*
X157752708Y-103090397D01*
X157627486Y-103157329D01*
X157555903Y-103401298D01*
X156509059Y-103401298D01*
X156428413Y-103347412D01*
X156213485Y-103258386D01*
X155985318Y-103213000D01*
X155752682Y-103213000D01*
X155524515Y-103258386D01*
X155309587Y-103347412D01*
X155116157Y-103476658D01*
X154951658Y-103641157D01*
X154822412Y-103834587D01*
X154733386Y-104049515D01*
X154688000Y-104277682D01*
X152121493Y-104277682D01*
X152115807Y-104273016D01*
X152016524Y-104219948D01*
X151908796Y-104187269D01*
X151824836Y-104179000D01*
X151796762Y-104176235D01*
X151768688Y-104179000D01*
X147775157Y-104179000D01*
X147648272Y-104052116D01*
X147648272Y-102314121D01*
X147849996Y-102409571D01*
X148124184Y-102478300D01*
X148406512Y-102492217D01*
X148686130Y-102450787D01*
X148952292Y-102355603D01*
X149077514Y-102288671D01*
X149149097Y-102044702D01*
X150697903Y-102044702D01*
X150769486Y-102288671D01*
X151024996Y-102409571D01*
X151299184Y-102478300D01*
X151581512Y-102492217D01*
X151861130Y-102450787D01*
X152127292Y-102355603D01*
X152252514Y-102288671D01*
X152324097Y-102044702D01*
X151511000Y-101231605D01*
X150697903Y-102044702D01*
X149149097Y-102044702D01*
X148336000Y-101231605D01*
X148321858Y-101245748D01*
X148142253Y-101066143D01*
X148156395Y-101052000D01*
X148515605Y-101052000D01*
X149328702Y-101865097D01*
X149572671Y-101793514D01*
X149693571Y-101538004D01*
X149762300Y-101263816D01*
X149769265Y-101122512D01*
X150070783Y-101122512D01*
X150112213Y-101402130D01*
X150207397Y-101668292D01*
X150274329Y-101793514D01*
X150518298Y-101865097D01*
X151331395Y-101052000D01*
X151690605Y-101052000D01*
X152503702Y-101865097D01*
X152747671Y-101793514D01*
X152868571Y-101538004D01*
X152937300Y-101263816D01*
X152951217Y-100981488D01*
X152909787Y-100701870D01*
X152814603Y-100435708D01*
X152747671Y-100310486D01*
X152503702Y-100238903D01*
X151690605Y-101052000D01*
X151331395Y-101052000D01*
X150518298Y-100238903D01*
X150274329Y-100310486D01*
X150153429Y-100565996D01*
X150084700Y-100840184D01*
X150070783Y-101122512D01*
X149769265Y-101122512D01*
X149776217Y-100981488D01*
X149734787Y-100701870D01*
X149639603Y-100435708D01*
X149572671Y-100310486D01*
X149328702Y-100238903D01*
X148515605Y-101052000D01*
X148156395Y-101052000D01*
X148142253Y-101037858D01*
X148321858Y-100858253D01*
X148336000Y-100872395D01*
X149149097Y-100059298D01*
X149077514Y-99815329D01*
X148822004Y-99694429D01*
X148723589Y-99669760D01*
X148895413Y-99598588D01*
X149088843Y-99469342D01*
X149253342Y-99304843D01*
X149382588Y-99111413D01*
X149471614Y-98896485D01*
X149517000Y-98668318D01*
X149517000Y-98435682D01*
X150330000Y-98435682D01*
X150330000Y-98668318D01*
X150375386Y-98896485D01*
X150464412Y-99111413D01*
X150593658Y-99304843D01*
X150758157Y-99469342D01*
X150951587Y-99598588D01*
X151119329Y-99668069D01*
X150894708Y-99748397D01*
X150769486Y-99815329D01*
X150697903Y-100059298D01*
X151511000Y-100872395D01*
X152324097Y-100059298D01*
X152252514Y-99815329D01*
X151997004Y-99694429D01*
X151898589Y-99669760D01*
X152070413Y-99598588D01*
X152263843Y-99469342D01*
X152428342Y-99304843D01*
X152557588Y-99111413D01*
X152646614Y-98896485D01*
X152692000Y-98668318D01*
X152692000Y-98435682D01*
X152646614Y-98207515D01*
X152557588Y-97992587D01*
X152428342Y-97799157D01*
X152263843Y-97634658D01*
X152070413Y-97505412D01*
X151855485Y-97416386D01*
X151627318Y-97371000D01*
X151394682Y-97371000D01*
X151166515Y-97416386D01*
X150951587Y-97505412D01*
X150758157Y-97634658D01*
X150593658Y-97799157D01*
X150464412Y-97992587D01*
X150375386Y-98207515D01*
X150330000Y-98435682D01*
X149517000Y-98435682D01*
X149471614Y-98207515D01*
X149382588Y-97992587D01*
X149253342Y-97799157D01*
X149088843Y-97634658D01*
X148895413Y-97505412D01*
X148680485Y-97416386D01*
X148452318Y-97371000D01*
X148219682Y-97371000D01*
X147991515Y-97416386D01*
X147776587Y-97505412D01*
X147583157Y-97634658D01*
X147531613Y-97686202D01*
X147482839Y-97626771D01*
X147461030Y-97608873D01*
X146959481Y-97107325D01*
X146959481Y-96393501D01*
X146994623Y-96358359D01*
X147080094Y-96230442D01*
X147113546Y-96149682D01*
X160363000Y-96149682D01*
X160363000Y-96382318D01*
X160408386Y-96610485D01*
X160497412Y-96825413D01*
X160626658Y-97018843D01*
X160791157Y-97183342D01*
X160984587Y-97312588D01*
X161199515Y-97401614D01*
X161427682Y-97447000D01*
X161660318Y-97447000D01*
X161888485Y-97401614D01*
X162103413Y-97312588D01*
X162296843Y-97183342D01*
X162337185Y-97143000D01*
X162822928Y-97143000D01*
X162835188Y-97267482D01*
X162871498Y-97387180D01*
X162930463Y-97497494D01*
X163009815Y-97594185D01*
X163106506Y-97673537D01*
X163216820Y-97732502D01*
X163336518Y-97768812D01*
X163461000Y-97781072D01*
X163925250Y-97778000D01*
X164084000Y-97619250D01*
X164084000Y-96520000D01*
X164338000Y-96520000D01*
X164338000Y-97619250D01*
X164496750Y-97778000D01*
X164961000Y-97781072D01*
X165085482Y-97768812D01*
X165205180Y-97732502D01*
X165315494Y-97673537D01*
X165412185Y-97594185D01*
X165491537Y-97497494D01*
X165550502Y-97387180D01*
X165586812Y-97267482D01*
X165599072Y-97143000D01*
X165596000Y-96678750D01*
X165437250Y-96520000D01*
X164338000Y-96520000D01*
X164084000Y-96520000D01*
X162984750Y-96520000D01*
X162826000Y-96678750D01*
X162822928Y-97143000D01*
X162337185Y-97143000D01*
X162461342Y-97018843D01*
X162590588Y-96825413D01*
X162679614Y-96610485D01*
X162725000Y-96382318D01*
X162725000Y-96149682D01*
X162679614Y-95921515D01*
X162590588Y-95706587D01*
X162548101Y-95643000D01*
X162822928Y-95643000D01*
X162826000Y-96107250D01*
X162984750Y-96266000D01*
X164084000Y-96266000D01*
X164084000Y-95166750D01*
X164338000Y-95166750D01*
X164338000Y-96266000D01*
X165437250Y-96266000D01*
X165596000Y-96107250D01*
X165599072Y-95643000D01*
X166253157Y-95643000D01*
X166253157Y-97143000D01*
X166260513Y-97217689D01*
X166282299Y-97289508D01*
X166317678Y-97355696D01*
X166365289Y-97413711D01*
X166423304Y-97461322D01*
X166489492Y-97496701D01*
X166561311Y-97518487D01*
X166636000Y-97525843D01*
X168136000Y-97525843D01*
X168210689Y-97518487D01*
X168282508Y-97496701D01*
X168348696Y-97461322D01*
X168406711Y-97413711D01*
X168454322Y-97355696D01*
X168489701Y-97289508D01*
X168511487Y-97217689D01*
X168518843Y-97143000D01*
X168518843Y-95643000D01*
X168511487Y-95568311D01*
X168489701Y-95496492D01*
X168454322Y-95430304D01*
X168406711Y-95372289D01*
X168348696Y-95324678D01*
X168282508Y-95289299D01*
X168210689Y-95267513D01*
X168136000Y-95260157D01*
X166636000Y-95260157D01*
X166561311Y-95267513D01*
X166489492Y-95289299D01*
X166423304Y-95324678D01*
X166365289Y-95372289D01*
X166317678Y-95430304D01*
X166282299Y-95496492D01*
X166260513Y-95568311D01*
X166253157Y-95643000D01*
X165599072Y-95643000D01*
X165586812Y-95518518D01*
X165550502Y-95398820D01*
X165491537Y-95288506D01*
X165412185Y-95191815D01*
X165315494Y-95112463D01*
X165205180Y-95053498D01*
X165085482Y-95017188D01*
X164961000Y-95004928D01*
X164496750Y-95008000D01*
X164338000Y-95166750D01*
X164084000Y-95166750D01*
X163925250Y-95008000D01*
X163461000Y-95004928D01*
X163336518Y-95017188D01*
X163216820Y-95053498D01*
X163106506Y-95112463D01*
X163009815Y-95191815D01*
X162930463Y-95288506D01*
X162871498Y-95398820D01*
X162835188Y-95518518D01*
X162822928Y-95643000D01*
X162548101Y-95643000D01*
X162461342Y-95513157D01*
X162296843Y-95348658D01*
X162103413Y-95219412D01*
X161888485Y-95130386D01*
X161660318Y-95085000D01*
X161427682Y-95085000D01*
X161199515Y-95130386D01*
X160984587Y-95219412D01*
X160791157Y-95348658D01*
X160626658Y-95513157D01*
X160497412Y-95706587D01*
X160408386Y-95921515D01*
X160363000Y-96149682D01*
X147113546Y-96149682D01*
X147138968Y-96088309D01*
X147168981Y-95937422D01*
X147168981Y-95783578D01*
X147138968Y-95632691D01*
X147080094Y-95490558D01*
X146994623Y-95362641D01*
X146959481Y-95327499D01*
X146959481Y-94244682D01*
X147790000Y-94244682D01*
X147790000Y-94477318D01*
X147835386Y-94705485D01*
X147924412Y-94920413D01*
X148053658Y-95113843D01*
X148218157Y-95278342D01*
X148411587Y-95407588D01*
X148626515Y-95496614D01*
X148854682Y-95542000D01*
X149087318Y-95542000D01*
X149315485Y-95496614D01*
X149530413Y-95407588D01*
X149723843Y-95278342D01*
X149888342Y-95113843D01*
X150017588Y-94920413D01*
X150104727Y-94710039D01*
X155199096Y-94710039D01*
X155239754Y-94844087D01*
X155359963Y-95098420D01*
X155527481Y-95324414D01*
X155735869Y-95513385D01*
X155977119Y-95658070D01*
X156241960Y-95752909D01*
X156464000Y-95631624D01*
X156464000Y-94488000D01*
X156718000Y-94488000D01*
X156718000Y-95631624D01*
X156940040Y-95752909D01*
X157204881Y-95658070D01*
X157446131Y-95513385D01*
X157654519Y-95324414D01*
X157822037Y-95098420D01*
X157942246Y-94844087D01*
X157982904Y-94710039D01*
X157860915Y-94488000D01*
X156718000Y-94488000D01*
X156464000Y-94488000D01*
X155321085Y-94488000D01*
X155199096Y-94710039D01*
X150104727Y-94710039D01*
X150106614Y-94705485D01*
X150152000Y-94477318D01*
X150152000Y-94244682D01*
X150106614Y-94016515D01*
X150104728Y-94011961D01*
X155199096Y-94011961D01*
X155321085Y-94234000D01*
X156464000Y-94234000D01*
X156464000Y-93090376D01*
X156718000Y-93090376D01*
X156718000Y-94234000D01*
X157860915Y-94234000D01*
X157982904Y-94011961D01*
X157942246Y-93877913D01*
X157822037Y-93623580D01*
X157654519Y-93397586D01*
X157446131Y-93208615D01*
X157204881Y-93063930D01*
X156940040Y-92969091D01*
X156718000Y-93090376D01*
X156464000Y-93090376D01*
X156241960Y-92969091D01*
X155977119Y-93063930D01*
X155735869Y-93208615D01*
X155527481Y-93397586D01*
X155359963Y-93623580D01*
X155239754Y-93877913D01*
X155199096Y-94011961D01*
X150104728Y-94011961D01*
X150017588Y-93801587D01*
X149888342Y-93608157D01*
X149723843Y-93443658D01*
X149530413Y-93314412D01*
X149315485Y-93225386D01*
X149087318Y-93180000D01*
X148854682Y-93180000D01*
X148626515Y-93225386D01*
X148411587Y-93314412D01*
X148218157Y-93443658D01*
X148053658Y-93608157D01*
X147924412Y-93801587D01*
X147835386Y-94016515D01*
X147790000Y-94244682D01*
X146959481Y-94244682D01*
X146959481Y-92720682D01*
X160744000Y-92720682D01*
X160744000Y-92953318D01*
X160789386Y-93181485D01*
X160878412Y-93396413D01*
X161007658Y-93589843D01*
X161172157Y-93754342D01*
X161365587Y-93883588D01*
X161580515Y-93972614D01*
X161808682Y-94018000D01*
X162041318Y-94018000D01*
X162269485Y-93972614D01*
X162484413Y-93883588D01*
X162677843Y-93754342D01*
X162842342Y-93589843D01*
X162971588Y-93396413D01*
X163060614Y-93181485D01*
X163106000Y-92953318D01*
X163106000Y-92767682D01*
X165189000Y-92767682D01*
X165189000Y-93000318D01*
X165234386Y-93228485D01*
X165323412Y-93443413D01*
X165452658Y-93636843D01*
X165617157Y-93801342D01*
X165810587Y-93930588D01*
X166025515Y-94019614D01*
X166253682Y-94065000D01*
X166486318Y-94065000D01*
X166714485Y-94019614D01*
X166929413Y-93930588D01*
X167122843Y-93801342D01*
X167287342Y-93636843D01*
X167416588Y-93443413D01*
X167505614Y-93228485D01*
X167551000Y-93000318D01*
X167551000Y-92767682D01*
X167505614Y-92539515D01*
X167416588Y-92324587D01*
X167287342Y-92131157D01*
X167122843Y-91966658D01*
X166929413Y-91837412D01*
X166714485Y-91748386D01*
X166486318Y-91703000D01*
X166253682Y-91703000D01*
X166025515Y-91748386D01*
X165810587Y-91837412D01*
X165617157Y-91966658D01*
X165452658Y-92131157D01*
X165323412Y-92324587D01*
X165234386Y-92539515D01*
X165189000Y-92767682D01*
X163106000Y-92767682D01*
X163106000Y-92720682D01*
X163060614Y-92492515D01*
X162971588Y-92277587D01*
X162842342Y-92084157D01*
X162677843Y-91919658D01*
X162484413Y-91790412D01*
X162269485Y-91701386D01*
X162041318Y-91656000D01*
X161808682Y-91656000D01*
X161580515Y-91701386D01*
X161365587Y-91790412D01*
X161172157Y-91919658D01*
X161007658Y-92084157D01*
X160878412Y-92277587D01*
X160789386Y-92492515D01*
X160744000Y-92720682D01*
X146959481Y-92720682D01*
X146959481Y-91887003D01*
X147824812Y-91021672D01*
X147790000Y-91196682D01*
X147790000Y-91429318D01*
X147835386Y-91657485D01*
X147924412Y-91872413D01*
X148053658Y-92065843D01*
X148218157Y-92230342D01*
X148411587Y-92359588D01*
X148626515Y-92448614D01*
X148854682Y-92494000D01*
X149087318Y-92494000D01*
X149315485Y-92448614D01*
X149530413Y-92359588D01*
X149723843Y-92230342D01*
X149888342Y-92065843D01*
X150017588Y-91872413D01*
X150106614Y-91657485D01*
X150152000Y-91429318D01*
X150152000Y-91196682D01*
X155410000Y-91196682D01*
X155410000Y-91429318D01*
X155455386Y-91657485D01*
X155544412Y-91872413D01*
X155673658Y-92065843D01*
X155838157Y-92230342D01*
X156031587Y-92359588D01*
X156246515Y-92448614D01*
X156474682Y-92494000D01*
X156707318Y-92494000D01*
X156935485Y-92448614D01*
X157150413Y-92359588D01*
X157343843Y-92230342D01*
X157508342Y-92065843D01*
X157637588Y-91872413D01*
X157726614Y-91657485D01*
X157772000Y-91429318D01*
X157772000Y-91196682D01*
X157726614Y-90968515D01*
X157637588Y-90753587D01*
X157508342Y-90560157D01*
X157343843Y-90395658D01*
X157150413Y-90266412D01*
X156935485Y-90177386D01*
X156707318Y-90132000D01*
X156474682Y-90132000D01*
X156246515Y-90177386D01*
X156031587Y-90266412D01*
X155838157Y-90395658D01*
X155673658Y-90560157D01*
X155544412Y-90753587D01*
X155455386Y-90968515D01*
X155410000Y-91196682D01*
X150152000Y-91196682D01*
X150106614Y-90968515D01*
X150017588Y-90753587D01*
X149888342Y-90560157D01*
X149747530Y-90419345D01*
X149789295Y-90415232D01*
X149897023Y-90382553D01*
X149996306Y-90329485D01*
X150083328Y-90258068D01*
X150101231Y-90236253D01*
X150582290Y-89755194D01*
X150664939Y-89789429D01*
X150931745Y-89842500D01*
X151203779Y-89842500D01*
X151470585Y-89789429D01*
X151721911Y-89685326D01*
X151948098Y-89534193D01*
X152140455Y-89341836D01*
X152291588Y-89115649D01*
X152337762Y-89004175D01*
X152383936Y-89115649D01*
X152535069Y-89341836D01*
X152727426Y-89534193D01*
X152953613Y-89685326D01*
X153204939Y-89789429D01*
X153471745Y-89842500D01*
X153743779Y-89842500D01*
X154010585Y-89789429D01*
X154261911Y-89685326D01*
X154488098Y-89534193D01*
X154680455Y-89341836D01*
X154831588Y-89115649D01*
X154935691Y-88864323D01*
X154942577Y-88829702D01*
X161111903Y-88829702D01*
X161183486Y-89073671D01*
X161438996Y-89194571D01*
X161713184Y-89263300D01*
X161995512Y-89277217D01*
X162275130Y-89235787D01*
X162541292Y-89140603D01*
X162666514Y-89073671D01*
X162724306Y-88876702D01*
X165556903Y-88876702D01*
X165628486Y-89120671D01*
X165883996Y-89241571D01*
X166158184Y-89310300D01*
X166440512Y-89324217D01*
X166720130Y-89282787D01*
X166986292Y-89187603D01*
X167111514Y-89120671D01*
X167183097Y-88876702D01*
X166370000Y-88063605D01*
X165556903Y-88876702D01*
X162724306Y-88876702D01*
X162738097Y-88829702D01*
X161925000Y-88016605D01*
X161111903Y-88829702D01*
X154942577Y-88829702D01*
X154988762Y-88597517D01*
X154988762Y-88325483D01*
X154935691Y-88058677D01*
X154873077Y-87907512D01*
X160484783Y-87907512D01*
X160526213Y-88187130D01*
X160621397Y-88453292D01*
X160688329Y-88578514D01*
X160932298Y-88650097D01*
X161745395Y-87837000D01*
X162104605Y-87837000D01*
X162917702Y-88650097D01*
X163161671Y-88578514D01*
X163282571Y-88323004D01*
X163351300Y-88048816D01*
X163355948Y-87954512D01*
X164929783Y-87954512D01*
X164971213Y-88234130D01*
X165066397Y-88500292D01*
X165133329Y-88625514D01*
X165377298Y-88697097D01*
X166190395Y-87884000D01*
X166549605Y-87884000D01*
X167362702Y-88697097D01*
X167606671Y-88625514D01*
X167727571Y-88370004D01*
X167796300Y-88095816D01*
X167810217Y-87813488D01*
X167768787Y-87533870D01*
X167673603Y-87267708D01*
X167606671Y-87142486D01*
X167362702Y-87070903D01*
X166549605Y-87884000D01*
X166190395Y-87884000D01*
X165377298Y-87070903D01*
X165133329Y-87142486D01*
X165012429Y-87397996D01*
X164943700Y-87672184D01*
X164929783Y-87954512D01*
X163355948Y-87954512D01*
X163365217Y-87766488D01*
X163323787Y-87486870D01*
X163228603Y-87220708D01*
X163161671Y-87095486D01*
X162917702Y-87023903D01*
X162104605Y-87837000D01*
X161745395Y-87837000D01*
X160932298Y-87023903D01*
X160688329Y-87095486D01*
X160567429Y-87350996D01*
X160498700Y-87625184D01*
X160484783Y-87907512D01*
X154873077Y-87907512D01*
X154831588Y-87807351D01*
X154680455Y-87581164D01*
X154488098Y-87388807D01*
X154261911Y-87237674D01*
X154157306Y-87194345D01*
X154138314Y-87131738D01*
X154085246Y-87032455D01*
X154013829Y-86945433D01*
X153992015Y-86927531D01*
X153908782Y-86844298D01*
X161111903Y-86844298D01*
X161925000Y-87657395D01*
X162691097Y-86891298D01*
X165556903Y-86891298D01*
X166370000Y-87704395D01*
X167183097Y-86891298D01*
X167111514Y-86647329D01*
X166856004Y-86526429D01*
X166581816Y-86457700D01*
X166299488Y-86443783D01*
X166019870Y-86485213D01*
X165753708Y-86580397D01*
X165628486Y-86647329D01*
X165556903Y-86891298D01*
X162691097Y-86891298D01*
X162738097Y-86844298D01*
X162666514Y-86600329D01*
X162411004Y-86479429D01*
X162136816Y-86410700D01*
X161854488Y-86396783D01*
X161574870Y-86438213D01*
X161308708Y-86533397D01*
X161183486Y-86600329D01*
X161111903Y-86844298D01*
X153908782Y-86844298D01*
X153751231Y-86686747D01*
X153733328Y-86664932D01*
X153646306Y-86593515D01*
X153547023Y-86540447D01*
X153439295Y-86507768D01*
X153355335Y-86499499D01*
X153327261Y-86496734D01*
X153299187Y-86499499D01*
X148836334Y-86499499D01*
X148808262Y-86496734D01*
X148780190Y-86499499D01*
X148780189Y-86499499D01*
X148696229Y-86507768D01*
X148588501Y-86540447D01*
X148489218Y-86593515D01*
X148402196Y-86664932D01*
X148384293Y-86686747D01*
X148143506Y-86927534D01*
X148121696Y-86945433D01*
X148064103Y-87015610D01*
X148050278Y-87032456D01*
X147997210Y-87131739D01*
X147978219Y-87194345D01*
X147873613Y-87237674D01*
X147647426Y-87388807D01*
X147455069Y-87581164D01*
X147303936Y-87807351D01*
X147257762Y-87918825D01*
X147211588Y-87807351D01*
X147060455Y-87581164D01*
X146868098Y-87388807D01*
X146641911Y-87237674D01*
X146390585Y-87133571D01*
X146123779Y-87080500D01*
X145851745Y-87080500D01*
X145584939Y-87133571D01*
X145333613Y-87237674D01*
X145107426Y-87388807D01*
X144915069Y-87581164D01*
X144763936Y-87807351D01*
X144717762Y-87918825D01*
X144671588Y-87807351D01*
X144520455Y-87581164D01*
X144328098Y-87388807D01*
X144101911Y-87237674D01*
X143850585Y-87133571D01*
X143583779Y-87080500D01*
X143311745Y-87080500D01*
X143044939Y-87133571D01*
X142793613Y-87237674D01*
X142567426Y-87388807D01*
X142375069Y-87581164D01*
X142223936Y-87807351D01*
X142177762Y-87918825D01*
X142131588Y-87807351D01*
X141980455Y-87581164D01*
X141788098Y-87388807D01*
X141561911Y-87237674D01*
X141310585Y-87133571D01*
X141043779Y-87080500D01*
X140771745Y-87080500D01*
X140504939Y-87133571D01*
X140253613Y-87237674D01*
X140027426Y-87388807D01*
X139835069Y-87581164D01*
X139683936Y-87807351D01*
X139637762Y-87918825D01*
X139591588Y-87807351D01*
X139440455Y-87581164D01*
X139248098Y-87388807D01*
X139021911Y-87237674D01*
X138770585Y-87133571D01*
X138503779Y-87080500D01*
X138231745Y-87080500D01*
X137964939Y-87133571D01*
X137713613Y-87237674D01*
X137487426Y-87388807D01*
X137295069Y-87581164D01*
X137143936Y-87807351D01*
X137097762Y-87918825D01*
X137051588Y-87807351D01*
X136900455Y-87581164D01*
X136708098Y-87388807D01*
X136481911Y-87237674D01*
X136230585Y-87133571D01*
X135963779Y-87080500D01*
X135691745Y-87080500D01*
X135424939Y-87133571D01*
X135173613Y-87237674D01*
X134947426Y-87388807D01*
X134755069Y-87581164D01*
X134603936Y-87807351D01*
X134557762Y-87918825D01*
X134511588Y-87807351D01*
X134360455Y-87581164D01*
X134168098Y-87388807D01*
X133941911Y-87237674D01*
X133690585Y-87133571D01*
X133423779Y-87080500D01*
X133151745Y-87080500D01*
X132884939Y-87133571D01*
X132633613Y-87237674D01*
X132407426Y-87388807D01*
X132215069Y-87581164D01*
X132063936Y-87807351D01*
X132017762Y-87918825D01*
X131971588Y-87807351D01*
X131820455Y-87581164D01*
X131628098Y-87388807D01*
X131401911Y-87237674D01*
X131150585Y-87133571D01*
X130883779Y-87080500D01*
X130611745Y-87080500D01*
X130344939Y-87133571D01*
X130093613Y-87237674D01*
X129867426Y-87388807D01*
X129675069Y-87581164D01*
X129523936Y-87807351D01*
X129477762Y-87918825D01*
X129431588Y-87807351D01*
X129280455Y-87581164D01*
X129088098Y-87388807D01*
X128861911Y-87237674D01*
X128610585Y-87133571D01*
X128343779Y-87080500D01*
X128071745Y-87080500D01*
X127804939Y-87133571D01*
X127553613Y-87237674D01*
X127327426Y-87388807D01*
X127135069Y-87581164D01*
X126983936Y-87807351D01*
X126937762Y-87918825D01*
X126891588Y-87807351D01*
X126740455Y-87581164D01*
X126548098Y-87388807D01*
X126321911Y-87237674D01*
X126070585Y-87133571D01*
X125803779Y-87080500D01*
X125531745Y-87080500D01*
X125264939Y-87133571D01*
X125013613Y-87237674D01*
X124787426Y-87388807D01*
X124595069Y-87581164D01*
X124443936Y-87807351D01*
X124339833Y-88058677D01*
X124286762Y-88325483D01*
X118393414Y-88325483D01*
X118431180Y-88287717D01*
X118565898Y-88086097D01*
X118658693Y-87862069D01*
X118706000Y-87624243D01*
X118706000Y-87381757D01*
X118658693Y-87143931D01*
X118565898Y-86919903D01*
X118431180Y-86718283D01*
X118259717Y-86546820D01*
X118058097Y-86412102D01*
X117834069Y-86319307D01*
X117596243Y-86272000D01*
X117353757Y-86272000D01*
X117115931Y-86319307D01*
X116891903Y-86412102D01*
X116690283Y-86546820D01*
X116518820Y-86718283D01*
X116384102Y-86919903D01*
X116291307Y-87143931D01*
X116244000Y-87381757D01*
X116078000Y-87381757D01*
X116078000Y-85496000D01*
X196723000Y-85496000D01*
X196723000Y-109220199D01*
G37*
X196723000Y-109220199D02*
X178435000Y-109248909D01*
X178435000Y-106226828D01*
X181660409Y-103187500D01*
X188214000Y-103187500D01*
X188238562Y-103185102D01*
X188262398Y-103177916D01*
X188284375Y-103166218D01*
X188303648Y-103150457D01*
X188319475Y-103131239D01*
X188331249Y-103109303D01*
X188338517Y-103085491D01*
X188341000Y-103060719D01*
X188354891Y-95002172D01*
X188352353Y-94976688D01*
X188345032Y-94952892D01*
X188333210Y-94930982D01*
X188317340Y-94911799D01*
X188298033Y-94896080D01*
X188276031Y-94884430D01*
X188252178Y-94877297D01*
X188227393Y-94874954D01*
X181525112Y-94901257D01*
X181550902Y-94572176D01*
X181501334Y-94154549D01*
X181371243Y-93754617D01*
X181213214Y-93458962D01*
X180897653Y-93302952D01*
X179585605Y-94615000D01*
X179599748Y-94629143D01*
X179420143Y-94808748D01*
X179406000Y-94794605D01*
X179391858Y-94808748D01*
X179212253Y-94629143D01*
X179226395Y-94615000D01*
X177914347Y-93302952D01*
X177598786Y-93458962D01*
X177407980Y-93833745D01*
X177373419Y-93956443D01*
X175183143Y-93975656D01*
X175111243Y-93754617D01*
X174953214Y-93458962D01*
X174637653Y-93302952D01*
X173954168Y-93986437D01*
X173591779Y-93989616D01*
X174458048Y-93123347D01*
X178093952Y-93123347D01*
X179406000Y-94435395D01*
X180718048Y-93123347D01*
X180562038Y-92807786D01*
X180187255Y-92616980D01*
X179782449Y-92502956D01*
X179363176Y-92470098D01*
X178945549Y-92519666D01*
X178545617Y-92649757D01*
X178249962Y-92807786D01*
X178093952Y-93123347D01*
X174458048Y-93123347D01*
X174302038Y-92807786D01*
X173927255Y-92616980D01*
X173522449Y-92502956D01*
X173103176Y-92470098D01*
X172685549Y-92519666D01*
X172285617Y-92649757D01*
X171989962Y-92807786D01*
X171833952Y-93123347D01*
X172707973Y-93997368D01*
X172351887Y-94000492D01*
X171654347Y-93302952D01*
X171338786Y-93458962D01*
X171147980Y-93833745D01*
X171097913Y-94011492D01*
X171067886Y-94011755D01*
X171044224Y-94014190D01*
X171020399Y-94021417D01*
X170998443Y-94033153D01*
X170979197Y-94048947D01*
X170963403Y-94068193D01*
X170951667Y-94090149D01*
X170944440Y-94113974D01*
X170942000Y-94138750D01*
X170942000Y-96702692D01*
X168400976Y-98252097D01*
X165948580Y-98266252D01*
X165925653Y-98268473D01*
X165901765Y-98275487D01*
X165879704Y-98287026D01*
X165860318Y-98302647D01*
X165844352Y-98321750D01*
X165832420Y-98343601D01*
X165824980Y-98367359D01*
X165822318Y-98392113D01*
X165724936Y-109268861D01*
X118085206Y-109343649D01*
X118227843Y-109248342D01*
X118392342Y-109083843D01*
X118521588Y-108890413D01*
X118610614Y-108675485D01*
X118656000Y-108447318D01*
X118656000Y-108214682D01*
X118610614Y-107986515D01*
X118521588Y-107771587D01*
X118392342Y-107578157D01*
X118227843Y-107413658D01*
X118034413Y-107284412D01*
X117819485Y-107195386D01*
X117591318Y-107150000D01*
X117358682Y-107150000D01*
X117130515Y-107195386D01*
X116915587Y-107284412D01*
X116722157Y-107413658D01*
X116557658Y-107578157D01*
X116428412Y-107771587D01*
X116339386Y-107986515D01*
X116294000Y-108214682D01*
X116294000Y-108447318D01*
X116339386Y-108675485D01*
X116428412Y-108890413D01*
X116557658Y-109083843D01*
X116722157Y-109248342D01*
X116867654Y-109345560D01*
X116078000Y-109346800D01*
X116078000Y-100594682D01*
X116294000Y-100594682D01*
X116294000Y-100827318D01*
X116339386Y-101055485D01*
X116428412Y-101270413D01*
X116557658Y-101463843D01*
X116722157Y-101628342D01*
X116915587Y-101757588D01*
X117130515Y-101846614D01*
X117358682Y-101892000D01*
X117591318Y-101892000D01*
X117819485Y-101846614D01*
X118034413Y-101757588D01*
X118227843Y-101628342D01*
X118392342Y-101463843D01*
X118463944Y-101356682D01*
X119215000Y-101356682D01*
X119215000Y-101589318D01*
X119260386Y-101817485D01*
X119349412Y-102032413D01*
X119478658Y-102225843D01*
X119643157Y-102390342D01*
X119836587Y-102519588D01*
X120051515Y-102608614D01*
X120279682Y-102654000D01*
X120512318Y-102654000D01*
X120740485Y-102608614D01*
X120955413Y-102519588D01*
X121148843Y-102390342D01*
X121313342Y-102225843D01*
X121442588Y-102032413D01*
X121531614Y-101817485D01*
X121577000Y-101589318D01*
X121577000Y-101356682D01*
X126835000Y-101356682D01*
X126835000Y-101589318D01*
X126880386Y-101817485D01*
X126969412Y-102032413D01*
X127098658Y-102225843D01*
X127263157Y-102390342D01*
X127456587Y-102519588D01*
X127671515Y-102608614D01*
X127899682Y-102654000D01*
X128132318Y-102654000D01*
X128360485Y-102608614D01*
X128575413Y-102519588D01*
X128768843Y-102390342D01*
X128933342Y-102225843D01*
X129062588Y-102032413D01*
X129151614Y-101817485D01*
X129197000Y-101589318D01*
X129197000Y-101356682D01*
X129151614Y-101128515D01*
X129062588Y-100913587D01*
X128933342Y-100720157D01*
X128768843Y-100555658D01*
X128575413Y-100426412D01*
X128360485Y-100337386D01*
X128132318Y-100292000D01*
X127899682Y-100292000D01*
X127671515Y-100337386D01*
X127456587Y-100426412D01*
X127263157Y-100555658D01*
X127098658Y-100720157D01*
X126969412Y-100913587D01*
X126880386Y-101128515D01*
X126835000Y-101356682D01*
X121577000Y-101356682D01*
X121531614Y-101128515D01*
X121442588Y-100913587D01*
X121313342Y-100720157D01*
X121148843Y-100555658D01*
X120955413Y-100426412D01*
X120740485Y-100337386D01*
X120512318Y-100292000D01*
X120279682Y-100292000D01*
X120051515Y-100337386D01*
X119836587Y-100426412D01*
X119643157Y-100555658D01*
X119478658Y-100720157D01*
X119349412Y-100913587D01*
X119260386Y-101128515D01*
X119215000Y-101356682D01*
X118463944Y-101356682D01*
X118521588Y-101270413D01*
X118610614Y-101055485D01*
X118656000Y-100827318D01*
X118656000Y-100594682D01*
X118610614Y-100366515D01*
X118521588Y-100151587D01*
X118392342Y-99958157D01*
X118227843Y-99793658D01*
X118034413Y-99664412D01*
X117819485Y-99575386D01*
X117591318Y-99530000D01*
X117358682Y-99530000D01*
X117130515Y-99575386D01*
X116915587Y-99664412D01*
X116722157Y-99793658D01*
X116557658Y-99958157D01*
X116428412Y-100151587D01*
X116339386Y-100366515D01*
X116294000Y-100594682D01*
X116078000Y-100594682D01*
X116078000Y-96813000D01*
X116242157Y-96813000D01*
X116242157Y-98513000D01*
X116249513Y-98587689D01*
X116271299Y-98659508D01*
X116306678Y-98725696D01*
X116354289Y-98783711D01*
X116412304Y-98831322D01*
X116478492Y-98866701D01*
X116550311Y-98888487D01*
X116625000Y-98895843D01*
X118325000Y-98895843D01*
X118399689Y-98888487D01*
X118471508Y-98866701D01*
X118537696Y-98831322D01*
X118595711Y-98783711D01*
X118643322Y-98725696D01*
X118678701Y-98659508D01*
X118700487Y-98587689D01*
X118707843Y-98513000D01*
X118707843Y-98181682D01*
X119215000Y-98181682D01*
X119215000Y-98414318D01*
X119260386Y-98642485D01*
X119349412Y-98857413D01*
X119478658Y-99050843D01*
X119643157Y-99215342D01*
X119836587Y-99344588D01*
X120051515Y-99433614D01*
X120279682Y-99479000D01*
X120512318Y-99479000D01*
X120740485Y-99433614D01*
X120955413Y-99344588D01*
X121148843Y-99215342D01*
X121313342Y-99050843D01*
X121442588Y-98857413D01*
X121531614Y-98642485D01*
X121577000Y-98414318D01*
X121577000Y-98181682D01*
X126835000Y-98181682D01*
X126835000Y-98414318D01*
X126880386Y-98642485D01*
X126969412Y-98857413D01*
X127098658Y-99050843D01*
X127263157Y-99215342D01*
X127456587Y-99344588D01*
X127671515Y-99433614D01*
X127899682Y-99479000D01*
X128132318Y-99479000D01*
X128360485Y-99433614D01*
X128575413Y-99344588D01*
X128768843Y-99215342D01*
X128933342Y-99050843D01*
X129062588Y-98857413D01*
X129151614Y-98642485D01*
X129197000Y-98414318D01*
X129197000Y-98181682D01*
X129151614Y-97953515D01*
X129062588Y-97738587D01*
X128933342Y-97545157D01*
X128768843Y-97380658D01*
X128575413Y-97251412D01*
X128360485Y-97162386D01*
X128132318Y-97117000D01*
X127899682Y-97117000D01*
X127671515Y-97162386D01*
X127456587Y-97251412D01*
X127263157Y-97380658D01*
X127098658Y-97545157D01*
X126969412Y-97738587D01*
X126880386Y-97953515D01*
X126835000Y-98181682D01*
X121577000Y-98181682D01*
X121531614Y-97953515D01*
X121442588Y-97738587D01*
X121313342Y-97545157D01*
X121148843Y-97380658D01*
X120955413Y-97251412D01*
X120740485Y-97162386D01*
X120512318Y-97117000D01*
X120279682Y-97117000D01*
X120051515Y-97162386D01*
X119836587Y-97251412D01*
X119643157Y-97380658D01*
X119478658Y-97545157D01*
X119349412Y-97738587D01*
X119260386Y-97953515D01*
X119215000Y-98181682D01*
X118707843Y-98181682D01*
X118707843Y-96813000D01*
X118700487Y-96738311D01*
X118678701Y-96666492D01*
X118643322Y-96600304D01*
X118595711Y-96542289D01*
X118537696Y-96494678D01*
X118471508Y-96459299D01*
X118399689Y-96437513D01*
X118325000Y-96430157D01*
X116625000Y-96430157D01*
X116550311Y-96437513D01*
X116478492Y-96459299D01*
X116412304Y-96494678D01*
X116354289Y-96542289D01*
X116306678Y-96600304D01*
X116271299Y-96666492D01*
X116249513Y-96738311D01*
X116242157Y-96813000D01*
X116078000Y-96813000D01*
X116078000Y-93086522D01*
X116078175Y-93087099D01*
X116203359Y-93349920D01*
X116377412Y-93583269D01*
X116593645Y-93778178D01*
X116843748Y-93927157D01*
X117006168Y-93984772D01*
X116891903Y-94032102D01*
X116690283Y-94166820D01*
X116518820Y-94338283D01*
X116384102Y-94539903D01*
X116291307Y-94763931D01*
X116244000Y-95001757D01*
X116244000Y-95244243D01*
X116291307Y-95482069D01*
X116384102Y-95706097D01*
X116518820Y-95907717D01*
X116690283Y-96079180D01*
X116891903Y-96213898D01*
X117115931Y-96306693D01*
X117353757Y-96354000D01*
X117596243Y-96354000D01*
X117834069Y-96306693D01*
X118058097Y-96213898D01*
X118259717Y-96079180D01*
X118431180Y-95907717D01*
X118565898Y-95706097D01*
X118658693Y-95482069D01*
X118706000Y-95244243D01*
X118706000Y-95006682D01*
X119215000Y-95006682D01*
X119215000Y-95239318D01*
X119260386Y-95467485D01*
X119349412Y-95682413D01*
X119478658Y-95875843D01*
X119643157Y-96040342D01*
X119836587Y-96169588D01*
X120051515Y-96258614D01*
X120279682Y-96304000D01*
X120512318Y-96304000D01*
X120740485Y-96258614D01*
X120955413Y-96169588D01*
X121148843Y-96040342D01*
X121313342Y-95875843D01*
X121442588Y-95682413D01*
X121531614Y-95467485D01*
X121577000Y-95239318D01*
X121577000Y-95006682D01*
X126835000Y-95006682D01*
X126835000Y-95239318D01*
X126880386Y-95467485D01*
X126969412Y-95682413D01*
X127098658Y-95875843D01*
X127263157Y-96040342D01*
X127456587Y-96169588D01*
X127671515Y-96258614D01*
X127899682Y-96304000D01*
X128132318Y-96304000D01*
X128360485Y-96258614D01*
X128575413Y-96169588D01*
X128768843Y-96040342D01*
X128933342Y-95875843D01*
X129062588Y-95682413D01*
X129151614Y-95467485D01*
X129197000Y-95239318D01*
X129197000Y-95006682D01*
X129151614Y-94778515D01*
X129062588Y-94563587D01*
X128933342Y-94370157D01*
X128768843Y-94205658D01*
X128575413Y-94076412D01*
X128360485Y-93987386D01*
X128132318Y-93942000D01*
X127899682Y-93942000D01*
X127671515Y-93987386D01*
X127456587Y-94076412D01*
X127263157Y-94205658D01*
X127098658Y-94370157D01*
X126969412Y-94563587D01*
X126880386Y-94778515D01*
X126835000Y-95006682D01*
X121577000Y-95006682D01*
X121531614Y-94778515D01*
X121442588Y-94563587D01*
X121313342Y-94370157D01*
X121148843Y-94205658D01*
X120955413Y-94076412D01*
X120740485Y-93987386D01*
X120512318Y-93942000D01*
X120279682Y-93942000D01*
X120051515Y-93987386D01*
X119836587Y-94076412D01*
X119643157Y-94205658D01*
X119478658Y-94370157D01*
X119349412Y-94563587D01*
X119260386Y-94778515D01*
X119215000Y-95006682D01*
X118706000Y-95006682D01*
X118706000Y-95001757D01*
X118658693Y-94763931D01*
X118565898Y-94539903D01*
X118431180Y-94338283D01*
X118259717Y-94166820D01*
X118058097Y-94032102D01*
X117943832Y-93984772D01*
X118106252Y-93927157D01*
X118356355Y-93778178D01*
X118572588Y-93583269D01*
X118746641Y-93349920D01*
X118871825Y-93087099D01*
X118916476Y-92939890D01*
X118795155Y-92710000D01*
X117602000Y-92710000D01*
X117602000Y-92730000D01*
X117348000Y-92730000D01*
X117348000Y-92710000D01*
X117328000Y-92710000D01*
X117328000Y-92456000D01*
X117348000Y-92456000D01*
X117348000Y-92436000D01*
X117602000Y-92436000D01*
X117602000Y-92456000D01*
X118795155Y-92456000D01*
X118916476Y-92226110D01*
X118871825Y-92078901D01*
X118754073Y-91831682D01*
X119215000Y-91831682D01*
X119215000Y-92064318D01*
X119260386Y-92292485D01*
X119349412Y-92507413D01*
X119478658Y-92700843D01*
X119643157Y-92865342D01*
X119836587Y-92994588D01*
X120051515Y-93083614D01*
X120279682Y-93129000D01*
X120512318Y-93129000D01*
X120740485Y-93083614D01*
X120955413Y-92994588D01*
X121148843Y-92865342D01*
X121313342Y-92700843D01*
X121442588Y-92507413D01*
X121531614Y-92292485D01*
X121577000Y-92064318D01*
X121577000Y-91831682D01*
X121531614Y-91603515D01*
X121442588Y-91388587D01*
X121313342Y-91195157D01*
X121148843Y-91030658D01*
X120955413Y-90901412D01*
X120740485Y-90812386D01*
X120512318Y-90767000D01*
X120279682Y-90767000D01*
X120051515Y-90812386D01*
X119836587Y-90901412D01*
X119643157Y-91030658D01*
X119478658Y-91195157D01*
X119349412Y-91388587D01*
X119260386Y-91603515D01*
X119215000Y-91831682D01*
X118754073Y-91831682D01*
X118746641Y-91816080D01*
X118572588Y-91582731D01*
X118356355Y-91387822D01*
X118106252Y-91238843D01*
X117943832Y-91181228D01*
X118058097Y-91133898D01*
X118259717Y-90999180D01*
X118431180Y-90827717D01*
X118565898Y-90626097D01*
X118658693Y-90402069D01*
X118706000Y-90164243D01*
X118706000Y-89921757D01*
X118658693Y-89683931D01*
X118565898Y-89459903D01*
X118431180Y-89258283D01*
X118259717Y-89086820D01*
X118058097Y-88952102D01*
X117834069Y-88859307D01*
X117596243Y-88812000D01*
X117353757Y-88812000D01*
X117115931Y-88859307D01*
X116891903Y-88952102D01*
X116690283Y-89086820D01*
X116518820Y-89258283D01*
X116384102Y-89459903D01*
X116291307Y-89683931D01*
X116244000Y-89921757D01*
X116244000Y-90164243D01*
X116291307Y-90402069D01*
X116384102Y-90626097D01*
X116518820Y-90827717D01*
X116690283Y-90999180D01*
X116891903Y-91133898D01*
X117006168Y-91181228D01*
X116843748Y-91238843D01*
X116593645Y-91387822D01*
X116377412Y-91582731D01*
X116203359Y-91816080D01*
X116078175Y-92078901D01*
X116078000Y-92079478D01*
X116078000Y-87381757D01*
X116244000Y-87381757D01*
X116244000Y-87624243D01*
X116291307Y-87862069D01*
X116384102Y-88086097D01*
X116518820Y-88287717D01*
X116690283Y-88459180D01*
X116891903Y-88593898D01*
X117115931Y-88686693D01*
X117353757Y-88734000D01*
X117596243Y-88734000D01*
X117834069Y-88686693D01*
X118058097Y-88593898D01*
X118259717Y-88459180D01*
X118393414Y-88325483D01*
X124286762Y-88325483D01*
X124286762Y-88597517D01*
X124339833Y-88864323D01*
X124443936Y-89115649D01*
X124595069Y-89341836D01*
X124787426Y-89534193D01*
X125013613Y-89685326D01*
X125264939Y-89789429D01*
X125531745Y-89842500D01*
X125803779Y-89842500D01*
X126070585Y-89789429D01*
X126321911Y-89685326D01*
X126548098Y-89534193D01*
X126740455Y-89341836D01*
X126891588Y-89115649D01*
X126937762Y-89004175D01*
X126983936Y-89115649D01*
X127135069Y-89341836D01*
X127327426Y-89534193D01*
X127553613Y-89685326D01*
X127804939Y-89789429D01*
X128071745Y-89842500D01*
X128343779Y-89842500D01*
X128610585Y-89789429D01*
X128861911Y-89685326D01*
X129088098Y-89534193D01*
X129280455Y-89341836D01*
X129431588Y-89115649D01*
X129477762Y-89004175D01*
X129523936Y-89115649D01*
X129675069Y-89341836D01*
X129867426Y-89534193D01*
X130093613Y-89685326D01*
X130131453Y-89701000D01*
X129338571Y-89701000D01*
X129310499Y-89698235D01*
X129282427Y-89701000D01*
X129282426Y-89701000D01*
X129198466Y-89709269D01*
X129090738Y-89741948D01*
X128991455Y-89795016D01*
X128904433Y-89866433D01*
X128886534Y-89888243D01*
X128007778Y-90767000D01*
X127899682Y-90767000D01*
X127671515Y-90812386D01*
X127456587Y-90901412D01*
X127263157Y-91030658D01*
X127098658Y-91195157D01*
X126969412Y-91388587D01*
X126880386Y-91603515D01*
X126835000Y-91831682D01*
X126835000Y-92064318D01*
X126880386Y-92292485D01*
X126969412Y-92507413D01*
X127098658Y-92700843D01*
X127263157Y-92865342D01*
X127456587Y-92994588D01*
X127671515Y-93083614D01*
X127899682Y-93129000D01*
X128132318Y-93129000D01*
X128360485Y-93083614D01*
X128575413Y-92994588D01*
X128768843Y-92865342D01*
X128933342Y-92700843D01*
X129062588Y-92507413D01*
X129151614Y-92292485D01*
X129190329Y-92097855D01*
X129228887Y-92190942D01*
X129314358Y-92318859D01*
X129423141Y-92427642D01*
X129551058Y-92513113D01*
X129693191Y-92571987D01*
X129844078Y-92602000D01*
X129997922Y-92602000D01*
X130148809Y-92571987D01*
X130290942Y-92513113D01*
X130418859Y-92427642D01*
X130527642Y-92318859D01*
X130613113Y-92190942D01*
X130671987Y-92048809D01*
X130702000Y-91897922D01*
X130702000Y-91848222D01*
X131125213Y-91425010D01*
X142572758Y-91425010D01*
X142628649Y-91559942D01*
X142714120Y-91687859D01*
X142822903Y-91796642D01*
X142950820Y-91882113D01*
X143092953Y-91940987D01*
X143243840Y-91971000D01*
X143397684Y-91971000D01*
X143548571Y-91940987D01*
X143690704Y-91882113D01*
X143818621Y-91796642D01*
X143927404Y-91687859D01*
X143955762Y-91645418D01*
X143984120Y-91687859D01*
X144092903Y-91796642D01*
X144220820Y-91882113D01*
X144362953Y-91940987D01*
X144513840Y-91971000D01*
X144667684Y-91971000D01*
X144818571Y-91940987D01*
X144936764Y-91892029D01*
X144936763Y-95300771D01*
X144916531Y-95367467D01*
X144905497Y-95479500D01*
X144908263Y-95507584D01*
X144908263Y-95962498D01*
X144873120Y-95997641D01*
X144787649Y-96125558D01*
X144728775Y-96267691D01*
X144698762Y-96418578D01*
X144698762Y-96572422D01*
X144711874Y-96638342D01*
X144706704Y-96634887D01*
X144564571Y-96576013D01*
X144413684Y-96546000D01*
X144259840Y-96546000D01*
X144108953Y-96576013D01*
X143966820Y-96634887D01*
X143838903Y-96720358D01*
X143730120Y-96829141D01*
X143644649Y-96957058D01*
X143585775Y-97099191D01*
X143555762Y-97250078D01*
X143555762Y-97403922D01*
X143585775Y-97554809D01*
X143644649Y-97696942D01*
X143730120Y-97824859D01*
X143838903Y-97933642D01*
X143966820Y-98019113D01*
X144108953Y-98077987D01*
X144259840Y-98108000D01*
X144309540Y-98108000D01*
X145162262Y-98960723D01*
X145162263Y-105452166D01*
X145107426Y-105488807D01*
X144915069Y-105681164D01*
X144763936Y-105907351D01*
X144717762Y-106018825D01*
X144671588Y-105907351D01*
X144520455Y-105681164D01*
X144328098Y-105488807D01*
X144192234Y-105398026D01*
X144310571Y-105374487D01*
X144452704Y-105315613D01*
X144580621Y-105230142D01*
X144689404Y-105121359D01*
X144774875Y-104993442D01*
X144833749Y-104851309D01*
X144863762Y-104700422D01*
X144863762Y-104546578D01*
X144833749Y-104395691D01*
X144774875Y-104253558D01*
X144689404Y-104125641D01*
X144580621Y-104016858D01*
X144452704Y-103931387D01*
X144310571Y-103872513D01*
X144159684Y-103842500D01*
X144109868Y-103842500D01*
X144045307Y-103789516D01*
X143946024Y-103736448D01*
X143838296Y-103703769D01*
X143754336Y-103695500D01*
X143726262Y-103692735D01*
X143698188Y-103695500D01*
X139619222Y-103695500D01*
X141419019Y-101895704D01*
X141440829Y-101877805D01*
X141512246Y-101790783D01*
X141565314Y-101691500D01*
X141597993Y-101583772D01*
X141606262Y-101499812D01*
X141606262Y-101499811D01*
X141609027Y-101471739D01*
X141606262Y-101443667D01*
X141606262Y-99060501D01*
X141641404Y-99025359D01*
X141726875Y-98897442D01*
X141785749Y-98755309D01*
X141815762Y-98604422D01*
X141815762Y-98450578D01*
X141785749Y-98299691D01*
X141726875Y-98157558D01*
X141641404Y-98029641D01*
X141532621Y-97920858D01*
X141404704Y-97835387D01*
X141262571Y-97776513D01*
X141111684Y-97746500D01*
X140957840Y-97746500D01*
X140806953Y-97776513D01*
X140664820Y-97835387D01*
X140536903Y-97920858D01*
X140428120Y-98029641D01*
X140342649Y-98157558D01*
X140283775Y-98299691D01*
X140253762Y-98450578D01*
X140253762Y-98604422D01*
X140283775Y-98755309D01*
X140342649Y-98897442D01*
X140428120Y-99025359D01*
X140463262Y-99060501D01*
X140463263Y-101235014D01*
X138609277Y-103089001D01*
X131846050Y-103089001D01*
X131824827Y-103082563D01*
X131712794Y-103071529D01*
X131600761Y-103082563D01*
X131579538Y-103089001D01*
X129693339Y-103089001D01*
X129638642Y-103007141D01*
X129529859Y-102898358D01*
X129401942Y-102812887D01*
X129259809Y-102754013D01*
X129108922Y-102724000D01*
X128955078Y-102724000D01*
X128804191Y-102754013D01*
X128662058Y-102812887D01*
X128534141Y-102898358D01*
X128425358Y-103007141D01*
X128339887Y-103135058D01*
X128281013Y-103277191D01*
X128251000Y-103428078D01*
X128251000Y-103581922D01*
X128281013Y-103732809D01*
X128339887Y-103874942D01*
X128425358Y-104002859D01*
X128534141Y-104111642D01*
X128662058Y-104197113D01*
X128804191Y-104255987D01*
X128955078Y-104286000D01*
X129108922Y-104286000D01*
X129259809Y-104255987D01*
X129317716Y-104232001D01*
X131699427Y-104232001D01*
X131727501Y-104234766D01*
X131755575Y-104232001D01*
X133021277Y-104232001D01*
X132903505Y-104349772D01*
X132881696Y-104367671D01*
X132858701Y-104395691D01*
X132810278Y-104454694D01*
X132757210Y-104553977D01*
X132724531Y-104661705D01*
X132713497Y-104773738D01*
X132716263Y-104801822D01*
X132716263Y-105303439D01*
X132633613Y-105337674D01*
X132407426Y-105488807D01*
X132215069Y-105681164D01*
X132063936Y-105907351D01*
X132017762Y-106018825D01*
X131971588Y-105907351D01*
X131820455Y-105681164D01*
X131628098Y-105488807D01*
X131401911Y-105337674D01*
X131150585Y-105233571D01*
X130883779Y-105180500D01*
X130611745Y-105180500D01*
X130344939Y-105233571D01*
X130093613Y-105337674D01*
X129867426Y-105488807D01*
X129675069Y-105681164D01*
X129523936Y-105907351D01*
X129477762Y-106018825D01*
X129431588Y-105907351D01*
X129280455Y-105681164D01*
X129088098Y-105488807D01*
X128861911Y-105337674D01*
X128610585Y-105233571D01*
X128343779Y-105180500D01*
X128071745Y-105180500D01*
X127804939Y-105233571D01*
X127553613Y-105337674D01*
X127327426Y-105488807D01*
X127135069Y-105681164D01*
X126983936Y-105907351D01*
X126937762Y-106018825D01*
X126891588Y-105907351D01*
X126740455Y-105681164D01*
X126548098Y-105488807D01*
X126321911Y-105337674D01*
X126070585Y-105233571D01*
X125803779Y-105180500D01*
X125531745Y-105180500D01*
X125264939Y-105233571D01*
X125013613Y-105337674D01*
X124787426Y-105488807D01*
X124595069Y-105681164D01*
X124443936Y-105907351D01*
X124339833Y-106158677D01*
X124286762Y-106425483D01*
X124286762Y-106697517D01*
X124339833Y-106964323D01*
X124443936Y-107215649D01*
X124595069Y-107441836D01*
X124787426Y-107634193D01*
X125013613Y-107785326D01*
X125264939Y-107889429D01*
X125531745Y-107942500D01*
X125803779Y-107942500D01*
X126070585Y-107889429D01*
X126321911Y-107785326D01*
X126548098Y-107634193D01*
X126740455Y-107441836D01*
X126891588Y-107215649D01*
X126937762Y-107104175D01*
X126983936Y-107215649D01*
X127135069Y-107441836D01*
X127327426Y-107634193D01*
X127553613Y-107785326D01*
X127804939Y-107889429D01*
X128071745Y-107942500D01*
X128343779Y-107942500D01*
X128610585Y-107889429D01*
X128861911Y-107785326D01*
X129088098Y-107634193D01*
X129280455Y-107441836D01*
X129431588Y-107215649D01*
X129477762Y-107104175D01*
X129523936Y-107215649D01*
X129675069Y-107441836D01*
X129867426Y-107634193D01*
X130093613Y-107785326D01*
X130344939Y-107889429D01*
X130611745Y-107942500D01*
X130883779Y-107942500D01*
X131150585Y-107889429D01*
X131401911Y-107785326D01*
X131628098Y-107634193D01*
X131820455Y-107441836D01*
X131971588Y-107215649D01*
X132017762Y-107104175D01*
X132063936Y-107215649D01*
X132215069Y-107441836D01*
X132407426Y-107634193D01*
X132633613Y-107785326D01*
X132884939Y-107889429D01*
X133151745Y-107942500D01*
X133423779Y-107942500D01*
X133690585Y-107889429D01*
X133941911Y-107785326D01*
X134168098Y-107634193D01*
X134360455Y-107441836D01*
X134511588Y-107215649D01*
X134557762Y-107104175D01*
X134603936Y-107215649D01*
X134755069Y-107441836D01*
X134947426Y-107634193D01*
X135173613Y-107785326D01*
X135424939Y-107889429D01*
X135691745Y-107942500D01*
X135963779Y-107942500D01*
X136230585Y-107889429D01*
X136481911Y-107785326D01*
X136708098Y-107634193D01*
X136900455Y-107441836D01*
X137051588Y-107215649D01*
X137097762Y-107104175D01*
X137143936Y-107215649D01*
X137295069Y-107441836D01*
X137487426Y-107634193D01*
X137713613Y-107785326D01*
X137964939Y-107889429D01*
X138231745Y-107942500D01*
X138503779Y-107942500D01*
X138770585Y-107889429D01*
X139021911Y-107785326D01*
X139248098Y-107634193D01*
X139440455Y-107441836D01*
X139591588Y-107215649D01*
X139637762Y-107104175D01*
X139683936Y-107215649D01*
X139835069Y-107441836D01*
X140027426Y-107634193D01*
X140253613Y-107785326D01*
X140504939Y-107889429D01*
X140771745Y-107942500D01*
X141043779Y-107942500D01*
X141310585Y-107889429D01*
X141561911Y-107785326D01*
X141788098Y-107634193D01*
X141980455Y-107441836D01*
X142131588Y-107215649D01*
X142177762Y-107104175D01*
X142223936Y-107215649D01*
X142375069Y-107441836D01*
X142567426Y-107634193D01*
X142793613Y-107785326D01*
X143044939Y-107889429D01*
X143311745Y-107942500D01*
X143583779Y-107942500D01*
X143850585Y-107889429D01*
X143933234Y-107855195D01*
X144414297Y-108336258D01*
X144432196Y-108358068D01*
X144519218Y-108429485D01*
X144618501Y-108482553D01*
X144726229Y-108515232D01*
X144810189Y-108523501D01*
X144810190Y-108523501D01*
X144838262Y-108526266D01*
X144866334Y-108523501D01*
X152189187Y-108523501D01*
X152217261Y-108526266D01*
X152245335Y-108523501D01*
X152329295Y-108515232D01*
X152437023Y-108482553D01*
X152536306Y-108429485D01*
X152623328Y-108358068D01*
X152641231Y-108336253D01*
X153122290Y-107855194D01*
X153204939Y-107889429D01*
X153471745Y-107942500D01*
X153743779Y-107942500D01*
X154010585Y-107889429D01*
X154261911Y-107785326D01*
X154488098Y-107634193D01*
X154680455Y-107441836D01*
X154831588Y-107215649D01*
X154935691Y-106964323D01*
X154939335Y-106946000D01*
X158506157Y-106946000D01*
X158506157Y-108446000D01*
X158513513Y-108520689D01*
X158535299Y-108592508D01*
X158570678Y-108658696D01*
X158618289Y-108716711D01*
X158676304Y-108764322D01*
X158742492Y-108799701D01*
X158814311Y-108821487D01*
X158889000Y-108828843D01*
X160389000Y-108828843D01*
X160463689Y-108821487D01*
X160535508Y-108799701D01*
X160601696Y-108764322D01*
X160659711Y-108716711D01*
X160707322Y-108658696D01*
X160742701Y-108592508D01*
X160764487Y-108520689D01*
X160771843Y-108446000D01*
X160771843Y-106946000D01*
X160764487Y-106871311D01*
X160742701Y-106799492D01*
X160707322Y-106733304D01*
X160659711Y-106675289D01*
X160601696Y-106627678D01*
X160535508Y-106592299D01*
X160463689Y-106570513D01*
X160389000Y-106563157D01*
X158889000Y-106563157D01*
X158814311Y-106570513D01*
X158742492Y-106592299D01*
X158676304Y-106627678D01*
X158618289Y-106675289D01*
X158570678Y-106733304D01*
X158535299Y-106799492D01*
X158513513Y-106871311D01*
X158506157Y-106946000D01*
X154939335Y-106946000D01*
X154988762Y-106697517D01*
X154988762Y-106425483D01*
X154935691Y-106158677D01*
X154831588Y-105907351D01*
X154680455Y-105681164D01*
X154488098Y-105488807D01*
X154261911Y-105337674D01*
X154010585Y-105233571D01*
X153743779Y-105180500D01*
X153471745Y-105180500D01*
X153204939Y-105233571D01*
X153122290Y-105267805D01*
X152220732Y-104366248D01*
X152202829Y-104344433D01*
X152121493Y-104277682D01*
X154688000Y-104277682D01*
X154688000Y-104510318D01*
X154733386Y-104738485D01*
X154822412Y-104953413D01*
X154951658Y-105146843D01*
X155116157Y-105311342D01*
X155309587Y-105440588D01*
X155524515Y-105529614D01*
X155752682Y-105575000D01*
X155985318Y-105575000D01*
X156213485Y-105529614D01*
X156428413Y-105440588D01*
X156509058Y-105386702D01*
X157555903Y-105386702D01*
X157627486Y-105630671D01*
X157882996Y-105751571D01*
X158157184Y-105820300D01*
X158439512Y-105834217D01*
X158719130Y-105792787D01*
X158985292Y-105697603D01*
X159110514Y-105630671D01*
X159182097Y-105386702D01*
X158369000Y-104573605D01*
X157555903Y-105386702D01*
X156509058Y-105386702D01*
X156621843Y-105311342D01*
X156786342Y-105146843D01*
X156915588Y-104953413D01*
X156985069Y-104785671D01*
X157065397Y-105010292D01*
X157132329Y-105135514D01*
X157376298Y-105207097D01*
X158189395Y-104394000D01*
X158548605Y-104394000D01*
X159361702Y-105207097D01*
X159605671Y-105135514D01*
X159726571Y-104880004D01*
X159795300Y-104605816D01*
X159809217Y-104323488D01*
X159767787Y-104043870D01*
X159672603Y-103777708D01*
X159668314Y-103769682D01*
X160363000Y-103769682D01*
X160363000Y-104002318D01*
X160408386Y-104230485D01*
X160497412Y-104445413D01*
X160626658Y-104638843D01*
X160791157Y-104803342D01*
X160984587Y-104932588D01*
X161199515Y-105021614D01*
X161427682Y-105067000D01*
X161660318Y-105067000D01*
X161888485Y-105021614D01*
X162103413Y-104932588D01*
X162296843Y-104803342D01*
X162461342Y-104638843D01*
X162590588Y-104445413D01*
X162679614Y-104230485D01*
X162725000Y-104002318D01*
X162725000Y-103901606D01*
X163080000Y-103901606D01*
X163080000Y-104124394D01*
X163123464Y-104342900D01*
X163208721Y-104548729D01*
X163332495Y-104733970D01*
X163490030Y-104891505D01*
X163675271Y-105015279D01*
X163881100Y-105100536D01*
X164099606Y-105144000D01*
X164322394Y-105144000D01*
X164540900Y-105100536D01*
X164746729Y-105015279D01*
X164931970Y-104891505D01*
X165089505Y-104733970D01*
X165213279Y-104548729D01*
X165298536Y-104342900D01*
X165342000Y-104124394D01*
X165342000Y-103901606D01*
X165298536Y-103683100D01*
X165213279Y-103477271D01*
X165089505Y-103292030D01*
X164931970Y-103134495D01*
X164746729Y-103010721D01*
X164540900Y-102925464D01*
X164322394Y-102882000D01*
X164099606Y-102882000D01*
X163881100Y-102925464D01*
X163675271Y-103010721D01*
X163490030Y-103134495D01*
X163332495Y-103292030D01*
X163208721Y-103477271D01*
X163123464Y-103683100D01*
X163080000Y-103901606D01*
X162725000Y-103901606D01*
X162725000Y-103769682D01*
X162679614Y-103541515D01*
X162590588Y-103326587D01*
X162461342Y-103133157D01*
X162296843Y-102968658D01*
X162103413Y-102839412D01*
X161888485Y-102750386D01*
X161660318Y-102705000D01*
X161427682Y-102705000D01*
X161199515Y-102750386D01*
X160984587Y-102839412D01*
X160791157Y-102968658D01*
X160626658Y-103133157D01*
X160497412Y-103326587D01*
X160408386Y-103541515D01*
X160363000Y-103769682D01*
X159668314Y-103769682D01*
X159605671Y-103652486D01*
X159361702Y-103580903D01*
X158548605Y-104394000D01*
X158189395Y-104394000D01*
X157376298Y-103580903D01*
X157132329Y-103652486D01*
X157011429Y-103907996D01*
X156986760Y-104006411D01*
X156915588Y-103834587D01*
X156786342Y-103641157D01*
X156621843Y-103476658D01*
X156509059Y-103401298D01*
X157555903Y-103401298D01*
X158369000Y-104214395D01*
X159182097Y-103401298D01*
X159110514Y-103157329D01*
X158855004Y-103036429D01*
X158580816Y-102967700D01*
X158298488Y-102953783D01*
X158018870Y-102995213D01*
X157752708Y-103090397D01*
X157627486Y-103157329D01*
X157555903Y-103401298D01*
X156509059Y-103401298D01*
X156428413Y-103347412D01*
X156213485Y-103258386D01*
X155985318Y-103213000D01*
X155752682Y-103213000D01*
X155524515Y-103258386D01*
X155309587Y-103347412D01*
X155116157Y-103476658D01*
X154951658Y-103641157D01*
X154822412Y-103834587D01*
X154733386Y-104049515D01*
X154688000Y-104277682D01*
X152121493Y-104277682D01*
X152115807Y-104273016D01*
X152016524Y-104219948D01*
X151908796Y-104187269D01*
X151824836Y-104179000D01*
X151796762Y-104176235D01*
X151768688Y-104179000D01*
X147775157Y-104179000D01*
X147648272Y-104052116D01*
X147648272Y-102314121D01*
X147849996Y-102409571D01*
X148124184Y-102478300D01*
X148406512Y-102492217D01*
X148686130Y-102450787D01*
X148952292Y-102355603D01*
X149077514Y-102288671D01*
X149149097Y-102044702D01*
X150697903Y-102044702D01*
X150769486Y-102288671D01*
X151024996Y-102409571D01*
X151299184Y-102478300D01*
X151581512Y-102492217D01*
X151861130Y-102450787D01*
X152127292Y-102355603D01*
X152252514Y-102288671D01*
X152324097Y-102044702D01*
X151511000Y-101231605D01*
X150697903Y-102044702D01*
X149149097Y-102044702D01*
X148336000Y-101231605D01*
X148321858Y-101245748D01*
X148142253Y-101066143D01*
X148156395Y-101052000D01*
X148515605Y-101052000D01*
X149328702Y-101865097D01*
X149572671Y-101793514D01*
X149693571Y-101538004D01*
X149762300Y-101263816D01*
X149769265Y-101122512D01*
X150070783Y-101122512D01*
X150112213Y-101402130D01*
X150207397Y-101668292D01*
X150274329Y-101793514D01*
X150518298Y-101865097D01*
X151331395Y-101052000D01*
X151690605Y-101052000D01*
X152503702Y-101865097D01*
X152747671Y-101793514D01*
X152868571Y-101538004D01*
X152937300Y-101263816D01*
X152951217Y-100981488D01*
X152909787Y-100701870D01*
X152814603Y-100435708D01*
X152747671Y-100310486D01*
X152503702Y-100238903D01*
X151690605Y-101052000D01*
X151331395Y-101052000D01*
X150518298Y-100238903D01*
X150274329Y-100310486D01*
X150153429Y-100565996D01*
X150084700Y-100840184D01*
X150070783Y-101122512D01*
X149769265Y-101122512D01*
X149776217Y-100981488D01*
X149734787Y-100701870D01*
X149639603Y-100435708D01*
X149572671Y-100310486D01*
X149328702Y-100238903D01*
X148515605Y-101052000D01*
X148156395Y-101052000D01*
X148142253Y-101037858D01*
X148321858Y-100858253D01*
X148336000Y-100872395D01*
X149149097Y-100059298D01*
X149077514Y-99815329D01*
X148822004Y-99694429D01*
X148723589Y-99669760D01*
X148895413Y-99598588D01*
X149088843Y-99469342D01*
X149253342Y-99304843D01*
X149382588Y-99111413D01*
X149471614Y-98896485D01*
X149517000Y-98668318D01*
X149517000Y-98435682D01*
X150330000Y-98435682D01*
X150330000Y-98668318D01*
X150375386Y-98896485D01*
X150464412Y-99111413D01*
X150593658Y-99304843D01*
X150758157Y-99469342D01*
X150951587Y-99598588D01*
X151119329Y-99668069D01*
X150894708Y-99748397D01*
X150769486Y-99815329D01*
X150697903Y-100059298D01*
X151511000Y-100872395D01*
X152324097Y-100059298D01*
X152252514Y-99815329D01*
X151997004Y-99694429D01*
X151898589Y-99669760D01*
X152070413Y-99598588D01*
X152263843Y-99469342D01*
X152428342Y-99304843D01*
X152557588Y-99111413D01*
X152646614Y-98896485D01*
X152692000Y-98668318D01*
X152692000Y-98435682D01*
X152646614Y-98207515D01*
X152557588Y-97992587D01*
X152428342Y-97799157D01*
X152263843Y-97634658D01*
X152070413Y-97505412D01*
X151855485Y-97416386D01*
X151627318Y-97371000D01*
X151394682Y-97371000D01*
X151166515Y-97416386D01*
X150951587Y-97505412D01*
X150758157Y-97634658D01*
X150593658Y-97799157D01*
X150464412Y-97992587D01*
X150375386Y-98207515D01*
X150330000Y-98435682D01*
X149517000Y-98435682D01*
X149471614Y-98207515D01*
X149382588Y-97992587D01*
X149253342Y-97799157D01*
X149088843Y-97634658D01*
X148895413Y-97505412D01*
X148680485Y-97416386D01*
X148452318Y-97371000D01*
X148219682Y-97371000D01*
X147991515Y-97416386D01*
X147776587Y-97505412D01*
X147583157Y-97634658D01*
X147531613Y-97686202D01*
X147482839Y-97626771D01*
X147461030Y-97608873D01*
X146959481Y-97107325D01*
X146959481Y-96393501D01*
X146994623Y-96358359D01*
X147080094Y-96230442D01*
X147113546Y-96149682D01*
X160363000Y-96149682D01*
X160363000Y-96382318D01*
X160408386Y-96610485D01*
X160497412Y-96825413D01*
X160626658Y-97018843D01*
X160791157Y-97183342D01*
X160984587Y-97312588D01*
X161199515Y-97401614D01*
X161427682Y-97447000D01*
X161660318Y-97447000D01*
X161888485Y-97401614D01*
X162103413Y-97312588D01*
X162296843Y-97183342D01*
X162337185Y-97143000D01*
X162822928Y-97143000D01*
X162835188Y-97267482D01*
X162871498Y-97387180D01*
X162930463Y-97497494D01*
X163009815Y-97594185D01*
X163106506Y-97673537D01*
X163216820Y-97732502D01*
X163336518Y-97768812D01*
X163461000Y-97781072D01*
X163925250Y-97778000D01*
X164084000Y-97619250D01*
X164084000Y-96520000D01*
X164338000Y-96520000D01*
X164338000Y-97619250D01*
X164496750Y-97778000D01*
X164961000Y-97781072D01*
X165085482Y-97768812D01*
X165205180Y-97732502D01*
X165315494Y-97673537D01*
X165412185Y-97594185D01*
X165491537Y-97497494D01*
X165550502Y-97387180D01*
X165586812Y-97267482D01*
X165599072Y-97143000D01*
X165596000Y-96678750D01*
X165437250Y-96520000D01*
X164338000Y-96520000D01*
X164084000Y-96520000D01*
X162984750Y-96520000D01*
X162826000Y-96678750D01*
X162822928Y-97143000D01*
X162337185Y-97143000D01*
X162461342Y-97018843D01*
X162590588Y-96825413D01*
X162679614Y-96610485D01*
X162725000Y-96382318D01*
X162725000Y-96149682D01*
X162679614Y-95921515D01*
X162590588Y-95706587D01*
X162548101Y-95643000D01*
X162822928Y-95643000D01*
X162826000Y-96107250D01*
X162984750Y-96266000D01*
X164084000Y-96266000D01*
X164084000Y-95166750D01*
X164338000Y-95166750D01*
X164338000Y-96266000D01*
X165437250Y-96266000D01*
X165596000Y-96107250D01*
X165599072Y-95643000D01*
X166253157Y-95643000D01*
X166253157Y-97143000D01*
X166260513Y-97217689D01*
X166282299Y-97289508D01*
X166317678Y-97355696D01*
X166365289Y-97413711D01*
X166423304Y-97461322D01*
X166489492Y-97496701D01*
X166561311Y-97518487D01*
X166636000Y-97525843D01*
X168136000Y-97525843D01*
X168210689Y-97518487D01*
X168282508Y-97496701D01*
X168348696Y-97461322D01*
X168406711Y-97413711D01*
X168454322Y-97355696D01*
X168489701Y-97289508D01*
X168511487Y-97217689D01*
X168518843Y-97143000D01*
X168518843Y-95643000D01*
X168511487Y-95568311D01*
X168489701Y-95496492D01*
X168454322Y-95430304D01*
X168406711Y-95372289D01*
X168348696Y-95324678D01*
X168282508Y-95289299D01*
X168210689Y-95267513D01*
X168136000Y-95260157D01*
X166636000Y-95260157D01*
X166561311Y-95267513D01*
X166489492Y-95289299D01*
X166423304Y-95324678D01*
X166365289Y-95372289D01*
X166317678Y-95430304D01*
X166282299Y-95496492D01*
X166260513Y-95568311D01*
X166253157Y-95643000D01*
X165599072Y-95643000D01*
X165586812Y-95518518D01*
X165550502Y-95398820D01*
X165491537Y-95288506D01*
X165412185Y-95191815D01*
X165315494Y-95112463D01*
X165205180Y-95053498D01*
X165085482Y-95017188D01*
X164961000Y-95004928D01*
X164496750Y-95008000D01*
X164338000Y-95166750D01*
X164084000Y-95166750D01*
X163925250Y-95008000D01*
X163461000Y-95004928D01*
X163336518Y-95017188D01*
X163216820Y-95053498D01*
X163106506Y-95112463D01*
X163009815Y-95191815D01*
X162930463Y-95288506D01*
X162871498Y-95398820D01*
X162835188Y-95518518D01*
X162822928Y-95643000D01*
X162548101Y-95643000D01*
X162461342Y-95513157D01*
X162296843Y-95348658D01*
X162103413Y-95219412D01*
X161888485Y-95130386D01*
X161660318Y-95085000D01*
X161427682Y-95085000D01*
X161199515Y-95130386D01*
X160984587Y-95219412D01*
X160791157Y-95348658D01*
X160626658Y-95513157D01*
X160497412Y-95706587D01*
X160408386Y-95921515D01*
X160363000Y-96149682D01*
X147113546Y-96149682D01*
X147138968Y-96088309D01*
X147168981Y-95937422D01*
X147168981Y-95783578D01*
X147138968Y-95632691D01*
X147080094Y-95490558D01*
X146994623Y-95362641D01*
X146959481Y-95327499D01*
X146959481Y-94244682D01*
X147790000Y-94244682D01*
X147790000Y-94477318D01*
X147835386Y-94705485D01*
X147924412Y-94920413D01*
X148053658Y-95113843D01*
X148218157Y-95278342D01*
X148411587Y-95407588D01*
X148626515Y-95496614D01*
X148854682Y-95542000D01*
X149087318Y-95542000D01*
X149315485Y-95496614D01*
X149530413Y-95407588D01*
X149723843Y-95278342D01*
X149888342Y-95113843D01*
X150017588Y-94920413D01*
X150104727Y-94710039D01*
X155199096Y-94710039D01*
X155239754Y-94844087D01*
X155359963Y-95098420D01*
X155527481Y-95324414D01*
X155735869Y-95513385D01*
X155977119Y-95658070D01*
X156241960Y-95752909D01*
X156464000Y-95631624D01*
X156464000Y-94488000D01*
X156718000Y-94488000D01*
X156718000Y-95631624D01*
X156940040Y-95752909D01*
X157204881Y-95658070D01*
X157446131Y-95513385D01*
X157654519Y-95324414D01*
X157822037Y-95098420D01*
X157942246Y-94844087D01*
X157982904Y-94710039D01*
X157860915Y-94488000D01*
X156718000Y-94488000D01*
X156464000Y-94488000D01*
X155321085Y-94488000D01*
X155199096Y-94710039D01*
X150104727Y-94710039D01*
X150106614Y-94705485D01*
X150152000Y-94477318D01*
X150152000Y-94244682D01*
X150106614Y-94016515D01*
X150104728Y-94011961D01*
X155199096Y-94011961D01*
X155321085Y-94234000D01*
X156464000Y-94234000D01*
X156464000Y-93090376D01*
X156718000Y-93090376D01*
X156718000Y-94234000D01*
X157860915Y-94234000D01*
X157982904Y-94011961D01*
X157942246Y-93877913D01*
X157822037Y-93623580D01*
X157654519Y-93397586D01*
X157446131Y-93208615D01*
X157204881Y-93063930D01*
X156940040Y-92969091D01*
X156718000Y-93090376D01*
X156464000Y-93090376D01*
X156241960Y-92969091D01*
X155977119Y-93063930D01*
X155735869Y-93208615D01*
X155527481Y-93397586D01*
X155359963Y-93623580D01*
X155239754Y-93877913D01*
X155199096Y-94011961D01*
X150104728Y-94011961D01*
X150017588Y-93801587D01*
X149888342Y-93608157D01*
X149723843Y-93443658D01*
X149530413Y-93314412D01*
X149315485Y-93225386D01*
X149087318Y-93180000D01*
X148854682Y-93180000D01*
X148626515Y-93225386D01*
X148411587Y-93314412D01*
X148218157Y-93443658D01*
X148053658Y-93608157D01*
X147924412Y-93801587D01*
X147835386Y-94016515D01*
X147790000Y-94244682D01*
X146959481Y-94244682D01*
X146959481Y-92720682D01*
X160744000Y-92720682D01*
X160744000Y-92953318D01*
X160789386Y-93181485D01*
X160878412Y-93396413D01*
X161007658Y-93589843D01*
X161172157Y-93754342D01*
X161365587Y-93883588D01*
X161580515Y-93972614D01*
X161808682Y-94018000D01*
X162041318Y-94018000D01*
X162269485Y-93972614D01*
X162484413Y-93883588D01*
X162677843Y-93754342D01*
X162842342Y-93589843D01*
X162971588Y-93396413D01*
X163060614Y-93181485D01*
X163106000Y-92953318D01*
X163106000Y-92767682D01*
X165189000Y-92767682D01*
X165189000Y-93000318D01*
X165234386Y-93228485D01*
X165323412Y-93443413D01*
X165452658Y-93636843D01*
X165617157Y-93801342D01*
X165810587Y-93930588D01*
X166025515Y-94019614D01*
X166253682Y-94065000D01*
X166486318Y-94065000D01*
X166714485Y-94019614D01*
X166929413Y-93930588D01*
X167122843Y-93801342D01*
X167287342Y-93636843D01*
X167416588Y-93443413D01*
X167505614Y-93228485D01*
X167551000Y-93000318D01*
X167551000Y-92767682D01*
X167505614Y-92539515D01*
X167416588Y-92324587D01*
X167287342Y-92131157D01*
X167122843Y-91966658D01*
X166929413Y-91837412D01*
X166714485Y-91748386D01*
X166486318Y-91703000D01*
X166253682Y-91703000D01*
X166025515Y-91748386D01*
X165810587Y-91837412D01*
X165617157Y-91966658D01*
X165452658Y-92131157D01*
X165323412Y-92324587D01*
X165234386Y-92539515D01*
X165189000Y-92767682D01*
X163106000Y-92767682D01*
X163106000Y-92720682D01*
X163060614Y-92492515D01*
X162971588Y-92277587D01*
X162842342Y-92084157D01*
X162677843Y-91919658D01*
X162484413Y-91790412D01*
X162269485Y-91701386D01*
X162041318Y-91656000D01*
X161808682Y-91656000D01*
X161580515Y-91701386D01*
X161365587Y-91790412D01*
X161172157Y-91919658D01*
X161007658Y-92084157D01*
X160878412Y-92277587D01*
X160789386Y-92492515D01*
X160744000Y-92720682D01*
X146959481Y-92720682D01*
X146959481Y-91887003D01*
X147824812Y-91021672D01*
X147790000Y-91196682D01*
X147790000Y-91429318D01*
X147835386Y-91657485D01*
X147924412Y-91872413D01*
X148053658Y-92065843D01*
X148218157Y-92230342D01*
X148411587Y-92359588D01*
X148626515Y-92448614D01*
X148854682Y-92494000D01*
X149087318Y-92494000D01*
X149315485Y-92448614D01*
X149530413Y-92359588D01*
X149723843Y-92230342D01*
X149888342Y-92065843D01*
X150017588Y-91872413D01*
X150106614Y-91657485D01*
X150152000Y-91429318D01*
X150152000Y-91196682D01*
X155410000Y-91196682D01*
X155410000Y-91429318D01*
X155455386Y-91657485D01*
X155544412Y-91872413D01*
X155673658Y-92065843D01*
X155838157Y-92230342D01*
X156031587Y-92359588D01*
X156246515Y-92448614D01*
X156474682Y-92494000D01*
X156707318Y-92494000D01*
X156935485Y-92448614D01*
X157150413Y-92359588D01*
X157343843Y-92230342D01*
X157508342Y-92065843D01*
X157637588Y-91872413D01*
X157726614Y-91657485D01*
X157772000Y-91429318D01*
X157772000Y-91196682D01*
X157726614Y-90968515D01*
X157637588Y-90753587D01*
X157508342Y-90560157D01*
X157343843Y-90395658D01*
X157150413Y-90266412D01*
X156935485Y-90177386D01*
X156707318Y-90132000D01*
X156474682Y-90132000D01*
X156246515Y-90177386D01*
X156031587Y-90266412D01*
X155838157Y-90395658D01*
X155673658Y-90560157D01*
X155544412Y-90753587D01*
X155455386Y-90968515D01*
X155410000Y-91196682D01*
X150152000Y-91196682D01*
X150106614Y-90968515D01*
X150017588Y-90753587D01*
X149888342Y-90560157D01*
X149747530Y-90419345D01*
X149789295Y-90415232D01*
X149897023Y-90382553D01*
X149996306Y-90329485D01*
X150083328Y-90258068D01*
X150101231Y-90236253D01*
X150582290Y-89755194D01*
X150664939Y-89789429D01*
X150931745Y-89842500D01*
X151203779Y-89842500D01*
X151470585Y-89789429D01*
X151721911Y-89685326D01*
X151948098Y-89534193D01*
X152140455Y-89341836D01*
X152291588Y-89115649D01*
X152337762Y-89004175D01*
X152383936Y-89115649D01*
X152535069Y-89341836D01*
X152727426Y-89534193D01*
X152953613Y-89685326D01*
X153204939Y-89789429D01*
X153471745Y-89842500D01*
X153743779Y-89842500D01*
X154010585Y-89789429D01*
X154261911Y-89685326D01*
X154488098Y-89534193D01*
X154680455Y-89341836D01*
X154831588Y-89115649D01*
X154935691Y-88864323D01*
X154942577Y-88829702D01*
X161111903Y-88829702D01*
X161183486Y-89073671D01*
X161438996Y-89194571D01*
X161713184Y-89263300D01*
X161995512Y-89277217D01*
X162275130Y-89235787D01*
X162541292Y-89140603D01*
X162666514Y-89073671D01*
X162724306Y-88876702D01*
X165556903Y-88876702D01*
X165628486Y-89120671D01*
X165883996Y-89241571D01*
X166158184Y-89310300D01*
X166440512Y-89324217D01*
X166720130Y-89282787D01*
X166986292Y-89187603D01*
X167111514Y-89120671D01*
X167183097Y-88876702D01*
X166370000Y-88063605D01*
X165556903Y-88876702D01*
X162724306Y-88876702D01*
X162738097Y-88829702D01*
X161925000Y-88016605D01*
X161111903Y-88829702D01*
X154942577Y-88829702D01*
X154988762Y-88597517D01*
X154988762Y-88325483D01*
X154935691Y-88058677D01*
X154873077Y-87907512D01*
X160484783Y-87907512D01*
X160526213Y-88187130D01*
X160621397Y-88453292D01*
X160688329Y-88578514D01*
X160932298Y-88650097D01*
X161745395Y-87837000D01*
X162104605Y-87837000D01*
X162917702Y-88650097D01*
X163161671Y-88578514D01*
X163282571Y-88323004D01*
X163351300Y-88048816D01*
X163355948Y-87954512D01*
X164929783Y-87954512D01*
X164971213Y-88234130D01*
X165066397Y-88500292D01*
X165133329Y-88625514D01*
X165377298Y-88697097D01*
X166190395Y-87884000D01*
X166549605Y-87884000D01*
X167362702Y-88697097D01*
X167606671Y-88625514D01*
X167727571Y-88370004D01*
X167796300Y-88095816D01*
X167810217Y-87813488D01*
X167768787Y-87533870D01*
X167673603Y-87267708D01*
X167606671Y-87142486D01*
X167362702Y-87070903D01*
X166549605Y-87884000D01*
X166190395Y-87884000D01*
X165377298Y-87070903D01*
X165133329Y-87142486D01*
X165012429Y-87397996D01*
X164943700Y-87672184D01*
X164929783Y-87954512D01*
X163355948Y-87954512D01*
X163365217Y-87766488D01*
X163323787Y-87486870D01*
X163228603Y-87220708D01*
X163161671Y-87095486D01*
X162917702Y-87023903D01*
X162104605Y-87837000D01*
X161745395Y-87837000D01*
X160932298Y-87023903D01*
X160688329Y-87095486D01*
X160567429Y-87350996D01*
X160498700Y-87625184D01*
X160484783Y-87907512D01*
X154873077Y-87907512D01*
X154831588Y-87807351D01*
X154680455Y-87581164D01*
X154488098Y-87388807D01*
X154261911Y-87237674D01*
X154157306Y-87194345D01*
X154138314Y-87131738D01*
X154085246Y-87032455D01*
X154013829Y-86945433D01*
X153992015Y-86927531D01*
X153908782Y-86844298D01*
X161111903Y-86844298D01*
X161925000Y-87657395D01*
X162691097Y-86891298D01*
X165556903Y-86891298D01*
X166370000Y-87704395D01*
X167183097Y-86891298D01*
X167111514Y-86647329D01*
X166856004Y-86526429D01*
X166581816Y-86457700D01*
X166299488Y-86443783D01*
X166019870Y-86485213D01*
X165753708Y-86580397D01*
X165628486Y-86647329D01*
X165556903Y-86891298D01*
X162691097Y-86891298D01*
X162738097Y-86844298D01*
X162666514Y-86600329D01*
X162411004Y-86479429D01*
X162136816Y-86410700D01*
X161854488Y-86396783D01*
X161574870Y-86438213D01*
X161308708Y-86533397D01*
X161183486Y-86600329D01*
X161111903Y-86844298D01*
X153908782Y-86844298D01*
X153751231Y-86686747D01*
X153733328Y-86664932D01*
X153646306Y-86593515D01*
X153547023Y-86540447D01*
X153439295Y-86507768D01*
X153355335Y-86499499D01*
X153327261Y-86496734D01*
X153299187Y-86499499D01*
X148836334Y-86499499D01*
X148808262Y-86496734D01*
X148780190Y-86499499D01*
X148780189Y-86499499D01*
X148696229Y-86507768D01*
X148588501Y-86540447D01*
X148489218Y-86593515D01*
X148402196Y-86664932D01*
X148384293Y-86686747D01*
X148143506Y-86927534D01*
X148121696Y-86945433D01*
X148064103Y-87015610D01*
X148050278Y-87032456D01*
X147997210Y-87131739D01*
X147978219Y-87194345D01*
X147873613Y-87237674D01*
X147647426Y-87388807D01*
X147455069Y-87581164D01*
X147303936Y-87807351D01*
X147257762Y-87918825D01*
X147211588Y-87807351D01*
X147060455Y-87581164D01*
X146868098Y-87388807D01*
X146641911Y-87237674D01*
X146390585Y-87133571D01*
X146123779Y-87080500D01*
X145851745Y-87080500D01*
X145584939Y-87133571D01*
X145333613Y-87237674D01*
X145107426Y-87388807D01*
X144915069Y-87581164D01*
X144763936Y-87807351D01*
X144717762Y-87918825D01*
X144671588Y-87807351D01*
X144520455Y-87581164D01*
X144328098Y-87388807D01*
X144101911Y-87237674D01*
X143850585Y-87133571D01*
X143583779Y-87080500D01*
X143311745Y-87080500D01*
X143044939Y-87133571D01*
X142793613Y-87237674D01*
X142567426Y-87388807D01*
X142375069Y-87581164D01*
X142223936Y-87807351D01*
X142177762Y-87918825D01*
X142131588Y-87807351D01*
X141980455Y-87581164D01*
X141788098Y-87388807D01*
X141561911Y-87237674D01*
X141310585Y-87133571D01*
X141043779Y-87080500D01*
X140771745Y-87080500D01*
X140504939Y-87133571D01*
X140253613Y-87237674D01*
X140027426Y-87388807D01*
X139835069Y-87581164D01*
X139683936Y-87807351D01*
X139637762Y-87918825D01*
X139591588Y-87807351D01*
X139440455Y-87581164D01*
X139248098Y-87388807D01*
X139021911Y-87237674D01*
X138770585Y-87133571D01*
X138503779Y-87080500D01*
X138231745Y-87080500D01*
X137964939Y-87133571D01*
X137713613Y-87237674D01*
X137487426Y-87388807D01*
X137295069Y-87581164D01*
X137143936Y-87807351D01*
X137097762Y-87918825D01*
X137051588Y-87807351D01*
X136900455Y-87581164D01*
X136708098Y-87388807D01*
X136481911Y-87237674D01*
X136230585Y-87133571D01*
X135963779Y-87080500D01*
X135691745Y-87080500D01*
X135424939Y-87133571D01*
X135173613Y-87237674D01*
X134947426Y-87388807D01*
X134755069Y-87581164D01*
X134603936Y-87807351D01*
X134557762Y-87918825D01*
X134511588Y-87807351D01*
X134360455Y-87581164D01*
X134168098Y-87388807D01*
X133941911Y-87237674D01*
X133690585Y-87133571D01*
X133423779Y-87080500D01*
X133151745Y-87080500D01*
X132884939Y-87133571D01*
X132633613Y-87237674D01*
X132407426Y-87388807D01*
X132215069Y-87581164D01*
X132063936Y-87807351D01*
X132017762Y-87918825D01*
X131971588Y-87807351D01*
X131820455Y-87581164D01*
X131628098Y-87388807D01*
X131401911Y-87237674D01*
X131150585Y-87133571D01*
X130883779Y-87080500D01*
X130611745Y-87080500D01*
X130344939Y-87133571D01*
X130093613Y-87237674D01*
X129867426Y-87388807D01*
X129675069Y-87581164D01*
X129523936Y-87807351D01*
X129477762Y-87918825D01*
X129431588Y-87807351D01*
X129280455Y-87581164D01*
X129088098Y-87388807D01*
X128861911Y-87237674D01*
X128610585Y-87133571D01*
X128343779Y-87080500D01*
X128071745Y-87080500D01*
X127804939Y-87133571D01*
X127553613Y-87237674D01*
X127327426Y-87388807D01*
X127135069Y-87581164D01*
X126983936Y-87807351D01*
X126937762Y-87918825D01*
X126891588Y-87807351D01*
X126740455Y-87581164D01*
X126548098Y-87388807D01*
X126321911Y-87237674D01*
X126070585Y-87133571D01*
X125803779Y-87080500D01*
X125531745Y-87080500D01*
X125264939Y-87133571D01*
X125013613Y-87237674D01*
X124787426Y-87388807D01*
X124595069Y-87581164D01*
X124443936Y-87807351D01*
X124339833Y-88058677D01*
X124286762Y-88325483D01*
X118393414Y-88325483D01*
X118431180Y-88287717D01*
X118565898Y-88086097D01*
X118658693Y-87862069D01*
X118706000Y-87624243D01*
X118706000Y-87381757D01*
X118658693Y-87143931D01*
X118565898Y-86919903D01*
X118431180Y-86718283D01*
X118259717Y-86546820D01*
X118058097Y-86412102D01*
X117834069Y-86319307D01*
X117596243Y-86272000D01*
X117353757Y-86272000D01*
X117115931Y-86319307D01*
X116891903Y-86412102D01*
X116690283Y-86546820D01*
X116518820Y-86718283D01*
X116384102Y-86919903D01*
X116291307Y-87143931D01*
X116244000Y-87381757D01*
X116078000Y-87381757D01*
X116078000Y-85496000D01*
X196723000Y-85496000D01*
X196723000Y-109220199D01*
G36*
X139067444Y-104830231D02*
G01*
X139151404Y-104838500D01*
X139179478Y-104841265D01*
X139207552Y-104838500D01*
X143329227Y-104838500D01*
X143331775Y-104851309D01*
X143390649Y-104993442D01*
X143476120Y-105121359D01*
X143535261Y-105180500D01*
X143311745Y-105180500D01*
X143044939Y-105233571D01*
X142793613Y-105337674D01*
X142567426Y-105488807D01*
X142375069Y-105681164D01*
X142223936Y-105907351D01*
X142177762Y-106018825D01*
X142131588Y-105907351D01*
X141980455Y-105681164D01*
X141788098Y-105488807D01*
X141561911Y-105337674D01*
X141310585Y-105233571D01*
X141043779Y-105180500D01*
X140771745Y-105180500D01*
X140504939Y-105233571D01*
X140253613Y-105337674D01*
X140027426Y-105488807D01*
X139835069Y-105681164D01*
X139683936Y-105907351D01*
X139637762Y-106018825D01*
X139591588Y-105907351D01*
X139440455Y-105681164D01*
X139248098Y-105488807D01*
X139021911Y-105337674D01*
X138770585Y-105233571D01*
X138503779Y-105180500D01*
X138231745Y-105180500D01*
X137964939Y-105233571D01*
X137713613Y-105337674D01*
X137487426Y-105488807D01*
X137295069Y-105681164D01*
X137143936Y-105907351D01*
X137097762Y-106018825D01*
X137051588Y-105907351D01*
X136900455Y-105681164D01*
X136708098Y-105488807D01*
X136481911Y-105337674D01*
X136230585Y-105233571D01*
X135963779Y-105180500D01*
X135691745Y-105180500D01*
X135424939Y-105233571D01*
X135173613Y-105337674D01*
X134947426Y-105488807D01*
X134755069Y-105681164D01*
X134603936Y-105907351D01*
X134557762Y-106018825D01*
X134511588Y-105907351D01*
X134360455Y-105681164D01*
X134168098Y-105488807D01*
X133941911Y-105337674D01*
X133859262Y-105303440D01*
X133859262Y-105010460D01*
X134056712Y-104813011D01*
X139010677Y-104813011D01*
X139067444Y-104830231D01*
G37*
X139067444Y-104830231D02*
X139151404Y-104838500D01*
X139179478Y-104841265D01*
X139207552Y-104838500D01*
X143329227Y-104838500D01*
X143331775Y-104851309D01*
X143390649Y-104993442D01*
X143476120Y-105121359D01*
X143535261Y-105180500D01*
X143311745Y-105180500D01*
X143044939Y-105233571D01*
X142793613Y-105337674D01*
X142567426Y-105488807D01*
X142375069Y-105681164D01*
X142223936Y-105907351D01*
X142177762Y-106018825D01*
X142131588Y-105907351D01*
X141980455Y-105681164D01*
X141788098Y-105488807D01*
X141561911Y-105337674D01*
X141310585Y-105233571D01*
X141043779Y-105180500D01*
X140771745Y-105180500D01*
X140504939Y-105233571D01*
X140253613Y-105337674D01*
X140027426Y-105488807D01*
X139835069Y-105681164D01*
X139683936Y-105907351D01*
X139637762Y-106018825D01*
X139591588Y-105907351D01*
X139440455Y-105681164D01*
X139248098Y-105488807D01*
X139021911Y-105337674D01*
X138770585Y-105233571D01*
X138503779Y-105180500D01*
X138231745Y-105180500D01*
X137964939Y-105233571D01*
X137713613Y-105337674D01*
X137487426Y-105488807D01*
X137295069Y-105681164D01*
X137143936Y-105907351D01*
X137097762Y-106018825D01*
X137051588Y-105907351D01*
X136900455Y-105681164D01*
X136708098Y-105488807D01*
X136481911Y-105337674D01*
X136230585Y-105233571D01*
X135963779Y-105180500D01*
X135691745Y-105180500D01*
X135424939Y-105233571D01*
X135173613Y-105337674D01*
X134947426Y-105488807D01*
X134755069Y-105681164D01*
X134603936Y-105907351D01*
X134557762Y-106018825D01*
X134511588Y-105907351D01*
X134360455Y-105681164D01*
X134168098Y-105488807D01*
X133941911Y-105337674D01*
X133859262Y-105303440D01*
X133859262Y-105010460D01*
X134056712Y-104813011D01*
X139010677Y-104813011D01*
X139067444Y-104830231D01*
%TD*%
M02*
