M48
; DRILL file {KiCad (5.1.6-0-10_14)} date Saturday, March 20, 2021 at 12:43:45 PM
; FORMAT={-:-/ absolute / inch / decimal}
; #@! TF.CreationDate,2021-03-20T12:43:45-06:00
; #@! TF.GenerationSoftware,Kicad,Pcbnew,(5.1.6-0-10_14)
; #@! TF.FileFunction,Plated,1,2,PTH
FMAT,2
INCH
T1C0.0157
T2C0.0295
T3C0.0300
T4C0.0315
T5C0.0394
T6C0.0630
T7C0.0669
%
G90
G05
T1
X4.62Y-4.05
X4.695Y-3.935
X4.715Y-3.42
X4.715Y-4.26
X4.8125Y-3.434
X4.8125Y-3.509
X4.8125Y-4.234
X4.835Y-3.585
X4.84Y-3.71
X4.855Y-3.995
X4.87Y-3.86
X4.88Y-4.26
X4.925Y-3.62
X4.94Y-3.77
X4.945Y-3.945
X4.9875Y-4.259
X4.995Y-3.41
X5.08Y-4.075
X5.115Y-3.615
X5.155Y-3.985
X5.16Y-3.645
X5.195Y-3.41
X5.2125Y-4.259
X5.245Y-3.64
X5.245Y-3.72
X5.295Y-4.145
X5.31Y-4.05
X5.395Y-3.41
X5.4075Y-3.849
X5.4125Y-4.259
X5.44Y-3.8
X5.4625Y-4.009
X5.5525Y-3.879
X5.5875Y-3.409
X5.5875Y-4.259
X5.5975Y-4.14
X5.6375Y-4.059
X5.6425Y-3.5902
X5.6725Y-4.119
X5.6825Y-3.8318
X5.6925Y-3.5902
X5.7034Y-3.9282
X5.705Y-4.055
X5.7275Y-3.799
X5.7633Y-3.774
X5.7875Y-3.409
X5.81Y-3.66
X5.81Y-3.815
X5.83Y-4.29
X5.845Y-4.085
X5.905Y-3.83
X5.905Y-3.93
X5.91Y-4.085
X5.945Y-3.6
X5.955Y-3.715
X5.985Y-4.085
X5.995Y-4.29
X6.025Y-3.83
X6.045Y-3.715
X6.05Y-3.975
X6.055Y-3.6
X6.065Y-4.085
X6.1125Y-3.409
X6.15Y-3.505
X6.215Y-3.97
X6.2375Y-3.459
X6.2775Y-4.0
X6.28Y-3.73
X6.2925Y-3.895
X6.305Y-4.04
X6.305Y-4.075
X6.305Y-4.11
X6.32Y-4.14
X6.35Y-4.16
X6.375Y-4.24
X6.385Y-4.16
X6.42Y-4.16
X6.4225Y-3.7325
X6.425Y-3.575
X6.44Y-3.955
X6.455Y-4.16
X6.465Y-3.8675
X6.475Y-4.24
X6.49Y-4.16
X6.5225Y-4.03
X6.5225Y-4.0625
X6.5225Y-4.095
X6.5225Y-4.1275
X6.5225Y-4.16
X6.525Y-3.72
X6.55Y-3.575
X6.675Y-3.575
X6.75Y-3.45
X6.825Y-3.575
X6.9Y-3.45
X6.975Y-3.575
X7.005Y-3.45
X7.08Y-4.185
X7.08Y-4.285
X7.1Y-3.575
X7.115Y-3.4525
X7.165Y-4.285
X7.18Y-3.655
X7.235Y-4.0875
X7.2425Y-3.5675
X7.3Y-4.16
X7.305Y-4.285
X7.34Y-3.66
X7.35Y-3.4925
X7.37Y-4.03
X7.39Y-3.77
X7.39Y-3.85
X7.39Y-3.93
X7.43Y-3.73
X7.43Y-3.81
X7.43Y-3.89
X7.43Y-3.97
X7.4625Y-4.03
X7.47Y-3.77
X7.47Y-3.85
X7.47Y-3.93
X7.485Y-4.285
X7.51Y-3.73
X7.51Y-3.81
X7.51Y-3.89
X7.51Y-3.97
X7.52Y-3.66
X7.55Y-3.77
X7.55Y-3.85
X7.55Y-3.93
X7.5575Y-4.0325
X7.59Y-3.73
X7.59Y-3.81
X7.59Y-3.89
X7.59Y-3.97
X7.65Y-3.6575
X7.66Y-4.285
X7.67Y-3.75
X7.67Y-3.84
X7.67Y-3.93
X7.67Y-4.0325
X7.685Y-3.385
T2
X6.465Y-3.795
X6.465Y-4.095
X6.285Y-4.24
X6.585Y-4.24
X6.59Y-3.795
X6.59Y-4.095
T3
X4.9475Y-3.4827
X4.9475Y-4.1953
X5.0475Y-3.4827
X5.0475Y-4.1953
X5.1475Y-3.4827
X5.1475Y-4.1953
X5.2475Y-3.4827
X5.2475Y-4.1953
X5.3475Y-3.4827
X5.3475Y-4.1953
X5.4475Y-3.4827
X5.4475Y-4.1953
X5.5475Y-3.4827
X5.5475Y-4.1953
X5.6475Y-3.4827
X5.6475Y-4.1953
X5.7475Y-3.4827
X5.7475Y-4.1953
X5.8475Y-3.4827
X5.8475Y-4.1953
X5.9475Y-3.4827
X5.9475Y-4.1953
X6.0475Y-3.4827
X6.0475Y-4.1953
T4
X6.1366Y-4.11
X6.235Y-4.11
X4.74Y-3.745
X5.04Y-3.745
X4.625Y-3.965
X4.625Y-4.265
X6.36Y-3.79
X6.36Y-4.09
X4.74Y-3.87
X5.04Y-3.87
X4.74Y-3.995
X5.04Y-3.995
X4.74Y-3.62
X5.04Y-3.62
X6.375Y-3.4581
X6.375Y-3.655
X5.865Y-3.595
X6.165Y-3.595
X5.965Y-3.88
X5.965Y-3.9784
X5.84Y-3.88
X5.84Y-3.9784
X5.865Y-3.715
X6.165Y-3.715
X6.55Y-3.46
X6.55Y-3.6569
T5
X4.625Y-3.445
X4.625Y-3.545
X4.625Y-3.645
X4.625Y-3.745
X4.625Y-3.845
T6
X6.87Y-3.8482
T7
X6.7468Y-3.725
X6.7468Y-3.9715
X6.9932Y-3.725
X6.9932Y-3.9715
T0
M30
