%TF.GenerationSoftware,KiCad,Pcbnew,(5.1.6-0-10_14)*%
%TF.CreationDate,2021-03-20T12:43:37-06:00*%
%TF.ProjectId,rf_dummy_50ohm_20W,72665f64-756d-46d7-995f-35306f686d5f,rev?*%
%TF.SameCoordinates,Original*%
%TF.FileFunction,Copper,L1,Top*%
%TF.FilePolarity,Positive*%
%FSLAX46Y46*%
G04 Gerber Fmt 4.6, Leading zero omitted, Abs format (unit mm)*
G04 Created by KiCad (PCBNEW (5.1.6-0-10_14)) date 2021-03-20 12:43:37*
%MOMM*%
%LPD*%
G01*
G04 APERTURE LIST*
%TA.AperFunction,ComponentPad*%
%ADD10O,1.600000X1.600000*%
%TD*%
%TA.AperFunction,ComponentPad*%
%ADD11C,1.600000*%
%TD*%
%TA.AperFunction,ComponentPad*%
%ADD12O,1.500000X1.500000*%
%TD*%
%TA.AperFunction,ComponentPad*%
%ADD13R,1.500000X1.500000*%
%TD*%
%TA.AperFunction,SMDPad,CuDef*%
%ADD14R,7.000000X7.000000*%
%TD*%
%TA.AperFunction,SMDPad,CuDef*%
%ADD15R,3.500000X2.000000*%
%TD*%
%TA.AperFunction,ComponentPad*%
%ADD16C,2.000000*%
%TD*%
%TA.AperFunction,ComponentPad*%
%ADD17C,3.000000*%
%TD*%
%TA.AperFunction,SMDPad,CuDef*%
%ADD18R,1.750000X0.450000*%
%TD*%
%TA.AperFunction,SMDPad,CuDef*%
%ADD19R,0.900000X0.800000*%
%TD*%
%TA.AperFunction,SMDPad,CuDef*%
%ADD20C,0.100000*%
%TD*%
%TA.AperFunction,SMDPad,CuDef*%
%ADD21R,0.900000X1.300000*%
%TD*%
%TA.AperFunction,ComponentPad*%
%ADD22O,1.700000X1.700000*%
%TD*%
%TA.AperFunction,ComponentPad*%
%ADD23R,1.700000X1.700000*%
%TD*%
%TA.AperFunction,ViaPad*%
%ADD24C,0.800000*%
%TD*%
%TA.AperFunction,Conductor*%
%ADD25C,0.381000*%
%TD*%
%TA.AperFunction,Conductor*%
%ADD26C,2.032000*%
%TD*%
%TA.AperFunction,Conductor*%
%ADD27C,1.016000*%
%TD*%
%TA.AperFunction,Conductor*%
%ADD28C,0.254000*%
%TD*%
G04 APERTURE END LIST*
D10*
%TO.P,R10,2*%
%TO.N,Net-(R10-Pad2)*%
X128016000Y-95123000D03*
D11*
%TO.P,R10,1*%
%TO.N,/ICSPDAT*%
X120396000Y-95123000D03*
%TD*%
D10*
%TO.P,R9,2*%
%TO.N,Net-(R9-Pad2)*%
X128016000Y-91948000D03*
D11*
%TO.P,R9,1*%
%TO.N,/ICSPCLK*%
X120396000Y-91948000D03*
%TD*%
D10*
%TO.P,R8,2*%
%TO.N,/~MCLR*%
X120396000Y-98298000D03*
D11*
%TO.P,R8,1*%
%TO.N,Net-(R8-Pad1)*%
X128016000Y-98298000D03*
%TD*%
D10*
%TO.P,R7,2*%
%TO.N,/~MCLR*%
X117475000Y-100711000D03*
D11*
%TO.P,R7,1*%
%TO.N,VDD*%
X117475000Y-108331000D03*
%TD*%
D10*
%TO.P,R6,2*%
%TO.N,VDD*%
X120396000Y-101473000D03*
D11*
%TO.P,R6,1*%
%TO.N,/Vref+*%
X128016000Y-101473000D03*
%TD*%
%TO.P,C4,2*%
%TO.N,GND*%
X151511000Y-101052000D03*
%TO.P,C4,1*%
%TO.N,VDD*%
X151511000Y-98552000D03*
%TD*%
%TO.P,C5,2*%
%TO.N,GND*%
X148336000Y-101052000D03*
%TO.P,C5,1*%
%TO.N,VDD*%
X148336000Y-98552000D03*
%TD*%
D10*
%TO.P,R5,2*%
%TO.N,/Vdiode*%
X161544000Y-103886000D03*
D11*
%TO.P,R5,1*%
%TO.N,Net-(C1-Pad1)*%
X161544000Y-96266000D03*
%TD*%
D10*
%TO.P,R4,2*%
%TO.N,GND*%
X156591000Y-94361000D03*
D11*
%TO.P,R4,1*%
%TO.N,/Vdivider*%
X148971000Y-94361000D03*
%TD*%
D10*
%TO.P,R3,2*%
%TO.N,Net-(C1-Pad1)*%
X156591000Y-91313000D03*
D11*
%TO.P,R3,1*%
%TO.N,/Vdivider*%
X148971000Y-91313000D03*
%TD*%
D12*
%TO.P,D1,2*%
%TO.N,Net-(D1-Pad2)*%
X167259000Y-107696000D03*
D13*
%TO.P,D1,1*%
%TO.N,Net-(C2-Pad1)*%
X159639000Y-107696000D03*
%TD*%
D14*
%TO.P,R1,1*%
%TO.N,GND*%
X190246000Y-97790000D03*
D15*
%TO.P,R1,2*%
%TO.N,Net-(D1-Pad2)*%
X182846000Y-100070000D03*
%TO.P,R1,1*%
%TO.N,GND*%
X182846000Y-95490000D03*
%TD*%
D11*
%TO.P,C2,2*%
%TO.N,GND*%
X158369000Y-104394000D03*
%TO.P,C2,1*%
%TO.N,Net-(C2-Pad1)*%
X155869000Y-104394000D03*
%TD*%
D12*
%TO.P,D3,2*%
%TO.N,/Vdiode*%
X164211000Y-104013000D03*
D13*
%TO.P,D3,1*%
%TO.N,GND*%
X164211000Y-96393000D03*
%TD*%
D16*
%TO.P,U4,13*%
%TO.N,/LCD3_B*%
X125667762Y-88461500D03*
%TO.P,U4,14*%
%TO.N,/LCD3_A*%
X128207762Y-88461500D03*
%TO.P,U4,15*%
%TO.N,/LCD3_F*%
X130747762Y-88461500D03*
%TO.P,U4,16*%
%TO.N,/LCD3_G*%
X133287762Y-88461500D03*
%TO.P,U4,17*%
%TO.N,/LCD2_B*%
X135827762Y-88461500D03*
%TO.P,U4,18*%
%TO.N,/LCD2_A*%
X138367762Y-88461500D03*
%TO.P,U4,19*%
%TO.N,/LCD2_F*%
X140907762Y-88461500D03*
%TO.P,U4,20*%
%TO.N,/LCD2_G*%
X143447762Y-88461500D03*
%TO.P,U4,21*%
%TO.N,/LCD1_B*%
X145987762Y-88461500D03*
%TO.P,U4,22*%
%TO.N,/LCD1_ADEG*%
X148527762Y-88461500D03*
%TO.P,U4,23*%
%TO.N,/LCD_COM*%
X151067762Y-88461500D03*
%TO.P,U4,24*%
%TO.N,/LCD1_ADEG*%
X153607762Y-88461500D03*
%TO.P,U4,1*%
%TO.N,/LCD_COM*%
X153607762Y-106561500D03*
%TO.P,U4,2*%
%TO.N,/LCD1_ADEG*%
X151067762Y-106561500D03*
%TO.P,U4,3*%
X148527762Y-106561500D03*
%TO.P,U4,4*%
%TO.N,/LCD1_C*%
X145987762Y-106561500D03*
%TO.P,U4,5*%
%TO.N,/LCD_COM*%
X143447762Y-106561500D03*
%TO.P,U4,6*%
%TO.N,/LCD2_E*%
X140907762Y-106561500D03*
%TO.P,U4,7*%
%TO.N,/LCD2_D*%
X138367762Y-106561500D03*
%TO.P,U4,8*%
%TO.N,/LCD2_C*%
X135827762Y-106561500D03*
%TO.P,U4,9*%
%TO.N,/LCD_DP2*%
X133287762Y-106561500D03*
%TO.P,U4,10*%
%TO.N,/LCD3_E*%
X130747762Y-106561500D03*
%TO.P,U4,11*%
%TO.N,/LCD3_D*%
X128207762Y-106561500D03*
%TO.P,U4,12*%
%TO.N,/LCD3_C*%
X125667762Y-106561500D03*
%TD*%
D17*
%TO.P,J1,2*%
%TO.N,GND*%
X177628000Y-100875000D03*
%TO.P,J1,1*%
%TO.N,Net-(D1-Pad2)*%
X174498000Y-97745000D03*
%TO.P,J1,2*%
%TO.N,GND*%
X171368000Y-100875000D03*
X177628000Y-94615000D03*
X171368000Y-94615000D03*
%TD*%
D18*
%TO.P,U3,28*%
%TO.N,Net-(R10-Pad2)*%
X142729762Y-93286500D03*
%TO.P,U3,27*%
%TO.N,Net-(R9-Pad2)*%
X142729762Y-93936500D03*
%TO.P,U3,26*%
%TO.N,/Vdivider*%
X142729762Y-94586500D03*
%TO.P,U3,25*%
%TO.N,/Vdiode*%
X142729762Y-95236500D03*
%TO.P,U3,24*%
%TO.N,/LCD_COM*%
X142729762Y-95886500D03*
%TO.P,U3,23*%
%TO.N,/LCD1_ADEG*%
X142729762Y-96536500D03*
%TO.P,U3,22*%
%TO.N,/LCD1_B*%
X142729762Y-97186500D03*
%TO.P,U3,21*%
%TO.N,/LCD1_C*%
X142729762Y-97836500D03*
%TO.P,U3,20*%
%TO.N,VDD*%
X142729762Y-98486500D03*
%TO.P,U3,19*%
%TO.N,GND*%
X142729762Y-99136500D03*
%TO.P,U3,18*%
%TO.N,/LCD_DP2*%
X142729762Y-99786500D03*
%TO.P,U3,17*%
%TO.N,/LCD2_G*%
X142729762Y-100436500D03*
%TO.P,U3,16*%
%TO.N,/LCD2_F*%
X142729762Y-101086500D03*
%TO.P,U3,15*%
%TO.N,/LCD2_A*%
X142729762Y-101736500D03*
%TO.P,U3,14*%
%TO.N,/LCD2_C*%
X135529762Y-101736500D03*
%TO.P,U3,13*%
%TO.N,/LCD2_D*%
X135529762Y-101086500D03*
%TO.P,U3,12*%
%TO.N,/LCD2_E*%
X135529762Y-100436500D03*
%TO.P,U3,11*%
%TO.N,/LCD2_B*%
X135529762Y-99786500D03*
%TO.P,U3,10*%
%TO.N,/LCD3_E*%
X135529762Y-99136500D03*
%TO.P,U3,9*%
%TO.N,/LCD3_D*%
X135529762Y-98486500D03*
%TO.P,U3,8*%
%TO.N,GND*%
X135529762Y-97836500D03*
%TO.P,U3,7*%
%TO.N,/LCD3_C*%
X135529762Y-97186500D03*
%TO.P,U3,6*%
%TO.N,/LCD3_G*%
X135529762Y-96536500D03*
%TO.P,U3,5*%
%TO.N,/Vref+*%
X135529762Y-95886500D03*
%TO.P,U3,4*%
%TO.N,/LCD3_F*%
X135529762Y-95236500D03*
%TO.P,U3,3*%
%TO.N,/LCD3_A*%
X135529762Y-94586500D03*
%TO.P,U3,2*%
%TO.N,/LCD3_B*%
X135529762Y-93936500D03*
%TO.P,U3,1*%
%TO.N,Net-(R8-Pad1)*%
X135529762Y-93286500D03*
%TD*%
D19*
%TO.P,U2,3*%
%TO.N,N/C*%
X129826000Y-97028000D03*
%TO.P,U2,2*%
%TO.N,GND*%
X131826000Y-96078000D03*
%TO.P,U2,1*%
%TO.N,/Vref+*%
X131826000Y-97978000D03*
%TD*%
%TA.AperFunction,SMDPad,CuDef*%
D20*
%TO.P,U1,2*%
%TO.N,Net-(C2-Pad1)*%
G36*
X154811500Y-102502000D02*
G01*
X154811500Y-99377000D01*
X155228000Y-99377000D01*
X155228000Y-97902000D01*
X156128000Y-97902000D01*
X156128000Y-99377000D01*
X156544500Y-99377000D01*
X156544500Y-102502000D01*
X154811500Y-102502000D01*
G37*
%TD.AperFunction*%
D21*
%TO.P,U1,3*%
%TO.N,VDD*%
X154178000Y-98552000D03*
%TO.P,U1,1*%
%TO.N,GND*%
X157178000Y-98552000D03*
%TD*%
D22*
%TO.P,J2,5*%
%TO.N,/ICSPCLK*%
X117475000Y-87503000D03*
%TO.P,J2,4*%
%TO.N,/ICSPDAT*%
X117475000Y-90043000D03*
%TO.P,J2,3*%
%TO.N,GND*%
X117475000Y-92583000D03*
%TO.P,J2,2*%
%TO.N,VDD*%
X117475000Y-95123000D03*
D23*
%TO.P,J2,1*%
%TO.N,/~MCLR*%
X117475000Y-97663000D03*
%TD*%
D12*
%TO.P,D2,2*%
%TO.N,Net-(D1-Pad2)*%
X167386000Y-104013000D03*
D13*
%TO.P,D2,1*%
%TO.N,Net-(C1-Pad1)*%
X167386000Y-96393000D03*
%TD*%
D11*
%TO.P,C3,2*%
%TO.N,GND*%
X166370000Y-87884000D03*
%TO.P,C3,1*%
%TO.N,Net-(C1-Pad1)*%
X166370000Y-92884000D03*
%TD*%
%TO.P,C1,2*%
%TO.N,GND*%
X161925000Y-87837000D03*
%TO.P,C1,1*%
%TO.N,Net-(C1-Pad1)*%
X161925000Y-92837000D03*
%TD*%
D24*
%TO.N,GND*%
X144866111Y-99777409D03*
X137351762Y-97765500D03*
X158433762Y-87859500D03*
X122238762Y-107544500D03*
X122238762Y-87224500D03*
X122238762Y-89129500D03*
X126873000Y-86614000D03*
X131953000Y-86614000D03*
X137033000Y-86614000D03*
X141923762Y-86589500D03*
X147003762Y-86589500D03*
X155258762Y-86589500D03*
X141923762Y-108179500D03*
X137478762Y-108179500D03*
X132398762Y-108179500D03*
X126683762Y-108179500D03*
X138748762Y-101829500D03*
X143193762Y-103099500D03*
X134874000Y-102870000D03*
X123952000Y-108204000D03*
X152273000Y-108966000D03*
X138176000Y-96520000D03*
X144907000Y-102997000D03*
X134493000Y-105283000D03*
X142176500Y-105156000D03*
X156210000Y-89027000D03*
X148082000Y-108966000D03*
X151257000Y-94361000D03*
X153543000Y-94361000D03*
X151003000Y-91440000D03*
X153797000Y-91440000D03*
X147574000Y-92964000D03*
X148463000Y-103759000D03*
X150114000Y-103759000D03*
X152019000Y-103759000D03*
X149987000Y-99822000D03*
X147574000Y-96901000D03*
X149987000Y-97282000D03*
X153035000Y-97282000D03*
X157861000Y-100838000D03*
X154051000Y-103759000D03*
X165671500Y-104838500D03*
X164211000Y-98234500D03*
X163195000Y-90805000D03*
X166370000Y-90805000D03*
X185420000Y-105664000D03*
X190119000Y-108839000D03*
X171450000Y-87630000D03*
X175260000Y-87630000D03*
X177927000Y-87630000D03*
X182372000Y-92837000D03*
X189547500Y-102362000D03*
X180340000Y-90805000D03*
X195199000Y-85979000D03*
X194564000Y-108839000D03*
X194818000Y-102425500D03*
X153670000Y-100965000D03*
X180721000Y-87693500D03*
X163131500Y-94805500D03*
X133223000Y-92456000D03*
X131064000Y-92583000D03*
X133223000Y-94488000D03*
X117348000Y-102870000D03*
X123317000Y-101473000D03*
X125603000Y-100203000D03*
X123698000Y-98044000D03*
X125476000Y-95758000D03*
X122936000Y-94234000D03*
X125095000Y-91948000D03*
X122809000Y-91059000D03*
X130937000Y-101219000D03*
X119253000Y-99949000D03*
X119761000Y-108204000D03*
X119761000Y-86868000D03*
X194310000Y-92900500D03*
X192786000Y-98806000D03*
X191770000Y-97790000D03*
X192786000Y-96774000D03*
X192786000Y-94742000D03*
X191770000Y-95758000D03*
X190754000Y-96774000D03*
X189738000Y-97790000D03*
X190754000Y-98806000D03*
X191770000Y-99822000D03*
X192786000Y-100838000D03*
X190754000Y-100838000D03*
X189738000Y-99822000D03*
X188722000Y-100838000D03*
X188722000Y-98806000D03*
X187706000Y-99822000D03*
X187706000Y-97790000D03*
X187706000Y-95758000D03*
X188722000Y-96774000D03*
X189738000Y-95758000D03*
X190754000Y-94742000D03*
X188722000Y-94742000D03*
X183959500Y-90614500D03*
X186690000Y-88709500D03*
X186436000Y-92964000D03*
X191008000Y-92964000D03*
X187198000Y-102362000D03*
X194818000Y-95250000D03*
X194818000Y-97536000D03*
X194818000Y-99822000D03*
X191960500Y-102425500D03*
X159512000Y-94742000D03*
X165671500Y-103187500D03*
X165671500Y-105664000D03*
X165671500Y-102362000D03*
X165671500Y-104013000D03*
X173355000Y-90805000D03*
X177165000Y-90805000D03*
X169545000Y-90805000D03*
X164846000Y-105664000D03*
X165735000Y-94488000D03*
X163957000Y-105664000D03*
X163068000Y-105664000D03*
X162179000Y-105664000D03*
X161290000Y-105664000D03*
X160147000Y-104394000D03*
X160528000Y-105156000D03*
X159829500Y-98933000D03*
X159448500Y-101600000D03*
X163576000Y-100457000D03*
X179832000Y-108839000D03*
X179832000Y-106299000D03*
X181991000Y-108839000D03*
X185547000Y-108839000D03*
X183769000Y-103822500D03*
X160147000Y-103505000D03*
X160147000Y-102616000D03*
X164465000Y-107696000D03*
X161925000Y-107696000D03*
%TO.N,VDD*%
X141034762Y-98527500D03*
X129032000Y-103505000D03*
%TO.N,Net-(R9-Pad2)*%
X144590762Y-91190000D03*
%TO.N,/LCD_COM*%
X146387981Y-95860500D03*
%TO.N,/LCD_DP2*%
X144082762Y-104623500D03*
%TO.N,/LCD1_ADEG*%
X145479762Y-96495500D03*
%TO.N,/LCD1_C*%
X144336762Y-97327000D03*
%TO.N,Net-(R10-Pad2)*%
X143320762Y-91190000D03*
X129921000Y-91821000D03*
%TD*%
D25*
%TO.N,GND*%
X144225202Y-99136500D02*
X144866111Y-99777409D01*
X142729762Y-99136500D02*
X144225202Y-99136500D01*
X144866111Y-100199849D02*
X146114762Y-101448500D01*
X144866111Y-99777409D02*
X144866111Y-100199849D01*
X137280762Y-97836500D02*
X137351762Y-97765500D01*
X135529762Y-97836500D02*
X137280762Y-97836500D01*
D26*
X158725500Y-87859500D02*
X158433762Y-87859500D01*
D27*
X177628000Y-100875000D02*
X177628000Y-100248000D01*
X178435000Y-95422000D02*
X177628000Y-94615000D01*
X171368000Y-92628000D02*
X169545000Y-90805000D01*
X171368000Y-94615000D02*
X171368000Y-92628000D01*
X182846000Y-92744000D02*
X182880000Y-92710000D01*
X182846000Y-95490000D02*
X182846000Y-92744000D01*
X177628000Y-91268000D02*
X177165000Y-90805000D01*
X177628000Y-94615000D02*
X177628000Y-91268000D01*
%TO.N,Net-(C1-Pad1)*%
X166323000Y-93218000D02*
X166370000Y-93265000D01*
X167132000Y-93646000D02*
X166370000Y-92884000D01*
X167195500Y-96329500D02*
X167195500Y-93582500D01*
X166323000Y-92837000D02*
X166370000Y-92884000D01*
X161925000Y-92837000D02*
X166323000Y-92837000D01*
X161925000Y-96266000D02*
X161798000Y-96393000D01*
X160528000Y-91440000D02*
X161925000Y-92837000D01*
X156591000Y-91440000D02*
X160528000Y-91440000D01*
X161925000Y-95885000D02*
X161544000Y-96266000D01*
X161925000Y-92837000D02*
X161925000Y-95885000D01*
D25*
%TO.N,VDD*%
X141075762Y-98486500D02*
X141034762Y-98527500D01*
X142729762Y-98486500D02*
X141075762Y-98486500D01*
D27*
X154178000Y-98552000D02*
X151511000Y-98552000D01*
X151511000Y-98552000D02*
X148336000Y-98552000D01*
D25*
X148270500Y-98486500D02*
X148336000Y-98552000D01*
X142729762Y-98486500D02*
X148270500Y-98486500D01*
X129032000Y-103505000D02*
X120650000Y-103505000D01*
X120396000Y-103251000D02*
X120396000Y-101473000D01*
X120650000Y-103505000D02*
X120396000Y-103251000D01*
X120396000Y-101473000D02*
X122174000Y-99695000D01*
X122174000Y-99695000D02*
X122174000Y-97663000D01*
X122174000Y-97663000D02*
X121158000Y-96647000D01*
X121158000Y-96647000D02*
X119380000Y-96647000D01*
X117856000Y-95123000D02*
X117475000Y-95123000D01*
X119380000Y-96647000D02*
X117856000Y-95123000D01*
X117475000Y-106172000D02*
X120396000Y-103251000D01*
X117475000Y-108331000D02*
X117475000Y-106172000D01*
D27*
%TO.N,Net-(D1-Pad2)*%
X167386000Y-107569000D02*
X167259000Y-107696000D01*
X167386000Y-104013000D02*
X167386000Y-107569000D01*
X182048500Y-100070000D02*
X182846000Y-100070000D01*
X167259000Y-107696000D02*
X173228000Y-107696000D01*
X174498000Y-106426000D02*
X174498000Y-97745000D01*
X173228000Y-107696000D02*
X174498000Y-106426000D01*
D26*
X181985000Y-100070000D02*
X182846000Y-100070000D01*
D27*
X174498000Y-97745000D02*
X179406000Y-97745000D01*
X181731000Y-100070000D02*
X182846000Y-100070000D01*
X179406000Y-97745000D02*
X181731000Y-100070000D01*
D25*
%TO.N,/ICSPCLK*%
X120396000Y-90424000D02*
X117475000Y-87503000D01*
X120396000Y-91948000D02*
X120396000Y-90424000D01*
%TO.N,/ICSPDAT*%
X118999000Y-91059000D02*
X117983000Y-90043000D01*
X117983000Y-90043000D02*
X117475000Y-90043000D01*
X118999000Y-93726000D02*
X118999000Y-91059000D01*
X120396000Y-95123000D02*
X118999000Y-93726000D01*
%TO.N,/~MCLR*%
X118110000Y-98298000D02*
X117475000Y-97663000D01*
X120396000Y-98298000D02*
X118110000Y-98298000D01*
X117475000Y-100711000D02*
X117475000Y-97663000D01*
%TO.N,/Vref+*%
X133941762Y-95886500D02*
X131620762Y-98207500D01*
X135529762Y-95886500D02*
X133941762Y-95886500D01*
X131511000Y-97978000D02*
X131826000Y-97978000D01*
X128016000Y-101473000D02*
X131511000Y-97978000D01*
%TO.N,Net-(R9-Pad2)*%
X143985762Y-93936500D02*
X144590762Y-93331500D01*
X142729762Y-93936500D02*
X143985762Y-93936500D01*
X144590762Y-93331500D02*
X144590762Y-91190000D01*
%TO.N,/LCD_COM*%
X143995263Y-106013999D02*
X143447762Y-106561500D01*
X146232480Y-95704999D02*
X146387981Y-95860500D01*
X142729762Y-95886500D02*
X144918820Y-95886500D01*
X145100321Y-95704999D02*
X144918820Y-95886500D01*
X146232480Y-95704999D02*
X145100321Y-95704999D01*
%TO.N,/LCD_DP2*%
X143985762Y-99786500D02*
X144082762Y-99883500D01*
X142729762Y-99786500D02*
X143985762Y-99786500D01*
X144082762Y-102186402D02*
X144082762Y-104623500D01*
X144082762Y-99883500D02*
X144082762Y-102186402D01*
%TO.N,/LCD1_ADEG*%
X145438762Y-96536500D02*
X145479762Y-96495500D01*
X142729762Y-96536500D02*
X145438762Y-96536500D01*
%TO.N,/LCD1_B*%
X141464261Y-97073901D02*
X141464261Y-91875001D01*
X141576860Y-97186500D02*
X141464261Y-97073901D01*
X142729762Y-97186500D02*
X141576860Y-97186500D01*
X141464261Y-91875001D02*
X142939762Y-90399500D01*
X142939762Y-90399500D02*
X144971762Y-90399500D01*
X145987762Y-89383500D02*
X145987762Y-88461500D01*
X144971762Y-90399500D02*
X145987762Y-89383500D01*
%TO.N,/LCD1_C*%
X143827262Y-97836500D02*
X144336762Y-97327000D01*
X142729762Y-97836500D02*
X143827262Y-97836500D01*
%TO.N,/LCD2_G*%
X141038762Y-100436500D02*
X142729762Y-100436500D01*
X140244261Y-98148059D02*
X140244261Y-99641999D01*
X140862329Y-97529991D02*
X140244261Y-98148059D01*
X140244261Y-99641999D02*
X141038762Y-100436500D01*
X140862329Y-91046933D02*
X140862329Y-97529991D01*
X143447762Y-88461500D02*
X140862329Y-91046933D01*
%TO.N,/LCD2_F*%
X142729762Y-101086500D02*
X140478434Y-101086500D01*
X140281319Y-89087943D02*
X140907762Y-88461500D01*
X140478434Y-101086500D02*
X140281319Y-100889385D01*
X139663251Y-100271317D02*
X140478434Y-101086500D01*
X139663251Y-97907397D02*
X139663251Y-100271317D01*
X140281318Y-97289330D02*
X139663251Y-97907397D01*
X140281318Y-89087944D02*
X140281318Y-97289330D01*
X140907762Y-88461500D02*
X140281318Y-89087944D01*
%TO.N,/LCD2_A*%
X140306762Y-101736500D02*
X142729762Y-101736500D01*
X139700309Y-97048667D02*
X139082241Y-97666735D01*
X139700309Y-91478047D02*
X139700309Y-97048667D01*
X138367762Y-90145500D02*
X139700309Y-91478047D01*
X139082241Y-97666735D02*
X139082241Y-100511979D01*
X139082241Y-100511979D02*
X140306762Y-101736500D01*
X138367762Y-88461500D02*
X138367762Y-90145500D01*
%TO.N,/LCD2_C*%
X135529762Y-106263500D02*
X135827762Y-106561500D01*
X135827762Y-106561500D02*
X135827762Y-105218238D01*
X135827762Y-105218238D02*
X136262752Y-104783248D01*
X136262752Y-102469490D02*
X135529762Y-101736500D01*
X136262752Y-104783248D02*
X136262752Y-102469490D01*
%TO.N,/LCD2_D*%
X136785762Y-101086500D02*
X136843762Y-101144500D01*
X135529762Y-101086500D02*
X136785762Y-101086500D01*
X136843762Y-101144500D02*
X136843762Y-103861500D01*
X138367762Y-105385500D02*
X138367762Y-106561500D01*
X136843762Y-103861500D02*
X138367762Y-105385500D01*
%TO.N,/LCD2_E*%
X136957434Y-100436500D02*
X137424772Y-100903838D01*
X135529762Y-100436500D02*
X136957434Y-100436500D01*
X137424772Y-103078510D02*
X140907762Y-106561500D01*
X137424772Y-100903838D02*
X137424772Y-103078510D01*
%TO.N,/LCD2_B*%
X137870762Y-99786500D02*
X135529762Y-99786500D01*
X138367762Y-99289500D02*
X137870762Y-99786500D01*
X139119299Y-91786447D02*
X139119300Y-96808004D01*
X137679811Y-90346959D02*
X139119299Y-91786447D01*
X137679811Y-90313549D02*
X137679811Y-90346959D01*
X139119300Y-96808004D02*
X138367762Y-97559542D01*
X138367762Y-97559542D02*
X138367762Y-99289500D01*
X135827762Y-88461500D02*
X137679811Y-90313549D01*
%TO.N,/LCD3_E*%
X134376860Y-99136500D02*
X133922762Y-99590598D01*
X135529762Y-99136500D02*
X134376860Y-99136500D01*
X133922762Y-103386500D02*
X130747762Y-106561500D01*
X133922762Y-99590598D02*
X133922762Y-103386500D01*
%TO.N,/LCD3_D*%
X134205188Y-98486500D02*
X133341752Y-99349936D01*
X135529762Y-98486500D02*
X134205188Y-98486500D01*
X133341752Y-99349936D02*
X133341752Y-102918510D01*
X133341752Y-102918510D02*
X131382762Y-104877500D01*
X129891762Y-104877500D02*
X128207762Y-106561500D01*
X131382762Y-104877500D02*
X129891762Y-104877500D01*
%TO.N,/LCD3_C*%
X134273762Y-97186500D02*
X132760742Y-98699520D01*
X135529762Y-97186500D02*
X134273762Y-97186500D01*
X132760742Y-98699520D02*
X132760742Y-102610520D01*
X127932772Y-104296490D02*
X125667762Y-106561500D01*
X131074772Y-104296490D02*
X127932772Y-104296490D01*
X132760742Y-102610520D02*
X131074772Y-104296490D01*
%TO.N,/LCD3_G*%
X138538290Y-92027110D02*
X136363181Y-89852001D01*
X138538291Y-94648983D02*
X138538290Y-92027110D01*
X136650775Y-96536500D02*
X138538291Y-94648983D01*
X136363181Y-89852001D02*
X134678263Y-89852001D01*
X134678263Y-89852001D02*
X133287762Y-88461500D01*
X135529762Y-96536500D02*
X136650775Y-96536500D01*
%TO.N,/LCD3_F*%
X132719273Y-90433011D02*
X130747762Y-88461500D01*
X136122519Y-90433011D02*
X132719273Y-90433011D01*
X137957282Y-94408322D02*
X137957281Y-92267773D01*
X137129106Y-95236500D02*
X137957282Y-94408322D01*
X137957281Y-92267773D02*
X136122519Y-90433011D01*
X135529762Y-95236500D02*
X137129106Y-95236500D01*
%TO.N,/LCD3_A*%
X129598263Y-89852001D02*
X128207762Y-88461500D01*
X131870283Y-91014021D02*
X130708263Y-89852001D01*
X130708263Y-89852001D02*
X129598263Y-89852001D01*
X137376273Y-94167661D02*
X137376272Y-92508436D01*
X136957434Y-94586500D02*
X137376273Y-94167661D01*
X135881857Y-91014021D02*
X131870283Y-91014021D01*
X137376272Y-92508436D02*
X135881857Y-91014021D01*
X135529762Y-94586500D02*
X136957434Y-94586500D01*
%TO.N,/LCD3_B*%
X136795263Y-92749099D02*
X136717163Y-92670999D01*
X136795263Y-93926999D02*
X136795263Y-92749099D01*
X136785762Y-93936500D02*
X136795263Y-93926999D01*
X135529762Y-93936500D02*
X136785762Y-93936500D01*
X136780361Y-92749099D02*
X135626293Y-91595031D01*
X136795263Y-92749099D02*
X136780361Y-92749099D01*
X135626293Y-91595031D02*
X131629620Y-91595030D01*
X127639273Y-90433011D02*
X125667762Y-88461500D01*
X130467601Y-90433011D02*
X127639273Y-90433011D01*
X131629620Y-91595030D02*
X130467601Y-90433011D01*
D27*
%TO.N,Net-(C2-Pad1)*%
X155869000Y-106720000D02*
X155869000Y-104394000D01*
X155678000Y-104203000D02*
X155869000Y-104394000D01*
X155678000Y-98639500D02*
X155678000Y-104203000D01*
X156845000Y-107696000D02*
X155869000Y-106720000D01*
X159639000Y-107696000D02*
X156845000Y-107696000D01*
D25*
%TO.N,/Vdiode*%
X143204762Y-95236500D02*
X143215762Y-95225500D01*
X142729762Y-95236500D02*
X143204762Y-95236500D01*
X147393999Y-95069999D02*
X148717000Y-96393000D01*
X144913649Y-95069999D02*
X147393999Y-95069999D01*
X144747148Y-95236500D02*
X144913649Y-95069999D01*
X142729762Y-95236500D02*
X144747148Y-95236500D01*
X148717000Y-96393000D02*
X159385000Y-96393000D01*
X161544000Y-98552000D02*
X161544000Y-103886000D01*
X159385000Y-96393000D02*
X161544000Y-98552000D01*
D27*
X164084000Y-103886000D02*
X164211000Y-104013000D01*
X161544000Y-103886000D02*
X164084000Y-103886000D01*
D25*
%TO.N,Net-(R8-Pad1)*%
X135461262Y-93218000D02*
X135529762Y-93286500D01*
X128016000Y-98298000D02*
X128016000Y-97155000D01*
X131884500Y-93286500D02*
X135529762Y-93286500D01*
X128016000Y-97155000D02*
X131884500Y-93286500D01*
%TO.N,Net-(R10-Pad2)*%
X142729762Y-91781000D02*
X143320762Y-91190000D01*
X142729762Y-93286500D02*
X142729762Y-91781000D01*
X129921000Y-93218000D02*
X128016000Y-95123000D01*
X129921000Y-91821000D02*
X129921000Y-93218000D01*
D27*
%TO.N,/Vdivider*%
X148971000Y-91440000D02*
X148971000Y-94361000D01*
D25*
X144382934Y-94361000D02*
X148971000Y-94361000D01*
X144157434Y-94586500D02*
X144382934Y-94361000D01*
X142729762Y-94586500D02*
X144157434Y-94586500D01*
%TD*%
D28*
%TO.N,GND*%
G36*
X116078175Y-93087099D02*
G01*
X116203359Y-93349920D01*
X116377412Y-93583269D01*
X116593645Y-93778178D01*
X116843748Y-93927157D01*
X117006168Y-93984772D01*
X116891903Y-94032102D01*
X116690283Y-94166820D01*
X116518820Y-94338283D01*
X116384102Y-94539903D01*
X116291307Y-94763931D01*
X116244000Y-95001757D01*
X116244000Y-95244243D01*
X116291307Y-95482069D01*
X116384102Y-95706097D01*
X116518820Y-95907717D01*
X116690283Y-96079180D01*
X116891903Y-96213898D01*
X117115931Y-96306693D01*
X117353757Y-96354000D01*
X117596243Y-96354000D01*
X117834069Y-96306693D01*
X118058097Y-96213898D01*
X118106400Y-96181623D01*
X118358205Y-96433427D01*
X118325000Y-96430157D01*
X116625000Y-96430157D01*
X116550311Y-96437513D01*
X116478492Y-96459299D01*
X116412304Y-96494678D01*
X116354289Y-96542289D01*
X116306678Y-96600304D01*
X116271299Y-96666492D01*
X116249513Y-96738311D01*
X116242157Y-96813000D01*
X116242157Y-98513000D01*
X116249513Y-98587689D01*
X116271299Y-98659508D01*
X116306678Y-98725696D01*
X116354289Y-98783711D01*
X116412304Y-98831322D01*
X116478492Y-98866701D01*
X116550311Y-98888487D01*
X116625000Y-98895843D01*
X116903501Y-98895843D01*
X116903500Y-99672488D01*
X116722157Y-99793658D01*
X116557658Y-99958157D01*
X116428412Y-100151587D01*
X116339386Y-100366515D01*
X116294000Y-100594682D01*
X116294000Y-100827318D01*
X116339386Y-101055485D01*
X116428412Y-101270413D01*
X116557658Y-101463843D01*
X116722157Y-101628342D01*
X116915587Y-101757588D01*
X117130515Y-101846614D01*
X117358682Y-101892000D01*
X117591318Y-101892000D01*
X117819485Y-101846614D01*
X118034413Y-101757588D01*
X118227843Y-101628342D01*
X118392342Y-101463843D01*
X118521588Y-101270413D01*
X118610614Y-101055485D01*
X118656000Y-100827318D01*
X118656000Y-100594682D01*
X118610614Y-100366515D01*
X118521588Y-100151587D01*
X118392342Y-99958157D01*
X118227843Y-99793658D01*
X118046500Y-99672488D01*
X118046500Y-98895843D01*
X118325000Y-98895843D01*
X118399689Y-98888487D01*
X118462281Y-98869500D01*
X119357488Y-98869500D01*
X119478658Y-99050843D01*
X119643157Y-99215342D01*
X119836587Y-99344588D01*
X120051515Y-99433614D01*
X120279682Y-99479000D01*
X120512318Y-99479000D01*
X120740485Y-99433614D01*
X120955413Y-99344588D01*
X121148843Y-99215342D01*
X121313342Y-99050843D01*
X121442588Y-98857413D01*
X121531614Y-98642485D01*
X121577000Y-98414318D01*
X121577000Y-98181682D01*
X121531614Y-97953515D01*
X121443453Y-97740676D01*
X121602501Y-97899724D01*
X121602500Y-99458276D01*
X120726227Y-100334550D01*
X120512318Y-100292000D01*
X120279682Y-100292000D01*
X120051515Y-100337386D01*
X119836587Y-100426412D01*
X119643157Y-100555658D01*
X119478658Y-100720157D01*
X119349412Y-100913587D01*
X119260386Y-101128515D01*
X119215000Y-101356682D01*
X119215000Y-101589318D01*
X119260386Y-101817485D01*
X119349412Y-102032413D01*
X119478658Y-102225843D01*
X119643157Y-102390342D01*
X119824500Y-102511512D01*
X119824500Y-103014277D01*
X117090744Y-105748034D01*
X117068934Y-105765933D01*
X117033211Y-105809462D01*
X116997516Y-105852956D01*
X116944448Y-105952239D01*
X116911769Y-106059967D01*
X116900735Y-106172000D01*
X116903501Y-106200084D01*
X116903500Y-107292488D01*
X116722157Y-107413658D01*
X116557658Y-107578157D01*
X116428412Y-107771587D01*
X116339386Y-107986515D01*
X116294000Y-108214682D01*
X116294000Y-108447318D01*
X116339386Y-108675485D01*
X116428412Y-108890413D01*
X116557658Y-109083843D01*
X116722157Y-109248342D01*
X116831451Y-109321370D01*
X116078000Y-109322337D01*
X116078000Y-93086522D01*
X116078175Y-93087099D01*
G37*
X116078175Y-93087099D02*
X116203359Y-93349920D01*
X116377412Y-93583269D01*
X116593645Y-93778178D01*
X116843748Y-93927157D01*
X117006168Y-93984772D01*
X116891903Y-94032102D01*
X116690283Y-94166820D01*
X116518820Y-94338283D01*
X116384102Y-94539903D01*
X116291307Y-94763931D01*
X116244000Y-95001757D01*
X116244000Y-95244243D01*
X116291307Y-95482069D01*
X116384102Y-95706097D01*
X116518820Y-95907717D01*
X116690283Y-96079180D01*
X116891903Y-96213898D01*
X117115931Y-96306693D01*
X117353757Y-96354000D01*
X117596243Y-96354000D01*
X117834069Y-96306693D01*
X118058097Y-96213898D01*
X118106400Y-96181623D01*
X118358205Y-96433427D01*
X118325000Y-96430157D01*
X116625000Y-96430157D01*
X116550311Y-96437513D01*
X116478492Y-96459299D01*
X116412304Y-96494678D01*
X116354289Y-96542289D01*
X116306678Y-96600304D01*
X116271299Y-96666492D01*
X116249513Y-96738311D01*
X116242157Y-96813000D01*
X116242157Y-98513000D01*
X116249513Y-98587689D01*
X116271299Y-98659508D01*
X116306678Y-98725696D01*
X116354289Y-98783711D01*
X116412304Y-98831322D01*
X116478492Y-98866701D01*
X116550311Y-98888487D01*
X116625000Y-98895843D01*
X116903501Y-98895843D01*
X116903500Y-99672488D01*
X116722157Y-99793658D01*
X116557658Y-99958157D01*
X116428412Y-100151587D01*
X116339386Y-100366515D01*
X116294000Y-100594682D01*
X116294000Y-100827318D01*
X116339386Y-101055485D01*
X116428412Y-101270413D01*
X116557658Y-101463843D01*
X116722157Y-101628342D01*
X116915587Y-101757588D01*
X117130515Y-101846614D01*
X117358682Y-101892000D01*
X117591318Y-101892000D01*
X117819485Y-101846614D01*
X118034413Y-101757588D01*
X118227843Y-101628342D01*
X118392342Y-101463843D01*
X118521588Y-101270413D01*
X118610614Y-101055485D01*
X118656000Y-100827318D01*
X118656000Y-100594682D01*
X118610614Y-100366515D01*
X118521588Y-100151587D01*
X118392342Y-99958157D01*
X118227843Y-99793658D01*
X118046500Y-99672488D01*
X118046500Y-98895843D01*
X118325000Y-98895843D01*
X118399689Y-98888487D01*
X118462281Y-98869500D01*
X119357488Y-98869500D01*
X119478658Y-99050843D01*
X119643157Y-99215342D01*
X119836587Y-99344588D01*
X120051515Y-99433614D01*
X120279682Y-99479000D01*
X120512318Y-99479000D01*
X120740485Y-99433614D01*
X120955413Y-99344588D01*
X121148843Y-99215342D01*
X121313342Y-99050843D01*
X121442588Y-98857413D01*
X121531614Y-98642485D01*
X121577000Y-98414318D01*
X121577000Y-98181682D01*
X121531614Y-97953515D01*
X121443453Y-97740676D01*
X121602501Y-97899724D01*
X121602500Y-99458276D01*
X120726227Y-100334550D01*
X120512318Y-100292000D01*
X120279682Y-100292000D01*
X120051515Y-100337386D01*
X119836587Y-100426412D01*
X119643157Y-100555658D01*
X119478658Y-100720157D01*
X119349412Y-100913587D01*
X119260386Y-101128515D01*
X119215000Y-101356682D01*
X119215000Y-101589318D01*
X119260386Y-101817485D01*
X119349412Y-102032413D01*
X119478658Y-102225843D01*
X119643157Y-102390342D01*
X119824500Y-102511512D01*
X119824500Y-103014277D01*
X117090744Y-105748034D01*
X117068934Y-105765933D01*
X117033211Y-105809462D01*
X116997516Y-105852956D01*
X116944448Y-105952239D01*
X116911769Y-106059967D01*
X116900735Y-106172000D01*
X116903501Y-106200084D01*
X116903500Y-107292488D01*
X116722157Y-107413658D01*
X116557658Y-107578157D01*
X116428412Y-107771587D01*
X116339386Y-107986515D01*
X116294000Y-108214682D01*
X116294000Y-108447318D01*
X116339386Y-108675485D01*
X116428412Y-108890413D01*
X116557658Y-109083843D01*
X116722157Y-109248342D01*
X116831451Y-109321370D01*
X116078000Y-109322337D01*
X116078000Y-93086522D01*
X116078175Y-93087099D01*
G36*
X195707000Y-109220163D02*
G01*
X178435000Y-109242325D01*
X178435000Y-106229215D01*
X181694147Y-103346123D01*
X181715597Y-103321557D01*
X181719215Y-103314788D01*
X186686141Y-103310532D01*
X186710382Y-103308176D01*
X186734231Y-103301030D01*
X186756228Y-103289370D01*
X186775527Y-103273641D01*
X186791387Y-103254450D01*
X186803198Y-103232534D01*
X186810506Y-103208735D01*
X186813031Y-103183967D01*
X186817330Y-101928004D01*
X189960250Y-101925000D01*
X190119000Y-101766250D01*
X190119000Y-97917000D01*
X190373000Y-97917000D01*
X190373000Y-101766250D01*
X190531750Y-101925000D01*
X193746000Y-101928072D01*
X193870482Y-101915812D01*
X193990180Y-101879502D01*
X194100494Y-101820537D01*
X194197185Y-101741185D01*
X194276537Y-101644494D01*
X194335502Y-101534180D01*
X194371812Y-101414482D01*
X194384072Y-101290000D01*
X194381000Y-98075750D01*
X194222250Y-97917000D01*
X190373000Y-97917000D01*
X190119000Y-97917000D01*
X190099000Y-97917000D01*
X190099000Y-97663000D01*
X190119000Y-97663000D01*
X190119000Y-93813750D01*
X190373000Y-93813750D01*
X190373000Y-97663000D01*
X194222250Y-97663000D01*
X194381000Y-97504250D01*
X194384072Y-94290000D01*
X194371812Y-94165518D01*
X194335502Y-94045820D01*
X194276537Y-93935506D01*
X194197185Y-93838815D01*
X194100494Y-93759463D01*
X193990180Y-93700498D01*
X193870482Y-93664188D01*
X193746000Y-93651928D01*
X190531750Y-93655000D01*
X190373000Y-93813750D01*
X190119000Y-93813750D01*
X189960250Y-93655000D01*
X186746000Y-93651928D01*
X186621518Y-93664188D01*
X186501820Y-93700498D01*
X186391506Y-93759463D01*
X186294815Y-93838815D01*
X186215463Y-93935506D01*
X186156498Y-94045820D01*
X186120188Y-94165518D01*
X186107928Y-94290000D01*
X186108548Y-94938854D01*
X185232151Y-94936562D01*
X185234072Y-94490000D01*
X185221812Y-94365518D01*
X185185502Y-94245820D01*
X185126537Y-94135506D01*
X185047185Y-94038815D01*
X184950494Y-93959463D01*
X184840180Y-93900498D01*
X184720482Y-93864188D01*
X184596000Y-93851928D01*
X183131750Y-93855000D01*
X182973000Y-94013750D01*
X182973000Y-94930653D01*
X182719000Y-94929988D01*
X182719000Y-94013750D01*
X182560250Y-93855000D01*
X181096000Y-93851928D01*
X180971518Y-93864188D01*
X180851820Y-93900498D01*
X180741506Y-93959463D01*
X180644815Y-94038815D01*
X180565463Y-94135506D01*
X180506498Y-94245820D01*
X180470188Y-94365518D01*
X180457928Y-94490000D01*
X180459795Y-94924079D01*
X179745470Y-94922211D01*
X179772902Y-94572176D01*
X179723334Y-94154549D01*
X179593243Y-93754617D01*
X179435214Y-93458962D01*
X179119653Y-93302952D01*
X178415048Y-94007557D01*
X178413024Y-94003843D01*
X178397075Y-93984726D01*
X178377704Y-93969088D01*
X178355653Y-93957529D01*
X178331771Y-93950495D01*
X178306976Y-93948254D01*
X178113581Y-93949814D01*
X178940048Y-93123347D01*
X178784038Y-92807786D01*
X178409255Y-92616980D01*
X178004449Y-92502956D01*
X177585176Y-92470098D01*
X177167549Y-92519666D01*
X176767617Y-92649757D01*
X176471962Y-92807786D01*
X176315952Y-93123347D01*
X177150188Y-93957583D01*
X176793852Y-93960457D01*
X176136347Y-93302952D01*
X175820786Y-93458962D01*
X175629980Y-93833745D01*
X175591557Y-93970153D01*
X173409078Y-93987753D01*
X173333243Y-93754617D01*
X173175214Y-93458962D01*
X172859653Y-93302952D01*
X172164817Y-93997788D01*
X171802687Y-94000708D01*
X172680048Y-93123347D01*
X172524038Y-92807786D01*
X172149255Y-92616980D01*
X171744449Y-92502956D01*
X171325176Y-92470098D01*
X170907549Y-92519666D01*
X170507617Y-92649757D01*
X170211962Y-92807786D01*
X170055952Y-93123347D01*
X170940268Y-94007663D01*
X170583932Y-94010537D01*
X169876347Y-93302952D01*
X169560786Y-93458962D01*
X169369980Y-93833745D01*
X169255956Y-94238551D01*
X169223098Y-94657824D01*
X169272666Y-95075451D01*
X169402757Y-95475383D01*
X169560786Y-95771038D01*
X169876347Y-95927048D01*
X170307000Y-95496395D01*
X170307000Y-95855605D01*
X170055952Y-96106653D01*
X170211962Y-96422214D01*
X170307000Y-96470599D01*
X170307000Y-96664346D01*
X170289197Y-96676436D01*
X168398386Y-98252112D01*
X165948580Y-98266252D01*
X165925653Y-98268473D01*
X165901765Y-98275487D01*
X165879704Y-98287026D01*
X165860318Y-98302647D01*
X165844352Y-98321750D01*
X165832420Y-98343601D01*
X165824980Y-98367359D01*
X165822318Y-98392113D01*
X165725027Y-109258634D01*
X118121025Y-109319716D01*
X118227843Y-109248342D01*
X118392342Y-109083843D01*
X118521588Y-108890413D01*
X118610614Y-108675485D01*
X118656000Y-108447318D01*
X118656000Y-108214682D01*
X118610614Y-107986515D01*
X118521588Y-107771587D01*
X118392342Y-107578157D01*
X118227843Y-107413658D01*
X118046500Y-107292488D01*
X118046500Y-106408722D01*
X120423352Y-104031871D01*
X120430238Y-104035552D01*
X120537966Y-104068231D01*
X120621926Y-104076500D01*
X120621927Y-104076500D01*
X120649999Y-104079265D01*
X120678071Y-104076500D01*
X127344539Y-104076500D01*
X126153234Y-105267805D01*
X126070585Y-105233571D01*
X125803779Y-105180500D01*
X125531745Y-105180500D01*
X125264939Y-105233571D01*
X125013613Y-105337674D01*
X124787426Y-105488807D01*
X124595069Y-105681164D01*
X124443936Y-105907351D01*
X124339833Y-106158677D01*
X124286762Y-106425483D01*
X124286762Y-106697517D01*
X124339833Y-106964323D01*
X124443936Y-107215649D01*
X124595069Y-107441836D01*
X124787426Y-107634193D01*
X125013613Y-107785326D01*
X125264939Y-107889429D01*
X125531745Y-107942500D01*
X125803779Y-107942500D01*
X126070585Y-107889429D01*
X126321911Y-107785326D01*
X126548098Y-107634193D01*
X126740455Y-107441836D01*
X126891588Y-107215649D01*
X126937762Y-107104175D01*
X126983936Y-107215649D01*
X127135069Y-107441836D01*
X127327426Y-107634193D01*
X127553613Y-107785326D01*
X127804939Y-107889429D01*
X128071745Y-107942500D01*
X128343779Y-107942500D01*
X128610585Y-107889429D01*
X128861911Y-107785326D01*
X129088098Y-107634193D01*
X129280455Y-107441836D01*
X129431588Y-107215649D01*
X129477762Y-107104175D01*
X129523936Y-107215649D01*
X129675069Y-107441836D01*
X129867426Y-107634193D01*
X130093613Y-107785326D01*
X130344939Y-107889429D01*
X130611745Y-107942500D01*
X130883779Y-107942500D01*
X131150585Y-107889429D01*
X131401911Y-107785326D01*
X131628098Y-107634193D01*
X131820455Y-107441836D01*
X131971588Y-107215649D01*
X132017762Y-107104175D01*
X132063936Y-107215649D01*
X132215069Y-107441836D01*
X132407426Y-107634193D01*
X132633613Y-107785326D01*
X132884939Y-107889429D01*
X133151745Y-107942500D01*
X133423779Y-107942500D01*
X133690585Y-107889429D01*
X133941911Y-107785326D01*
X134168098Y-107634193D01*
X134360455Y-107441836D01*
X134511588Y-107215649D01*
X134557762Y-107104175D01*
X134603936Y-107215649D01*
X134755069Y-107441836D01*
X134947426Y-107634193D01*
X135173613Y-107785326D01*
X135424939Y-107889429D01*
X135691745Y-107942500D01*
X135963779Y-107942500D01*
X136230585Y-107889429D01*
X136481911Y-107785326D01*
X136708098Y-107634193D01*
X136900455Y-107441836D01*
X137051588Y-107215649D01*
X137097762Y-107104175D01*
X137143936Y-107215649D01*
X137295069Y-107441836D01*
X137487426Y-107634193D01*
X137713613Y-107785326D01*
X137964939Y-107889429D01*
X138231745Y-107942500D01*
X138503779Y-107942500D01*
X138770585Y-107889429D01*
X139021911Y-107785326D01*
X139248098Y-107634193D01*
X139440455Y-107441836D01*
X139591588Y-107215649D01*
X139637762Y-107104175D01*
X139683936Y-107215649D01*
X139835069Y-107441836D01*
X140027426Y-107634193D01*
X140253613Y-107785326D01*
X140504939Y-107889429D01*
X140771745Y-107942500D01*
X141043779Y-107942500D01*
X141310585Y-107889429D01*
X141561911Y-107785326D01*
X141788098Y-107634193D01*
X141980455Y-107441836D01*
X142131588Y-107215649D01*
X142177762Y-107104175D01*
X142223936Y-107215649D01*
X142375069Y-107441836D01*
X142567426Y-107634193D01*
X142793613Y-107785326D01*
X143044939Y-107889429D01*
X143311745Y-107942500D01*
X143583779Y-107942500D01*
X143850585Y-107889429D01*
X144101911Y-107785326D01*
X144328098Y-107634193D01*
X144520455Y-107441836D01*
X144671588Y-107215649D01*
X144717762Y-107104175D01*
X144763936Y-107215649D01*
X144915069Y-107441836D01*
X145107426Y-107634193D01*
X145333613Y-107785326D01*
X145584939Y-107889429D01*
X145851745Y-107942500D01*
X146123779Y-107942500D01*
X146390585Y-107889429D01*
X146641911Y-107785326D01*
X146868098Y-107634193D01*
X147060455Y-107441836D01*
X147211588Y-107215649D01*
X147257762Y-107104175D01*
X147303936Y-107215649D01*
X147455069Y-107441836D01*
X147647426Y-107634193D01*
X147873613Y-107785326D01*
X148124939Y-107889429D01*
X148391745Y-107942500D01*
X148663779Y-107942500D01*
X148930585Y-107889429D01*
X149181911Y-107785326D01*
X149408098Y-107634193D01*
X149600455Y-107441836D01*
X149751588Y-107215649D01*
X149797762Y-107104175D01*
X149843936Y-107215649D01*
X149995069Y-107441836D01*
X150187426Y-107634193D01*
X150413613Y-107785326D01*
X150664939Y-107889429D01*
X150931745Y-107942500D01*
X151203779Y-107942500D01*
X151470585Y-107889429D01*
X151721911Y-107785326D01*
X151948098Y-107634193D01*
X152140455Y-107441836D01*
X152291588Y-107215649D01*
X152337762Y-107104175D01*
X152383936Y-107215649D01*
X152535069Y-107441836D01*
X152727426Y-107634193D01*
X152953613Y-107785326D01*
X153204939Y-107889429D01*
X153471745Y-107942500D01*
X153743779Y-107942500D01*
X154010585Y-107889429D01*
X154261911Y-107785326D01*
X154488098Y-107634193D01*
X154680455Y-107441836D01*
X154831588Y-107215649D01*
X154935691Y-106964323D01*
X154978545Y-106748883D01*
X154980000Y-106763660D01*
X154980000Y-106763666D01*
X154992864Y-106894273D01*
X155043697Y-107061850D01*
X155126247Y-107216290D01*
X155237341Y-107351659D01*
X155271264Y-107379499D01*
X156185505Y-108293741D01*
X156213341Y-108327659D01*
X156348709Y-108438753D01*
X156503149Y-108521303D01*
X156569058Y-108541296D01*
X156670724Y-108572136D01*
X156694778Y-108574505D01*
X156801333Y-108585000D01*
X156801339Y-108585000D01*
X156844999Y-108589300D01*
X156888659Y-108585000D01*
X158533021Y-108585000D01*
X158535299Y-108592508D01*
X158570678Y-108658696D01*
X158618289Y-108716711D01*
X158676304Y-108764322D01*
X158742492Y-108799701D01*
X158814311Y-108821487D01*
X158889000Y-108828843D01*
X160389000Y-108828843D01*
X160463689Y-108821487D01*
X160535508Y-108799701D01*
X160601696Y-108764322D01*
X160659711Y-108716711D01*
X160707322Y-108658696D01*
X160742701Y-108592508D01*
X160764487Y-108520689D01*
X160771843Y-108446000D01*
X160771843Y-106946000D01*
X160764487Y-106871311D01*
X160742701Y-106799492D01*
X160707322Y-106733304D01*
X160659711Y-106675289D01*
X160601696Y-106627678D01*
X160535508Y-106592299D01*
X160463689Y-106570513D01*
X160389000Y-106563157D01*
X158889000Y-106563157D01*
X158814311Y-106570513D01*
X158742492Y-106592299D01*
X158676304Y-106627678D01*
X158618289Y-106675289D01*
X158570678Y-106733304D01*
X158535299Y-106799492D01*
X158533021Y-106807000D01*
X157213236Y-106807000D01*
X156758000Y-106351765D01*
X156758000Y-105386702D01*
X157555903Y-105386702D01*
X157627486Y-105630671D01*
X157882996Y-105751571D01*
X158157184Y-105820300D01*
X158439512Y-105834217D01*
X158719130Y-105792787D01*
X158985292Y-105697603D01*
X159110514Y-105630671D01*
X159182097Y-105386702D01*
X158369000Y-104573605D01*
X157555903Y-105386702D01*
X156758000Y-105386702D01*
X156758000Y-105175185D01*
X156786342Y-105146843D01*
X156915588Y-104953413D01*
X156985069Y-104785671D01*
X157065397Y-105010292D01*
X157132329Y-105135514D01*
X157376298Y-105207097D01*
X158189395Y-104394000D01*
X158548605Y-104394000D01*
X159361702Y-105207097D01*
X159605671Y-105135514D01*
X159726571Y-104880004D01*
X159795300Y-104605816D01*
X159809217Y-104323488D01*
X159767787Y-104043870D01*
X159672603Y-103777708D01*
X159605671Y-103652486D01*
X159361702Y-103580903D01*
X158548605Y-104394000D01*
X158189395Y-104394000D01*
X157376298Y-103580903D01*
X157132329Y-103652486D01*
X157011429Y-103907996D01*
X156986760Y-104006411D01*
X156915588Y-103834587D01*
X156786342Y-103641157D01*
X156621843Y-103476658D01*
X156567000Y-103440013D01*
X156567000Y-103401298D01*
X157555903Y-103401298D01*
X158369000Y-104214395D01*
X159182097Y-103401298D01*
X159110514Y-103157329D01*
X158855004Y-103036429D01*
X158580816Y-102967700D01*
X158298488Y-102953783D01*
X158018870Y-102995213D01*
X157752708Y-103090397D01*
X157627486Y-103157329D01*
X157555903Y-103401298D01*
X156567000Y-103401298D01*
X156567000Y-102882627D01*
X156619189Y-102877487D01*
X156691008Y-102855701D01*
X156757196Y-102820322D01*
X156815211Y-102772711D01*
X156862822Y-102714696D01*
X156898201Y-102648508D01*
X156919987Y-102576689D01*
X156927343Y-102502000D01*
X156927343Y-99801907D01*
X157051000Y-99678250D01*
X157051000Y-98679000D01*
X157305000Y-98679000D01*
X157305000Y-99678250D01*
X157463750Y-99837000D01*
X157628000Y-99840072D01*
X157752482Y-99827812D01*
X157872180Y-99791502D01*
X157982494Y-99732537D01*
X158079185Y-99653185D01*
X158158537Y-99556494D01*
X158217502Y-99446180D01*
X158253812Y-99326482D01*
X158266072Y-99202000D01*
X158263000Y-98837750D01*
X158104250Y-98679000D01*
X157305000Y-98679000D01*
X157051000Y-98679000D01*
X157031000Y-98679000D01*
X157031000Y-98425000D01*
X157051000Y-98425000D01*
X157051000Y-97425750D01*
X157305000Y-97425750D01*
X157305000Y-98425000D01*
X158104250Y-98425000D01*
X158263000Y-98266250D01*
X158266072Y-97902000D01*
X158253812Y-97777518D01*
X158217502Y-97657820D01*
X158158537Y-97547506D01*
X158079185Y-97450815D01*
X157982494Y-97371463D01*
X157872180Y-97312498D01*
X157752482Y-97276188D01*
X157628000Y-97263928D01*
X157463750Y-97267000D01*
X157305000Y-97425750D01*
X157051000Y-97425750D01*
X156892250Y-97267000D01*
X156728000Y-97263928D01*
X156603518Y-97276188D01*
X156483820Y-97312498D01*
X156373506Y-97371463D01*
X156276815Y-97450815D01*
X156212299Y-97529428D01*
X156202689Y-97526513D01*
X156128000Y-97519157D01*
X155228000Y-97519157D01*
X155153311Y-97526513D01*
X155081492Y-97548299D01*
X155015304Y-97583678D01*
X154957289Y-97631289D01*
X154928000Y-97666978D01*
X154898711Y-97631289D01*
X154840696Y-97583678D01*
X154774508Y-97548299D01*
X154702689Y-97526513D01*
X154628000Y-97519157D01*
X153728000Y-97519157D01*
X153653311Y-97526513D01*
X153581492Y-97548299D01*
X153515304Y-97583678D01*
X153457289Y-97631289D01*
X153431265Y-97663000D01*
X152292185Y-97663000D01*
X152263843Y-97634658D01*
X152070413Y-97505412D01*
X151855485Y-97416386D01*
X151627318Y-97371000D01*
X151394682Y-97371000D01*
X151166515Y-97416386D01*
X150951587Y-97505412D01*
X150758157Y-97634658D01*
X150729815Y-97663000D01*
X149117185Y-97663000D01*
X149088843Y-97634658D01*
X148895413Y-97505412D01*
X148680485Y-97416386D01*
X148452318Y-97371000D01*
X148219682Y-97371000D01*
X147991515Y-97416386D01*
X147776587Y-97505412D01*
X147583157Y-97634658D01*
X147418658Y-97799157D01*
X147341254Y-97915000D01*
X144853263Y-97915000D01*
X144943404Y-97824859D01*
X145028875Y-97696942D01*
X145087749Y-97554809D01*
X145117762Y-97403922D01*
X145117762Y-97250078D01*
X145104650Y-97184158D01*
X145109820Y-97187613D01*
X145251953Y-97246487D01*
X145402840Y-97276500D01*
X145556684Y-97276500D01*
X145707571Y-97246487D01*
X145849704Y-97187613D01*
X145977621Y-97102142D01*
X146086404Y-96993359D01*
X146171875Y-96865442D01*
X146230749Y-96723309D01*
X146249459Y-96629247D01*
X146311059Y-96641500D01*
X146464903Y-96641500D01*
X146615790Y-96611487D01*
X146757923Y-96552613D01*
X146885840Y-96467142D01*
X146994623Y-96358359D01*
X147080094Y-96230442D01*
X147138968Y-96088309D01*
X147168981Y-95937422D01*
X147168981Y-95783578D01*
X147140720Y-95641499D01*
X147157277Y-95641499D01*
X148293034Y-96777257D01*
X148310933Y-96799067D01*
X148391720Y-96865367D01*
X148397955Y-96870484D01*
X148497238Y-96923552D01*
X148604966Y-96956231D01*
X148717000Y-96967265D01*
X148745074Y-96964500D01*
X159148278Y-96964500D01*
X160972500Y-98788723D01*
X160972501Y-102847488D01*
X160791157Y-102968658D01*
X160626658Y-103133157D01*
X160497412Y-103326587D01*
X160408386Y-103541515D01*
X160363000Y-103769682D01*
X160363000Y-104002318D01*
X160408386Y-104230485D01*
X160497412Y-104445413D01*
X160626658Y-104638843D01*
X160791157Y-104803342D01*
X160984587Y-104932588D01*
X161199515Y-105021614D01*
X161427682Y-105067000D01*
X161660318Y-105067000D01*
X161888485Y-105021614D01*
X162103413Y-104932588D01*
X162296843Y-104803342D01*
X162325185Y-104775000D01*
X163373525Y-104775000D01*
X163490030Y-104891505D01*
X163675271Y-105015279D01*
X163881100Y-105100536D01*
X164099606Y-105144000D01*
X164322394Y-105144000D01*
X164540900Y-105100536D01*
X164746729Y-105015279D01*
X164931970Y-104891505D01*
X165089505Y-104733970D01*
X165213279Y-104548729D01*
X165298536Y-104342900D01*
X165342000Y-104124394D01*
X165342000Y-103901606D01*
X165298536Y-103683100D01*
X165213279Y-103477271D01*
X165089505Y-103292030D01*
X164931970Y-103134495D01*
X164746729Y-103010721D01*
X164540900Y-102925464D01*
X164322394Y-102882000D01*
X164099606Y-102882000D01*
X163881100Y-102925464D01*
X163708396Y-102997000D01*
X162325185Y-102997000D01*
X162296843Y-102968658D01*
X162115500Y-102847488D01*
X162115500Y-98580071D01*
X162118265Y-98551999D01*
X162113986Y-98508552D01*
X162107231Y-98439966D01*
X162074552Y-98332238D01*
X162021484Y-98232955D01*
X161950067Y-98145933D01*
X161928258Y-98128035D01*
X161202413Y-97402190D01*
X161427682Y-97447000D01*
X161660318Y-97447000D01*
X161888485Y-97401614D01*
X162103413Y-97312588D01*
X162296843Y-97183342D01*
X162337185Y-97143000D01*
X162822928Y-97143000D01*
X162835188Y-97267482D01*
X162871498Y-97387180D01*
X162930463Y-97497494D01*
X163009815Y-97594185D01*
X163106506Y-97673537D01*
X163216820Y-97732502D01*
X163336518Y-97768812D01*
X163461000Y-97781072D01*
X163925250Y-97778000D01*
X164084000Y-97619250D01*
X164084000Y-96520000D01*
X164338000Y-96520000D01*
X164338000Y-97619250D01*
X164496750Y-97778000D01*
X164961000Y-97781072D01*
X165085482Y-97768812D01*
X165205180Y-97732502D01*
X165315494Y-97673537D01*
X165412185Y-97594185D01*
X165491537Y-97497494D01*
X165550502Y-97387180D01*
X165586812Y-97267482D01*
X165599072Y-97143000D01*
X165596000Y-96678750D01*
X165437250Y-96520000D01*
X164338000Y-96520000D01*
X164084000Y-96520000D01*
X162984750Y-96520000D01*
X162826000Y-96678750D01*
X162822928Y-97143000D01*
X162337185Y-97143000D01*
X162461342Y-97018843D01*
X162525679Y-96922556D01*
X162584495Y-96863740D01*
X162667751Y-96762291D01*
X162750302Y-96607852D01*
X162801136Y-96440275D01*
X162818300Y-96266001D01*
X162801136Y-96091726D01*
X162796214Y-96075500D01*
X162801136Y-96059276D01*
X162806388Y-96005948D01*
X162814000Y-95928667D01*
X162814000Y-95928657D01*
X162818300Y-95885001D01*
X162814000Y-95841341D01*
X162814000Y-95643000D01*
X162822928Y-95643000D01*
X162826000Y-96107250D01*
X162984750Y-96266000D01*
X164084000Y-96266000D01*
X164084000Y-95166750D01*
X164338000Y-95166750D01*
X164338000Y-96266000D01*
X165437250Y-96266000D01*
X165596000Y-96107250D01*
X165599072Y-95643000D01*
X165586812Y-95518518D01*
X165550502Y-95398820D01*
X165491537Y-95288506D01*
X165412185Y-95191815D01*
X165315494Y-95112463D01*
X165205180Y-95053498D01*
X165085482Y-95017188D01*
X164961000Y-95004928D01*
X164496750Y-95008000D01*
X164338000Y-95166750D01*
X164084000Y-95166750D01*
X163925250Y-95008000D01*
X163461000Y-95004928D01*
X163336518Y-95017188D01*
X163216820Y-95053498D01*
X163106506Y-95112463D01*
X163009815Y-95191815D01*
X162930463Y-95288506D01*
X162871498Y-95398820D01*
X162835188Y-95518518D01*
X162822928Y-95643000D01*
X162814000Y-95643000D01*
X162814000Y-93726000D01*
X165541815Y-93726000D01*
X165617157Y-93801342D01*
X165713444Y-93865679D01*
X165772260Y-93924495D01*
X165873709Y-94007752D01*
X166028148Y-94090302D01*
X166195726Y-94141136D01*
X166306501Y-94152046D01*
X166306500Y-95451215D01*
X166282299Y-95496492D01*
X166260513Y-95568311D01*
X166253157Y-95643000D01*
X166253157Y-97143000D01*
X166260513Y-97217689D01*
X166282299Y-97289508D01*
X166317678Y-97355696D01*
X166365289Y-97413711D01*
X166423304Y-97461322D01*
X166489492Y-97496701D01*
X166561311Y-97518487D01*
X166636000Y-97525843D01*
X168136000Y-97525843D01*
X168210689Y-97518487D01*
X168282508Y-97496701D01*
X168348696Y-97461322D01*
X168406711Y-97413711D01*
X168454322Y-97355696D01*
X168489701Y-97289508D01*
X168511487Y-97217689D01*
X168518843Y-97143000D01*
X168518843Y-95643000D01*
X168511487Y-95568311D01*
X168489701Y-95496492D01*
X168454322Y-95430304D01*
X168406711Y-95372289D01*
X168348696Y-95324678D01*
X168282508Y-95289299D01*
X168210689Y-95267513D01*
X168136000Y-95260157D01*
X168084500Y-95260157D01*
X168084500Y-93538833D01*
X168071636Y-93408226D01*
X168020803Y-93240649D01*
X167938253Y-93086209D01*
X167827159Y-92950841D01*
X167691791Y-92839747D01*
X167550290Y-92764113D01*
X167505614Y-92539515D01*
X167416588Y-92324587D01*
X167287342Y-92131157D01*
X167122843Y-91966658D01*
X166929413Y-91837412D01*
X166714485Y-91748386D01*
X166486318Y-91703000D01*
X166253682Y-91703000D01*
X166025515Y-91748386D01*
X165810587Y-91837412D01*
X165645081Y-91948000D01*
X162706185Y-91948000D01*
X162677843Y-91919658D01*
X162484413Y-91790412D01*
X162269485Y-91701386D01*
X162041318Y-91656000D01*
X162001235Y-91656000D01*
X161187499Y-90842264D01*
X161159659Y-90808341D01*
X161024291Y-90697247D01*
X160869851Y-90614697D01*
X160702274Y-90563864D01*
X160571667Y-90551000D01*
X160571660Y-90551000D01*
X160528000Y-90546700D01*
X160484340Y-90551000D01*
X157499185Y-90551000D01*
X157343843Y-90395658D01*
X157150413Y-90266412D01*
X156935485Y-90177386D01*
X156707318Y-90132000D01*
X156474682Y-90132000D01*
X156246515Y-90177386D01*
X156031587Y-90266412D01*
X155838157Y-90395658D01*
X155673658Y-90560157D01*
X155544412Y-90753587D01*
X155455386Y-90968515D01*
X155410000Y-91196682D01*
X155410000Y-91429318D01*
X155455386Y-91657485D01*
X155544412Y-91872413D01*
X155673658Y-92065843D01*
X155838157Y-92230342D01*
X156031587Y-92359588D01*
X156246515Y-92448614D01*
X156474682Y-92494000D01*
X156707318Y-92494000D01*
X156935485Y-92448614D01*
X157150413Y-92359588D01*
X157196191Y-92329000D01*
X160159765Y-92329000D01*
X160744000Y-92913235D01*
X160744000Y-92953318D01*
X160789386Y-93181485D01*
X160878412Y-93396413D01*
X161007658Y-93589843D01*
X161036000Y-93618185D01*
X161036001Y-95198116D01*
X160984587Y-95219412D01*
X160791157Y-95348658D01*
X160626658Y-95513157D01*
X160497412Y-95706587D01*
X160408386Y-95921515D01*
X160363000Y-96149682D01*
X160363000Y-96382318D01*
X160407810Y-96607587D01*
X159808970Y-96008748D01*
X159791067Y-95986933D01*
X159704045Y-95915516D01*
X159604762Y-95862448D01*
X159497034Y-95829769D01*
X159413074Y-95821500D01*
X159385000Y-95818735D01*
X159356926Y-95821500D01*
X148953723Y-95821500D01*
X148629413Y-95497190D01*
X148854682Y-95542000D01*
X149087318Y-95542000D01*
X149315485Y-95496614D01*
X149530413Y-95407588D01*
X149723843Y-95278342D01*
X149888342Y-95113843D01*
X150017588Y-94920413D01*
X150104727Y-94710039D01*
X155199096Y-94710039D01*
X155239754Y-94844087D01*
X155359963Y-95098420D01*
X155527481Y-95324414D01*
X155735869Y-95513385D01*
X155977119Y-95658070D01*
X156241960Y-95752909D01*
X156464000Y-95631624D01*
X156464000Y-94488000D01*
X156718000Y-94488000D01*
X156718000Y-95631624D01*
X156940040Y-95752909D01*
X157204881Y-95658070D01*
X157446131Y-95513385D01*
X157654519Y-95324414D01*
X157822037Y-95098420D01*
X157942246Y-94844087D01*
X157982904Y-94710039D01*
X157860915Y-94488000D01*
X156718000Y-94488000D01*
X156464000Y-94488000D01*
X155321085Y-94488000D01*
X155199096Y-94710039D01*
X150104727Y-94710039D01*
X150106614Y-94705485D01*
X150152000Y-94477318D01*
X150152000Y-94244682D01*
X150106614Y-94016515D01*
X150104728Y-94011961D01*
X155199096Y-94011961D01*
X155321085Y-94234000D01*
X156464000Y-94234000D01*
X156464000Y-93090376D01*
X156718000Y-93090376D01*
X156718000Y-94234000D01*
X157860915Y-94234000D01*
X157982904Y-94011961D01*
X157942246Y-93877913D01*
X157822037Y-93623580D01*
X157654519Y-93397586D01*
X157446131Y-93208615D01*
X157204881Y-93063930D01*
X156940040Y-92969091D01*
X156718000Y-93090376D01*
X156464000Y-93090376D01*
X156241960Y-92969091D01*
X155977119Y-93063930D01*
X155735869Y-93208615D01*
X155527481Y-93397586D01*
X155359963Y-93623580D01*
X155239754Y-93877913D01*
X155199096Y-94011961D01*
X150104728Y-94011961D01*
X150017588Y-93801587D01*
X149888342Y-93608157D01*
X149860000Y-93579815D01*
X149860000Y-92094185D01*
X149888342Y-92065843D01*
X150017588Y-91872413D01*
X150106614Y-91657485D01*
X150152000Y-91429318D01*
X150152000Y-91196682D01*
X150106614Y-90968515D01*
X150017588Y-90753587D01*
X149888342Y-90560157D01*
X149723843Y-90395658D01*
X149530413Y-90266412D01*
X149315485Y-90177386D01*
X149087318Y-90132000D01*
X148854682Y-90132000D01*
X148626515Y-90177386D01*
X148411587Y-90266412D01*
X148218157Y-90395658D01*
X148053658Y-90560157D01*
X147924412Y-90753587D01*
X147835386Y-90968515D01*
X147790000Y-91196682D01*
X147790000Y-91429318D01*
X147835386Y-91657485D01*
X147924412Y-91872413D01*
X148053658Y-92065843D01*
X148082000Y-92094185D01*
X148082001Y-93579814D01*
X148053658Y-93608157D01*
X147932488Y-93789500D01*
X144940985Y-93789500D01*
X144975020Y-93755465D01*
X144996829Y-93737567D01*
X145068246Y-93650545D01*
X145121314Y-93551262D01*
X145153993Y-93443534D01*
X145162262Y-93359574D01*
X145162262Y-93359573D01*
X145165027Y-93331501D01*
X145162262Y-93303429D01*
X145162262Y-91723001D01*
X145197404Y-91687859D01*
X145282875Y-91559942D01*
X145341749Y-91417809D01*
X145371762Y-91266922D01*
X145371762Y-91113078D01*
X145341749Y-90962191D01*
X145302485Y-90867400D01*
X145377829Y-90805567D01*
X145395732Y-90783752D01*
X146372020Y-89807465D01*
X146393829Y-89789567D01*
X146395671Y-89787322D01*
X146641911Y-89685326D01*
X146868098Y-89534193D01*
X147060455Y-89341836D01*
X147211588Y-89115649D01*
X147257762Y-89004175D01*
X147303936Y-89115649D01*
X147455069Y-89341836D01*
X147647426Y-89534193D01*
X147873613Y-89685326D01*
X148124939Y-89789429D01*
X148391745Y-89842500D01*
X148663779Y-89842500D01*
X148930585Y-89789429D01*
X149181911Y-89685326D01*
X149408098Y-89534193D01*
X149600455Y-89341836D01*
X149751588Y-89115649D01*
X149797762Y-89004175D01*
X149843936Y-89115649D01*
X149995069Y-89341836D01*
X150187426Y-89534193D01*
X150413613Y-89685326D01*
X150664939Y-89789429D01*
X150931745Y-89842500D01*
X151203779Y-89842500D01*
X151470585Y-89789429D01*
X151721911Y-89685326D01*
X151948098Y-89534193D01*
X152140455Y-89341836D01*
X152291588Y-89115649D01*
X152337762Y-89004175D01*
X152383936Y-89115649D01*
X152535069Y-89341836D01*
X152727426Y-89534193D01*
X152953613Y-89685326D01*
X153204939Y-89789429D01*
X153471745Y-89842500D01*
X153743779Y-89842500D01*
X154010585Y-89789429D01*
X154261911Y-89685326D01*
X154488098Y-89534193D01*
X154680455Y-89341836D01*
X154831588Y-89115649D01*
X154935691Y-88864323D01*
X154942577Y-88829702D01*
X161111903Y-88829702D01*
X161183486Y-89073671D01*
X161438996Y-89194571D01*
X161713184Y-89263300D01*
X161995512Y-89277217D01*
X162275130Y-89235787D01*
X162541292Y-89140603D01*
X162666514Y-89073671D01*
X162724306Y-88876702D01*
X165556903Y-88876702D01*
X165628486Y-89120671D01*
X165883996Y-89241571D01*
X166158184Y-89310300D01*
X166440512Y-89324217D01*
X166720130Y-89282787D01*
X166986292Y-89187603D01*
X167111514Y-89120671D01*
X167183097Y-88876702D01*
X166370000Y-88063605D01*
X165556903Y-88876702D01*
X162724306Y-88876702D01*
X162738097Y-88829702D01*
X161925000Y-88016605D01*
X161111903Y-88829702D01*
X154942577Y-88829702D01*
X154988762Y-88597517D01*
X154988762Y-88325483D01*
X154935691Y-88058677D01*
X154873077Y-87907512D01*
X160484783Y-87907512D01*
X160526213Y-88187130D01*
X160621397Y-88453292D01*
X160688329Y-88578514D01*
X160932298Y-88650097D01*
X161745395Y-87837000D01*
X162104605Y-87837000D01*
X162917702Y-88650097D01*
X163161671Y-88578514D01*
X163282571Y-88323004D01*
X163351300Y-88048816D01*
X163355948Y-87954512D01*
X164929783Y-87954512D01*
X164971213Y-88234130D01*
X165066397Y-88500292D01*
X165133329Y-88625514D01*
X165377298Y-88697097D01*
X166190395Y-87884000D01*
X166549605Y-87884000D01*
X167362702Y-88697097D01*
X167606671Y-88625514D01*
X167727571Y-88370004D01*
X167796300Y-88095816D01*
X167810217Y-87813488D01*
X167768787Y-87533870D01*
X167673603Y-87267708D01*
X167606671Y-87142486D01*
X167362702Y-87070903D01*
X166549605Y-87884000D01*
X166190395Y-87884000D01*
X165377298Y-87070903D01*
X165133329Y-87142486D01*
X165012429Y-87397996D01*
X164943700Y-87672184D01*
X164929783Y-87954512D01*
X163355948Y-87954512D01*
X163365217Y-87766488D01*
X163323787Y-87486870D01*
X163228603Y-87220708D01*
X163161671Y-87095486D01*
X162917702Y-87023903D01*
X162104605Y-87837000D01*
X161745395Y-87837000D01*
X160932298Y-87023903D01*
X160688329Y-87095486D01*
X160567429Y-87350996D01*
X160498700Y-87625184D01*
X160484783Y-87907512D01*
X154873077Y-87907512D01*
X154831588Y-87807351D01*
X154680455Y-87581164D01*
X154488098Y-87388807D01*
X154261911Y-87237674D01*
X154010585Y-87133571D01*
X153743779Y-87080500D01*
X153471745Y-87080500D01*
X153204939Y-87133571D01*
X152953613Y-87237674D01*
X152727426Y-87388807D01*
X152535069Y-87581164D01*
X152383936Y-87807351D01*
X152337762Y-87918825D01*
X152291588Y-87807351D01*
X152140455Y-87581164D01*
X151948098Y-87388807D01*
X151721911Y-87237674D01*
X151470585Y-87133571D01*
X151203779Y-87080500D01*
X150931745Y-87080500D01*
X150664939Y-87133571D01*
X150413613Y-87237674D01*
X150187426Y-87388807D01*
X149995069Y-87581164D01*
X149843936Y-87807351D01*
X149797762Y-87918825D01*
X149751588Y-87807351D01*
X149600455Y-87581164D01*
X149408098Y-87388807D01*
X149181911Y-87237674D01*
X148930585Y-87133571D01*
X148663779Y-87080500D01*
X148391745Y-87080500D01*
X148124939Y-87133571D01*
X147873613Y-87237674D01*
X147647426Y-87388807D01*
X147455069Y-87581164D01*
X147303936Y-87807351D01*
X147257762Y-87918825D01*
X147211588Y-87807351D01*
X147060455Y-87581164D01*
X146868098Y-87388807D01*
X146641911Y-87237674D01*
X146390585Y-87133571D01*
X146123779Y-87080500D01*
X145851745Y-87080500D01*
X145584939Y-87133571D01*
X145333613Y-87237674D01*
X145107426Y-87388807D01*
X144915069Y-87581164D01*
X144763936Y-87807351D01*
X144717762Y-87918825D01*
X144671588Y-87807351D01*
X144520455Y-87581164D01*
X144328098Y-87388807D01*
X144101911Y-87237674D01*
X143850585Y-87133571D01*
X143583779Y-87080500D01*
X143311745Y-87080500D01*
X143044939Y-87133571D01*
X142793613Y-87237674D01*
X142567426Y-87388807D01*
X142375069Y-87581164D01*
X142223936Y-87807351D01*
X142177762Y-87918825D01*
X142131588Y-87807351D01*
X141980455Y-87581164D01*
X141788098Y-87388807D01*
X141561911Y-87237674D01*
X141310585Y-87133571D01*
X141043779Y-87080500D01*
X140771745Y-87080500D01*
X140504939Y-87133571D01*
X140253613Y-87237674D01*
X140027426Y-87388807D01*
X139835069Y-87581164D01*
X139683936Y-87807351D01*
X139637762Y-87918825D01*
X139591588Y-87807351D01*
X139440455Y-87581164D01*
X139248098Y-87388807D01*
X139021911Y-87237674D01*
X138770585Y-87133571D01*
X138503779Y-87080500D01*
X138231745Y-87080500D01*
X137964939Y-87133571D01*
X137713613Y-87237674D01*
X137487426Y-87388807D01*
X137295069Y-87581164D01*
X137143936Y-87807351D01*
X137097762Y-87918825D01*
X137051588Y-87807351D01*
X136900455Y-87581164D01*
X136708098Y-87388807D01*
X136481911Y-87237674D01*
X136230585Y-87133571D01*
X135963779Y-87080500D01*
X135691745Y-87080500D01*
X135424939Y-87133571D01*
X135173613Y-87237674D01*
X134947426Y-87388807D01*
X134755069Y-87581164D01*
X134603936Y-87807351D01*
X134557762Y-87918825D01*
X134511588Y-87807351D01*
X134360455Y-87581164D01*
X134168098Y-87388807D01*
X133941911Y-87237674D01*
X133690585Y-87133571D01*
X133423779Y-87080500D01*
X133151745Y-87080500D01*
X132884939Y-87133571D01*
X132633613Y-87237674D01*
X132407426Y-87388807D01*
X132215069Y-87581164D01*
X132063936Y-87807351D01*
X132017762Y-87918825D01*
X131971588Y-87807351D01*
X131820455Y-87581164D01*
X131628098Y-87388807D01*
X131401911Y-87237674D01*
X131150585Y-87133571D01*
X130883779Y-87080500D01*
X130611745Y-87080500D01*
X130344939Y-87133571D01*
X130093613Y-87237674D01*
X129867426Y-87388807D01*
X129675069Y-87581164D01*
X129523936Y-87807351D01*
X129477762Y-87918825D01*
X129431588Y-87807351D01*
X129280455Y-87581164D01*
X129088098Y-87388807D01*
X128861911Y-87237674D01*
X128610585Y-87133571D01*
X128343779Y-87080500D01*
X128071745Y-87080500D01*
X127804939Y-87133571D01*
X127553613Y-87237674D01*
X127327426Y-87388807D01*
X127135069Y-87581164D01*
X126983936Y-87807351D01*
X126937762Y-87918825D01*
X126891588Y-87807351D01*
X126740455Y-87581164D01*
X126548098Y-87388807D01*
X126321911Y-87237674D01*
X126070585Y-87133571D01*
X125803779Y-87080500D01*
X125531745Y-87080500D01*
X125264939Y-87133571D01*
X125013613Y-87237674D01*
X124787426Y-87388807D01*
X124595069Y-87581164D01*
X124443936Y-87807351D01*
X124339833Y-88058677D01*
X124286762Y-88325483D01*
X124286762Y-88597517D01*
X124339833Y-88864323D01*
X124443936Y-89115649D01*
X124595069Y-89341836D01*
X124787426Y-89534193D01*
X125013613Y-89685326D01*
X125264939Y-89789429D01*
X125531745Y-89842500D01*
X125803779Y-89842500D01*
X126070585Y-89789429D01*
X126153234Y-89755195D01*
X127215307Y-90817268D01*
X127233206Y-90839078D01*
X127272050Y-90870956D01*
X127320228Y-90910495D01*
X127388433Y-90946951D01*
X127263157Y-91030658D01*
X127098658Y-91195157D01*
X126969412Y-91388587D01*
X126880386Y-91603515D01*
X126835000Y-91831682D01*
X126835000Y-92064318D01*
X126880386Y-92292485D01*
X126969412Y-92507413D01*
X127098658Y-92700843D01*
X127263157Y-92865342D01*
X127456587Y-92994588D01*
X127671515Y-93083614D01*
X127899682Y-93129000D01*
X128132318Y-93129000D01*
X128360485Y-93083614D01*
X128575413Y-92994588D01*
X128768843Y-92865342D01*
X128933342Y-92700843D01*
X129062588Y-92507413D01*
X129151614Y-92292485D01*
X129190329Y-92097855D01*
X129228887Y-92190942D01*
X129314358Y-92318859D01*
X129349500Y-92354001D01*
X129349501Y-92981276D01*
X128346228Y-93984550D01*
X128132318Y-93942000D01*
X127899682Y-93942000D01*
X127671515Y-93987386D01*
X127456587Y-94076412D01*
X127263157Y-94205658D01*
X127098658Y-94370157D01*
X126969412Y-94563587D01*
X126880386Y-94778515D01*
X126835000Y-95006682D01*
X126835000Y-95239318D01*
X126880386Y-95467485D01*
X126969412Y-95682413D01*
X127098658Y-95875843D01*
X127263157Y-96040342D01*
X127456587Y-96169588D01*
X127671515Y-96258614D01*
X127899682Y-96304000D01*
X128058778Y-96304000D01*
X127631744Y-96731034D01*
X127609934Y-96748933D01*
X127584083Y-96780433D01*
X127538516Y-96835956D01*
X127485448Y-96935239D01*
X127452769Y-97042967D01*
X127441735Y-97155000D01*
X127444501Y-97183084D01*
X127444501Y-97259488D01*
X127263157Y-97380658D01*
X127098658Y-97545157D01*
X126969412Y-97738587D01*
X126880386Y-97953515D01*
X126835000Y-98181682D01*
X126835000Y-98414318D01*
X126880386Y-98642485D01*
X126969412Y-98857413D01*
X127098658Y-99050843D01*
X127263157Y-99215342D01*
X127456587Y-99344588D01*
X127671515Y-99433614D01*
X127899682Y-99479000D01*
X128132318Y-99479000D01*
X128360485Y-99433614D01*
X128575413Y-99344588D01*
X128768843Y-99215342D01*
X128933342Y-99050843D01*
X129062588Y-98857413D01*
X129151614Y-98642485D01*
X129197000Y-98414318D01*
X129197000Y-98181682D01*
X129151614Y-97953515D01*
X129062588Y-97738587D01*
X128933342Y-97545157D01*
X128768843Y-97380658D01*
X128666768Y-97312454D01*
X128993157Y-96986065D01*
X128993157Y-97428000D01*
X129000513Y-97502689D01*
X129022299Y-97574508D01*
X129057678Y-97640696D01*
X129105289Y-97698711D01*
X129163304Y-97746322D01*
X129229492Y-97781701D01*
X129301311Y-97803487D01*
X129376000Y-97810843D01*
X130276000Y-97810843D01*
X130350689Y-97803487D01*
X130422508Y-97781701D01*
X130488696Y-97746322D01*
X130546711Y-97698711D01*
X130594322Y-97640696D01*
X130629701Y-97574508D01*
X130651487Y-97502689D01*
X130658843Y-97428000D01*
X130658843Y-96628000D01*
X130651487Y-96553311D01*
X130629701Y-96481492D01*
X130627835Y-96478000D01*
X130737928Y-96478000D01*
X130750188Y-96602482D01*
X130786498Y-96722180D01*
X130845463Y-96832494D01*
X130924815Y-96929185D01*
X131021506Y-97008537D01*
X131131820Y-97067502D01*
X131251518Y-97103812D01*
X131376000Y-97116072D01*
X131540250Y-97113000D01*
X131699000Y-96954250D01*
X131699000Y-96205000D01*
X130899750Y-96205000D01*
X130741000Y-96363750D01*
X130737928Y-96478000D01*
X130627835Y-96478000D01*
X130594322Y-96415304D01*
X130546711Y-96357289D01*
X130488696Y-96309678D01*
X130422508Y-96274299D01*
X130350689Y-96252513D01*
X130276000Y-96245157D01*
X129734065Y-96245157D01*
X130301222Y-95678000D01*
X130737928Y-95678000D01*
X130741000Y-95792250D01*
X130899750Y-95951000D01*
X131699000Y-95951000D01*
X131699000Y-95201750D01*
X131953000Y-95201750D01*
X131953000Y-95951000D01*
X132752250Y-95951000D01*
X132911000Y-95792250D01*
X132914072Y-95678000D01*
X132901812Y-95553518D01*
X132865502Y-95433820D01*
X132806537Y-95323506D01*
X132727185Y-95226815D01*
X132630494Y-95147463D01*
X132520180Y-95088498D01*
X132400482Y-95052188D01*
X132276000Y-95039928D01*
X132111750Y-95043000D01*
X131953000Y-95201750D01*
X131699000Y-95201750D01*
X131540250Y-95043000D01*
X131376000Y-95039928D01*
X131251518Y-95052188D01*
X131131820Y-95088498D01*
X131021506Y-95147463D01*
X130924815Y-95226815D01*
X130845463Y-95323506D01*
X130786498Y-95433820D01*
X130750188Y-95553518D01*
X130737928Y-95678000D01*
X130301222Y-95678000D01*
X132121223Y-93858000D01*
X134271919Y-93858000D01*
X134271919Y-94161500D01*
X134279275Y-94236189D01*
X134286953Y-94261500D01*
X134279275Y-94286811D01*
X134271919Y-94361500D01*
X134271919Y-94811500D01*
X134279275Y-94886189D01*
X134286953Y-94911500D01*
X134279275Y-94936811D01*
X134271919Y-95011500D01*
X134271919Y-95315000D01*
X133969836Y-95315000D01*
X133941762Y-95312235D01*
X133913688Y-95315000D01*
X133829728Y-95323269D01*
X133722000Y-95355948D01*
X133622717Y-95409016D01*
X133535695Y-95480433D01*
X133517796Y-95502243D01*
X132783645Y-96236395D01*
X132752250Y-96205000D01*
X131953000Y-96205000D01*
X131953000Y-96954250D01*
X132009395Y-97010645D01*
X131824883Y-97195157D01*
X131376000Y-97195157D01*
X131301311Y-97202513D01*
X131229492Y-97224299D01*
X131163304Y-97259678D01*
X131105289Y-97307289D01*
X131057678Y-97365304D01*
X131022299Y-97431492D01*
X131000513Y-97503311D01*
X130993157Y-97578000D01*
X130993157Y-97687620D01*
X128346228Y-100334550D01*
X128132318Y-100292000D01*
X127899682Y-100292000D01*
X127671515Y-100337386D01*
X127456587Y-100426412D01*
X127263157Y-100555658D01*
X127098658Y-100720157D01*
X126969412Y-100913587D01*
X126880386Y-101128515D01*
X126835000Y-101356682D01*
X126835000Y-101589318D01*
X126880386Y-101817485D01*
X126969412Y-102032413D01*
X127098658Y-102225843D01*
X127263157Y-102390342D01*
X127456587Y-102519588D01*
X127671515Y-102608614D01*
X127899682Y-102654000D01*
X128132318Y-102654000D01*
X128360485Y-102608614D01*
X128575413Y-102519588D01*
X128768843Y-102390342D01*
X128933342Y-102225843D01*
X129062588Y-102032413D01*
X129151614Y-101817485D01*
X129197000Y-101589318D01*
X129197000Y-101356682D01*
X129154450Y-101142772D01*
X131524899Y-98772324D01*
X131620762Y-98781765D01*
X131732795Y-98770731D01*
X131765391Y-98760843D01*
X132189242Y-98760843D01*
X132189243Y-102373796D01*
X130838050Y-103724990D01*
X129784542Y-103724990D01*
X129813000Y-103581922D01*
X129813000Y-103428078D01*
X129782987Y-103277191D01*
X129724113Y-103135058D01*
X129638642Y-103007141D01*
X129529859Y-102898358D01*
X129401942Y-102812887D01*
X129259809Y-102754013D01*
X129108922Y-102724000D01*
X128955078Y-102724000D01*
X128804191Y-102754013D01*
X128662058Y-102812887D01*
X128534141Y-102898358D01*
X128498999Y-102933500D01*
X120967500Y-102933500D01*
X120967500Y-102511512D01*
X121148843Y-102390342D01*
X121313342Y-102225843D01*
X121442588Y-102032413D01*
X121531614Y-101817485D01*
X121577000Y-101589318D01*
X121577000Y-101356682D01*
X121534450Y-101142773D01*
X122558264Y-100118960D01*
X122580067Y-100101067D01*
X122651484Y-100014045D01*
X122704552Y-99914762D01*
X122737231Y-99807034D01*
X122745500Y-99723074D01*
X122745500Y-99723073D01*
X122748265Y-99695000D01*
X122745500Y-99666926D01*
X122745500Y-97691074D01*
X122748265Y-97663000D01*
X122737231Y-97550966D01*
X122704552Y-97443238D01*
X122651484Y-97343955D01*
X122629694Y-97317404D01*
X122580067Y-97256933D01*
X122558257Y-97239034D01*
X121581970Y-96262748D01*
X121564067Y-96240933D01*
X121477045Y-96169516D01*
X121377762Y-96116448D01*
X121270034Y-96083769D01*
X121186074Y-96075500D01*
X121158000Y-96072735D01*
X121129926Y-96075500D01*
X121096225Y-96075500D01*
X121148843Y-96040342D01*
X121313342Y-95875843D01*
X121442588Y-95682413D01*
X121531614Y-95467485D01*
X121577000Y-95239318D01*
X121577000Y-95006682D01*
X121531614Y-94778515D01*
X121442588Y-94563587D01*
X121313342Y-94370157D01*
X121148843Y-94205658D01*
X120955413Y-94076412D01*
X120740485Y-93987386D01*
X120512318Y-93942000D01*
X120279682Y-93942000D01*
X120065772Y-93984550D01*
X119570500Y-93489278D01*
X119570500Y-92792685D01*
X119643157Y-92865342D01*
X119836587Y-92994588D01*
X120051515Y-93083614D01*
X120279682Y-93129000D01*
X120512318Y-93129000D01*
X120740485Y-93083614D01*
X120955413Y-92994588D01*
X121148843Y-92865342D01*
X121313342Y-92700843D01*
X121442588Y-92507413D01*
X121531614Y-92292485D01*
X121577000Y-92064318D01*
X121577000Y-91831682D01*
X121531614Y-91603515D01*
X121442588Y-91388587D01*
X121313342Y-91195157D01*
X121148843Y-91030658D01*
X120967500Y-90909488D01*
X120967500Y-90452074D01*
X120970265Y-90424000D01*
X120959231Y-90311966D01*
X120926552Y-90204238D01*
X120873484Y-90104955D01*
X120846243Y-90071762D01*
X120802067Y-90017933D01*
X120780257Y-90000034D01*
X118653889Y-87873667D01*
X118658693Y-87862069D01*
X118706000Y-87624243D01*
X118706000Y-87381757D01*
X118658693Y-87143931D01*
X118565898Y-86919903D01*
X118515381Y-86844298D01*
X161111903Y-86844298D01*
X161925000Y-87657395D01*
X162691097Y-86891298D01*
X165556903Y-86891298D01*
X166370000Y-87704395D01*
X167183097Y-86891298D01*
X167111514Y-86647329D01*
X166856004Y-86526429D01*
X166581816Y-86457700D01*
X166299488Y-86443783D01*
X166019870Y-86485213D01*
X165753708Y-86580397D01*
X165628486Y-86647329D01*
X165556903Y-86891298D01*
X162691097Y-86891298D01*
X162738097Y-86844298D01*
X162666514Y-86600329D01*
X162411004Y-86479429D01*
X162136816Y-86410700D01*
X161854488Y-86396783D01*
X161574870Y-86438213D01*
X161308708Y-86533397D01*
X161183486Y-86600329D01*
X161111903Y-86844298D01*
X118515381Y-86844298D01*
X118431180Y-86718283D01*
X118259717Y-86546820D01*
X118058097Y-86412102D01*
X117834069Y-86319307D01*
X117596243Y-86272000D01*
X117353757Y-86272000D01*
X117115931Y-86319307D01*
X116891903Y-86412102D01*
X116690283Y-86546820D01*
X116518820Y-86718283D01*
X116384102Y-86919903D01*
X116291307Y-87143931D01*
X116244000Y-87381757D01*
X116244000Y-87624243D01*
X116291307Y-87862069D01*
X116384102Y-88086097D01*
X116518820Y-88287717D01*
X116690283Y-88459180D01*
X116891903Y-88593898D01*
X117115931Y-88686693D01*
X117353757Y-88734000D01*
X117596243Y-88734000D01*
X117834069Y-88686693D01*
X117845667Y-88681889D01*
X118232234Y-89068457D01*
X118058097Y-88952102D01*
X117834069Y-88859307D01*
X117596243Y-88812000D01*
X117353757Y-88812000D01*
X117115931Y-88859307D01*
X116891903Y-88952102D01*
X116690283Y-89086820D01*
X116518820Y-89258283D01*
X116384102Y-89459903D01*
X116291307Y-89683931D01*
X116244000Y-89921757D01*
X116244000Y-90164243D01*
X116291307Y-90402069D01*
X116384102Y-90626097D01*
X116518820Y-90827717D01*
X116690283Y-90999180D01*
X116891903Y-91133898D01*
X117006168Y-91181228D01*
X116843748Y-91238843D01*
X116593645Y-91387822D01*
X116377412Y-91582731D01*
X116203359Y-91816080D01*
X116078175Y-92078901D01*
X116078000Y-92079478D01*
X116078000Y-85496000D01*
X195707000Y-85496000D01*
X195707000Y-109220163D01*
G37*
X195707000Y-109220163D02*
X178435000Y-109242325D01*
X178435000Y-106229215D01*
X181694147Y-103346123D01*
X181715597Y-103321557D01*
X181719215Y-103314788D01*
X186686141Y-103310532D01*
X186710382Y-103308176D01*
X186734231Y-103301030D01*
X186756228Y-103289370D01*
X186775527Y-103273641D01*
X186791387Y-103254450D01*
X186803198Y-103232534D01*
X186810506Y-103208735D01*
X186813031Y-103183967D01*
X186817330Y-101928004D01*
X189960250Y-101925000D01*
X190119000Y-101766250D01*
X190119000Y-97917000D01*
X190373000Y-97917000D01*
X190373000Y-101766250D01*
X190531750Y-101925000D01*
X193746000Y-101928072D01*
X193870482Y-101915812D01*
X193990180Y-101879502D01*
X194100494Y-101820537D01*
X194197185Y-101741185D01*
X194276537Y-101644494D01*
X194335502Y-101534180D01*
X194371812Y-101414482D01*
X194384072Y-101290000D01*
X194381000Y-98075750D01*
X194222250Y-97917000D01*
X190373000Y-97917000D01*
X190119000Y-97917000D01*
X190099000Y-97917000D01*
X190099000Y-97663000D01*
X190119000Y-97663000D01*
X190119000Y-93813750D01*
X190373000Y-93813750D01*
X190373000Y-97663000D01*
X194222250Y-97663000D01*
X194381000Y-97504250D01*
X194384072Y-94290000D01*
X194371812Y-94165518D01*
X194335502Y-94045820D01*
X194276537Y-93935506D01*
X194197185Y-93838815D01*
X194100494Y-93759463D01*
X193990180Y-93700498D01*
X193870482Y-93664188D01*
X193746000Y-93651928D01*
X190531750Y-93655000D01*
X190373000Y-93813750D01*
X190119000Y-93813750D01*
X189960250Y-93655000D01*
X186746000Y-93651928D01*
X186621518Y-93664188D01*
X186501820Y-93700498D01*
X186391506Y-93759463D01*
X186294815Y-93838815D01*
X186215463Y-93935506D01*
X186156498Y-94045820D01*
X186120188Y-94165518D01*
X186107928Y-94290000D01*
X186108548Y-94938854D01*
X185232151Y-94936562D01*
X185234072Y-94490000D01*
X185221812Y-94365518D01*
X185185502Y-94245820D01*
X185126537Y-94135506D01*
X185047185Y-94038815D01*
X184950494Y-93959463D01*
X184840180Y-93900498D01*
X184720482Y-93864188D01*
X184596000Y-93851928D01*
X183131750Y-93855000D01*
X182973000Y-94013750D01*
X182973000Y-94930653D01*
X182719000Y-94929988D01*
X182719000Y-94013750D01*
X182560250Y-93855000D01*
X181096000Y-93851928D01*
X180971518Y-93864188D01*
X180851820Y-93900498D01*
X180741506Y-93959463D01*
X180644815Y-94038815D01*
X180565463Y-94135506D01*
X180506498Y-94245820D01*
X180470188Y-94365518D01*
X180457928Y-94490000D01*
X180459795Y-94924079D01*
X179745470Y-94922211D01*
X179772902Y-94572176D01*
X179723334Y-94154549D01*
X179593243Y-93754617D01*
X179435214Y-93458962D01*
X179119653Y-93302952D01*
X178415048Y-94007557D01*
X178413024Y-94003843D01*
X178397075Y-93984726D01*
X178377704Y-93969088D01*
X178355653Y-93957529D01*
X178331771Y-93950495D01*
X178306976Y-93948254D01*
X178113581Y-93949814D01*
X178940048Y-93123347D01*
X178784038Y-92807786D01*
X178409255Y-92616980D01*
X178004449Y-92502956D01*
X177585176Y-92470098D01*
X177167549Y-92519666D01*
X176767617Y-92649757D01*
X176471962Y-92807786D01*
X176315952Y-93123347D01*
X177150188Y-93957583D01*
X176793852Y-93960457D01*
X176136347Y-93302952D01*
X175820786Y-93458962D01*
X175629980Y-93833745D01*
X175591557Y-93970153D01*
X173409078Y-93987753D01*
X173333243Y-93754617D01*
X173175214Y-93458962D01*
X172859653Y-93302952D01*
X172164817Y-93997788D01*
X171802687Y-94000708D01*
X172680048Y-93123347D01*
X172524038Y-92807786D01*
X172149255Y-92616980D01*
X171744449Y-92502956D01*
X171325176Y-92470098D01*
X170907549Y-92519666D01*
X170507617Y-92649757D01*
X170211962Y-92807786D01*
X170055952Y-93123347D01*
X170940268Y-94007663D01*
X170583932Y-94010537D01*
X169876347Y-93302952D01*
X169560786Y-93458962D01*
X169369980Y-93833745D01*
X169255956Y-94238551D01*
X169223098Y-94657824D01*
X169272666Y-95075451D01*
X169402757Y-95475383D01*
X169560786Y-95771038D01*
X169876347Y-95927048D01*
X170307000Y-95496395D01*
X170307000Y-95855605D01*
X170055952Y-96106653D01*
X170211962Y-96422214D01*
X170307000Y-96470599D01*
X170307000Y-96664346D01*
X170289197Y-96676436D01*
X168398386Y-98252112D01*
X165948580Y-98266252D01*
X165925653Y-98268473D01*
X165901765Y-98275487D01*
X165879704Y-98287026D01*
X165860318Y-98302647D01*
X165844352Y-98321750D01*
X165832420Y-98343601D01*
X165824980Y-98367359D01*
X165822318Y-98392113D01*
X165725027Y-109258634D01*
X118121025Y-109319716D01*
X118227843Y-109248342D01*
X118392342Y-109083843D01*
X118521588Y-108890413D01*
X118610614Y-108675485D01*
X118656000Y-108447318D01*
X118656000Y-108214682D01*
X118610614Y-107986515D01*
X118521588Y-107771587D01*
X118392342Y-107578157D01*
X118227843Y-107413658D01*
X118046500Y-107292488D01*
X118046500Y-106408722D01*
X120423352Y-104031871D01*
X120430238Y-104035552D01*
X120537966Y-104068231D01*
X120621926Y-104076500D01*
X120621927Y-104076500D01*
X120649999Y-104079265D01*
X120678071Y-104076500D01*
X127344539Y-104076500D01*
X126153234Y-105267805D01*
X126070585Y-105233571D01*
X125803779Y-105180500D01*
X125531745Y-105180500D01*
X125264939Y-105233571D01*
X125013613Y-105337674D01*
X124787426Y-105488807D01*
X124595069Y-105681164D01*
X124443936Y-105907351D01*
X124339833Y-106158677D01*
X124286762Y-106425483D01*
X124286762Y-106697517D01*
X124339833Y-106964323D01*
X124443936Y-107215649D01*
X124595069Y-107441836D01*
X124787426Y-107634193D01*
X125013613Y-107785326D01*
X125264939Y-107889429D01*
X125531745Y-107942500D01*
X125803779Y-107942500D01*
X126070585Y-107889429D01*
X126321911Y-107785326D01*
X126548098Y-107634193D01*
X126740455Y-107441836D01*
X126891588Y-107215649D01*
X126937762Y-107104175D01*
X126983936Y-107215649D01*
X127135069Y-107441836D01*
X127327426Y-107634193D01*
X127553613Y-107785326D01*
X127804939Y-107889429D01*
X128071745Y-107942500D01*
X128343779Y-107942500D01*
X128610585Y-107889429D01*
X128861911Y-107785326D01*
X129088098Y-107634193D01*
X129280455Y-107441836D01*
X129431588Y-107215649D01*
X129477762Y-107104175D01*
X129523936Y-107215649D01*
X129675069Y-107441836D01*
X129867426Y-107634193D01*
X130093613Y-107785326D01*
X130344939Y-107889429D01*
X130611745Y-107942500D01*
X130883779Y-107942500D01*
X131150585Y-107889429D01*
X131401911Y-107785326D01*
X131628098Y-107634193D01*
X131820455Y-107441836D01*
X131971588Y-107215649D01*
X132017762Y-107104175D01*
X132063936Y-107215649D01*
X132215069Y-107441836D01*
X132407426Y-107634193D01*
X132633613Y-107785326D01*
X132884939Y-107889429D01*
X133151745Y-107942500D01*
X133423779Y-107942500D01*
X133690585Y-107889429D01*
X133941911Y-107785326D01*
X134168098Y-107634193D01*
X134360455Y-107441836D01*
X134511588Y-107215649D01*
X134557762Y-107104175D01*
X134603936Y-107215649D01*
X134755069Y-107441836D01*
X134947426Y-107634193D01*
X135173613Y-107785326D01*
X135424939Y-107889429D01*
X135691745Y-107942500D01*
X135963779Y-107942500D01*
X136230585Y-107889429D01*
X136481911Y-107785326D01*
X136708098Y-107634193D01*
X136900455Y-107441836D01*
X137051588Y-107215649D01*
X137097762Y-107104175D01*
X137143936Y-107215649D01*
X137295069Y-107441836D01*
X137487426Y-107634193D01*
X137713613Y-107785326D01*
X137964939Y-107889429D01*
X138231745Y-107942500D01*
X138503779Y-107942500D01*
X138770585Y-107889429D01*
X139021911Y-107785326D01*
X139248098Y-107634193D01*
X139440455Y-107441836D01*
X139591588Y-107215649D01*
X139637762Y-107104175D01*
X139683936Y-107215649D01*
X139835069Y-107441836D01*
X140027426Y-107634193D01*
X140253613Y-107785326D01*
X140504939Y-107889429D01*
X140771745Y-107942500D01*
X141043779Y-107942500D01*
X141310585Y-107889429D01*
X141561911Y-107785326D01*
X141788098Y-107634193D01*
X141980455Y-107441836D01*
X142131588Y-107215649D01*
X142177762Y-107104175D01*
X142223936Y-107215649D01*
X142375069Y-107441836D01*
X142567426Y-107634193D01*
X142793613Y-107785326D01*
X143044939Y-107889429D01*
X143311745Y-107942500D01*
X143583779Y-107942500D01*
X143850585Y-107889429D01*
X144101911Y-107785326D01*
X144328098Y-107634193D01*
X144520455Y-107441836D01*
X144671588Y-107215649D01*
X144717762Y-107104175D01*
X144763936Y-107215649D01*
X144915069Y-107441836D01*
X145107426Y-107634193D01*
X145333613Y-107785326D01*
X145584939Y-107889429D01*
X145851745Y-107942500D01*
X146123779Y-107942500D01*
X146390585Y-107889429D01*
X146641911Y-107785326D01*
X146868098Y-107634193D01*
X147060455Y-107441836D01*
X147211588Y-107215649D01*
X147257762Y-107104175D01*
X147303936Y-107215649D01*
X147455069Y-107441836D01*
X147647426Y-107634193D01*
X147873613Y-107785326D01*
X148124939Y-107889429D01*
X148391745Y-107942500D01*
X148663779Y-107942500D01*
X148930585Y-107889429D01*
X149181911Y-107785326D01*
X149408098Y-107634193D01*
X149600455Y-107441836D01*
X149751588Y-107215649D01*
X149797762Y-107104175D01*
X149843936Y-107215649D01*
X149995069Y-107441836D01*
X150187426Y-107634193D01*
X150413613Y-107785326D01*
X150664939Y-107889429D01*
X150931745Y-107942500D01*
X151203779Y-107942500D01*
X151470585Y-107889429D01*
X151721911Y-107785326D01*
X151948098Y-107634193D01*
X152140455Y-107441836D01*
X152291588Y-107215649D01*
X152337762Y-107104175D01*
X152383936Y-107215649D01*
X152535069Y-107441836D01*
X152727426Y-107634193D01*
X152953613Y-107785326D01*
X153204939Y-107889429D01*
X153471745Y-107942500D01*
X153743779Y-107942500D01*
X154010585Y-107889429D01*
X154261911Y-107785326D01*
X154488098Y-107634193D01*
X154680455Y-107441836D01*
X154831588Y-107215649D01*
X154935691Y-106964323D01*
X154978545Y-106748883D01*
X154980000Y-106763660D01*
X154980000Y-106763666D01*
X154992864Y-106894273D01*
X155043697Y-107061850D01*
X155126247Y-107216290D01*
X155237341Y-107351659D01*
X155271264Y-107379499D01*
X156185505Y-108293741D01*
X156213341Y-108327659D01*
X156348709Y-108438753D01*
X156503149Y-108521303D01*
X156569058Y-108541296D01*
X156670724Y-108572136D01*
X156694778Y-108574505D01*
X156801333Y-108585000D01*
X156801339Y-108585000D01*
X156844999Y-108589300D01*
X156888659Y-108585000D01*
X158533021Y-108585000D01*
X158535299Y-108592508D01*
X158570678Y-108658696D01*
X158618289Y-108716711D01*
X158676304Y-108764322D01*
X158742492Y-108799701D01*
X158814311Y-108821487D01*
X158889000Y-108828843D01*
X160389000Y-108828843D01*
X160463689Y-108821487D01*
X160535508Y-108799701D01*
X160601696Y-108764322D01*
X160659711Y-108716711D01*
X160707322Y-108658696D01*
X160742701Y-108592508D01*
X160764487Y-108520689D01*
X160771843Y-108446000D01*
X160771843Y-106946000D01*
X160764487Y-106871311D01*
X160742701Y-106799492D01*
X160707322Y-106733304D01*
X160659711Y-106675289D01*
X160601696Y-106627678D01*
X160535508Y-106592299D01*
X160463689Y-106570513D01*
X160389000Y-106563157D01*
X158889000Y-106563157D01*
X158814311Y-106570513D01*
X158742492Y-106592299D01*
X158676304Y-106627678D01*
X158618289Y-106675289D01*
X158570678Y-106733304D01*
X158535299Y-106799492D01*
X158533021Y-106807000D01*
X157213236Y-106807000D01*
X156758000Y-106351765D01*
X156758000Y-105386702D01*
X157555903Y-105386702D01*
X157627486Y-105630671D01*
X157882996Y-105751571D01*
X158157184Y-105820300D01*
X158439512Y-105834217D01*
X158719130Y-105792787D01*
X158985292Y-105697603D01*
X159110514Y-105630671D01*
X159182097Y-105386702D01*
X158369000Y-104573605D01*
X157555903Y-105386702D01*
X156758000Y-105386702D01*
X156758000Y-105175185D01*
X156786342Y-105146843D01*
X156915588Y-104953413D01*
X156985069Y-104785671D01*
X157065397Y-105010292D01*
X157132329Y-105135514D01*
X157376298Y-105207097D01*
X158189395Y-104394000D01*
X158548605Y-104394000D01*
X159361702Y-105207097D01*
X159605671Y-105135514D01*
X159726571Y-104880004D01*
X159795300Y-104605816D01*
X159809217Y-104323488D01*
X159767787Y-104043870D01*
X159672603Y-103777708D01*
X159605671Y-103652486D01*
X159361702Y-103580903D01*
X158548605Y-104394000D01*
X158189395Y-104394000D01*
X157376298Y-103580903D01*
X157132329Y-103652486D01*
X157011429Y-103907996D01*
X156986760Y-104006411D01*
X156915588Y-103834587D01*
X156786342Y-103641157D01*
X156621843Y-103476658D01*
X156567000Y-103440013D01*
X156567000Y-103401298D01*
X157555903Y-103401298D01*
X158369000Y-104214395D01*
X159182097Y-103401298D01*
X159110514Y-103157329D01*
X158855004Y-103036429D01*
X158580816Y-102967700D01*
X158298488Y-102953783D01*
X158018870Y-102995213D01*
X157752708Y-103090397D01*
X157627486Y-103157329D01*
X157555903Y-103401298D01*
X156567000Y-103401298D01*
X156567000Y-102882627D01*
X156619189Y-102877487D01*
X156691008Y-102855701D01*
X156757196Y-102820322D01*
X156815211Y-102772711D01*
X156862822Y-102714696D01*
X156898201Y-102648508D01*
X156919987Y-102576689D01*
X156927343Y-102502000D01*
X156927343Y-99801907D01*
X157051000Y-99678250D01*
X157051000Y-98679000D01*
X157305000Y-98679000D01*
X157305000Y-99678250D01*
X157463750Y-99837000D01*
X157628000Y-99840072D01*
X157752482Y-99827812D01*
X157872180Y-99791502D01*
X157982494Y-99732537D01*
X158079185Y-99653185D01*
X158158537Y-99556494D01*
X158217502Y-99446180D01*
X158253812Y-99326482D01*
X158266072Y-99202000D01*
X158263000Y-98837750D01*
X158104250Y-98679000D01*
X157305000Y-98679000D01*
X157051000Y-98679000D01*
X157031000Y-98679000D01*
X157031000Y-98425000D01*
X157051000Y-98425000D01*
X157051000Y-97425750D01*
X157305000Y-97425750D01*
X157305000Y-98425000D01*
X158104250Y-98425000D01*
X158263000Y-98266250D01*
X158266072Y-97902000D01*
X158253812Y-97777518D01*
X158217502Y-97657820D01*
X158158537Y-97547506D01*
X158079185Y-97450815D01*
X157982494Y-97371463D01*
X157872180Y-97312498D01*
X157752482Y-97276188D01*
X157628000Y-97263928D01*
X157463750Y-97267000D01*
X157305000Y-97425750D01*
X157051000Y-97425750D01*
X156892250Y-97267000D01*
X156728000Y-97263928D01*
X156603518Y-97276188D01*
X156483820Y-97312498D01*
X156373506Y-97371463D01*
X156276815Y-97450815D01*
X156212299Y-97529428D01*
X156202689Y-97526513D01*
X156128000Y-97519157D01*
X155228000Y-97519157D01*
X155153311Y-97526513D01*
X155081492Y-97548299D01*
X155015304Y-97583678D01*
X154957289Y-97631289D01*
X154928000Y-97666978D01*
X154898711Y-97631289D01*
X154840696Y-97583678D01*
X154774508Y-97548299D01*
X154702689Y-97526513D01*
X154628000Y-97519157D01*
X153728000Y-97519157D01*
X153653311Y-97526513D01*
X153581492Y-97548299D01*
X153515304Y-97583678D01*
X153457289Y-97631289D01*
X153431265Y-97663000D01*
X152292185Y-97663000D01*
X152263843Y-97634658D01*
X152070413Y-97505412D01*
X151855485Y-97416386D01*
X151627318Y-97371000D01*
X151394682Y-97371000D01*
X151166515Y-97416386D01*
X150951587Y-97505412D01*
X150758157Y-97634658D01*
X150729815Y-97663000D01*
X149117185Y-97663000D01*
X149088843Y-97634658D01*
X148895413Y-97505412D01*
X148680485Y-97416386D01*
X148452318Y-97371000D01*
X148219682Y-97371000D01*
X147991515Y-97416386D01*
X147776587Y-97505412D01*
X147583157Y-97634658D01*
X147418658Y-97799157D01*
X147341254Y-97915000D01*
X144853263Y-97915000D01*
X144943404Y-97824859D01*
X145028875Y-97696942D01*
X145087749Y-97554809D01*
X145117762Y-97403922D01*
X145117762Y-97250078D01*
X145104650Y-97184158D01*
X145109820Y-97187613D01*
X145251953Y-97246487D01*
X145402840Y-97276500D01*
X145556684Y-97276500D01*
X145707571Y-97246487D01*
X145849704Y-97187613D01*
X145977621Y-97102142D01*
X146086404Y-96993359D01*
X146171875Y-96865442D01*
X146230749Y-96723309D01*
X146249459Y-96629247D01*
X146311059Y-96641500D01*
X146464903Y-96641500D01*
X146615790Y-96611487D01*
X146757923Y-96552613D01*
X146885840Y-96467142D01*
X146994623Y-96358359D01*
X147080094Y-96230442D01*
X147138968Y-96088309D01*
X147168981Y-95937422D01*
X147168981Y-95783578D01*
X147140720Y-95641499D01*
X147157277Y-95641499D01*
X148293034Y-96777257D01*
X148310933Y-96799067D01*
X148391720Y-96865367D01*
X148397955Y-96870484D01*
X148497238Y-96923552D01*
X148604966Y-96956231D01*
X148717000Y-96967265D01*
X148745074Y-96964500D01*
X159148278Y-96964500D01*
X160972500Y-98788723D01*
X160972501Y-102847488D01*
X160791157Y-102968658D01*
X160626658Y-103133157D01*
X160497412Y-103326587D01*
X160408386Y-103541515D01*
X160363000Y-103769682D01*
X160363000Y-104002318D01*
X160408386Y-104230485D01*
X160497412Y-104445413D01*
X160626658Y-104638843D01*
X160791157Y-104803342D01*
X160984587Y-104932588D01*
X161199515Y-105021614D01*
X161427682Y-105067000D01*
X161660318Y-105067000D01*
X161888485Y-105021614D01*
X162103413Y-104932588D01*
X162296843Y-104803342D01*
X162325185Y-104775000D01*
X163373525Y-104775000D01*
X163490030Y-104891505D01*
X163675271Y-105015279D01*
X163881100Y-105100536D01*
X164099606Y-105144000D01*
X164322394Y-105144000D01*
X164540900Y-105100536D01*
X164746729Y-105015279D01*
X164931970Y-104891505D01*
X165089505Y-104733970D01*
X165213279Y-104548729D01*
X165298536Y-104342900D01*
X165342000Y-104124394D01*
X165342000Y-103901606D01*
X165298536Y-103683100D01*
X165213279Y-103477271D01*
X165089505Y-103292030D01*
X164931970Y-103134495D01*
X164746729Y-103010721D01*
X164540900Y-102925464D01*
X164322394Y-102882000D01*
X164099606Y-102882000D01*
X163881100Y-102925464D01*
X163708396Y-102997000D01*
X162325185Y-102997000D01*
X162296843Y-102968658D01*
X162115500Y-102847488D01*
X162115500Y-98580071D01*
X162118265Y-98551999D01*
X162113986Y-98508552D01*
X162107231Y-98439966D01*
X162074552Y-98332238D01*
X162021484Y-98232955D01*
X161950067Y-98145933D01*
X161928258Y-98128035D01*
X161202413Y-97402190D01*
X161427682Y-97447000D01*
X161660318Y-97447000D01*
X161888485Y-97401614D01*
X162103413Y-97312588D01*
X162296843Y-97183342D01*
X162337185Y-97143000D01*
X162822928Y-97143000D01*
X162835188Y-97267482D01*
X162871498Y-97387180D01*
X162930463Y-97497494D01*
X163009815Y-97594185D01*
X163106506Y-97673537D01*
X163216820Y-97732502D01*
X163336518Y-97768812D01*
X163461000Y-97781072D01*
X163925250Y-97778000D01*
X164084000Y-97619250D01*
X164084000Y-96520000D01*
X164338000Y-96520000D01*
X164338000Y-97619250D01*
X164496750Y-97778000D01*
X164961000Y-97781072D01*
X165085482Y-97768812D01*
X165205180Y-97732502D01*
X165315494Y-97673537D01*
X165412185Y-97594185D01*
X165491537Y-97497494D01*
X165550502Y-97387180D01*
X165586812Y-97267482D01*
X165599072Y-97143000D01*
X165596000Y-96678750D01*
X165437250Y-96520000D01*
X164338000Y-96520000D01*
X164084000Y-96520000D01*
X162984750Y-96520000D01*
X162826000Y-96678750D01*
X162822928Y-97143000D01*
X162337185Y-97143000D01*
X162461342Y-97018843D01*
X162525679Y-96922556D01*
X162584495Y-96863740D01*
X162667751Y-96762291D01*
X162750302Y-96607852D01*
X162801136Y-96440275D01*
X162818300Y-96266001D01*
X162801136Y-96091726D01*
X162796214Y-96075500D01*
X162801136Y-96059276D01*
X162806388Y-96005948D01*
X162814000Y-95928667D01*
X162814000Y-95928657D01*
X162818300Y-95885001D01*
X162814000Y-95841341D01*
X162814000Y-95643000D01*
X162822928Y-95643000D01*
X162826000Y-96107250D01*
X162984750Y-96266000D01*
X164084000Y-96266000D01*
X164084000Y-95166750D01*
X164338000Y-95166750D01*
X164338000Y-96266000D01*
X165437250Y-96266000D01*
X165596000Y-96107250D01*
X165599072Y-95643000D01*
X165586812Y-95518518D01*
X165550502Y-95398820D01*
X165491537Y-95288506D01*
X165412185Y-95191815D01*
X165315494Y-95112463D01*
X165205180Y-95053498D01*
X165085482Y-95017188D01*
X164961000Y-95004928D01*
X164496750Y-95008000D01*
X164338000Y-95166750D01*
X164084000Y-95166750D01*
X163925250Y-95008000D01*
X163461000Y-95004928D01*
X163336518Y-95017188D01*
X163216820Y-95053498D01*
X163106506Y-95112463D01*
X163009815Y-95191815D01*
X162930463Y-95288506D01*
X162871498Y-95398820D01*
X162835188Y-95518518D01*
X162822928Y-95643000D01*
X162814000Y-95643000D01*
X162814000Y-93726000D01*
X165541815Y-93726000D01*
X165617157Y-93801342D01*
X165713444Y-93865679D01*
X165772260Y-93924495D01*
X165873709Y-94007752D01*
X166028148Y-94090302D01*
X166195726Y-94141136D01*
X166306501Y-94152046D01*
X166306500Y-95451215D01*
X166282299Y-95496492D01*
X166260513Y-95568311D01*
X166253157Y-95643000D01*
X166253157Y-97143000D01*
X166260513Y-97217689D01*
X166282299Y-97289508D01*
X166317678Y-97355696D01*
X166365289Y-97413711D01*
X166423304Y-97461322D01*
X166489492Y-97496701D01*
X166561311Y-97518487D01*
X166636000Y-97525843D01*
X168136000Y-97525843D01*
X168210689Y-97518487D01*
X168282508Y-97496701D01*
X168348696Y-97461322D01*
X168406711Y-97413711D01*
X168454322Y-97355696D01*
X168489701Y-97289508D01*
X168511487Y-97217689D01*
X168518843Y-97143000D01*
X168518843Y-95643000D01*
X168511487Y-95568311D01*
X168489701Y-95496492D01*
X168454322Y-95430304D01*
X168406711Y-95372289D01*
X168348696Y-95324678D01*
X168282508Y-95289299D01*
X168210689Y-95267513D01*
X168136000Y-95260157D01*
X168084500Y-95260157D01*
X168084500Y-93538833D01*
X168071636Y-93408226D01*
X168020803Y-93240649D01*
X167938253Y-93086209D01*
X167827159Y-92950841D01*
X167691791Y-92839747D01*
X167550290Y-92764113D01*
X167505614Y-92539515D01*
X167416588Y-92324587D01*
X167287342Y-92131157D01*
X167122843Y-91966658D01*
X166929413Y-91837412D01*
X166714485Y-91748386D01*
X166486318Y-91703000D01*
X166253682Y-91703000D01*
X166025515Y-91748386D01*
X165810587Y-91837412D01*
X165645081Y-91948000D01*
X162706185Y-91948000D01*
X162677843Y-91919658D01*
X162484413Y-91790412D01*
X162269485Y-91701386D01*
X162041318Y-91656000D01*
X162001235Y-91656000D01*
X161187499Y-90842264D01*
X161159659Y-90808341D01*
X161024291Y-90697247D01*
X160869851Y-90614697D01*
X160702274Y-90563864D01*
X160571667Y-90551000D01*
X160571660Y-90551000D01*
X160528000Y-90546700D01*
X160484340Y-90551000D01*
X157499185Y-90551000D01*
X157343843Y-90395658D01*
X157150413Y-90266412D01*
X156935485Y-90177386D01*
X156707318Y-90132000D01*
X156474682Y-90132000D01*
X156246515Y-90177386D01*
X156031587Y-90266412D01*
X155838157Y-90395658D01*
X155673658Y-90560157D01*
X155544412Y-90753587D01*
X155455386Y-90968515D01*
X155410000Y-91196682D01*
X155410000Y-91429318D01*
X155455386Y-91657485D01*
X155544412Y-91872413D01*
X155673658Y-92065843D01*
X155838157Y-92230342D01*
X156031587Y-92359588D01*
X156246515Y-92448614D01*
X156474682Y-92494000D01*
X156707318Y-92494000D01*
X156935485Y-92448614D01*
X157150413Y-92359588D01*
X157196191Y-92329000D01*
X160159765Y-92329000D01*
X160744000Y-92913235D01*
X160744000Y-92953318D01*
X160789386Y-93181485D01*
X160878412Y-93396413D01*
X161007658Y-93589843D01*
X161036000Y-93618185D01*
X161036001Y-95198116D01*
X160984587Y-95219412D01*
X160791157Y-95348658D01*
X160626658Y-95513157D01*
X160497412Y-95706587D01*
X160408386Y-95921515D01*
X160363000Y-96149682D01*
X160363000Y-96382318D01*
X160407810Y-96607587D01*
X159808970Y-96008748D01*
X159791067Y-95986933D01*
X159704045Y-95915516D01*
X159604762Y-95862448D01*
X159497034Y-95829769D01*
X159413074Y-95821500D01*
X159385000Y-95818735D01*
X159356926Y-95821500D01*
X148953723Y-95821500D01*
X148629413Y-95497190D01*
X148854682Y-95542000D01*
X149087318Y-95542000D01*
X149315485Y-95496614D01*
X149530413Y-95407588D01*
X149723843Y-95278342D01*
X149888342Y-95113843D01*
X150017588Y-94920413D01*
X150104727Y-94710039D01*
X155199096Y-94710039D01*
X155239754Y-94844087D01*
X155359963Y-95098420D01*
X155527481Y-95324414D01*
X155735869Y-95513385D01*
X155977119Y-95658070D01*
X156241960Y-95752909D01*
X156464000Y-95631624D01*
X156464000Y-94488000D01*
X156718000Y-94488000D01*
X156718000Y-95631624D01*
X156940040Y-95752909D01*
X157204881Y-95658070D01*
X157446131Y-95513385D01*
X157654519Y-95324414D01*
X157822037Y-95098420D01*
X157942246Y-94844087D01*
X157982904Y-94710039D01*
X157860915Y-94488000D01*
X156718000Y-94488000D01*
X156464000Y-94488000D01*
X155321085Y-94488000D01*
X155199096Y-94710039D01*
X150104727Y-94710039D01*
X150106614Y-94705485D01*
X150152000Y-94477318D01*
X150152000Y-94244682D01*
X150106614Y-94016515D01*
X150104728Y-94011961D01*
X155199096Y-94011961D01*
X155321085Y-94234000D01*
X156464000Y-94234000D01*
X156464000Y-93090376D01*
X156718000Y-93090376D01*
X156718000Y-94234000D01*
X157860915Y-94234000D01*
X157982904Y-94011961D01*
X157942246Y-93877913D01*
X157822037Y-93623580D01*
X157654519Y-93397586D01*
X157446131Y-93208615D01*
X157204881Y-93063930D01*
X156940040Y-92969091D01*
X156718000Y-93090376D01*
X156464000Y-93090376D01*
X156241960Y-92969091D01*
X155977119Y-93063930D01*
X155735869Y-93208615D01*
X155527481Y-93397586D01*
X155359963Y-93623580D01*
X155239754Y-93877913D01*
X155199096Y-94011961D01*
X150104728Y-94011961D01*
X150017588Y-93801587D01*
X149888342Y-93608157D01*
X149860000Y-93579815D01*
X149860000Y-92094185D01*
X149888342Y-92065843D01*
X150017588Y-91872413D01*
X150106614Y-91657485D01*
X150152000Y-91429318D01*
X150152000Y-91196682D01*
X150106614Y-90968515D01*
X150017588Y-90753587D01*
X149888342Y-90560157D01*
X149723843Y-90395658D01*
X149530413Y-90266412D01*
X149315485Y-90177386D01*
X149087318Y-90132000D01*
X148854682Y-90132000D01*
X148626515Y-90177386D01*
X148411587Y-90266412D01*
X148218157Y-90395658D01*
X148053658Y-90560157D01*
X147924412Y-90753587D01*
X147835386Y-90968515D01*
X147790000Y-91196682D01*
X147790000Y-91429318D01*
X147835386Y-91657485D01*
X147924412Y-91872413D01*
X148053658Y-92065843D01*
X148082000Y-92094185D01*
X148082001Y-93579814D01*
X148053658Y-93608157D01*
X147932488Y-93789500D01*
X144940985Y-93789500D01*
X144975020Y-93755465D01*
X144996829Y-93737567D01*
X145068246Y-93650545D01*
X145121314Y-93551262D01*
X145153993Y-93443534D01*
X145162262Y-93359574D01*
X145162262Y-93359573D01*
X145165027Y-93331501D01*
X145162262Y-93303429D01*
X145162262Y-91723001D01*
X145197404Y-91687859D01*
X145282875Y-91559942D01*
X145341749Y-91417809D01*
X145371762Y-91266922D01*
X145371762Y-91113078D01*
X145341749Y-90962191D01*
X145302485Y-90867400D01*
X145377829Y-90805567D01*
X145395732Y-90783752D01*
X146372020Y-89807465D01*
X146393829Y-89789567D01*
X146395671Y-89787322D01*
X146641911Y-89685326D01*
X146868098Y-89534193D01*
X147060455Y-89341836D01*
X147211588Y-89115649D01*
X147257762Y-89004175D01*
X147303936Y-89115649D01*
X147455069Y-89341836D01*
X147647426Y-89534193D01*
X147873613Y-89685326D01*
X148124939Y-89789429D01*
X148391745Y-89842500D01*
X148663779Y-89842500D01*
X148930585Y-89789429D01*
X149181911Y-89685326D01*
X149408098Y-89534193D01*
X149600455Y-89341836D01*
X149751588Y-89115649D01*
X149797762Y-89004175D01*
X149843936Y-89115649D01*
X149995069Y-89341836D01*
X150187426Y-89534193D01*
X150413613Y-89685326D01*
X150664939Y-89789429D01*
X150931745Y-89842500D01*
X151203779Y-89842500D01*
X151470585Y-89789429D01*
X151721911Y-89685326D01*
X151948098Y-89534193D01*
X152140455Y-89341836D01*
X152291588Y-89115649D01*
X152337762Y-89004175D01*
X152383936Y-89115649D01*
X152535069Y-89341836D01*
X152727426Y-89534193D01*
X152953613Y-89685326D01*
X153204939Y-89789429D01*
X153471745Y-89842500D01*
X153743779Y-89842500D01*
X154010585Y-89789429D01*
X154261911Y-89685326D01*
X154488098Y-89534193D01*
X154680455Y-89341836D01*
X154831588Y-89115649D01*
X154935691Y-88864323D01*
X154942577Y-88829702D01*
X161111903Y-88829702D01*
X161183486Y-89073671D01*
X161438996Y-89194571D01*
X161713184Y-89263300D01*
X161995512Y-89277217D01*
X162275130Y-89235787D01*
X162541292Y-89140603D01*
X162666514Y-89073671D01*
X162724306Y-88876702D01*
X165556903Y-88876702D01*
X165628486Y-89120671D01*
X165883996Y-89241571D01*
X166158184Y-89310300D01*
X166440512Y-89324217D01*
X166720130Y-89282787D01*
X166986292Y-89187603D01*
X167111514Y-89120671D01*
X167183097Y-88876702D01*
X166370000Y-88063605D01*
X165556903Y-88876702D01*
X162724306Y-88876702D01*
X162738097Y-88829702D01*
X161925000Y-88016605D01*
X161111903Y-88829702D01*
X154942577Y-88829702D01*
X154988762Y-88597517D01*
X154988762Y-88325483D01*
X154935691Y-88058677D01*
X154873077Y-87907512D01*
X160484783Y-87907512D01*
X160526213Y-88187130D01*
X160621397Y-88453292D01*
X160688329Y-88578514D01*
X160932298Y-88650097D01*
X161745395Y-87837000D01*
X162104605Y-87837000D01*
X162917702Y-88650097D01*
X163161671Y-88578514D01*
X163282571Y-88323004D01*
X163351300Y-88048816D01*
X163355948Y-87954512D01*
X164929783Y-87954512D01*
X164971213Y-88234130D01*
X165066397Y-88500292D01*
X165133329Y-88625514D01*
X165377298Y-88697097D01*
X166190395Y-87884000D01*
X166549605Y-87884000D01*
X167362702Y-88697097D01*
X167606671Y-88625514D01*
X167727571Y-88370004D01*
X167796300Y-88095816D01*
X167810217Y-87813488D01*
X167768787Y-87533870D01*
X167673603Y-87267708D01*
X167606671Y-87142486D01*
X167362702Y-87070903D01*
X166549605Y-87884000D01*
X166190395Y-87884000D01*
X165377298Y-87070903D01*
X165133329Y-87142486D01*
X165012429Y-87397996D01*
X164943700Y-87672184D01*
X164929783Y-87954512D01*
X163355948Y-87954512D01*
X163365217Y-87766488D01*
X163323787Y-87486870D01*
X163228603Y-87220708D01*
X163161671Y-87095486D01*
X162917702Y-87023903D01*
X162104605Y-87837000D01*
X161745395Y-87837000D01*
X160932298Y-87023903D01*
X160688329Y-87095486D01*
X160567429Y-87350996D01*
X160498700Y-87625184D01*
X160484783Y-87907512D01*
X154873077Y-87907512D01*
X154831588Y-87807351D01*
X154680455Y-87581164D01*
X154488098Y-87388807D01*
X154261911Y-87237674D01*
X154010585Y-87133571D01*
X153743779Y-87080500D01*
X153471745Y-87080500D01*
X153204939Y-87133571D01*
X152953613Y-87237674D01*
X152727426Y-87388807D01*
X152535069Y-87581164D01*
X152383936Y-87807351D01*
X152337762Y-87918825D01*
X152291588Y-87807351D01*
X152140455Y-87581164D01*
X151948098Y-87388807D01*
X151721911Y-87237674D01*
X151470585Y-87133571D01*
X151203779Y-87080500D01*
X150931745Y-87080500D01*
X150664939Y-87133571D01*
X150413613Y-87237674D01*
X150187426Y-87388807D01*
X149995069Y-87581164D01*
X149843936Y-87807351D01*
X149797762Y-87918825D01*
X149751588Y-87807351D01*
X149600455Y-87581164D01*
X149408098Y-87388807D01*
X149181911Y-87237674D01*
X148930585Y-87133571D01*
X148663779Y-87080500D01*
X148391745Y-87080500D01*
X148124939Y-87133571D01*
X147873613Y-87237674D01*
X147647426Y-87388807D01*
X147455069Y-87581164D01*
X147303936Y-87807351D01*
X147257762Y-87918825D01*
X147211588Y-87807351D01*
X147060455Y-87581164D01*
X146868098Y-87388807D01*
X146641911Y-87237674D01*
X146390585Y-87133571D01*
X146123779Y-87080500D01*
X145851745Y-87080500D01*
X145584939Y-87133571D01*
X145333613Y-87237674D01*
X145107426Y-87388807D01*
X144915069Y-87581164D01*
X144763936Y-87807351D01*
X144717762Y-87918825D01*
X144671588Y-87807351D01*
X144520455Y-87581164D01*
X144328098Y-87388807D01*
X144101911Y-87237674D01*
X143850585Y-87133571D01*
X143583779Y-87080500D01*
X143311745Y-87080500D01*
X143044939Y-87133571D01*
X142793613Y-87237674D01*
X142567426Y-87388807D01*
X142375069Y-87581164D01*
X142223936Y-87807351D01*
X142177762Y-87918825D01*
X142131588Y-87807351D01*
X141980455Y-87581164D01*
X141788098Y-87388807D01*
X141561911Y-87237674D01*
X141310585Y-87133571D01*
X141043779Y-87080500D01*
X140771745Y-87080500D01*
X140504939Y-87133571D01*
X140253613Y-87237674D01*
X140027426Y-87388807D01*
X139835069Y-87581164D01*
X139683936Y-87807351D01*
X139637762Y-87918825D01*
X139591588Y-87807351D01*
X139440455Y-87581164D01*
X139248098Y-87388807D01*
X139021911Y-87237674D01*
X138770585Y-87133571D01*
X138503779Y-87080500D01*
X138231745Y-87080500D01*
X137964939Y-87133571D01*
X137713613Y-87237674D01*
X137487426Y-87388807D01*
X137295069Y-87581164D01*
X137143936Y-87807351D01*
X137097762Y-87918825D01*
X137051588Y-87807351D01*
X136900455Y-87581164D01*
X136708098Y-87388807D01*
X136481911Y-87237674D01*
X136230585Y-87133571D01*
X135963779Y-87080500D01*
X135691745Y-87080500D01*
X135424939Y-87133571D01*
X135173613Y-87237674D01*
X134947426Y-87388807D01*
X134755069Y-87581164D01*
X134603936Y-87807351D01*
X134557762Y-87918825D01*
X134511588Y-87807351D01*
X134360455Y-87581164D01*
X134168098Y-87388807D01*
X133941911Y-87237674D01*
X133690585Y-87133571D01*
X133423779Y-87080500D01*
X133151745Y-87080500D01*
X132884939Y-87133571D01*
X132633613Y-87237674D01*
X132407426Y-87388807D01*
X132215069Y-87581164D01*
X132063936Y-87807351D01*
X132017762Y-87918825D01*
X131971588Y-87807351D01*
X131820455Y-87581164D01*
X131628098Y-87388807D01*
X131401911Y-87237674D01*
X131150585Y-87133571D01*
X130883779Y-87080500D01*
X130611745Y-87080500D01*
X130344939Y-87133571D01*
X130093613Y-87237674D01*
X129867426Y-87388807D01*
X129675069Y-87581164D01*
X129523936Y-87807351D01*
X129477762Y-87918825D01*
X129431588Y-87807351D01*
X129280455Y-87581164D01*
X129088098Y-87388807D01*
X128861911Y-87237674D01*
X128610585Y-87133571D01*
X128343779Y-87080500D01*
X128071745Y-87080500D01*
X127804939Y-87133571D01*
X127553613Y-87237674D01*
X127327426Y-87388807D01*
X127135069Y-87581164D01*
X126983936Y-87807351D01*
X126937762Y-87918825D01*
X126891588Y-87807351D01*
X126740455Y-87581164D01*
X126548098Y-87388807D01*
X126321911Y-87237674D01*
X126070585Y-87133571D01*
X125803779Y-87080500D01*
X125531745Y-87080500D01*
X125264939Y-87133571D01*
X125013613Y-87237674D01*
X124787426Y-87388807D01*
X124595069Y-87581164D01*
X124443936Y-87807351D01*
X124339833Y-88058677D01*
X124286762Y-88325483D01*
X124286762Y-88597517D01*
X124339833Y-88864323D01*
X124443936Y-89115649D01*
X124595069Y-89341836D01*
X124787426Y-89534193D01*
X125013613Y-89685326D01*
X125264939Y-89789429D01*
X125531745Y-89842500D01*
X125803779Y-89842500D01*
X126070585Y-89789429D01*
X126153234Y-89755195D01*
X127215307Y-90817268D01*
X127233206Y-90839078D01*
X127272050Y-90870956D01*
X127320228Y-90910495D01*
X127388433Y-90946951D01*
X127263157Y-91030658D01*
X127098658Y-91195157D01*
X126969412Y-91388587D01*
X126880386Y-91603515D01*
X126835000Y-91831682D01*
X126835000Y-92064318D01*
X126880386Y-92292485D01*
X126969412Y-92507413D01*
X127098658Y-92700843D01*
X127263157Y-92865342D01*
X127456587Y-92994588D01*
X127671515Y-93083614D01*
X127899682Y-93129000D01*
X128132318Y-93129000D01*
X128360485Y-93083614D01*
X128575413Y-92994588D01*
X128768843Y-92865342D01*
X128933342Y-92700843D01*
X129062588Y-92507413D01*
X129151614Y-92292485D01*
X129190329Y-92097855D01*
X129228887Y-92190942D01*
X129314358Y-92318859D01*
X129349500Y-92354001D01*
X129349501Y-92981276D01*
X128346228Y-93984550D01*
X128132318Y-93942000D01*
X127899682Y-93942000D01*
X127671515Y-93987386D01*
X127456587Y-94076412D01*
X127263157Y-94205658D01*
X127098658Y-94370157D01*
X126969412Y-94563587D01*
X126880386Y-94778515D01*
X126835000Y-95006682D01*
X126835000Y-95239318D01*
X126880386Y-95467485D01*
X126969412Y-95682413D01*
X127098658Y-95875843D01*
X127263157Y-96040342D01*
X127456587Y-96169588D01*
X127671515Y-96258614D01*
X127899682Y-96304000D01*
X128058778Y-96304000D01*
X127631744Y-96731034D01*
X127609934Y-96748933D01*
X127584083Y-96780433D01*
X127538516Y-96835956D01*
X127485448Y-96935239D01*
X127452769Y-97042967D01*
X127441735Y-97155000D01*
X127444501Y-97183084D01*
X127444501Y-97259488D01*
X127263157Y-97380658D01*
X127098658Y-97545157D01*
X126969412Y-97738587D01*
X126880386Y-97953515D01*
X126835000Y-98181682D01*
X126835000Y-98414318D01*
X126880386Y-98642485D01*
X126969412Y-98857413D01*
X127098658Y-99050843D01*
X127263157Y-99215342D01*
X127456587Y-99344588D01*
X127671515Y-99433614D01*
X127899682Y-99479000D01*
X128132318Y-99479000D01*
X128360485Y-99433614D01*
X128575413Y-99344588D01*
X128768843Y-99215342D01*
X128933342Y-99050843D01*
X129062588Y-98857413D01*
X129151614Y-98642485D01*
X129197000Y-98414318D01*
X129197000Y-98181682D01*
X129151614Y-97953515D01*
X129062588Y-97738587D01*
X128933342Y-97545157D01*
X128768843Y-97380658D01*
X128666768Y-97312454D01*
X128993157Y-96986065D01*
X128993157Y-97428000D01*
X129000513Y-97502689D01*
X129022299Y-97574508D01*
X129057678Y-97640696D01*
X129105289Y-97698711D01*
X129163304Y-97746322D01*
X129229492Y-97781701D01*
X129301311Y-97803487D01*
X129376000Y-97810843D01*
X130276000Y-97810843D01*
X130350689Y-97803487D01*
X130422508Y-97781701D01*
X130488696Y-97746322D01*
X130546711Y-97698711D01*
X130594322Y-97640696D01*
X130629701Y-97574508D01*
X130651487Y-97502689D01*
X130658843Y-97428000D01*
X130658843Y-96628000D01*
X130651487Y-96553311D01*
X130629701Y-96481492D01*
X130627835Y-96478000D01*
X130737928Y-96478000D01*
X130750188Y-96602482D01*
X130786498Y-96722180D01*
X130845463Y-96832494D01*
X130924815Y-96929185D01*
X131021506Y-97008537D01*
X131131820Y-97067502D01*
X131251518Y-97103812D01*
X131376000Y-97116072D01*
X131540250Y-97113000D01*
X131699000Y-96954250D01*
X131699000Y-96205000D01*
X130899750Y-96205000D01*
X130741000Y-96363750D01*
X130737928Y-96478000D01*
X130627835Y-96478000D01*
X130594322Y-96415304D01*
X130546711Y-96357289D01*
X130488696Y-96309678D01*
X130422508Y-96274299D01*
X130350689Y-96252513D01*
X130276000Y-96245157D01*
X129734065Y-96245157D01*
X130301222Y-95678000D01*
X130737928Y-95678000D01*
X130741000Y-95792250D01*
X130899750Y-95951000D01*
X131699000Y-95951000D01*
X131699000Y-95201750D01*
X131953000Y-95201750D01*
X131953000Y-95951000D01*
X132752250Y-95951000D01*
X132911000Y-95792250D01*
X132914072Y-95678000D01*
X132901812Y-95553518D01*
X132865502Y-95433820D01*
X132806537Y-95323506D01*
X132727185Y-95226815D01*
X132630494Y-95147463D01*
X132520180Y-95088498D01*
X132400482Y-95052188D01*
X132276000Y-95039928D01*
X132111750Y-95043000D01*
X131953000Y-95201750D01*
X131699000Y-95201750D01*
X131540250Y-95043000D01*
X131376000Y-95039928D01*
X131251518Y-95052188D01*
X131131820Y-95088498D01*
X131021506Y-95147463D01*
X130924815Y-95226815D01*
X130845463Y-95323506D01*
X130786498Y-95433820D01*
X130750188Y-95553518D01*
X130737928Y-95678000D01*
X130301222Y-95678000D01*
X132121223Y-93858000D01*
X134271919Y-93858000D01*
X134271919Y-94161500D01*
X134279275Y-94236189D01*
X134286953Y-94261500D01*
X134279275Y-94286811D01*
X134271919Y-94361500D01*
X134271919Y-94811500D01*
X134279275Y-94886189D01*
X134286953Y-94911500D01*
X134279275Y-94936811D01*
X134271919Y-95011500D01*
X134271919Y-95315000D01*
X133969836Y-95315000D01*
X133941762Y-95312235D01*
X133913688Y-95315000D01*
X133829728Y-95323269D01*
X133722000Y-95355948D01*
X133622717Y-95409016D01*
X133535695Y-95480433D01*
X133517796Y-95502243D01*
X132783645Y-96236395D01*
X132752250Y-96205000D01*
X131953000Y-96205000D01*
X131953000Y-96954250D01*
X132009395Y-97010645D01*
X131824883Y-97195157D01*
X131376000Y-97195157D01*
X131301311Y-97202513D01*
X131229492Y-97224299D01*
X131163304Y-97259678D01*
X131105289Y-97307289D01*
X131057678Y-97365304D01*
X131022299Y-97431492D01*
X131000513Y-97503311D01*
X130993157Y-97578000D01*
X130993157Y-97687620D01*
X128346228Y-100334550D01*
X128132318Y-100292000D01*
X127899682Y-100292000D01*
X127671515Y-100337386D01*
X127456587Y-100426412D01*
X127263157Y-100555658D01*
X127098658Y-100720157D01*
X126969412Y-100913587D01*
X126880386Y-101128515D01*
X126835000Y-101356682D01*
X126835000Y-101589318D01*
X126880386Y-101817485D01*
X126969412Y-102032413D01*
X127098658Y-102225843D01*
X127263157Y-102390342D01*
X127456587Y-102519588D01*
X127671515Y-102608614D01*
X127899682Y-102654000D01*
X128132318Y-102654000D01*
X128360485Y-102608614D01*
X128575413Y-102519588D01*
X128768843Y-102390342D01*
X128933342Y-102225843D01*
X129062588Y-102032413D01*
X129151614Y-101817485D01*
X129197000Y-101589318D01*
X129197000Y-101356682D01*
X129154450Y-101142772D01*
X131524899Y-98772324D01*
X131620762Y-98781765D01*
X131732795Y-98770731D01*
X131765391Y-98760843D01*
X132189242Y-98760843D01*
X132189243Y-102373796D01*
X130838050Y-103724990D01*
X129784542Y-103724990D01*
X129813000Y-103581922D01*
X129813000Y-103428078D01*
X129782987Y-103277191D01*
X129724113Y-103135058D01*
X129638642Y-103007141D01*
X129529859Y-102898358D01*
X129401942Y-102812887D01*
X129259809Y-102754013D01*
X129108922Y-102724000D01*
X128955078Y-102724000D01*
X128804191Y-102754013D01*
X128662058Y-102812887D01*
X128534141Y-102898358D01*
X128498999Y-102933500D01*
X120967500Y-102933500D01*
X120967500Y-102511512D01*
X121148843Y-102390342D01*
X121313342Y-102225843D01*
X121442588Y-102032413D01*
X121531614Y-101817485D01*
X121577000Y-101589318D01*
X121577000Y-101356682D01*
X121534450Y-101142773D01*
X122558264Y-100118960D01*
X122580067Y-100101067D01*
X122651484Y-100014045D01*
X122704552Y-99914762D01*
X122737231Y-99807034D01*
X122745500Y-99723074D01*
X122745500Y-99723073D01*
X122748265Y-99695000D01*
X122745500Y-99666926D01*
X122745500Y-97691074D01*
X122748265Y-97663000D01*
X122737231Y-97550966D01*
X122704552Y-97443238D01*
X122651484Y-97343955D01*
X122629694Y-97317404D01*
X122580067Y-97256933D01*
X122558257Y-97239034D01*
X121581970Y-96262748D01*
X121564067Y-96240933D01*
X121477045Y-96169516D01*
X121377762Y-96116448D01*
X121270034Y-96083769D01*
X121186074Y-96075500D01*
X121158000Y-96072735D01*
X121129926Y-96075500D01*
X121096225Y-96075500D01*
X121148843Y-96040342D01*
X121313342Y-95875843D01*
X121442588Y-95682413D01*
X121531614Y-95467485D01*
X121577000Y-95239318D01*
X121577000Y-95006682D01*
X121531614Y-94778515D01*
X121442588Y-94563587D01*
X121313342Y-94370157D01*
X121148843Y-94205658D01*
X120955413Y-94076412D01*
X120740485Y-93987386D01*
X120512318Y-93942000D01*
X120279682Y-93942000D01*
X120065772Y-93984550D01*
X119570500Y-93489278D01*
X119570500Y-92792685D01*
X119643157Y-92865342D01*
X119836587Y-92994588D01*
X120051515Y-93083614D01*
X120279682Y-93129000D01*
X120512318Y-93129000D01*
X120740485Y-93083614D01*
X120955413Y-92994588D01*
X121148843Y-92865342D01*
X121313342Y-92700843D01*
X121442588Y-92507413D01*
X121531614Y-92292485D01*
X121577000Y-92064318D01*
X121577000Y-91831682D01*
X121531614Y-91603515D01*
X121442588Y-91388587D01*
X121313342Y-91195157D01*
X121148843Y-91030658D01*
X120967500Y-90909488D01*
X120967500Y-90452074D01*
X120970265Y-90424000D01*
X120959231Y-90311966D01*
X120926552Y-90204238D01*
X120873484Y-90104955D01*
X120846243Y-90071762D01*
X120802067Y-90017933D01*
X120780257Y-90000034D01*
X118653889Y-87873667D01*
X118658693Y-87862069D01*
X118706000Y-87624243D01*
X118706000Y-87381757D01*
X118658693Y-87143931D01*
X118565898Y-86919903D01*
X118515381Y-86844298D01*
X161111903Y-86844298D01*
X161925000Y-87657395D01*
X162691097Y-86891298D01*
X165556903Y-86891298D01*
X166370000Y-87704395D01*
X167183097Y-86891298D01*
X167111514Y-86647329D01*
X166856004Y-86526429D01*
X166581816Y-86457700D01*
X166299488Y-86443783D01*
X166019870Y-86485213D01*
X165753708Y-86580397D01*
X165628486Y-86647329D01*
X165556903Y-86891298D01*
X162691097Y-86891298D01*
X162738097Y-86844298D01*
X162666514Y-86600329D01*
X162411004Y-86479429D01*
X162136816Y-86410700D01*
X161854488Y-86396783D01*
X161574870Y-86438213D01*
X161308708Y-86533397D01*
X161183486Y-86600329D01*
X161111903Y-86844298D01*
X118515381Y-86844298D01*
X118431180Y-86718283D01*
X118259717Y-86546820D01*
X118058097Y-86412102D01*
X117834069Y-86319307D01*
X117596243Y-86272000D01*
X117353757Y-86272000D01*
X117115931Y-86319307D01*
X116891903Y-86412102D01*
X116690283Y-86546820D01*
X116518820Y-86718283D01*
X116384102Y-86919903D01*
X116291307Y-87143931D01*
X116244000Y-87381757D01*
X116244000Y-87624243D01*
X116291307Y-87862069D01*
X116384102Y-88086097D01*
X116518820Y-88287717D01*
X116690283Y-88459180D01*
X116891903Y-88593898D01*
X117115931Y-88686693D01*
X117353757Y-88734000D01*
X117596243Y-88734000D01*
X117834069Y-88686693D01*
X117845667Y-88681889D01*
X118232234Y-89068457D01*
X118058097Y-88952102D01*
X117834069Y-88859307D01*
X117596243Y-88812000D01*
X117353757Y-88812000D01*
X117115931Y-88859307D01*
X116891903Y-88952102D01*
X116690283Y-89086820D01*
X116518820Y-89258283D01*
X116384102Y-89459903D01*
X116291307Y-89683931D01*
X116244000Y-89921757D01*
X116244000Y-90164243D01*
X116291307Y-90402069D01*
X116384102Y-90626097D01*
X116518820Y-90827717D01*
X116690283Y-90999180D01*
X116891903Y-91133898D01*
X117006168Y-91181228D01*
X116843748Y-91238843D01*
X116593645Y-91387822D01*
X116377412Y-91582731D01*
X116203359Y-91816080D01*
X116078175Y-92078901D01*
X116078000Y-92079478D01*
X116078000Y-85496000D01*
X195707000Y-85496000D01*
X195707000Y-109220163D01*
G36*
X147289412Y-99111413D02*
G01*
X147418658Y-99304843D01*
X147583157Y-99469342D01*
X147776587Y-99598588D01*
X147944329Y-99668069D01*
X147719708Y-99748397D01*
X147594486Y-99815329D01*
X147522903Y-100059298D01*
X148336000Y-100872395D01*
X149149097Y-100059298D01*
X149077514Y-99815329D01*
X148822004Y-99694429D01*
X148723589Y-99669760D01*
X148895413Y-99598588D01*
X149088843Y-99469342D01*
X149117185Y-99441000D01*
X150729815Y-99441000D01*
X150758157Y-99469342D01*
X150951587Y-99598588D01*
X151119329Y-99668069D01*
X150894708Y-99748397D01*
X150769486Y-99815329D01*
X150697903Y-100059298D01*
X151511000Y-100872395D01*
X152324097Y-100059298D01*
X152252514Y-99815329D01*
X151997004Y-99694429D01*
X151898589Y-99669760D01*
X152070413Y-99598588D01*
X152263843Y-99469342D01*
X152292185Y-99441000D01*
X153431265Y-99441000D01*
X153457289Y-99472711D01*
X153515304Y-99520322D01*
X153581492Y-99555701D01*
X153653311Y-99577487D01*
X153728000Y-99584843D01*
X154428657Y-99584843D01*
X154428657Y-102502000D01*
X154436013Y-102576689D01*
X154457799Y-102648508D01*
X154493178Y-102714696D01*
X154540789Y-102772711D01*
X154598804Y-102820322D01*
X154664992Y-102855701D01*
X154736811Y-102877487D01*
X154789001Y-102882627D01*
X154789001Y-103915249D01*
X154733386Y-104049515D01*
X154688000Y-104277682D01*
X154688000Y-104510318D01*
X154733386Y-104738485D01*
X154822412Y-104953413D01*
X154951658Y-105146843D01*
X154980001Y-105175186D01*
X154980000Y-106381434D01*
X154935691Y-106158677D01*
X154831588Y-105907351D01*
X154680455Y-105681164D01*
X154488098Y-105488807D01*
X154261911Y-105337674D01*
X154010585Y-105233571D01*
X153743779Y-105180500D01*
X153471745Y-105180500D01*
X153204939Y-105233571D01*
X152953613Y-105337674D01*
X152727426Y-105488807D01*
X152535069Y-105681164D01*
X152383936Y-105907351D01*
X152337762Y-106018825D01*
X152291588Y-105907351D01*
X152140455Y-105681164D01*
X151948098Y-105488807D01*
X151721911Y-105337674D01*
X151470585Y-105233571D01*
X151203779Y-105180500D01*
X150931745Y-105180500D01*
X150664939Y-105233571D01*
X150413613Y-105337674D01*
X150187426Y-105488807D01*
X149995069Y-105681164D01*
X149843936Y-105907351D01*
X149797762Y-106018825D01*
X149751588Y-105907351D01*
X149600455Y-105681164D01*
X149408098Y-105488807D01*
X149181911Y-105337674D01*
X148930585Y-105233571D01*
X148663779Y-105180500D01*
X148391745Y-105180500D01*
X148124939Y-105233571D01*
X147873613Y-105337674D01*
X147647426Y-105488807D01*
X147455069Y-105681164D01*
X147303936Y-105907351D01*
X147257762Y-106018825D01*
X147211588Y-105907351D01*
X147060455Y-105681164D01*
X146868098Y-105488807D01*
X146641911Y-105337674D01*
X146390585Y-105233571D01*
X146123779Y-105180500D01*
X145851745Y-105180500D01*
X145584939Y-105233571D01*
X145333613Y-105337674D01*
X145107426Y-105488807D01*
X144915069Y-105681164D01*
X144763936Y-105907351D01*
X144717762Y-106018825D01*
X144671588Y-105907351D01*
X144520455Y-105681164D01*
X144328098Y-105488807D01*
X144192234Y-105398026D01*
X144310571Y-105374487D01*
X144452704Y-105315613D01*
X144580621Y-105230142D01*
X144689404Y-105121359D01*
X144774875Y-104993442D01*
X144833749Y-104851309D01*
X144863762Y-104700422D01*
X144863762Y-104546578D01*
X144833749Y-104395691D01*
X144774875Y-104253558D01*
X144689404Y-104125641D01*
X144654262Y-104090499D01*
X144654262Y-102044702D01*
X147522903Y-102044702D01*
X147594486Y-102288671D01*
X147849996Y-102409571D01*
X148124184Y-102478300D01*
X148406512Y-102492217D01*
X148686130Y-102450787D01*
X148952292Y-102355603D01*
X149077514Y-102288671D01*
X149149097Y-102044702D01*
X150697903Y-102044702D01*
X150769486Y-102288671D01*
X151024996Y-102409571D01*
X151299184Y-102478300D01*
X151581512Y-102492217D01*
X151861130Y-102450787D01*
X152127292Y-102355603D01*
X152252514Y-102288671D01*
X152324097Y-102044702D01*
X151511000Y-101231605D01*
X150697903Y-102044702D01*
X149149097Y-102044702D01*
X148336000Y-101231605D01*
X147522903Y-102044702D01*
X144654262Y-102044702D01*
X144654262Y-101122512D01*
X146895783Y-101122512D01*
X146937213Y-101402130D01*
X147032397Y-101668292D01*
X147099329Y-101793514D01*
X147343298Y-101865097D01*
X148156395Y-101052000D01*
X148515605Y-101052000D01*
X149328702Y-101865097D01*
X149572671Y-101793514D01*
X149693571Y-101538004D01*
X149762300Y-101263816D01*
X149769265Y-101122512D01*
X150070783Y-101122512D01*
X150112213Y-101402130D01*
X150207397Y-101668292D01*
X150274329Y-101793514D01*
X150518298Y-101865097D01*
X151331395Y-101052000D01*
X151690605Y-101052000D01*
X152503702Y-101865097D01*
X152747671Y-101793514D01*
X152868571Y-101538004D01*
X152937300Y-101263816D01*
X152951217Y-100981488D01*
X152909787Y-100701870D01*
X152814603Y-100435708D01*
X152747671Y-100310486D01*
X152503702Y-100238903D01*
X151690605Y-101052000D01*
X151331395Y-101052000D01*
X150518298Y-100238903D01*
X150274329Y-100310486D01*
X150153429Y-100565996D01*
X150084700Y-100840184D01*
X150070783Y-101122512D01*
X149769265Y-101122512D01*
X149776217Y-100981488D01*
X149734787Y-100701870D01*
X149639603Y-100435708D01*
X149572671Y-100310486D01*
X149328702Y-100238903D01*
X148515605Y-101052000D01*
X148156395Y-101052000D01*
X147343298Y-100238903D01*
X147099329Y-100310486D01*
X146978429Y-100565996D01*
X146909700Y-100840184D01*
X146895783Y-101122512D01*
X144654262Y-101122512D01*
X144654262Y-99911574D01*
X144657027Y-99883500D01*
X144647474Y-99786500D01*
X144645993Y-99771466D01*
X144613314Y-99663738D01*
X144560246Y-99564455D01*
X144488829Y-99477433D01*
X144467019Y-99459534D01*
X144409731Y-99402247D01*
X144391829Y-99380433D01*
X144304807Y-99309016D01*
X144205524Y-99255948D01*
X144097796Y-99223269D01*
X144013836Y-99215000D01*
X143985762Y-99212235D01*
X143957688Y-99215000D01*
X143764742Y-99215000D01*
X143751270Y-99207799D01*
X143679451Y-99186013D01*
X143604762Y-99178657D01*
X142582762Y-99178657D01*
X142582762Y-99094343D01*
X143604762Y-99094343D01*
X143679451Y-99086987D01*
X143751270Y-99065201D01*
X143764742Y-99058000D01*
X147267288Y-99058000D01*
X147289412Y-99111413D01*
G37*
X147289412Y-99111413D02*
X147418658Y-99304843D01*
X147583157Y-99469342D01*
X147776587Y-99598588D01*
X147944329Y-99668069D01*
X147719708Y-99748397D01*
X147594486Y-99815329D01*
X147522903Y-100059298D01*
X148336000Y-100872395D01*
X149149097Y-100059298D01*
X149077514Y-99815329D01*
X148822004Y-99694429D01*
X148723589Y-99669760D01*
X148895413Y-99598588D01*
X149088843Y-99469342D01*
X149117185Y-99441000D01*
X150729815Y-99441000D01*
X150758157Y-99469342D01*
X150951587Y-99598588D01*
X151119329Y-99668069D01*
X150894708Y-99748397D01*
X150769486Y-99815329D01*
X150697903Y-100059298D01*
X151511000Y-100872395D01*
X152324097Y-100059298D01*
X152252514Y-99815329D01*
X151997004Y-99694429D01*
X151898589Y-99669760D01*
X152070413Y-99598588D01*
X152263843Y-99469342D01*
X152292185Y-99441000D01*
X153431265Y-99441000D01*
X153457289Y-99472711D01*
X153515304Y-99520322D01*
X153581492Y-99555701D01*
X153653311Y-99577487D01*
X153728000Y-99584843D01*
X154428657Y-99584843D01*
X154428657Y-102502000D01*
X154436013Y-102576689D01*
X154457799Y-102648508D01*
X154493178Y-102714696D01*
X154540789Y-102772711D01*
X154598804Y-102820322D01*
X154664992Y-102855701D01*
X154736811Y-102877487D01*
X154789001Y-102882627D01*
X154789001Y-103915249D01*
X154733386Y-104049515D01*
X154688000Y-104277682D01*
X154688000Y-104510318D01*
X154733386Y-104738485D01*
X154822412Y-104953413D01*
X154951658Y-105146843D01*
X154980001Y-105175186D01*
X154980000Y-106381434D01*
X154935691Y-106158677D01*
X154831588Y-105907351D01*
X154680455Y-105681164D01*
X154488098Y-105488807D01*
X154261911Y-105337674D01*
X154010585Y-105233571D01*
X153743779Y-105180500D01*
X153471745Y-105180500D01*
X153204939Y-105233571D01*
X152953613Y-105337674D01*
X152727426Y-105488807D01*
X152535069Y-105681164D01*
X152383936Y-105907351D01*
X152337762Y-106018825D01*
X152291588Y-105907351D01*
X152140455Y-105681164D01*
X151948098Y-105488807D01*
X151721911Y-105337674D01*
X151470585Y-105233571D01*
X151203779Y-105180500D01*
X150931745Y-105180500D01*
X150664939Y-105233571D01*
X150413613Y-105337674D01*
X150187426Y-105488807D01*
X149995069Y-105681164D01*
X149843936Y-105907351D01*
X149797762Y-106018825D01*
X149751588Y-105907351D01*
X149600455Y-105681164D01*
X149408098Y-105488807D01*
X149181911Y-105337674D01*
X148930585Y-105233571D01*
X148663779Y-105180500D01*
X148391745Y-105180500D01*
X148124939Y-105233571D01*
X147873613Y-105337674D01*
X147647426Y-105488807D01*
X147455069Y-105681164D01*
X147303936Y-105907351D01*
X147257762Y-106018825D01*
X147211588Y-105907351D01*
X147060455Y-105681164D01*
X146868098Y-105488807D01*
X146641911Y-105337674D01*
X146390585Y-105233571D01*
X146123779Y-105180500D01*
X145851745Y-105180500D01*
X145584939Y-105233571D01*
X145333613Y-105337674D01*
X145107426Y-105488807D01*
X144915069Y-105681164D01*
X144763936Y-105907351D01*
X144717762Y-106018825D01*
X144671588Y-105907351D01*
X144520455Y-105681164D01*
X144328098Y-105488807D01*
X144192234Y-105398026D01*
X144310571Y-105374487D01*
X144452704Y-105315613D01*
X144580621Y-105230142D01*
X144689404Y-105121359D01*
X144774875Y-104993442D01*
X144833749Y-104851309D01*
X144863762Y-104700422D01*
X144863762Y-104546578D01*
X144833749Y-104395691D01*
X144774875Y-104253558D01*
X144689404Y-104125641D01*
X144654262Y-104090499D01*
X144654262Y-102044702D01*
X147522903Y-102044702D01*
X147594486Y-102288671D01*
X147849996Y-102409571D01*
X148124184Y-102478300D01*
X148406512Y-102492217D01*
X148686130Y-102450787D01*
X148952292Y-102355603D01*
X149077514Y-102288671D01*
X149149097Y-102044702D01*
X150697903Y-102044702D01*
X150769486Y-102288671D01*
X151024996Y-102409571D01*
X151299184Y-102478300D01*
X151581512Y-102492217D01*
X151861130Y-102450787D01*
X152127292Y-102355603D01*
X152252514Y-102288671D01*
X152324097Y-102044702D01*
X151511000Y-101231605D01*
X150697903Y-102044702D01*
X149149097Y-102044702D01*
X148336000Y-101231605D01*
X147522903Y-102044702D01*
X144654262Y-102044702D01*
X144654262Y-101122512D01*
X146895783Y-101122512D01*
X146937213Y-101402130D01*
X147032397Y-101668292D01*
X147099329Y-101793514D01*
X147343298Y-101865097D01*
X148156395Y-101052000D01*
X148515605Y-101052000D01*
X149328702Y-101865097D01*
X149572671Y-101793514D01*
X149693571Y-101538004D01*
X149762300Y-101263816D01*
X149769265Y-101122512D01*
X150070783Y-101122512D01*
X150112213Y-101402130D01*
X150207397Y-101668292D01*
X150274329Y-101793514D01*
X150518298Y-101865097D01*
X151331395Y-101052000D01*
X151690605Y-101052000D01*
X152503702Y-101865097D01*
X152747671Y-101793514D01*
X152868571Y-101538004D01*
X152937300Y-101263816D01*
X152951217Y-100981488D01*
X152909787Y-100701870D01*
X152814603Y-100435708D01*
X152747671Y-100310486D01*
X152503702Y-100238903D01*
X151690605Y-101052000D01*
X151331395Y-101052000D01*
X150518298Y-100238903D01*
X150274329Y-100310486D01*
X150153429Y-100565996D01*
X150084700Y-100840184D01*
X150070783Y-101122512D01*
X149769265Y-101122512D01*
X149776217Y-100981488D01*
X149734787Y-100701870D01*
X149639603Y-100435708D01*
X149572671Y-100310486D01*
X149328702Y-100238903D01*
X148515605Y-101052000D01*
X148156395Y-101052000D01*
X147343298Y-100238903D01*
X147099329Y-100310486D01*
X146978429Y-100565996D01*
X146909700Y-100840184D01*
X146895783Y-101122512D01*
X144654262Y-101122512D01*
X144654262Y-99911574D01*
X144657027Y-99883500D01*
X144647474Y-99786500D01*
X144645993Y-99771466D01*
X144613314Y-99663738D01*
X144560246Y-99564455D01*
X144488829Y-99477433D01*
X144467019Y-99459534D01*
X144409731Y-99402247D01*
X144391829Y-99380433D01*
X144304807Y-99309016D01*
X144205524Y-99255948D01*
X144097796Y-99223269D01*
X144013836Y-99215000D01*
X143985762Y-99212235D01*
X143957688Y-99215000D01*
X143764742Y-99215000D01*
X143751270Y-99207799D01*
X143679451Y-99186013D01*
X143604762Y-99178657D01*
X142582762Y-99178657D01*
X142582762Y-99094343D01*
X143604762Y-99094343D01*
X143679451Y-99086987D01*
X143751270Y-99065201D01*
X143764742Y-99058000D01*
X147267288Y-99058000D01*
X147289412Y-99111413D01*
G36*
X138510742Y-100483895D02*
G01*
X138507976Y-100511979D01*
X138519010Y-100624012D01*
X138551689Y-100731740D01*
X138602777Y-100827318D01*
X138604758Y-100831024D01*
X138676175Y-100918046D01*
X138697985Y-100935945D01*
X139882796Y-102120757D01*
X139900695Y-102142567D01*
X139987717Y-102213984D01*
X140087000Y-102267052D01*
X140194728Y-102299731D01*
X140278688Y-102308000D01*
X140278689Y-102308000D01*
X140306761Y-102310765D01*
X140334833Y-102308000D01*
X141694782Y-102308000D01*
X141708254Y-102315201D01*
X141780073Y-102336987D01*
X141854762Y-102344343D01*
X143511262Y-102344343D01*
X143511263Y-104090498D01*
X143476120Y-104125641D01*
X143390649Y-104253558D01*
X143331775Y-104395691D01*
X143301762Y-104546578D01*
X143301762Y-104700422D01*
X143331775Y-104851309D01*
X143390649Y-104993442D01*
X143476120Y-105121359D01*
X143535261Y-105180500D01*
X143311745Y-105180500D01*
X143044939Y-105233571D01*
X142793613Y-105337674D01*
X142567426Y-105488807D01*
X142375069Y-105681164D01*
X142223936Y-105907351D01*
X142177762Y-106018825D01*
X142131588Y-105907351D01*
X141980455Y-105681164D01*
X141788098Y-105488807D01*
X141561911Y-105337674D01*
X141310585Y-105233571D01*
X141043779Y-105180500D01*
X140771745Y-105180500D01*
X140504939Y-105233571D01*
X140422290Y-105267805D01*
X137996272Y-102841788D01*
X137996272Y-100931912D01*
X137999037Y-100903838D01*
X137988003Y-100791804D01*
X137955324Y-100684076D01*
X137902256Y-100584793D01*
X137848735Y-100519577D01*
X137848733Y-100519575D01*
X137830839Y-100497771D01*
X137809035Y-100479877D01*
X137687157Y-100358000D01*
X137842688Y-100358000D01*
X137870762Y-100360765D01*
X137898836Y-100358000D01*
X137982796Y-100349731D01*
X138090524Y-100317052D01*
X138189807Y-100263984D01*
X138276829Y-100192567D01*
X138294732Y-100170752D01*
X138510742Y-99954743D01*
X138510742Y-100483895D01*
G37*
X138510742Y-100483895D02*
X138507976Y-100511979D01*
X138519010Y-100624012D01*
X138551689Y-100731740D01*
X138602777Y-100827318D01*
X138604758Y-100831024D01*
X138676175Y-100918046D01*
X138697985Y-100935945D01*
X139882796Y-102120757D01*
X139900695Y-102142567D01*
X139987717Y-102213984D01*
X140087000Y-102267052D01*
X140194728Y-102299731D01*
X140278688Y-102308000D01*
X140278689Y-102308000D01*
X140306761Y-102310765D01*
X140334833Y-102308000D01*
X141694782Y-102308000D01*
X141708254Y-102315201D01*
X141780073Y-102336987D01*
X141854762Y-102344343D01*
X143511262Y-102344343D01*
X143511263Y-104090498D01*
X143476120Y-104125641D01*
X143390649Y-104253558D01*
X143331775Y-104395691D01*
X143301762Y-104546578D01*
X143301762Y-104700422D01*
X143331775Y-104851309D01*
X143390649Y-104993442D01*
X143476120Y-105121359D01*
X143535261Y-105180500D01*
X143311745Y-105180500D01*
X143044939Y-105233571D01*
X142793613Y-105337674D01*
X142567426Y-105488807D01*
X142375069Y-105681164D01*
X142223936Y-105907351D01*
X142177762Y-106018825D01*
X142131588Y-105907351D01*
X141980455Y-105681164D01*
X141788098Y-105488807D01*
X141561911Y-105337674D01*
X141310585Y-105233571D01*
X141043779Y-105180500D01*
X140771745Y-105180500D01*
X140504939Y-105233571D01*
X140422290Y-105267805D01*
X137996272Y-102841788D01*
X137996272Y-100931912D01*
X137999037Y-100903838D01*
X137988003Y-100791804D01*
X137955324Y-100684076D01*
X137902256Y-100584793D01*
X137848735Y-100519577D01*
X137848733Y-100519575D01*
X137830839Y-100497771D01*
X137809035Y-100479877D01*
X137687157Y-100358000D01*
X137842688Y-100358000D01*
X137870762Y-100360765D01*
X137898836Y-100358000D01*
X137982796Y-100349731D01*
X138090524Y-100317052D01*
X138189807Y-100263984D01*
X138276829Y-100192567D01*
X138294732Y-100170752D01*
X138510742Y-99954743D01*
X138510742Y-100483895D01*
G36*
X134508254Y-102315201D02*
G01*
X134580073Y-102336987D01*
X134654762Y-102344343D01*
X135329383Y-102344343D01*
X135691253Y-102706214D01*
X135691252Y-104546525D01*
X135443505Y-104794273D01*
X135421696Y-104812171D01*
X135368082Y-104877500D01*
X135350278Y-104899194D01*
X135297210Y-104998477D01*
X135264531Y-105106205D01*
X135253497Y-105218238D01*
X135256263Y-105246322D01*
X135256263Y-105303439D01*
X135173613Y-105337674D01*
X134947426Y-105488807D01*
X134755069Y-105681164D01*
X134603936Y-105907351D01*
X134557762Y-106018825D01*
X134511588Y-105907351D01*
X134360455Y-105681164D01*
X134168098Y-105488807D01*
X133941911Y-105337674D01*
X133690585Y-105233571D01*
X133423779Y-105180500D01*
X133151745Y-105180500D01*
X132884939Y-105233571D01*
X132883188Y-105234296D01*
X134307019Y-103810466D01*
X134328829Y-103792567D01*
X134400246Y-103705545D01*
X134453314Y-103606262D01*
X134485993Y-103498534D01*
X134492932Y-103428078D01*
X134497027Y-103386501D01*
X134494262Y-103358427D01*
X134494262Y-102307722D01*
X134508254Y-102315201D01*
G37*
X134508254Y-102315201D02*
X134580073Y-102336987D01*
X134654762Y-102344343D01*
X135329383Y-102344343D01*
X135691253Y-102706214D01*
X135691252Y-104546525D01*
X135443505Y-104794273D01*
X135421696Y-104812171D01*
X135368082Y-104877500D01*
X135350278Y-104899194D01*
X135297210Y-104998477D01*
X135264531Y-105106205D01*
X135253497Y-105218238D01*
X135256263Y-105246322D01*
X135256263Y-105303439D01*
X135173613Y-105337674D01*
X134947426Y-105488807D01*
X134755069Y-105681164D01*
X134603936Y-105907351D01*
X134557762Y-106018825D01*
X134511588Y-105907351D01*
X134360455Y-105681164D01*
X134168098Y-105488807D01*
X133941911Y-105337674D01*
X133690585Y-105233571D01*
X133423779Y-105180500D01*
X133151745Y-105180500D01*
X132884939Y-105233571D01*
X132883188Y-105234296D01*
X134307019Y-103810466D01*
X134328829Y-103792567D01*
X134400246Y-103705545D01*
X134453314Y-103606262D01*
X134485993Y-103498534D01*
X134492932Y-103428078D01*
X134497027Y-103386501D01*
X134494262Y-103358427D01*
X134494262Y-102307722D01*
X134508254Y-102315201D01*
G36*
X138547801Y-96571280D02*
G01*
X137983510Y-97135572D01*
X137961695Y-97153475D01*
X137903572Y-97224299D01*
X137890278Y-97240498D01*
X137837210Y-97339781D01*
X137804531Y-97447509D01*
X137793497Y-97559542D01*
X137796262Y-97587617D01*
X137796263Y-99052776D01*
X137634040Y-99215000D01*
X136787605Y-99215000D01*
X136787605Y-98911500D01*
X136780249Y-98836811D01*
X136772571Y-98811500D01*
X136780249Y-98786189D01*
X136787605Y-98711500D01*
X136787605Y-98568403D01*
X136849901Y-98518651D01*
X136930534Y-98423024D01*
X136990961Y-98313505D01*
X137028861Y-98194301D01*
X137039762Y-98093250D01*
X136881012Y-97934500D01*
X136601223Y-97934500D01*
X136551270Y-97907799D01*
X136479451Y-97886013D01*
X136404762Y-97878657D01*
X135382762Y-97878657D01*
X135382762Y-97794343D01*
X136404762Y-97794343D01*
X136479451Y-97786987D01*
X136551270Y-97765201D01*
X136601223Y-97738500D01*
X136881012Y-97738500D01*
X137039762Y-97579750D01*
X137028861Y-97478699D01*
X136990961Y-97359495D01*
X136930534Y-97249976D01*
X136849901Y-97154349D01*
X136787605Y-97104597D01*
X136787605Y-97092209D01*
X136870537Y-97067052D01*
X136969820Y-97013984D01*
X137056842Y-96942567D01*
X137074745Y-96920752D01*
X138547800Y-95447697D01*
X138547801Y-96571280D01*
G37*
X138547801Y-96571280D02*
X137983510Y-97135572D01*
X137961695Y-97153475D01*
X137903572Y-97224299D01*
X137890278Y-97240498D01*
X137837210Y-97339781D01*
X137804531Y-97447509D01*
X137793497Y-97559542D01*
X137796262Y-97587617D01*
X137796263Y-99052776D01*
X137634040Y-99215000D01*
X136787605Y-99215000D01*
X136787605Y-98911500D01*
X136780249Y-98836811D01*
X136772571Y-98811500D01*
X136780249Y-98786189D01*
X136787605Y-98711500D01*
X136787605Y-98568403D01*
X136849901Y-98518651D01*
X136930534Y-98423024D01*
X136990961Y-98313505D01*
X137028861Y-98194301D01*
X137039762Y-98093250D01*
X136881012Y-97934500D01*
X136601223Y-97934500D01*
X136551270Y-97907799D01*
X136479451Y-97886013D01*
X136404762Y-97878657D01*
X135382762Y-97878657D01*
X135382762Y-97794343D01*
X136404762Y-97794343D01*
X136479451Y-97786987D01*
X136551270Y-97765201D01*
X136601223Y-97738500D01*
X136881012Y-97738500D01*
X137039762Y-97579750D01*
X137028861Y-97478699D01*
X136990961Y-97359495D01*
X136930534Y-97249976D01*
X136849901Y-97154349D01*
X136787605Y-97104597D01*
X136787605Y-97092209D01*
X136870537Y-97067052D01*
X136969820Y-97013984D01*
X137056842Y-96942567D01*
X137074745Y-96920752D01*
X138547800Y-95447697D01*
X138547801Y-96571280D01*
G36*
X131205658Y-91979291D02*
G01*
X131223553Y-92001096D01*
X131245357Y-92018990D01*
X131245359Y-92018992D01*
X131310575Y-92072514D01*
X131409858Y-92125582D01*
X131517586Y-92158261D01*
X131629619Y-92169295D01*
X131657703Y-92166529D01*
X135389571Y-92166531D01*
X135901696Y-92678657D01*
X135652043Y-92678657D01*
X135573295Y-92654769D01*
X135461262Y-92643735D01*
X135349229Y-92654769D01*
X135270481Y-92678657D01*
X134654762Y-92678657D01*
X134580073Y-92686013D01*
X134508254Y-92707799D01*
X134494782Y-92715000D01*
X131912571Y-92715000D01*
X131884499Y-92712235D01*
X131856427Y-92715000D01*
X131856426Y-92715000D01*
X131772466Y-92723269D01*
X131664738Y-92755948D01*
X131565455Y-92809016D01*
X131478433Y-92880433D01*
X131460536Y-92902241D01*
X129197000Y-95165778D01*
X129197000Y-95006682D01*
X129154450Y-94792772D01*
X130305257Y-93641966D01*
X130327067Y-93624067D01*
X130398484Y-93537045D01*
X130451552Y-93437762D01*
X130484231Y-93330034D01*
X130490636Y-93264999D01*
X130495265Y-93218000D01*
X130492500Y-93189926D01*
X130492500Y-92354001D01*
X130527642Y-92318859D01*
X130613113Y-92190942D01*
X130671987Y-92048809D01*
X130702000Y-91897922D01*
X130702000Y-91744078D01*
X130671987Y-91593191D01*
X130613113Y-91451058D01*
X130527642Y-91323141D01*
X130418859Y-91214358D01*
X130290942Y-91128887D01*
X130148809Y-91070013D01*
X129997922Y-91040000D01*
X129844078Y-91040000D01*
X129693191Y-91070013D01*
X129551058Y-91128887D01*
X129423141Y-91214358D01*
X129314358Y-91323141D01*
X129228887Y-91451058D01*
X129170013Y-91593191D01*
X129159787Y-91644602D01*
X129151614Y-91603515D01*
X129062588Y-91388587D01*
X128933342Y-91195157D01*
X128768843Y-91030658D01*
X128729711Y-91004511D01*
X130230879Y-91004511D01*
X131205658Y-91979291D01*
G37*
X131205658Y-91979291D02*
X131223553Y-92001096D01*
X131245357Y-92018990D01*
X131245359Y-92018992D01*
X131310575Y-92072514D01*
X131409858Y-92125582D01*
X131517586Y-92158261D01*
X131629619Y-92169295D01*
X131657703Y-92166529D01*
X135389571Y-92166531D01*
X135901696Y-92678657D01*
X135652043Y-92678657D01*
X135573295Y-92654769D01*
X135461262Y-92643735D01*
X135349229Y-92654769D01*
X135270481Y-92678657D01*
X134654762Y-92678657D01*
X134580073Y-92686013D01*
X134508254Y-92707799D01*
X134494782Y-92715000D01*
X131912571Y-92715000D01*
X131884499Y-92712235D01*
X131856427Y-92715000D01*
X131856426Y-92715000D01*
X131772466Y-92723269D01*
X131664738Y-92755948D01*
X131565455Y-92809016D01*
X131478433Y-92880433D01*
X131460536Y-92902241D01*
X129197000Y-95165778D01*
X129197000Y-95006682D01*
X129154450Y-94792772D01*
X130305257Y-93641966D01*
X130327067Y-93624067D01*
X130398484Y-93537045D01*
X130451552Y-93437762D01*
X130484231Y-93330034D01*
X130490636Y-93264999D01*
X130495265Y-93218000D01*
X130492500Y-93189926D01*
X130492500Y-92354001D01*
X130527642Y-92318859D01*
X130613113Y-92190942D01*
X130671987Y-92048809D01*
X130702000Y-91897922D01*
X130702000Y-91744078D01*
X130671987Y-91593191D01*
X130613113Y-91451058D01*
X130527642Y-91323141D01*
X130418859Y-91214358D01*
X130290942Y-91128887D01*
X130148809Y-91070013D01*
X129997922Y-91040000D01*
X129844078Y-91040000D01*
X129693191Y-91070013D01*
X129551058Y-91128887D01*
X129423141Y-91214358D01*
X129314358Y-91323141D01*
X129228887Y-91451058D01*
X129170013Y-91593191D01*
X129159787Y-91644602D01*
X129151614Y-91603515D01*
X129062588Y-91388587D01*
X128933342Y-91195157D01*
X128768843Y-91030658D01*
X128729711Y-91004511D01*
X130230879Y-91004511D01*
X131205658Y-91979291D01*
G36*
X117602000Y-92456000D02*
G01*
X117622000Y-92456000D01*
X117622000Y-92710000D01*
X117602000Y-92710000D01*
X117602000Y-92730000D01*
X117348000Y-92730000D01*
X117348000Y-92710000D01*
X117328000Y-92710000D01*
X117328000Y-92456000D01*
X117348000Y-92456000D01*
X117348000Y-92436000D01*
X117602000Y-92436000D01*
X117602000Y-92456000D01*
G37*
X117602000Y-92456000D02*
X117622000Y-92456000D01*
X117622000Y-92710000D01*
X117602000Y-92710000D01*
X117602000Y-92730000D01*
X117348000Y-92730000D01*
X117348000Y-92710000D01*
X117328000Y-92710000D01*
X117328000Y-92456000D01*
X117348000Y-92456000D01*
X117348000Y-92436000D01*
X117602000Y-92436000D01*
X117602000Y-92456000D01*
G36*
X194945000Y-102489000D02*
G01*
X186815410Y-102489000D01*
X186840812Y-95067873D01*
X186838437Y-95042987D01*
X186831272Y-95019144D01*
X186819594Y-94997157D01*
X186803850Y-94977871D01*
X186784646Y-94962026D01*
X186762721Y-94950233D01*
X186738915Y-94942943D01*
X186714145Y-94940438D01*
X185801000Y-94938050D01*
X185801000Y-92583000D01*
X194945000Y-92583000D01*
X194945000Y-102489000D01*
G37*
X194945000Y-102489000D02*
X186815410Y-102489000D01*
X186840812Y-95067873D01*
X186838437Y-95042987D01*
X186831272Y-95019144D01*
X186819594Y-94997157D01*
X186803850Y-94977871D01*
X186784646Y-94962026D01*
X186762721Y-94950233D01*
X186738915Y-94942943D01*
X186714145Y-94940438D01*
X185801000Y-94938050D01*
X185801000Y-92583000D01*
X194945000Y-92583000D01*
X194945000Y-102489000D01*
G36*
X185425552Y-94937068D02*
G01*
X178435000Y-94918783D01*
X178435000Y-94075250D01*
X178432356Y-94049470D01*
X178424937Y-94025705D01*
X178413024Y-94003843D01*
X178397075Y-93984726D01*
X178377704Y-93969088D01*
X178355653Y-93957529D01*
X178331771Y-93950495D01*
X178306976Y-93948254D01*
X175338524Y-93972193D01*
X175354011Y-92392500D01*
X185450499Y-92392500D01*
X185425552Y-94937068D01*
G37*
X185425552Y-94937068D02*
X178435000Y-94918783D01*
X178435000Y-94075250D01*
X178432356Y-94049470D01*
X178424937Y-94025705D01*
X178413024Y-94003843D01*
X178397075Y-93984726D01*
X178377704Y-93969088D01*
X178355653Y-93957529D01*
X178331771Y-93950495D01*
X178306976Y-93948254D01*
X175338524Y-93972193D01*
X175354011Y-92392500D01*
X185450499Y-92392500D01*
X185425552Y-94937068D01*
%TD*%
M02*
