%TF.GenerationSoftware,KiCad,Pcbnew,(5.1.6-0-10_14)*%
%TF.CreationDate,2021-03-20T12:43:37-06:00*%
%TF.ProjectId,rf_dummy_50ohm_20W,72665f64-756d-46d7-995f-35306f686d5f,rev?*%
%TF.SameCoordinates,Original*%
%TF.FileFunction,Legend,Bot*%
%TF.FilePolarity,Positive*%
%FSLAX46Y46*%
G04 Gerber Fmt 4.6, Leading zero omitted, Abs format (unit mm)*
G04 Created by KiCad (PCBNEW (5.1.6-0-10_14)) date 2021-03-20 12:43:37*
%MOMM*%
%LPD*%
G01*
G04 APERTURE LIST*
%ADD10C,0.120000*%
%ADD11C,0.100000*%
%ADD12C,0.150000*%
%ADD13C,0.075000*%
%ADD14C,0.130000*%
%ADD15C,0.175000*%
%ADD16C,0.400000*%
%ADD17O,1.700000X1.700000*%
%ADD18C,1.700000*%
%ADD19O,1.600000X1.600000*%
%ADD20R,1.600000X1.600000*%
%ADD21C,2.100000*%
%ADD22C,3.100000*%
%ADD23O,1.800000X1.800000*%
%ADD24R,1.800000X1.800000*%
G04 APERTURE END LIST*
D10*
X178816000Y-92265500D02*
X178879500Y-92265500D01*
D11*
G36*
X188849000Y-88900000D02*
G01*
X188404500Y-88519000D01*
X189293500Y-88519000D01*
X188849000Y-88900000D01*
G37*
X188849000Y-88900000D02*
X188404500Y-88519000D01*
X189293500Y-88519000D01*
X188849000Y-88900000D01*
D12*
X191132761Y-88369000D02*
X190751809Y-88369000D01*
X190989904Y-88135666D02*
X190989904Y-88735666D01*
X190942285Y-88802333D01*
X190847047Y-88835666D01*
X190751809Y-88835666D01*
D13*
X190550738Y-88890452D02*
X190550738Y-88490452D01*
X190417404Y-88776166D01*
X190284071Y-88490452D01*
X190284071Y-88890452D01*
X190112642Y-88776166D02*
X189922166Y-88776166D01*
X190150738Y-88890452D02*
X190017404Y-88490452D01*
X189884071Y-88890452D01*
X189788833Y-88490452D02*
X189522166Y-88890452D01*
X189522166Y-88490452D02*
X189788833Y-88890452D01*
D14*
X188917333Y-92104333D02*
X188822095Y-92137666D01*
X188631619Y-92137666D01*
X188536380Y-92104333D01*
X188488761Y-92037666D01*
X188488761Y-92004333D01*
X188536380Y-91937666D01*
X188631619Y-91904333D01*
X188774476Y-91904333D01*
X188869714Y-91871000D01*
X188917333Y-91804333D01*
X188917333Y-91771000D01*
X188869714Y-91704333D01*
X188774476Y-91671000D01*
X188631619Y-91671000D01*
X188536380Y-91704333D01*
X187679238Y-92104333D02*
X187774476Y-92137666D01*
X187964952Y-92137666D01*
X188060190Y-92104333D01*
X188107809Y-92037666D01*
X188107809Y-91771000D01*
X188060190Y-91704333D01*
X187964952Y-91671000D01*
X187774476Y-91671000D01*
X187679238Y-91704333D01*
X187631619Y-91771000D01*
X187631619Y-91837666D01*
X188107809Y-91904333D01*
X186774476Y-92104333D02*
X186869714Y-92137666D01*
X187060190Y-92137666D01*
X187155428Y-92104333D01*
X187203047Y-92071000D01*
X187250666Y-92004333D01*
X187250666Y-91804333D01*
X187203047Y-91737666D01*
X187155428Y-91704333D01*
X187060190Y-91671000D01*
X186869714Y-91671000D01*
X186774476Y-91704333D01*
X188917333Y-91024833D02*
X188822095Y-91058166D01*
X188631619Y-91058166D01*
X188536380Y-91024833D01*
X188488761Y-90958166D01*
X188488761Y-90924833D01*
X188536380Y-90858166D01*
X188631619Y-90824833D01*
X188774476Y-90824833D01*
X188869714Y-90791500D01*
X188917333Y-90724833D01*
X188917333Y-90691500D01*
X188869714Y-90624833D01*
X188774476Y-90591500D01*
X188631619Y-90591500D01*
X188536380Y-90624833D01*
X187679238Y-91024833D02*
X187774476Y-91058166D01*
X187964952Y-91058166D01*
X188060190Y-91024833D01*
X188107809Y-90958166D01*
X188107809Y-90691500D01*
X188060190Y-90624833D01*
X187964952Y-90591500D01*
X187774476Y-90591500D01*
X187679238Y-90624833D01*
X187631619Y-90691500D01*
X187631619Y-90758166D01*
X188107809Y-90824833D01*
X186774476Y-91024833D02*
X186869714Y-91058166D01*
X187060190Y-91058166D01*
X187155428Y-91024833D01*
X187203047Y-90991500D01*
X187250666Y-90924833D01*
X187250666Y-90724833D01*
X187203047Y-90658166D01*
X187155428Y-90624833D01*
X187060190Y-90591500D01*
X186869714Y-90591500D01*
X186774476Y-90624833D01*
X188853833Y-90008833D02*
X188758595Y-90042166D01*
X188568119Y-90042166D01*
X188472880Y-90008833D01*
X188425261Y-89942166D01*
X188425261Y-89908833D01*
X188472880Y-89842166D01*
X188568119Y-89808833D01*
X188710976Y-89808833D01*
X188806214Y-89775500D01*
X188853833Y-89708833D01*
X188853833Y-89675500D01*
X188806214Y-89608833D01*
X188710976Y-89575500D01*
X188568119Y-89575500D01*
X188472880Y-89608833D01*
X187615738Y-90008833D02*
X187710976Y-90042166D01*
X187901452Y-90042166D01*
X187996690Y-90008833D01*
X188044309Y-89942166D01*
X188044309Y-89675500D01*
X187996690Y-89608833D01*
X187901452Y-89575500D01*
X187710976Y-89575500D01*
X187615738Y-89608833D01*
X187568119Y-89675500D01*
X187568119Y-89742166D01*
X188044309Y-89808833D01*
X186710976Y-90008833D02*
X186806214Y-90042166D01*
X186996690Y-90042166D01*
X187091928Y-90008833D01*
X187139547Y-89975500D01*
X187187166Y-89908833D01*
X187187166Y-89708833D01*
X187139547Y-89642166D01*
X187091928Y-89608833D01*
X186996690Y-89575500D01*
X186806214Y-89575500D01*
X186710976Y-89608833D01*
D11*
G36*
X193167000Y-88900000D02*
G01*
X192722500Y-88519000D01*
X193611500Y-88519000D01*
X193167000Y-88900000D01*
G37*
X193167000Y-88900000D02*
X192722500Y-88519000D01*
X193611500Y-88519000D01*
X193167000Y-88900000D01*
D14*
X190632095Y-91437666D02*
X191108285Y-91437666D01*
X191155904Y-91771000D01*
X191108285Y-91737666D01*
X191013047Y-91704333D01*
X190774952Y-91704333D01*
X190679714Y-91737666D01*
X190632095Y-91771000D01*
X190584476Y-91837666D01*
X190584476Y-92004333D01*
X190632095Y-92071000D01*
X190679714Y-92104333D01*
X190774952Y-92137666D01*
X191013047Y-92137666D01*
X191108285Y-92104333D01*
X191155904Y-92071000D01*
X190647857Y-91121666D02*
X191219285Y-91121666D01*
X190933571Y-91121666D02*
X190933571Y-90421666D01*
X191028809Y-90521666D01*
X191124047Y-90588333D01*
X191219285Y-90621666D01*
X189695476Y-91121666D02*
X190266904Y-91121666D01*
X189981190Y-91121666D02*
X189981190Y-90421666D01*
X190076428Y-90521666D01*
X190171666Y-90588333D01*
X190266904Y-90621666D01*
X191155785Y-89472333D02*
X191108166Y-89439000D01*
X191012928Y-89405666D01*
X190774833Y-89405666D01*
X190679595Y-89439000D01*
X190631976Y-89472333D01*
X190584357Y-89539000D01*
X190584357Y-89605666D01*
X190631976Y-89705666D01*
X191203404Y-90105666D01*
X190584357Y-90105666D01*
X189727214Y-89639000D02*
X189727214Y-90105666D01*
X189965309Y-89372333D02*
X190203404Y-89872333D01*
X189584357Y-89872333D01*
D15*
X195135333Y-91504333D02*
X195087714Y-91471000D01*
X194992476Y-91437666D01*
X194754380Y-91437666D01*
X194659142Y-91471000D01*
X194611523Y-91504333D01*
X194563904Y-91571000D01*
X194563904Y-91637666D01*
X194611523Y-91737666D01*
X195182952Y-92137666D01*
X194563904Y-92137666D01*
X193944857Y-91437666D02*
X193849619Y-91437666D01*
X193754380Y-91471000D01*
X193706761Y-91504333D01*
X193659142Y-91571000D01*
X193611523Y-91704333D01*
X193611523Y-91871000D01*
X193659142Y-92004333D01*
X193706761Y-92071000D01*
X193754380Y-92104333D01*
X193849619Y-92137666D01*
X193944857Y-92137666D01*
X194040095Y-92104333D01*
X194087714Y-92071000D01*
X194135333Y-92004333D01*
X194182952Y-91871000D01*
X194182952Y-91704333D01*
X194135333Y-91571000D01*
X194087714Y-91504333D01*
X194040095Y-91471000D01*
X193944857Y-91437666D01*
X193278190Y-91437666D02*
X193040095Y-92137666D01*
X192849619Y-91637666D01*
X192659142Y-92137666D01*
X192421047Y-91437666D01*
D12*
X194990404Y-88835666D02*
X194990404Y-88135666D01*
X194609452Y-88135666D01*
X194514214Y-88169000D01*
X194466595Y-88202333D01*
X194418976Y-88269000D01*
X194418976Y-88369000D01*
X194466595Y-88435666D01*
X194514214Y-88469000D01*
X194609452Y-88502333D01*
X194990404Y-88502333D01*
D13*
X194265523Y-88890452D02*
X194265523Y-88490452D01*
X194075047Y-88890452D02*
X194075047Y-88490452D01*
X193846476Y-88890452D01*
X193846476Y-88490452D01*
D15*
X194500404Y-91121666D02*
X195071833Y-91121666D01*
X194786119Y-91121666D02*
X194786119Y-90421666D01*
X194881357Y-90521666D01*
X194976595Y-90588333D01*
X195071833Y-90621666D01*
X193595642Y-90421666D02*
X194071833Y-90421666D01*
X194119452Y-90755000D01*
X194071833Y-90721666D01*
X193976595Y-90688333D01*
X193738500Y-90688333D01*
X193643261Y-90721666D01*
X193595642Y-90755000D01*
X193548023Y-90821666D01*
X193548023Y-90988333D01*
X193595642Y-91055000D01*
X193643261Y-91088333D01*
X193738500Y-91121666D01*
X193976595Y-91121666D01*
X194071833Y-91088333D01*
X194119452Y-91055000D01*
X193214690Y-90421666D02*
X192976595Y-91121666D01*
X192786119Y-90621666D01*
X192595642Y-91121666D01*
X192357547Y-90421666D01*
X194500404Y-90105666D02*
X195071833Y-90105666D01*
X194786119Y-90105666D02*
X194786119Y-89405666D01*
X194881357Y-89505666D01*
X194976595Y-89572333D01*
X195071833Y-89605666D01*
X193881357Y-89405666D02*
X193786119Y-89405666D01*
X193690880Y-89439000D01*
X193643261Y-89472333D01*
X193595642Y-89539000D01*
X193548023Y-89672333D01*
X193548023Y-89839000D01*
X193595642Y-89972333D01*
X193643261Y-90039000D01*
X193690880Y-90072333D01*
X193786119Y-90105666D01*
X193881357Y-90105666D01*
X193976595Y-90072333D01*
X194024214Y-90039000D01*
X194071833Y-89972333D01*
X194119452Y-89839000D01*
X194119452Y-89672333D01*
X194071833Y-89539000D01*
X194024214Y-89472333D01*
X193976595Y-89439000D01*
X193881357Y-89405666D01*
X193214690Y-89405666D02*
X192976595Y-90105666D01*
X192786119Y-89605666D01*
X192595642Y-90105666D01*
X192357547Y-89405666D01*
D10*
X195580000Y-87757000D02*
X181229000Y-87757000D01*
D11*
G36*
X193738500Y-105791000D02*
G01*
X193294000Y-105410000D01*
X194183000Y-105410000D01*
X193738500Y-105791000D01*
G37*
X193738500Y-105791000D02*
X193294000Y-105410000D01*
X194183000Y-105410000D01*
X193738500Y-105791000D01*
G36*
X190627000Y-105854500D02*
G01*
X190246000Y-105410000D01*
X190627000Y-104965500D01*
X190627000Y-105854500D01*
G37*
X190627000Y-105854500D02*
X190246000Y-105410000D01*
X190627000Y-104965500D01*
X190627000Y-105854500D01*
D12*
X195387261Y-105260000D02*
X195006309Y-105260000D01*
X195244404Y-105726666D02*
X195244404Y-105126666D01*
X195196785Y-105060000D01*
X195101547Y-105026666D01*
X195006309Y-105026666D01*
D13*
X194837023Y-105781452D02*
X194837023Y-105381452D01*
X194646547Y-105781452D02*
X194646547Y-105381452D01*
X194417976Y-105781452D01*
X194417976Y-105381452D01*
X191281023Y-105781452D02*
X191281023Y-105381452D01*
X191090547Y-105781452D02*
X191090547Y-105381452D01*
X190861976Y-105781452D01*
X190861976Y-105381452D01*
D12*
X192005904Y-105726666D02*
X192005904Y-105026666D01*
X191624952Y-105026666D01*
X191529714Y-105060000D01*
X191482095Y-105093333D01*
X191434476Y-105160000D01*
X191434476Y-105260000D01*
X191482095Y-105326666D01*
X191529714Y-105360000D01*
X191624952Y-105393333D01*
X192005904Y-105393333D01*
D10*
X195580000Y-104521000D02*
X181229000Y-104521000D01*
D14*
X184075404Y-108330166D02*
X184646833Y-108330166D01*
X184361119Y-108330166D02*
X184361119Y-107630166D01*
X184456357Y-107730166D01*
X184551595Y-107796833D01*
X184646833Y-107830166D01*
X183646833Y-108263500D02*
X183599214Y-108296833D01*
X183646833Y-108330166D01*
X183694452Y-108296833D01*
X183646833Y-108263500D01*
X183646833Y-108330166D01*
X182980166Y-107630166D02*
X182884928Y-107630166D01*
X182789690Y-107663500D01*
X182742071Y-107696833D01*
X182694452Y-107763500D01*
X182646833Y-107896833D01*
X182646833Y-108063500D01*
X182694452Y-108196833D01*
X182742071Y-108263500D01*
X182789690Y-108296833D01*
X182884928Y-108330166D01*
X182980166Y-108330166D01*
X183075404Y-108296833D01*
X183123023Y-108263500D01*
X183170642Y-108196833D01*
X183218261Y-108063500D01*
X183218261Y-107896833D01*
X183170642Y-107763500D01*
X183123023Y-107696833D01*
X183075404Y-107663500D01*
X182980166Y-107630166D01*
X182313500Y-107630166D02*
X182075404Y-108330166D01*
X181884928Y-107830166D01*
X181694452Y-108330166D01*
X181456357Y-107630166D01*
X188917238Y-107630166D02*
X188822000Y-107630166D01*
X188726761Y-107663500D01*
X188679142Y-107696833D01*
X188631523Y-107763500D01*
X188583904Y-107896833D01*
X188583904Y-108063500D01*
X188631523Y-108196833D01*
X188679142Y-108263500D01*
X188726761Y-108296833D01*
X188822000Y-108330166D01*
X188917238Y-108330166D01*
X189012476Y-108296833D01*
X189060095Y-108263500D01*
X189107714Y-108196833D01*
X189155333Y-108063500D01*
X189155333Y-107896833D01*
X189107714Y-107763500D01*
X189060095Y-107696833D01*
X189012476Y-107663500D01*
X188917238Y-107630166D01*
X188155333Y-108263500D02*
X188107714Y-108296833D01*
X188155333Y-108330166D01*
X188202952Y-108296833D01*
X188155333Y-108263500D01*
X188155333Y-108330166D01*
X187726761Y-107696833D02*
X187679142Y-107663500D01*
X187583904Y-107630166D01*
X187345809Y-107630166D01*
X187250571Y-107663500D01*
X187202952Y-107696833D01*
X187155333Y-107763500D01*
X187155333Y-107830166D01*
X187202952Y-107930166D01*
X187774380Y-108330166D01*
X187155333Y-108330166D01*
X186822000Y-107630166D02*
X186583904Y-108330166D01*
X186393428Y-107830166D01*
X186202952Y-108330166D01*
X185964857Y-107630166D01*
X184408738Y-106487166D02*
X184313500Y-106487166D01*
X184218261Y-106520500D01*
X184170642Y-106553833D01*
X184123023Y-106620500D01*
X184075404Y-106753833D01*
X184075404Y-106920500D01*
X184123023Y-107053833D01*
X184170642Y-107120500D01*
X184218261Y-107153833D01*
X184313500Y-107187166D01*
X184408738Y-107187166D01*
X184503976Y-107153833D01*
X184551595Y-107120500D01*
X184599214Y-107053833D01*
X184646833Y-106920500D01*
X184646833Y-106753833D01*
X184599214Y-106620500D01*
X184551595Y-106553833D01*
X184503976Y-106520500D01*
X184408738Y-106487166D01*
X183646833Y-107120500D02*
X183599214Y-107153833D01*
X183646833Y-107187166D01*
X183694452Y-107153833D01*
X183646833Y-107120500D01*
X183646833Y-107187166D01*
X183265880Y-106487166D02*
X182599214Y-106487166D01*
X183027785Y-107187166D01*
X182313500Y-106487166D02*
X182075404Y-107187166D01*
X181884928Y-106687166D01*
X181694452Y-107187166D01*
X181456357Y-106487166D01*
X188917238Y-106487166D02*
X188822000Y-106487166D01*
X188726761Y-106520500D01*
X188679142Y-106553833D01*
X188631523Y-106620500D01*
X188583904Y-106753833D01*
X188583904Y-106920500D01*
X188631523Y-107053833D01*
X188679142Y-107120500D01*
X188726761Y-107153833D01*
X188822000Y-107187166D01*
X188917238Y-107187166D01*
X189012476Y-107153833D01*
X189060095Y-107120500D01*
X189107714Y-107053833D01*
X189155333Y-106920500D01*
X189155333Y-106753833D01*
X189107714Y-106620500D01*
X189060095Y-106553833D01*
X189012476Y-106520500D01*
X188917238Y-106487166D01*
X188155333Y-107120500D02*
X188107714Y-107153833D01*
X188155333Y-107187166D01*
X188202952Y-107153833D01*
X188155333Y-107120500D01*
X188155333Y-107187166D01*
X187155333Y-107187166D02*
X187726761Y-107187166D01*
X187441047Y-107187166D02*
X187441047Y-106487166D01*
X187536285Y-106587166D01*
X187631523Y-106653833D01*
X187726761Y-106687166D01*
X186822000Y-106487166D02*
X186583904Y-107187166D01*
X186393428Y-106687166D01*
X186202952Y-107187166D01*
X185964857Y-106487166D01*
D15*
X184276833Y-105093333D02*
X184229214Y-105060000D01*
X184133976Y-105026666D01*
X183895880Y-105026666D01*
X183800642Y-105060000D01*
X183753023Y-105093333D01*
X183705404Y-105160000D01*
X183705404Y-105226666D01*
X183753023Y-105326666D01*
X184324452Y-105726666D01*
X183705404Y-105726666D01*
X183086357Y-105026666D02*
X182991119Y-105026666D01*
X182895880Y-105060000D01*
X182848261Y-105093333D01*
X182800642Y-105160000D01*
X182753023Y-105293333D01*
X182753023Y-105460000D01*
X182800642Y-105593333D01*
X182848261Y-105660000D01*
X182895880Y-105693333D01*
X182991119Y-105726666D01*
X183086357Y-105726666D01*
X183181595Y-105693333D01*
X183229214Y-105660000D01*
X183276833Y-105593333D01*
X183324452Y-105460000D01*
X183324452Y-105293333D01*
X183276833Y-105160000D01*
X183229214Y-105093333D01*
X183181595Y-105060000D01*
X183086357Y-105026666D01*
X182419690Y-105026666D02*
X182181595Y-105726666D01*
X181991119Y-105226666D01*
X181800642Y-105726666D01*
X181562547Y-105026666D01*
X188579000Y-105726666D02*
X189150428Y-105726666D01*
X188864714Y-105726666D02*
X188864714Y-105026666D01*
X188959952Y-105126666D01*
X189055190Y-105193333D01*
X189150428Y-105226666D01*
X188150428Y-105660000D02*
X188102809Y-105693333D01*
X188150428Y-105726666D01*
X188198047Y-105693333D01*
X188150428Y-105660000D01*
X188150428Y-105726666D01*
X187483761Y-105026666D02*
X187388523Y-105026666D01*
X187293285Y-105060000D01*
X187245666Y-105093333D01*
X187198047Y-105160000D01*
X187150428Y-105293333D01*
X187150428Y-105460000D01*
X187198047Y-105593333D01*
X187245666Y-105660000D01*
X187293285Y-105693333D01*
X187388523Y-105726666D01*
X187483761Y-105726666D01*
X187579000Y-105693333D01*
X187626619Y-105660000D01*
X187674238Y-105593333D01*
X187721857Y-105460000D01*
X187721857Y-105293333D01*
X187674238Y-105160000D01*
X187626619Y-105093333D01*
X187579000Y-105060000D01*
X187483761Y-105026666D01*
X186817095Y-105026666D02*
X186579000Y-105726666D01*
X186388523Y-105226666D01*
X186198047Y-105726666D01*
X185959952Y-105026666D01*
X194793976Y-107082666D02*
X195365404Y-107082666D01*
X195079690Y-107082666D02*
X195079690Y-106382666D01*
X195174928Y-106482666D01*
X195270166Y-106549333D01*
X195365404Y-106582666D01*
X194174928Y-106382666D02*
X194079690Y-106382666D01*
X193984452Y-106416000D01*
X193936833Y-106449333D01*
X193889214Y-106516000D01*
X193841595Y-106649333D01*
X193841595Y-106816000D01*
X193889214Y-106949333D01*
X193936833Y-107016000D01*
X193984452Y-107049333D01*
X194079690Y-107082666D01*
X194174928Y-107082666D01*
X194270166Y-107049333D01*
X194317785Y-107016000D01*
X194365404Y-106949333D01*
X194413023Y-106816000D01*
X194413023Y-106649333D01*
X194365404Y-106516000D01*
X194317785Y-106449333D01*
X194270166Y-106416000D01*
X194174928Y-106382666D01*
X193413023Y-107082666D02*
X193413023Y-106382666D01*
X193079690Y-106882666D01*
X192746357Y-106382666D01*
X192746357Y-107082666D01*
X192270166Y-107082666D02*
X192270166Y-106382666D01*
X192270166Y-106716000D02*
X191698738Y-106716000D01*
X191698738Y-107082666D02*
X191698738Y-106382666D01*
X191317785Y-106616000D02*
X190793976Y-106616000D01*
X191317785Y-107082666D01*
X190793976Y-107082666D01*
X194841595Y-107607666D02*
X195317785Y-107607666D01*
X195365404Y-107941000D01*
X195317785Y-107907666D01*
X195222547Y-107874333D01*
X194984452Y-107874333D01*
X194889214Y-107907666D01*
X194841595Y-107941000D01*
X194793976Y-108007666D01*
X194793976Y-108174333D01*
X194841595Y-108241000D01*
X194889214Y-108274333D01*
X194984452Y-108307666D01*
X195222547Y-108307666D01*
X195317785Y-108274333D01*
X195365404Y-108241000D01*
X194174928Y-107607666D02*
X194079690Y-107607666D01*
X193984452Y-107641000D01*
X193936833Y-107674333D01*
X193889214Y-107741000D01*
X193841595Y-107874333D01*
X193841595Y-108041000D01*
X193889214Y-108174333D01*
X193936833Y-108241000D01*
X193984452Y-108274333D01*
X194079690Y-108307666D01*
X194174928Y-108307666D01*
X194270166Y-108274333D01*
X194317785Y-108241000D01*
X194365404Y-108174333D01*
X194413023Y-108041000D01*
X194413023Y-107874333D01*
X194365404Y-107741000D01*
X194317785Y-107674333D01*
X194270166Y-107641000D01*
X194174928Y-107607666D01*
X193413023Y-108307666D02*
X193413023Y-107607666D01*
X193079690Y-108107666D01*
X192746357Y-107607666D01*
X192746357Y-108307666D01*
X192270166Y-108307666D02*
X192270166Y-107607666D01*
X192270166Y-107941000D02*
X191698738Y-107941000D01*
X191698738Y-108307666D02*
X191698738Y-107607666D01*
X191317785Y-107841000D02*
X190793976Y-107841000D01*
X191317785Y-108307666D01*
X190793976Y-108307666D01*
D12*
X195406309Y-103211380D02*
X194949166Y-103211380D01*
X195177738Y-104211380D02*
X195177738Y-103211380D01*
X194530119Y-103735190D02*
X194530119Y-104211380D01*
X194796785Y-103211380D02*
X194530119Y-103735190D01*
X194263452Y-103211380D01*
X193996785Y-104211380D02*
X193996785Y-103211380D01*
X193692023Y-103211380D01*
X193615833Y-103259000D01*
X193577738Y-103306619D01*
X193539642Y-103401857D01*
X193539642Y-103544714D01*
X193577738Y-103639952D01*
X193615833Y-103687571D01*
X193692023Y-103735190D01*
X193996785Y-103735190D01*
X193196785Y-104211380D02*
X193196785Y-103211380D01*
X192358690Y-104116142D02*
X192396785Y-104163761D01*
X192511071Y-104211380D01*
X192587261Y-104211380D01*
X192701547Y-104163761D01*
X192777738Y-104068523D01*
X192815833Y-103973285D01*
X192853928Y-103782809D01*
X192853928Y-103639952D01*
X192815833Y-103449476D01*
X192777738Y-103354238D01*
X192701547Y-103259000D01*
X192587261Y-103211380D01*
X192511071Y-103211380D01*
X192396785Y-103259000D01*
X192358690Y-103306619D01*
X192053928Y-103925666D02*
X191672976Y-103925666D01*
X192130119Y-104211380D02*
X191863452Y-103211380D01*
X191596785Y-104211380D01*
X190949166Y-104211380D02*
X191330119Y-104211380D01*
X191330119Y-103211380D01*
X190072976Y-103687571D02*
X189806309Y-103687571D01*
X189692023Y-104211380D02*
X190072976Y-104211380D01*
X190072976Y-103211380D01*
X189692023Y-103211380D01*
X188892023Y-104211380D02*
X189158690Y-103735190D01*
X189349166Y-104211380D02*
X189349166Y-103211380D01*
X189044404Y-103211380D01*
X188968214Y-103259000D01*
X188930119Y-103306619D01*
X188892023Y-103401857D01*
X188892023Y-103544714D01*
X188930119Y-103639952D01*
X188968214Y-103687571D01*
X189044404Y-103735190D01*
X189349166Y-103735190D01*
X188092023Y-104211380D02*
X188358690Y-103735190D01*
X188549166Y-104211380D02*
X188549166Y-103211380D01*
X188244404Y-103211380D01*
X188168214Y-103259000D01*
X188130119Y-103306619D01*
X188092023Y-103401857D01*
X188092023Y-103544714D01*
X188130119Y-103639952D01*
X188168214Y-103687571D01*
X188244404Y-103735190D01*
X188549166Y-103735190D01*
X187596785Y-103211380D02*
X187444404Y-103211380D01*
X187368214Y-103259000D01*
X187292023Y-103354238D01*
X187253928Y-103544714D01*
X187253928Y-103878047D01*
X187292023Y-104068523D01*
X187368214Y-104163761D01*
X187444404Y-104211380D01*
X187596785Y-104211380D01*
X187672976Y-104163761D01*
X187749166Y-104068523D01*
X187787261Y-103878047D01*
X187787261Y-103544714D01*
X187749166Y-103354238D01*
X187672976Y-103259000D01*
X187596785Y-103211380D01*
X186453928Y-104211380D02*
X186720595Y-103735190D01*
X186911071Y-104211380D02*
X186911071Y-103211380D01*
X186606309Y-103211380D01*
X186530119Y-103259000D01*
X186492023Y-103306619D01*
X186453928Y-103401857D01*
X186453928Y-103544714D01*
X186492023Y-103639952D01*
X186530119Y-103687571D01*
X186606309Y-103735190D01*
X186911071Y-103735190D01*
X195266619Y-87399761D02*
X195152333Y-87447380D01*
X194961857Y-87447380D01*
X194885666Y-87399761D01*
X194847571Y-87352142D01*
X194809476Y-87256904D01*
X194809476Y-87161666D01*
X194847571Y-87066428D01*
X194885666Y-87018809D01*
X194961857Y-86971190D01*
X195114238Y-86923571D01*
X195190428Y-86875952D01*
X195228523Y-86828333D01*
X195266619Y-86733095D01*
X195266619Y-86637857D01*
X195228523Y-86542619D01*
X195190428Y-86495000D01*
X195114238Y-86447380D01*
X194923761Y-86447380D01*
X194809476Y-86495000D01*
X194504714Y-87161666D02*
X194123761Y-87161666D01*
X194580904Y-87447380D02*
X194314238Y-86447380D01*
X194047571Y-87447380D01*
X193514238Y-86923571D02*
X193780904Y-86923571D01*
X193780904Y-87447380D02*
X193780904Y-86447380D01*
X193399952Y-86447380D01*
X193095190Y-86923571D02*
X192828523Y-86923571D01*
X192714238Y-87447380D02*
X193095190Y-87447380D01*
X193095190Y-86447380D01*
X192714238Y-86447380D01*
X191609476Y-86447380D02*
X191457095Y-86447380D01*
X191380904Y-86495000D01*
X191304714Y-86590238D01*
X191266619Y-86780714D01*
X191266619Y-87114047D01*
X191304714Y-87304523D01*
X191380904Y-87399761D01*
X191457095Y-87447380D01*
X191609476Y-87447380D01*
X191685666Y-87399761D01*
X191761857Y-87304523D01*
X191799952Y-87114047D01*
X191799952Y-86780714D01*
X191761857Y-86590238D01*
X191685666Y-86495000D01*
X191609476Y-86447380D01*
X190923761Y-87447380D02*
X190923761Y-86447380D01*
X190619000Y-86447380D01*
X190542809Y-86495000D01*
X190504714Y-86542619D01*
X190466619Y-86637857D01*
X190466619Y-86780714D01*
X190504714Y-86875952D01*
X190542809Y-86923571D01*
X190619000Y-86971190D01*
X190923761Y-86971190D01*
X190123761Y-86923571D02*
X189857095Y-86923571D01*
X189742809Y-87447380D02*
X190123761Y-87447380D01*
X190123761Y-86447380D01*
X189742809Y-86447380D01*
X188942809Y-87447380D02*
X189209476Y-86971190D01*
X189399952Y-87447380D02*
X189399952Y-86447380D01*
X189095190Y-86447380D01*
X189019000Y-86495000D01*
X188980904Y-86542619D01*
X188942809Y-86637857D01*
X188942809Y-86780714D01*
X188980904Y-86875952D01*
X189019000Y-86923571D01*
X189095190Y-86971190D01*
X189399952Y-86971190D01*
X188638047Y-87161666D02*
X188257095Y-87161666D01*
X188714238Y-87447380D02*
X188447571Y-86447380D01*
X188180904Y-87447380D01*
X188028523Y-86447380D02*
X187571380Y-86447380D01*
X187799952Y-87447380D02*
X187799952Y-86447380D01*
X187304714Y-87447380D02*
X187304714Y-86447380D01*
X186923761Y-87447380D02*
X186923761Y-86447380D01*
X186466619Y-87447380D01*
X186466619Y-86447380D01*
X185666619Y-86495000D02*
X185742809Y-86447380D01*
X185857095Y-86447380D01*
X185971380Y-86495000D01*
X186047571Y-86590238D01*
X186085666Y-86685476D01*
X186123761Y-86875952D01*
X186123761Y-87018809D01*
X186085666Y-87209285D01*
X186047571Y-87304523D01*
X185971380Y-87399761D01*
X185857095Y-87447380D01*
X185780904Y-87447380D01*
X185666619Y-87399761D01*
X185628523Y-87352142D01*
X185628523Y-87018809D01*
X185780904Y-87018809D01*
X184790428Y-86447380D02*
X184333285Y-86447380D01*
X184561857Y-87447380D02*
X184561857Y-86447380D01*
X184066619Y-87447380D02*
X184066619Y-86447380D01*
X183685666Y-87447380D02*
X183685666Y-86447380D01*
X183419000Y-87161666D01*
X183152333Y-86447380D01*
X183152333Y-87447380D01*
X182771380Y-86923571D02*
X182504714Y-86923571D01*
X182390428Y-87447380D02*
X182771380Y-87447380D01*
X182771380Y-86447380D01*
X182390428Y-86447380D01*
D16*
X123788000Y-103094857D02*
X123288000Y-106394857D01*
X122888000Y-104037714D01*
X122488000Y-106394857D01*
X121988000Y-103094857D01*
X120288000Y-106394857D02*
X120288000Y-104666285D01*
X120388000Y-104352000D01*
X120588000Y-104194857D01*
X120988000Y-104194857D01*
X121188000Y-104352000D01*
X120288000Y-106237714D02*
X120488000Y-106394857D01*
X120988000Y-106394857D01*
X121188000Y-106237714D01*
X121288000Y-105923428D01*
X121288000Y-105609142D01*
X121188000Y-105294857D01*
X120988000Y-105137714D01*
X120488000Y-105137714D01*
X120288000Y-104980571D01*
X119588000Y-104194857D02*
X118788000Y-104194857D01*
X119288000Y-103094857D02*
X119288000Y-105923428D01*
X119188000Y-106237714D01*
X118988000Y-106394857D01*
X118788000Y-106394857D01*
X118388000Y-104194857D02*
X117588000Y-104194857D01*
X118088000Y-103094857D02*
X118088000Y-105923428D01*
X117988000Y-106237714D01*
X117788000Y-106394857D01*
X117588000Y-106394857D01*
X116988000Y-106237714D02*
X116788000Y-106394857D01*
X116388000Y-106394857D01*
X116188000Y-106237714D01*
X116088000Y-105923428D01*
X116088000Y-105766285D01*
X116188000Y-105452000D01*
X116388000Y-105294857D01*
X116688000Y-105294857D01*
X116888000Y-105137714D01*
X116988000Y-104823428D01*
X116988000Y-104666285D01*
X116888000Y-104352000D01*
X116688000Y-104194857D01*
X116388000Y-104194857D01*
X116188000Y-104352000D01*
D10*
%TO.C,U4*%
X154623762Y-90399500D02*
X154623762Y-104623500D01*
X124651762Y-90399500D02*
X154623762Y-90399500D01*
X124651762Y-104623500D02*
X124651762Y-90399500D01*
X154623762Y-104623500D02*
X124651762Y-104623500D01*
D11*
G36*
X154623762Y-99035500D02*
G01*
X155131762Y-99035500D01*
X155131762Y-95987500D01*
X154623762Y-95987500D01*
X154623762Y-99035500D01*
G37*
X154623762Y-99035500D02*
X155131762Y-99035500D01*
X155131762Y-95987500D01*
X154623762Y-95987500D01*
X154623762Y-99035500D01*
D12*
X141985904Y-96734380D02*
X141985904Y-97543904D01*
X141938285Y-97639142D01*
X141890666Y-97686761D01*
X141795428Y-97734380D01*
X141604952Y-97734380D01*
X141509714Y-97686761D01*
X141462095Y-97639142D01*
X141414476Y-97543904D01*
X141414476Y-96734380D01*
X140509714Y-97067714D02*
X140509714Y-97734380D01*
X140747809Y-96686761D02*
X140985904Y-97401047D01*
X140366857Y-97401047D01*
%TD*%
%LPC*%
D17*
%TO.C,R10*%
X128016000Y-95123000D03*
D18*
X120396000Y-95123000D03*
%TD*%
D17*
%TO.C,R9*%
X128016000Y-91948000D03*
D18*
X120396000Y-91948000D03*
%TD*%
D17*
%TO.C,R8*%
X120396000Y-98298000D03*
D18*
X128016000Y-98298000D03*
%TD*%
D17*
%TO.C,R7*%
X117475000Y-100711000D03*
D18*
X117475000Y-108331000D03*
%TD*%
D17*
%TO.C,R6*%
X120396000Y-101473000D03*
D18*
X128016000Y-101473000D03*
%TD*%
%TO.C,C4*%
X151511000Y-101052000D03*
X151511000Y-98552000D03*
%TD*%
%TO.C,C5*%
X148336000Y-101052000D03*
X148336000Y-98552000D03*
%TD*%
D17*
%TO.C,R5*%
X161544000Y-103886000D03*
D18*
X161544000Y-96266000D03*
%TD*%
D17*
%TO.C,R4*%
X156591000Y-94361000D03*
D18*
X148971000Y-94361000D03*
%TD*%
D17*
%TO.C,R3*%
X156591000Y-91313000D03*
D18*
X148971000Y-91313000D03*
%TD*%
D19*
%TO.C,D1*%
X167259000Y-107696000D03*
D20*
X159639000Y-107696000D03*
%TD*%
D18*
%TO.C,C2*%
X158369000Y-104394000D03*
X155869000Y-104394000D03*
%TD*%
D19*
%TO.C,D3*%
X164211000Y-104013000D03*
D20*
X164211000Y-96393000D03*
%TD*%
D21*
%TO.C,U4*%
X125667762Y-88461500D03*
X128207762Y-88461500D03*
X130747762Y-88461500D03*
X133287762Y-88461500D03*
X135827762Y-88461500D03*
X138367762Y-88461500D03*
X140907762Y-88461500D03*
X143447762Y-88461500D03*
X145987762Y-88461500D03*
X148527762Y-88461500D03*
X151067762Y-88461500D03*
X153607762Y-88461500D03*
X153607762Y-106561500D03*
X151067762Y-106561500D03*
X148527762Y-106561500D03*
X145987762Y-106561500D03*
X143447762Y-106561500D03*
X140907762Y-106561500D03*
X138367762Y-106561500D03*
X135827762Y-106561500D03*
X133287762Y-106561500D03*
X130747762Y-106561500D03*
X128207762Y-106561500D03*
X125667762Y-106561500D03*
%TD*%
D22*
%TO.C,J1*%
X177628000Y-100875000D03*
X174498000Y-97745000D03*
X171368000Y-100875000D03*
X177628000Y-94615000D03*
X171368000Y-94615000D03*
%TD*%
D23*
%TO.C,J2*%
X117475000Y-87503000D03*
X117475000Y-90043000D03*
X117475000Y-92583000D03*
X117475000Y-95123000D03*
D24*
X117475000Y-97663000D03*
%TD*%
D19*
%TO.C,D2*%
X167386000Y-104013000D03*
D20*
X167386000Y-96393000D03*
%TD*%
D18*
%TO.C,C3*%
X166370000Y-87884000D03*
X166370000Y-92884000D03*
%TD*%
%TO.C,C1*%
X161925000Y-87837000D03*
X161925000Y-92837000D03*
%TD*%
M02*
